<svg width="1080" height="436" viewBox="0 0 1080 436" fill="none" xmlns="http://www.w3.org/2000/svg">
<g clip-path="url(#clip0_314_4566)">
<rect width="1080" height="436" rx="8" fill="#7B9265" fill-opacity="0.11"/>
<rect opacity="0.05" x="836.82" y="-223.47" width="665.57" height="941.397" transform="rotate(36.7911 836.82 -223.47)" fill="#1D4524"/>
<path d="M197.058 378.284H199.11L203.79 392H201.594L200.586 388.796H195.6L194.574 392H192.396L197.058 378.284ZM200.028 386.978L198.084 380.822L196.158 386.978H200.028ZM209.888 392H207.746V378.32H209.888V392ZM221.973 378.356V379.094C221.973 381.254 222.099 382.694 222.369 383.756C223.359 383.324 223.971 383.072 224.187 382.964C225.321 382.46 225.555 382.352 225.969 382.082L227.139 383.54C227.229 383.648 227.283 383.72 227.283 383.774C227.283 383.918 227.157 383.954 226.689 383.954C226.023 384.224 225.483 384.44 225.141 384.566C221.523 385.952 221.199 386.096 220.209 386.852C219.525 387.356 219.147 388.076 219.147 388.796C219.147 389.966 220.029 390.416 222.387 390.416C224.367 390.416 225.933 390.236 227.517 389.84C227.463 390.578 227.445 390.65 227.445 391.964C225.807 392.18 224.637 392.252 222.891 392.252C221.523 392.252 220.479 392.144 219.705 391.946C218.049 391.496 217.239 390.524 217.239 388.922C217.239 387.194 218.427 385.664 220.677 384.512C220.263 383.216 220.227 382.91 220.047 379.436C220.029 378.932 219.993 378.572 219.921 377.708L221.919 377.798C222.081 377.798 222.207 377.906 222.207 378.014C222.207 378.122 222.135 378.23 221.973 378.356ZM249.081 381.452L249.315 381.164L250.449 382.154C250.557 382.244 250.611 382.37 250.611 382.46C250.611 382.622 250.611 382.64 250.161 382.802C250.071 390.47 249.927 391.928 249.243 392.702C248.847 393.17 248.199 393.314 246.525 393.332C246.399 392.342 246.363 392.18 246.075 391.568C246.723 391.604 246.921 391.622 247.101 391.622C247.821 391.622 248.037 391.424 248.199 390.704C248.397 389.804 248.505 387.392 248.541 383.018H247.767C247.713 384.458 247.623 386.348 247.569 386.87C247.191 390.002 246.111 392.018 243.807 393.638C243.339 392.954 243.231 392.828 242.655 392.468C243.267 391.982 243.699 391.604 244.041 391.262C242.115 391.748 239.883 392.252 238.011 392.63C237.867 392.864 237.759 392.972 237.669 392.972C237.561 392.972 237.435 392.864 237.399 392.756L236.841 391.01C238.173 390.848 239.253 390.704 240.333 390.524V389.426H238.911C238.425 389.426 237.867 389.426 237.489 389.444V388.004C237.885 388.022 238.533 388.022 238.911 388.022H240.333V387.104H239.325V387.482H237.741C237.777 387.068 237.795 386.456 237.795 385.574V383.45C237.795 382.874 237.777 382.172 237.741 381.848C238.371 381.866 238.929 381.884 239.721 381.884H240.333V381.218H239.163C238.623 381.218 237.867 381.236 237.345 381.254V379.742C237.867 379.76 238.623 379.778 239.163 379.778H240.333V379.058C239.667 379.166 239.001 379.238 238.155 379.31C238.083 378.932 237.957 378.482 237.795 377.924C240.459 377.672 241.503 377.492 243.591 376.898L244.653 377.906C244.761 378.014 244.797 378.086 244.797 378.158C244.797 378.248 244.689 378.32 244.545 378.32C244.491 378.32 244.437 378.32 244.185 378.302C243.285 378.5 242.565 378.662 241.935 378.788V379.778H243.393C243.915 379.778 244.671 379.76 245.193 379.742V381.254C244.671 381.236 243.915 381.218 243.393 381.218H241.935V381.884H242.565C243.375 381.884 243.933 381.866 244.545 381.848C244.527 382.172 244.509 382.874 244.509 383.45V385.574C244.509 386.42 244.527 387.032 244.545 387.446H242.979V387.104H241.935V388.022H243.285C243.681 388.022 244.329 388.022 244.725 388.004V389.444C244.347 389.426 243.771 389.426 243.285 389.426H241.935V390.254C242.691 390.11 243.483 389.948 244.401 389.75L244.437 390.812C244.581 390.614 244.707 390.416 244.833 390.2C245.589 388.94 245.949 387.446 246.039 385.304C246.093 384.152 246.111 383.54 246.129 383.036C245.697 383.036 245.247 383.054 244.941 383.072V381.416C245.247 381.434 245.697 381.434 246.147 381.452V381.038C246.147 379.364 246.129 377.96 246.075 377.114L247.803 377.258C248.001 377.276 248.145 377.366 248.145 377.456C248.145 377.582 248.091 377.636 247.785 377.744V381.452H249.081ZM239.325 385.79H240.333V385.16H239.325V385.79ZM239.325 383.9H240.333V383.234H239.325V383.9ZM241.935 383.234V383.9H242.979V383.234H241.935ZM242.979 385.16H241.935V385.79H242.979V385.16ZM236.355 381.938L236.661 381.956C236.841 381.974 236.949 382.046 236.949 382.136C236.949 382.244 236.859 382.352 236.607 382.496V389.858C236.607 391.478 236.625 392.756 236.661 393.548H234.951C234.987 392.738 235.005 391.514 235.005 389.858V385.394C234.735 386.006 234.501 386.402 234.105 387.014C233.871 386.24 233.673 385.682 233.385 385.106C234.447 383.216 235.473 380.012 236.049 376.79L237.669 377.276C237.831 377.33 237.939 377.438 237.939 377.546C237.939 377.69 237.867 377.726 237.507 377.852C237.093 379.58 236.895 380.336 236.355 381.938ZM263.283 377.546L265.083 378.698C265.209 378.77 265.281 378.896 265.281 378.986C265.281 379.13 265.155 379.202 264.813 379.256C264.003 380.21 261.411 382.928 260.079 384.188C259.503 384.728 259.395 384.854 259.395 384.98C259.395 385.088 259.485 385.232 259.719 385.466C261.969 387.806 263.535 389.678 265.353 392.144L263.517 393.44C263.067 392.684 262.401 391.676 261.825 390.866C261.087 389.84 258.927 387.248 257.937 386.222C257.361 385.628 257.199 385.358 257.199 385.034C257.199 384.638 257.541 384.17 258.477 383.27C259.719 382.082 261.591 379.994 262.401 378.914C262.779 378.41 262.977 378.104 263.283 377.546ZM287.259 387.716H286.773V391.1C286.773 391.496 286.935 391.604 287.547 391.604C288.519 391.604 288.627 391.478 288.627 390.398C288.627 390.236 288.627 390.038 288.609 389.606C289.275 389.822 289.491 389.876 290.265 390.02V390.416C290.265 392.054 290.175 392.504 289.743 392.846C289.365 393.17 288.915 393.242 287.655 393.242C286.701 393.242 286.143 393.206 285.873 393.116C285.207 392.9 285.027 392.54 285.027 391.388V387.716H282.615V388.292H280.851C280.887 387.572 280.905 386.528 280.905 385.142V380.57C280.905 379.49 280.869 378.284 280.851 377.708C281.319 377.726 281.751 377.744 282.381 377.744H287.511C288.123 377.744 288.555 377.726 289.041 377.708C289.005 378.284 288.987 378.932 288.987 380.57V385.07C288.987 386.51 289.005 387.554 289.041 388.238H287.259V387.716ZM287.259 386.204V384.872H282.615V386.204H287.259ZM287.259 383.36V382.046H282.615V383.36H287.259ZM287.259 380.534V379.256H282.615V380.534H287.259ZM277.611 379.814V382.82H278.673C279.015 382.82 279.465 382.82 279.735 382.802V384.458C279.465 384.44 279.015 384.44 278.673 384.44H277.611V387.86C278.583 387.626 279.465 387.356 280.095 387.104L280.347 388.724C279.141 389.174 276.639 389.912 274.497 390.452C274.317 390.74 274.245 390.794 274.155 390.794C274.047 390.794 273.903 390.704 273.867 390.596L273.219 388.76C273.957 388.67 274.911 388.49 275.901 388.274V384.44H274.947C274.605 384.44 274.155 384.44 273.885 384.458V382.802C274.155 382.82 274.605 382.82 274.947 382.82H275.901V379.814H274.623C274.371 379.814 273.795 379.832 273.561 379.832V378.194C273.759 378.194 274.137 378.212 274.623 378.212H278.943C279.213 378.212 279.681 378.212 280.023 378.194V379.832C279.771 379.814 279.213 379.814 278.943 379.814H277.611ZM282.849 388.076L284.397 388.598C284.613 388.67 284.703 388.76 284.703 388.886C284.703 389.03 284.631 389.084 284.289 389.174C283.515 390.974 282.921 391.766 281.769 392.378C280.743 392.918 279.645 393.26 277.755 393.602C277.539 392.828 277.413 392.54 277.107 392.018C279.231 391.64 280.293 391.316 281.067 390.794C281.949 390.182 282.489 389.318 282.849 388.076ZM307.887 387.914H306.915C306.195 389.444 305.745 390.128 304.845 391.046C303.765 392.18 302.919 392.72 301.065 393.494C300.795 392.9 300.597 392.612 300.237 392.252C301.965 391.496 302.811 390.956 303.621 390.146C304.233 389.534 304.737 388.814 305.205 387.914H304.017C303.261 389.138 302.631 389.84 301.677 390.614C300.615 391.478 299.643 392 297.447 392.882C297.123 392.09 297.087 392.054 296.655 391.568C298.473 390.92 299.481 390.416 300.489 389.696C301.227 389.156 301.695 388.706 302.253 387.914H301.047C300.867 388.094 300.651 388.274 300.435 388.454C299.265 389.444 298.329 390.02 296.511 390.902C296.133 390.182 296.097 390.146 295.611 389.624C298.365 388.346 299.625 387.464 301.083 385.628H300.309C299.715 385.628 298.707 385.664 298.149 385.682V383.99C298.689 384.008 299.607 384.026 300.309 384.026H307.851C308.553 384.026 309.471 384.008 310.011 383.99V385.682C309.453 385.664 308.445 385.628 307.851 385.628H302.973C302.793 385.898 302.613 386.168 302.415 386.42H308.715L308.895 386.186L309.939 387.104C310.011 387.176 310.065 387.266 310.065 387.356C310.065 387.482 309.975 387.59 309.777 387.662L309.615 387.716C309.111 390.992 308.787 392 308.049 392.828C307.563 393.368 306.843 393.53 304.863 393.548C304.773 392.882 304.701 392.522 304.449 391.712C304.863 391.748 305.241 391.748 305.709 391.748C306.483 391.748 306.825 391.586 307.077 391.1C307.419 390.398 307.599 389.786 307.887 387.914ZM295.467 386.834V382.964H294.711C294.225 382.964 293.649 382.982 293.271 383V381.29C293.667 381.308 294.315 381.326 294.711 381.326H295.467V380.066C295.467 378.644 295.449 377.888 295.413 377.366L297.249 377.492C297.447 377.51 297.555 377.564 297.555 377.672C297.555 377.78 297.465 377.888 297.231 378.032C297.213 378.446 297.213 378.932 297.213 380.066V381.326H297.843C298.221 381.326 298.869 381.308 299.265 381.29V383C298.887 382.982 298.311 382.964 297.843 382.964H297.213V386.384C297.897 386.204 298.545 385.988 299.175 385.754L299.319 387.302C298.203 387.788 296.799 388.256 294.387 388.958C294.225 389.228 294.153 389.3 294.027 389.3C293.919 389.3 293.829 389.21 293.775 389.084L293.145 387.284C293.901 387.176 294.693 387.014 295.467 386.834ZM306.249 383.216H301.875V383.702H300.165C300.201 383.27 300.219 382.676 300.219 381.794V379.094C300.219 378.536 300.201 377.834 300.165 377.51C300.579 377.528 300.939 377.546 301.479 377.546H306.645C307.167 377.546 307.545 377.528 307.941 377.51C307.923 377.834 307.887 378.536 307.887 379.094V381.776C307.887 382.622 307.905 383.234 307.941 383.648H306.249V383.216ZM306.249 381.758V381.02H301.875V381.758H306.249ZM306.249 379.67V378.986H301.875V379.67H306.249ZM321.783 381.236L322.395 381.578C322.539 381.65 322.611 381.722 322.611 381.794C322.611 381.902 322.521 382.01 322.359 382.1C321.711 384.782 321.423 385.7 320.703 387.32C319.641 389.714 318.471 390.812 316.959 390.812C315.969 390.812 315.231 390.38 314.727 389.534C314.259 388.742 314.025 387.788 314.025 386.78C314.025 384.53 315.303 382.316 317.409 380.948C318.723 380.084 320.199 379.652 321.891 379.652C323.799 379.652 325.473 380.174 326.841 381.164C328.353 382.28 329.109 383.828 329.109 385.826C329.109 388.202 327.993 390.002 325.707 391.262C324.987 391.658 323.619 392.18 322.359 392.54C322.017 391.604 321.891 391.352 321.405 390.74C323.295 390.29 324.015 390.038 325.005 389.444C326.445 388.598 327.219 387.32 327.219 385.808C327.219 383.954 326.103 382.424 324.195 381.668C323.511 381.398 322.719 381.236 322.143 381.236H321.783ZM320.505 381.326C319.227 381.596 318.507 381.974 317.697 382.802C316.545 383.954 315.897 385.43 315.897 386.87C315.897 388.148 316.311 388.94 316.977 388.94C317.553 388.94 318.057 388.382 318.705 387.032C319.749 384.854 320.379 382.874 320.505 381.326ZM340.071 377.384L341.889 377.582C342.159 377.618 342.339 377.726 342.339 377.852C342.339 377.978 342.321 377.996 341.853 378.248C341.799 378.932 341.763 379.508 341.727 380.048C342.213 383.018 343.113 385.376 344.481 387.302C345.705 389.03 347.037 390.092 349.827 391.568C349.197 392.18 348.981 392.45 348.603 393.098C346.425 391.838 345.219 390.902 344.013 389.552C342.537 387.896 341.727 385.934 341.205 384.062C341.097 384.494 340.971 384.926 340.809 385.43C339.693 388.976 337.281 391.73 333.825 393.386C333.465 392.594 333.267 392.288 332.799 391.856C335.049 390.758 336.381 389.66 337.623 387.878C338.721 386.33 339.423 384.548 339.765 382.352C339.963 381.128 340.017 380.156 340.071 377.384ZM357.495 382.28V383.792C358.467 384.386 359.385 385.034 360.195 385.826L359.115 387.356C358.629 386.762 358.071 386.204 357.495 385.682V388.238C357.495 390.614 357.513 392.342 357.567 393.512H355.677C355.731 392.342 355.767 390.56 355.767 388.238V386.168C355.551 386.744 355.389 387.086 355.119 387.626C354.543 388.814 354.111 389.534 353.265 390.686C353.013 389.93 352.707 389.408 352.257 388.94C353.787 386.798 354.669 384.944 355.443 382.28H354.327C353.841 382.28 353.265 382.28 352.887 382.298V380.57C353.283 380.588 353.931 380.606 354.327 380.606H355.767C355.749 379.958 355.767 379.31 355.749 378.662C355.749 378.086 355.731 377.492 355.659 376.916L357.567 377.042C357.729 377.06 357.837 377.132 357.837 377.222C357.837 377.33 357.747 377.42 357.513 377.564C357.495 378.068 357.495 378.572 357.495 379.076V380.606H358.701C359.079 380.606 359.745 380.588 360.141 380.57V382.298C359.763 382.28 359.187 382.28 358.701 382.28H357.495ZM365.001 390.866V385.034C364.515 385.916 363.975 386.69 363.201 387.662C362.121 389.048 361.311 389.912 359.727 391.316C359.457 390.848 358.935 390.218 358.557 389.948C360.537 388.256 361.671 386.996 363.039 384.944C363.669 383.99 364.101 383.27 364.587 382.28H362.247C361.761 382.28 361.185 382.28 360.807 382.298V380.57C361.203 380.588 361.851 380.606 362.247 380.606H365.001L364.947 378.23C364.947 377.852 364.929 377.456 364.875 377.078L366.801 377.204C366.963 377.222 367.071 377.294 367.071 377.384C367.071 377.492 366.981 377.582 366.747 377.726C366.711 378.68 366.711 379.652 366.711 380.606H367.899C368.277 380.606 368.925 380.588 369.339 380.57V382.298C368.943 382.28 368.385 382.28 367.899 382.28H366.711V387.032C366.711 387.95 366.729 388.85 366.765 390.596C366.765 390.92 366.783 391.568 366.783 391.784C366.783 392.522 366.621 392.864 366.189 393.098C365.667 393.386 365.217 393.44 363.309 393.458C363.273 392.648 363.219 392.342 362.967 391.55C363.507 391.604 363.831 391.622 364.245 391.622C364.929 391.622 365.001 391.55 365.001 390.866ZM383.235 379.454L383.775 380.984C382.119 381.542 380.841 381.83 379.167 381.992C378.951 382.46 378.807 382.784 378.609 383.144C378.519 383.288 378.501 383.324 378.447 383.432C378.987 383.144 379.491 383.018 380.067 383.018C381.381 383.018 382.245 383.828 382.389 385.178C385.071 383.702 385.593 383.396 386.853 382.586L387.987 383.846C388.077 383.954 388.131 384.062 388.131 384.152C388.131 384.278 388.041 384.35 387.879 384.35C387.789 384.35 387.681 384.35 387.555 384.332C386.475 384.926 386.079 385.124 384.369 386.024C383.721 386.366 382.659 386.924 382.407 387.068V390.236H380.589V388.076C380.535 388.112 380.481 388.148 380.301 388.238C379.275 388.814 378.753 389.444 378.753 390.128C378.753 390.956 379.293 391.154 381.471 391.154C383.253 391.154 384.657 391.028 386.439 390.686C386.313 391.532 386.295 391.766 386.259 392.63C383.883 392.9 383.271 392.936 381.651 392.936C379.347 392.936 378.465 392.774 377.745 392.234C377.133 391.784 376.827 391.136 376.827 390.272C376.827 389.12 377.331 388.238 378.465 387.41C379.023 386.996 379.221 386.888 380.175 386.384C380.391 386.276 380.535 386.186 380.589 386.168V386.024C380.589 385.502 380.535 385.214 380.409 384.998C380.247 384.746 379.941 384.584 379.581 384.584C378.825 384.584 377.961 385.088 377.205 385.952C376.863 386.33 376.431 386.942 375.783 387.95L374.271 386.852C374.469 386.582 374.541 386.456 375.495 385.124C375.927 384.512 376.701 383.162 377.169 382.118C376.809 382.136 376.539 382.136 376.179 382.136C375.477 382.136 375.081 382.118 374.271 382.064L374.235 380.354C375.135 380.426 375.603 380.444 376.179 380.444C376.413 380.444 377.421 380.426 377.943 380.408C378.447 379.148 378.879 377.834 379.005 377.222L380.841 377.69C380.931 377.708 381.021 377.798 381.021 377.888C381.021 377.996 380.913 378.086 380.679 378.176C380.517 378.572 380.463 378.77 380.247 379.292C380.139 379.562 380.085 379.706 379.977 380.012C379.923 380.138 379.905 380.192 379.887 380.264C381.003 380.102 381.957 379.868 383.235 379.454ZM397.401 390.254V393.548H395.547C395.565 392.756 395.583 391.136 395.583 390.02V387.356C395.583 385.07 395.565 384.404 395.547 383.846C396.483 383.9 397.905 383.918 399.129 383.918H402.297C403.521 383.918 404.943 383.9 405.879 383.846C405.861 384.404 405.843 385.052 405.843 387.356V389.678C405.843 390.038 405.843 390.47 405.879 391.118C405.897 391.334 405.897 391.676 405.897 391.838C405.897 393.17 405.303 393.458 402.585 393.458H402.423C402.405 392.99 402.369 392.864 402.081 391.55C402.639 391.604 402.891 391.622 403.377 391.622C403.953 391.622 404.043 391.514 404.043 390.866V390.254H397.401ZM397.401 387.824V388.832H404.043V387.824H397.401ZM404.043 386.384V385.412H397.401V386.384H404.043ZM393.387 383.342L392.739 381.74C393.459 381.776 394.035 381.776 394.377 381.776C395.187 381.776 395.961 381.776 396.735 381.758C397.167 381.2 397.527 380.606 397.887 379.994H395.943C394.953 379.994 393.333 380.012 392.361 380.048V378.392C393.297 378.428 394.917 378.446 395.943 378.446H399.813V377.942C399.813 377.438 399.813 377.042 399.795 376.79L401.577 376.898C401.811 376.916 401.919 376.988 401.919 377.096C401.919 377.204 401.829 377.294 401.559 377.438V378.446H405.411C406.545 378.446 408.075 378.428 408.993 378.392V380.048C408.039 380.012 406.509 379.994 405.411 379.994H404.997C406.617 380.786 407.661 381.56 408.975 382.892L407.679 384.062C407.157 383.54 406.761 383.126 406.383 382.784C403.035 383.072 402.675 383.09 394.143 383.432L394.035 383.576C393.909 383.738 393.837 383.792 393.747 383.792C393.621 383.792 393.513 383.666 393.387 383.342ZM404.529 379.994H399.831C399.453 380.588 399.057 381.182 398.643 381.74C400.695 381.704 402.729 381.65 404.781 381.56C404.385 381.308 403.971 381.074 403.557 380.84L404.529 379.994ZM426.147 379.13L427.083 380.534C427.155 380.624 427.209 380.732 427.209 380.84C427.209 380.984 427.137 381.02 426.633 381.056C424.779 381.182 423.735 381.524 422.511 382.424C420.765 383.72 419.811 385.322 419.811 386.978C419.811 388.526 421.017 389.696 423.033 390.11C424.023 390.308 424.905 390.398 426.309 390.416C426.003 390.974 425.859 391.37 425.589 392.36C423.843 392.252 422.871 392.108 421.719 391.784C419.289 391.1 417.903 389.372 417.903 386.996C417.903 385.034 418.803 383.486 420.819 381.956C419.199 382.334 415.293 383.252 414.285 383.468C413.835 383.576 413.727 383.594 413.385 383.684L412.935 381.632C414.555 381.488 416.805 381.128 420.963 380.336C424.491 379.67 424.977 379.562 426.147 379.13ZM436.137 380.804L435.597 378.86C437.145 378.77 440.187 378.302 441.915 377.906L442.167 377.744L443.481 378.896C443.625 379.022 443.661 379.076 443.661 379.148C443.661 379.256 443.571 379.31 443.409 379.364L443.247 379.418C441.717 381.326 440.943 382.208 439.179 384.08C440.241 383.648 440.871 383.504 441.771 383.504C444.471 383.504 446.343 385.142 446.343 387.554C446.343 388.976 445.767 390.2 444.705 391.118C443.589 392.072 442.131 392.522 440.187 392.522C437.631 392.522 436.209 391.658 436.209 390.092C436.209 388.85 437.253 387.914 438.639 387.914C439.683 387.914 440.727 388.436 441.357 389.282C441.609 389.642 441.735 389.894 442.059 390.704C442.761 390.488 443.103 390.29 443.499 389.858C444.021 389.282 444.327 388.472 444.327 387.644C444.327 386.042 443.229 385.142 441.249 385.142C439.809 385.142 438.495 385.664 436.803 386.924C436.335 387.284 435.993 387.554 435.219 388.256L433.959 386.636C435.975 385.16 437.775 383.342 440.925 379.634C439.485 379.976 439.269 380.012 438.423 380.228L437.415 380.48C437.109 380.552 436.371 380.732 436.137 380.804ZM440.241 390.974C439.899 389.822 439.431 389.372 438.639 389.372C438.117 389.372 437.775 389.642 437.775 390.038C437.775 390.632 438.513 391.028 439.629 391.028C439.845 391.028 439.863 391.028 440.241 390.974Z" fill="#0E2623"/>
<path d="M595.058 378.284H597.11L601.79 392H599.594L598.586 388.796H593.6L592.574 392H590.396L595.058 378.284ZM598.028 386.978L596.084 380.822L594.158 386.978H598.028ZM607.888 392H605.746V378.32H607.888V392ZM618.389 377.906L620.279 378.266C620.441 378.302 620.549 378.41 620.549 378.518C620.549 378.662 620.441 378.752 620.135 378.842C619.739 380.12 619.523 380.894 619.235 381.794C619.649 381.722 620.333 381.65 620.657 381.65C621.269 381.65 621.881 381.902 622.367 382.352C622.835 382.802 623.051 383.324 623.051 384.152C623.051 386.078 622.529 388.652 621.809 390.308C621.233 391.64 620.369 392.216 618.965 392.216C618.335 392.216 617.831 392.144 616.931 391.946C617.003 391.46 617.075 390.488 617.093 389.984C617.957 390.254 618.443 390.344 618.947 390.344C619.739 390.344 620.117 389.93 620.495 388.598C620.891 387.266 621.161 385.52 621.161 384.422C621.161 383.666 620.891 383.306 620.315 383.306C620.027 383.306 619.721 383.342 618.677 383.522C618.209 384.944 617.651 386.384 616.823 388.094C616.157 389.48 615.707 390.236 614.249 392.432C613.709 391.892 613.295 391.622 612.647 391.37C613.997 389.588 614.609 388.616 615.401 387.014C615.761 386.258 616.445 384.656 616.715 383.864C615.653 384.062 614.483 384.278 613.259 384.512L613.007 382.568C614.177 382.496 615.671 382.334 617.327 382.082C617.831 380.48 618.263 378.752 618.389 377.906ZM625.355 377.87L626.147 376.952C626.993 377.474 627.551 377.906 628.433 378.752L627.533 379.742C626.687 378.86 626.291 378.5 625.355 377.87ZM623.537 382.748L624.617 381.344C626.705 382.586 627.659 383.432 629.225 385.52L627.695 386.906C626.651 385.178 625.337 383.882 623.537 382.748ZM623.951 379.508L624.743 378.59C625.589 379.112 626.147 379.544 627.029 380.39L626.129 381.362C625.301 380.48 624.887 380.138 623.951 379.508ZM647.081 381.452L647.315 381.164L648.449 382.154C648.557 382.244 648.611 382.37 648.611 382.46C648.611 382.622 648.611 382.64 648.161 382.802C648.071 390.47 647.927 391.928 647.243 392.702C646.847 393.17 646.199 393.314 644.525 393.332C644.399 392.342 644.363 392.18 644.075 391.568C644.723 391.604 644.921 391.622 645.101 391.622C645.821 391.622 646.037 391.424 646.199 390.704C646.397 389.804 646.505 387.392 646.541 383.018H645.767C645.713 384.458 645.623 386.348 645.569 386.87C645.191 390.002 644.111 392.018 641.807 393.638C641.339 392.954 641.231 392.828 640.655 392.468C641.267 391.982 641.699 391.604 642.041 391.262C640.115 391.748 637.883 392.252 636.011 392.63C635.867 392.864 635.759 392.972 635.669 392.972C635.561 392.972 635.435 392.864 635.399 392.756L634.841 391.01C636.173 390.848 637.253 390.704 638.333 390.524V389.426H636.911C636.425 389.426 635.867 389.426 635.489 389.444V388.004C635.885 388.022 636.533 388.022 636.911 388.022H638.333V387.104H637.325V387.482H635.741C635.777 387.068 635.795 386.456 635.795 385.574V383.45C635.795 382.874 635.777 382.172 635.741 381.848C636.371 381.866 636.929 381.884 637.721 381.884H638.333V381.218H637.163C636.623 381.218 635.867 381.236 635.345 381.254V379.742C635.867 379.76 636.623 379.778 637.163 379.778H638.333V379.058C637.667 379.166 637.001 379.238 636.155 379.31C636.083 378.932 635.957 378.482 635.795 377.924C638.459 377.672 639.503 377.492 641.591 376.898L642.653 377.906C642.761 378.014 642.797 378.086 642.797 378.158C642.797 378.248 642.689 378.32 642.545 378.32C642.491 378.32 642.437 378.32 642.185 378.302C641.285 378.5 640.565 378.662 639.935 378.788V379.778H641.393C641.915 379.778 642.671 379.76 643.193 379.742V381.254C642.671 381.236 641.915 381.218 641.393 381.218H639.935V381.884H640.565C641.375 381.884 641.933 381.866 642.545 381.848C642.527 382.172 642.509 382.874 642.509 383.45V385.574C642.509 386.42 642.527 387.032 642.545 387.446H640.979V387.104H639.935V388.022H641.285C641.681 388.022 642.329 388.022 642.725 388.004V389.444C642.347 389.426 641.771 389.426 641.285 389.426H639.935V390.254C640.691 390.11 641.483 389.948 642.401 389.75L642.437 390.812C642.581 390.614 642.707 390.416 642.833 390.2C643.589 388.94 643.949 387.446 644.039 385.304C644.093 384.152 644.111 383.54 644.129 383.036C643.697 383.036 643.247 383.054 642.941 383.072V381.416C643.247 381.434 643.697 381.434 644.147 381.452V381.038C644.147 379.364 644.129 377.96 644.075 377.114L645.803 377.258C646.001 377.276 646.145 377.366 646.145 377.456C646.145 377.582 646.091 377.636 645.785 377.744V381.452H647.081ZM637.325 385.79H638.333V385.16H637.325V385.79ZM637.325 383.9H638.333V383.234H637.325V383.9ZM639.935 383.234V383.9H640.979V383.234H639.935ZM640.979 385.16H639.935V385.79H640.979V385.16ZM634.355 381.938L634.661 381.956C634.841 381.974 634.949 382.046 634.949 382.136C634.949 382.244 634.859 382.352 634.607 382.496V389.858C634.607 391.478 634.625 392.756 634.661 393.548H632.951C632.987 392.738 633.005 391.514 633.005 389.858V385.394C632.735 386.006 632.501 386.402 632.105 387.014C631.871 386.24 631.673 385.682 631.385 385.106C632.447 383.216 633.473 380.012 634.049 376.79L635.669 377.276C635.831 377.33 635.939 377.438 635.939 377.546C635.939 377.69 635.867 377.726 635.507 377.852C635.093 379.58 634.895 380.336 634.355 381.938ZM661.283 377.546L663.083 378.698C663.209 378.77 663.281 378.896 663.281 378.986C663.281 379.13 663.155 379.202 662.813 379.256C662.003 380.21 659.411 382.928 658.079 384.188C657.503 384.728 657.395 384.854 657.395 384.98C657.395 385.088 657.485 385.232 657.719 385.466C659.969 387.806 661.535 389.678 663.353 392.144L661.517 393.44C661.067 392.684 660.401 391.676 659.825 390.866C659.087 389.84 656.927 387.248 655.937 386.222C655.361 385.628 655.199 385.358 655.199 385.034C655.199 384.638 655.541 384.17 656.477 383.27C657.719 382.082 659.591 379.994 660.401 378.914C660.779 378.41 660.977 378.104 661.283 377.546ZM680.633 389.462V390.362C680.633 391.73 680.651 392.882 680.687 393.53H678.923C678.959 392.828 678.977 391.82 678.977 390.362V389.408C677.933 390.326 677.249 390.794 676.097 391.424C674.729 392.162 673.793 392.54 671.975 393.098C671.669 392.288 671.633 392.198 671.219 391.514C673.937 390.794 675.827 389.966 677.429 388.814H675.143C674.207 388.814 673.037 388.832 672.281 388.868V387.338C673.037 387.374 674.207 387.392 675.143 387.392H678.977V386.51H676.673C675.755 386.51 674.567 386.528 673.811 386.564V385.052C674.567 385.07 675.755 385.106 676.673 385.106H678.977V384.26H675.791C674.855 384.26 673.667 384.296 672.911 384.332V382.802C673.667 382.838 674.855 382.856 675.791 382.856H676.889C676.673 382.316 676.403 381.812 676.097 381.326H675.359C674.369 381.326 672.749 381.344 671.777 381.38V379.742C672.587 379.778 673.901 379.796 674.909 379.796C674.549 379.202 674.279 378.86 673.595 378.104L674.819 377.15C675.827 378.104 676.079 378.392 676.745 379.472L676.241 379.796H677.573V378.032C677.573 377.726 677.555 377.276 677.555 376.88L679.247 377.006C679.463 377.024 679.589 377.078 679.589 377.186C679.589 377.294 679.481 377.402 679.229 377.546V379.796H680.543V378.032C680.543 377.546 680.543 377.15 680.525 376.88L682.235 377.006C682.433 377.024 682.559 377.078 682.559 377.186C682.559 377.294 682.451 377.402 682.199 377.546V379.796H682.919C683.477 378.68 683.657 378.158 683.891 377.204L685.637 377.834C685.745 377.87 685.835 377.96 685.835 378.032C685.835 378.158 685.781 378.194 685.421 378.32L684.881 379.418C684.827 379.526 684.755 379.652 684.665 379.796C685.763 379.796 687.131 379.778 687.977 379.742V381.38C687.023 381.344 685.493 381.326 684.395 381.326H683.225C683.459 381.398 683.513 381.488 683.513 381.56C683.513 381.668 683.423 381.722 683.117 381.812C682.991 382.046 682.811 382.406 682.577 382.856H683.981C684.809 382.856 686.069 382.838 686.843 382.802V384.332C686.069 384.296 684.809 384.26 683.981 384.26H680.633V385.106H683.081C683.909 385.106 685.187 385.07 685.961 385.052V386.564C685.187 386.528 683.909 386.51 683.081 386.51H680.633V387.392H684.683C685.511 387.392 686.771 387.374 687.545 387.338V388.868C686.771 388.832 685.511 388.814 684.683 388.814H682.019C683.675 389.984 685.529 390.704 688.391 391.334C687.977 392 687.887 392.198 687.581 392.972C685.781 392.522 684.539 392.054 683.027 391.226C682.073 390.704 681.533 390.308 680.633 389.462ZM678.707 382.856H680.903C681.137 382.352 681.371 381.848 681.533 381.326H677.879C678.221 381.794 678.491 382.316 678.707 382.856ZM698.309 378.878L697.967 378.932C697.571 379.382 697.175 379.814 696.743 380.21C696.401 380.534 696.041 380.822 695.681 381.128C695.843 381.326 696.005 381.524 696.149 381.722L695.321 382.334H697.661L697.895 381.992L698.921 382.964C699.047 383.072 699.065 383.126 699.065 383.198C699.065 383.342 698.957 383.414 698.687 383.468L698.579 383.486C698.417 383.864 698.345 384.026 697.931 384.998C697.733 385.484 697.589 385.754 697.337 386.186C696.905 385.754 696.527 385.466 696.059 385.178C696.311 384.728 696.491 384.368 696.707 383.846H695.825V388.094C695.825 389.228 695.861 390.38 695.861 391.514C695.861 392.396 695.717 392.774 695.249 393.062C694.745 393.368 694.169 393.458 692.441 393.458C692.387 392.72 692.333 392.45 692.099 391.622C692.693 391.676 692.981 391.694 693.413 391.694C694.025 391.694 694.133 391.604 694.133 391.028V386.816C693.485 388.274 692.783 389.426 691.847 390.704C691.667 390.218 691.487 389.948 690.911 389.192C692.081 387.698 693.089 385.88 693.863 383.846H692.783C692.297 383.846 691.721 383.846 691.343 383.864V382.298C691.739 382.316 692.387 382.334 692.783 382.334H694.637C694.097 381.56 693.467 380.876 692.783 380.228L693.809 379.31C694.133 379.58 694.439 379.832 694.745 380.12C695.141 379.796 695.519 379.454 695.879 379.094H693.251C692.765 379.094 692.207 379.094 691.829 379.112V377.636C692.225 377.654 692.873 377.672 693.251 377.672H697.193L697.427 377.384L698.489 378.374C698.615 378.5 698.633 378.536 698.633 378.626C698.633 378.77 698.543 378.842 698.309 378.878ZM706.319 380.336H706.031C705.581 381.29 705.023 382.172 704.339 382.946C705.221 383.522 706.229 383.918 708.173 384.476C707.849 384.98 707.615 385.484 707.453 386.006C705.437 385.412 704.357 384.908 703.205 384.008C702.053 384.962 701.117 385.412 698.957 386.15C698.705 385.466 698.543 385.142 698.201 384.71C700.001 384.116 700.991 383.666 701.981 382.946C701.477 382.406 701.099 381.776 700.775 381.11C700.433 381.668 700.091 382.136 699.659 382.676C699.281 382.226 698.975 381.902 698.507 381.524C699.821 379.922 700.397 378.86 701.135 376.754L702.521 377.312C702.773 377.42 702.809 377.438 702.809 377.546C702.809 377.672 702.755 377.708 702.449 377.816C702.287 378.176 702.143 378.5 701.999 378.788H706.319C706.715 378.788 707.363 378.788 707.759 378.77V380.354C707.381 380.336 706.805 380.336 706.319 380.336ZM704.249 380.336H701.909C702.233 380.93 702.611 381.506 703.115 381.992C703.583 381.506 703.943 380.93 704.249 380.336ZM705.491 388.472H703.097C702.809 389.318 702.413 390.038 701.873 390.722C700.829 392.036 699.605 392.828 697.427 393.566C697.193 392.918 697.049 392.612 696.725 392.054C698.957 391.262 699.767 390.74 700.667 389.516C700.919 389.174 701.135 388.832 701.315 388.472H699.965C699.443 388.472 698.687 388.49 698.183 388.508V386.87C698.687 386.888 699.443 386.906 699.965 386.906H701.855C701.981 386.348 702.071 385.718 702.125 384.926L703.727 385.214C703.925 385.25 704.015 385.322 704.015 385.43C704.015 385.556 703.925 385.628 703.673 385.718C703.619 386.15 703.565 386.528 703.493 386.906H706.265L706.517 386.582L707.543 387.644C707.687 387.788 707.705 387.806 707.705 387.878C707.705 388.004 707.615 388.058 707.399 388.148L707.219 388.22C706.985 390.506 706.589 391.946 706.031 392.612C705.437 393.296 704.915 393.422 702.575 393.422H702.395C702.377 392.702 702.305 392.27 702.161 391.622C702.791 391.676 703.043 391.694 703.295 391.694C704.321 391.694 704.627 391.568 704.915 390.992C705.167 390.452 705.329 389.732 705.491 388.472ZM726.245 376.592C727.253 376.592 728.081 377.402 728.081 378.428C728.081 379.436 727.253 380.264 726.245 380.264C725.219 380.264 724.391 379.436 724.391 378.428C724.391 377.42 725.219 376.592 726.245 376.592ZM726.245 377.456C725.705 377.456 725.273 377.888 725.273 378.428C725.273 378.968 725.705 379.382 726.245 379.382C726.767 379.382 727.199 378.968 727.199 378.428C727.199 377.888 726.767 377.456 726.245 377.456ZM723.563 380.048L723.869 379.706L725.417 380.966C725.543 381.074 725.597 381.164 725.597 381.254C725.597 381.398 725.471 381.488 725.147 381.596C724.427 384.116 723.491 386.024 722.177 387.572C720.449 389.642 718.505 391.01 714.977 392.612C714.599 391.766 714.275 391.334 713.681 390.92C717.263 389.408 719.099 388.184 720.719 386.222C721.745 384.998 722.699 383.162 723.023 381.848L718.505 382.172C716.075 382.352 714.293 382.442 713.411 382.532L713.213 380.534H713.735C714.059 380.534 714.455 380.516 715.211 380.48C715.661 380.462 716.183 380.444 716.741 380.426C717.569 380.39 718.145 380.354 718.469 380.336L723.563 380.048ZM735.983 389.732V390.578H734.021C734.057 389.912 734.075 388.85 734.075 387.428V383.63C734.075 381.938 734.057 381.344 734.021 380.768C734.507 380.786 734.939 380.804 735.551 380.804H743.111C743.723 380.804 744.155 380.786 744.641 380.768C744.605 381.344 744.587 382.55 744.587 383.63V387.428C744.587 388.922 744.605 389.894 744.641 390.578H742.679V389.732H735.983ZM735.983 387.968H742.679V382.568H735.983V387.968ZM757.709 382.568L764.243 381.416L764.477 381.146L765.737 382.37C765.845 382.478 765.917 382.604 765.917 382.712C765.917 382.874 765.791 382.964 765.431 383.072C764.567 384.674 763.145 386.276 761.363 387.626C760.895 387.014 760.319 386.438 759.905 386.204C761.489 385.07 761.633 384.944 762.479 384.08C762.713 383.846 762.947 383.576 763.181 383.288L757.709 384.278V387.896C757.709 389.12 758.015 389.318 759.941 389.318C761.993 389.318 763.109 389.192 764.693 388.76L765.197 390.668C763.667 390.992 762.425 391.1 760.499 391.1C758.627 391.1 757.853 391.064 757.295 390.956C756.161 390.722 755.783 390.02 755.783 388.13V384.638C753.875 384.98 753.065 385.124 751.571 385.484L751.211 383.486C752.543 383.36 754.325 383.144 755.783 382.91V381.2C755.783 379.832 755.765 379.022 755.711 378.5L757.763 378.626C757.961 378.644 758.069 378.698 758.069 378.806C758.069 378.914 757.997 378.986 757.727 379.166C757.709 379.688 757.709 380.084 757.709 381.2V382.568ZM772.4 382.424L772.238 380.408C773.768 380.408 776.36 380.336 777.692 380.264L780.986 380.066L781.256 379.742L782.624 380.984C782.768 381.128 782.804 381.164 782.804 381.272C782.804 381.38 782.732 381.434 782.588 381.47L782.372 381.524C780.86 384.062 780.788 384.152 779.798 385.376C779.852 385.412 779.96 385.484 780.05 385.556C781.634 386.78 781.832 386.942 782.786 387.932C783.56 388.724 783.92 389.156 784.586 390.074L783.02 391.46C781.796 389.714 781.022 388.796 780.122 388.004C779.006 387.032 778.826 386.888 778.592 386.708C776.666 388.742 774.614 390.146 771.536 391.532C771.104 390.632 770.96 390.398 770.492 389.822C774.038 388.274 775.82 387.05 777.926 384.71C778.754 383.792 779.348 383 779.834 382.208C779.978 381.992 780.032 381.92 780.068 381.83L777.8 382.046C777.638 382.064 777.008 382.1 776.09 382.154C775.226 382.208 773.228 382.352 772.4 382.424ZM800.138 379.454L800.678 380.984C799.022 381.542 797.744 381.83 796.07 381.992C795.854 382.46 795.71 382.784 795.512 383.144C795.422 383.288 795.404 383.324 795.35 383.432C795.89 383.144 796.394 383.018 796.97 383.018C798.284 383.018 799.148 383.828 799.292 385.178C801.974 383.702 802.496 383.396 803.756 382.586L804.89 383.846C804.98 383.954 805.034 384.062 805.034 384.152C805.034 384.278 804.944 384.35 804.782 384.35C804.692 384.35 804.584 384.35 804.458 384.332C803.378 384.926 802.982 385.124 801.272 386.024C800.624 386.366 799.562 386.924 799.31 387.068V390.236H797.492V388.076C797.438 388.112 797.384 388.148 797.204 388.238C796.178 388.814 795.656 389.444 795.656 390.128C795.656 390.956 796.196 391.154 798.374 391.154C800.156 391.154 801.56 391.028 803.342 390.686C803.216 391.532 803.198 391.766 803.162 392.63C800.786 392.9 800.174 392.936 798.554 392.936C796.25 392.936 795.368 392.774 794.648 392.234C794.036 391.784 793.73 391.136 793.73 390.272C793.73 389.12 794.234 388.238 795.368 387.41C795.926 386.996 796.124 386.888 797.078 386.384C797.294 386.276 797.438 386.186 797.492 386.168V386.024C797.492 385.502 797.438 385.214 797.312 384.998C797.15 384.746 796.844 384.584 796.484 384.584C795.728 384.584 794.864 385.088 794.108 385.952C793.766 386.33 793.334 386.942 792.686 387.95L791.174 386.852C791.372 386.582 791.444 386.456 792.398 385.124C792.83 384.512 793.604 383.162 794.072 382.118C793.712 382.136 793.442 382.136 793.082 382.136C792.38 382.136 791.984 382.118 791.174 382.064L791.138 380.354C792.038 380.426 792.506 380.444 793.082 380.444C793.316 380.444 794.324 380.426 794.846 380.408C795.35 379.148 795.782 377.834 795.908 377.222L797.744 377.69C797.834 377.708 797.924 377.798 797.924 377.888C797.924 377.996 797.816 378.086 797.582 378.176C797.42 378.572 797.366 378.77 797.15 379.292C797.042 379.562 796.988 379.706 796.88 380.012C796.826 380.138 796.808 380.192 796.79 380.264C797.906 380.102 798.86 379.868 800.138 379.454ZM814.304 390.254V393.548H812.45C812.468 392.756 812.486 391.136 812.486 390.02V387.356C812.486 385.07 812.468 384.404 812.45 383.846C813.386 383.9 814.808 383.918 816.032 383.918H819.2C820.424 383.918 821.846 383.9 822.782 383.846C822.764 384.404 822.746 385.052 822.746 387.356V389.678C822.746 390.038 822.746 390.47 822.782 391.118C822.8 391.334 822.8 391.676 822.8 391.838C822.8 393.17 822.206 393.458 819.488 393.458H819.326C819.308 392.99 819.272 392.864 818.984 391.55C819.542 391.604 819.794 391.622 820.28 391.622C820.856 391.622 820.946 391.514 820.946 390.866V390.254H814.304ZM814.304 387.824V388.832H820.946V387.824H814.304ZM820.946 386.384V385.412H814.304V386.384H820.946ZM810.29 383.342L809.642 381.74C810.362 381.776 810.938 381.776 811.28 381.776C812.09 381.776 812.864 381.776 813.638 381.758C814.07 381.2 814.43 380.606 814.79 379.994H812.846C811.856 379.994 810.236 380.012 809.264 380.048V378.392C810.2 378.428 811.82 378.446 812.846 378.446H816.716V377.942C816.716 377.438 816.716 377.042 816.698 376.79L818.48 376.898C818.714 376.916 818.822 376.988 818.822 377.096C818.822 377.204 818.732 377.294 818.462 377.438V378.446H822.314C823.448 378.446 824.978 378.428 825.896 378.392V380.048C824.942 380.012 823.412 379.994 822.314 379.994H821.9C823.52 380.786 824.564 381.56 825.878 382.892L824.582 384.062C824.06 383.54 823.664 383.126 823.286 382.784C819.938 383.072 819.578 383.09 811.046 383.432L810.938 383.576C810.812 383.738 810.74 383.792 810.65 383.792C810.524 383.792 810.416 383.666 810.29 383.342ZM821.432 379.994H816.734C816.356 380.588 815.96 381.182 815.546 381.74C817.598 381.704 819.632 381.65 821.684 381.56C821.288 381.308 820.874 381.074 820.46 380.84L821.432 379.994ZM843.05 379.13L843.986 380.534C844.058 380.624 844.112 380.732 844.112 380.84C844.112 380.984 844.04 381.02 843.536 381.056C841.682 381.182 840.638 381.524 839.414 382.424C837.668 383.72 836.714 385.322 836.714 386.978C836.714 388.526 837.92 389.696 839.936 390.11C840.926 390.308 841.808 390.398 843.212 390.416C842.906 390.974 842.762 391.37 842.492 392.36C840.746 392.252 839.774 392.108 838.622 391.784C836.192 391.1 834.806 389.372 834.806 386.996C834.806 385.034 835.706 383.486 837.722 381.956C836.102 382.334 832.196 383.252 831.188 383.468C830.738 383.576 830.63 383.594 830.288 383.684L829.838 381.632C831.458 381.488 833.708 381.128 837.866 380.336C841.394 379.67 841.88 379.562 843.05 379.13ZM853.04 380.804L852.5 378.86C854.048 378.77 857.09 378.302 858.818 377.906L859.07 377.744L860.384 378.896C860.528 379.022 860.564 379.076 860.564 379.148C860.564 379.256 860.474 379.31 860.312 379.364L860.15 379.418C858.62 381.326 857.846 382.208 856.082 384.08C857.144 383.648 857.774 383.504 858.674 383.504C861.374 383.504 863.246 385.142 863.246 387.554C863.246 388.976 862.67 390.2 861.608 391.118C860.492 392.072 859.034 392.522 857.09 392.522C854.534 392.522 853.112 391.658 853.112 390.092C853.112 388.85 854.156 387.914 855.542 387.914C856.586 387.914 857.63 388.436 858.26 389.282C858.512 389.642 858.638 389.894 858.962 390.704C859.664 390.488 860.006 390.29 860.402 389.858C860.924 389.282 861.23 388.472 861.23 387.644C861.23 386.042 860.132 385.142 858.152 385.142C856.712 385.142 855.398 385.664 853.706 386.924C853.238 387.284 852.896 387.554 852.122 388.256L850.862 386.636C852.878 385.16 854.678 383.342 857.828 379.634C856.388 379.976 856.172 380.012 855.326 380.228L854.318 380.48C854.012 380.552 853.274 380.732 853.04 380.804ZM857.144 390.974C856.802 389.822 856.334 389.372 855.542 389.372C855.02 389.372 854.678 389.642 854.678 390.038C854.678 390.632 855.416 391.028 856.532 391.028C856.748 391.028 856.766 391.028 857.144 390.974Z" fill="#0E2623"/>
<g clip-path="url(#clip1_314_4566)">
<path d="M240.475 217.95C240.922 218.814 241.396 219.661 241.895 220.493C236.627 241.727 235.138 262.038 237.189 279.605C240.312 306.36 251.555 326.312 269.62 334.022C287.686 341.731 309.871 336.044 331.35 319.787C346.41 308.388 360.938 291.911 373.128 271.676C373.986 271.577 374.835 271.452 375.676 271.309C345.849 321.682 301.509 349.804 268.836 335.861L267.949 335.472C236.719 321.319 226.411 272.289 240.475 217.95ZM270.245 150.869C299.831 106.102 340.847 82.044 371.558 95.1495L372.443 95.5392C402.746 109.272 413.351 155.84 401.107 208.234C400.572 207.652 400.017 207.084 399.445 206.53C403.939 186.744 405.127 167.87 403.205 151.405C400.082 124.65 388.838 104.698 370.773 96.9884C352.707 89.2792 330.523 94.9658 309.044 111.223C296.333 120.844 284.001 134.083 273.134 150.146C272.16 150.359 271.196 150.6 270.245 150.869Z" fill="url(#paint0_linear_314_4566)"/>
<path opacity="0.25" d="M390.471 103.36C409.373 111.426 420.809 132.142 423.968 159.2C427.126 186.25 421.999 219.587 407.829 252.793C393.659 285.998 373.136 312.764 351.421 329.2C329.7 345.64 306.83 351.717 287.929 343.651C269.027 335.585 257.591 314.868 254.432 287.811C251.275 260.761 256.4 227.424 270.57 194.219C284.741 161.013 305.264 134.246 326.979 117.81C348.7 101.37 371.57 95.2941 390.471 103.36Z" fill="url(#paint1_linear_314_4566)" stroke="url(#paint2_linear_314_4566)" stroke-width="0.458208"/>
<path opacity="0.4" d="M320.233 151.71C279.235 151.71 246 170.308 246 193.248H247.001C247.001 170.896 279.852 152.711 320.233 152.711C360.613 152.711 393.466 170.896 393.466 193.248H394.466C394.466 170.308 361.23 151.71 320.233 151.71Z" fill="#7B9265"/>
<path opacity="0.2" d="M320.233 189.069C279.235 189.069 246 207.666 246 230.607H247.001C247.001 208.255 279.852 190.069 320.233 190.069C360.613 190.069 393.466 208.255 393.466 230.607H394.466C394.466 207.666 361.23 189.069 320.233 189.069Z" fill="#7B9265"/>
<path d="M306.364 202.455C305.623 202.382 302.776 203.536 301.03 203.42C299.665 203.345 298.077 203.196 298.077 203.196C297.544 203.08 297.285 202.877 297.281 202.473C297.286 201.991 297.932 201.537 298.817 201.509L300.527 201.413L299.626 200.09C299.626 200.09 298.838 199.345 297.869 198.967C296.901 198.586 294.81 197.706 294.81 197.706C294.81 197.706 294.231 197.424 294.22 196.936C294.21 196.448 294.491 196.396 294.491 196.396C294.491 196.396 293.597 196.066 293.757 195.452C293.914 194.857 294.565 194.833 294.906 194.965C295.747 195.291 298.004 196.35 299.509 196.987C299.509 196.987 296.394 195.279 295.704 194.924C295.169 194.649 295.013 194.274 295.085 193.972C295.134 193.765 295.372 193.491 295.891 193.667C296.795 193.976 298.037 194.649 300.296 195.646C299.219 194.691 299.413 194.856 297.554 193.753C296.911 193.371 296.882 193.084 296.99 192.887C297.069 192.743 297.273 192.38 298.131 192.816C299.274 193.398 300.95 194.274 301.022 194.321C302.706 195.37 302.687 195.575 304.285 196.584C305.686 197.467 307.049 197.957 307.049 197.957L309.183 198.569L308.618 203.236L306.362 202.455H306.364Z" fill="#F4D4C9"/>
<path d="M332.645 185.952C329.191 189.593 320.598 200.106 320.598 200.106C320.598 200.106 315.033 198.813 308.437 197.75C308.437 197.75 307.219 199.934 306.787 203.252C306.787 203.252 317.129 207.221 319.742 207.909C323.234 208.829 324.622 208.306 326.56 206.119C328.039 204.451 336.902 194.616 336.902 194.616L332.644 185.952H332.645Z" fill="url(#paint3_linear_314_4566)"/>
<path d="M312.201 282.84L305.431 284.467C304.192 287.413 302.926 291.074 300.776 293.515C299.135 295.379 295.76 299.139 300.104 300.61C309.131 303.669 309.596 293.255 311.491 290.554C311.843 289.9 312.912 289.53 313.34 288.981C314.49 287.505 315.26 285.412 312.201 282.84Z" fill="#1A1A1A"/>
<path d="M283.99 280.614C284.641 281.588 285.052 283.439 284.725 284.14C284.274 285.11 283.255 285.919 281.805 286.822C280.612 287.565 279.462 287.067 278.719 287.929C276.389 290.627 269.858 296.019 265.79 292.433C263.692 290.584 265.546 288.163 268.309 286.678C273.943 283.649 275.785 280.031 277.478 278.714L283.989 280.615L283.99 280.614Z" fill="#1A1A1A"/>
<path d="M320.855 222.815C320.855 222.815 313.99 227.379 304.711 231.937C295.897 236.265 295.598 235.668 292.213 241.311C288.829 246.953 275.637 278.11 275.637 278.11C275.637 278.11 278.761 282.623 285.357 281.234C285.357 281.234 300.458 251.9 302.889 247.56C302.889 247.56 320.247 241.484 325.975 239.401C331.704 237.319 334.133 223.591 334.133 223.591L320.855 222.817V222.815Z" fill="#0E2623"/>
<path d="M328.876 228.898C323.322 235.494 316.4 238.988 307.836 247.037C305.062 249.644 305.493 258.146 304.885 284.357C304.885 284.357 310.179 287.741 314.519 284.357C314.519 284.357 317.036 261.724 318.077 255.422C318.077 255.422 332.133 249.724 336.484 247.08C345.257 241.748 346.311 230.775 345.859 227.465C345.406 224.155 328.874 228.897 328.874 228.897L328.876 228.898Z" fill="#0E2623"/>
<path fill-rule="evenodd" clip-rule="evenodd" d="M340.528 181.061C343.64 181.668 348.311 182.913 350.183 182.554C350.183 182.554 356.712 186.963 360.403 190.547C364.096 194.13 360.856 202.347 359.292 210.182C357.729 218.017 344.236 239.4 344.236 239.4C333.301 237.144 322.538 227.466 318.162 223.864C318.162 223.864 325.973 216.573 326.807 214.039C332.018 198.213 330.119 191.936 331.446 187.826C332.412 184.837 337.889 182.304 340.526 181.061H340.528Z" fill="url(#paint4_linear_314_4566)"/>
<path d="M359.293 210.183C360.619 203.539 363.136 196.629 361.623 192.495L352.744 193.184C351.208 194.72 350.313 197.827 352.875 208.434C352.224 212.583 345.051 225.406 336.486 236.674C339.004 237.883 341.615 238.86 344.239 239.4C344.239 239.4 357.73 218.017 359.295 210.183H359.293Z" fill="url(#paint5_linear_314_4566)"/>
<path d="M365.952 217.588C365.118 210.232 362.641 196.028 361.994 193.482C360.914 189.243 357.075 188.683 355.653 189.53C351.682 191.896 351.528 196.38 352.112 198.909C353.116 203.271 356.649 218.301 356.649 218.301C356.649 218.301 354.264 219.364 352.481 219.991C350.614 220.648 352.72 227.769 352.72 227.769C352.72 227.769 356.929 226.663 359.815 225.664C365.511 223.693 366.513 222.537 365.952 217.587V217.588Z" fill="url(#paint6_linear_314_4566)"/>
<path d="M350.182 182.554L350.311 177.932L340.959 177.3L340.527 181.061C336.946 184.612 344.931 187.845 350.182 182.554Z" fill="#EFC4B9"/>
<path fill-rule="evenodd" clip-rule="evenodd" d="M348.021 162.645L337.977 165.133L337.668 168.488C337.668 168.488 338.174 175.351 338.376 176.979C338.514 178.73 340.877 182.353 343.303 182.706C345.128 182.972 348.272 180.78 350.256 179.065L352.357 173.721L352.938 168.248L348.022 162.646L348.021 162.645Z" fill="#F4D4C9"/>
<path d="M354.745 167.253C354.228 164.603 352.224 163.31 351.368 163.014C349.343 159.541 346.245 159.747 344.496 160.187C342.912 160.586 339.379 162.254 338.049 164.663C336.717 167.078 337.753 169.641 337.754 169.645C337.754 169.645 337.754 169.642 337.754 169.641C338.269 167.465 339.654 166.243 339.654 166.243C341.884 170.202 345.302 171.452 348.36 171.743L349.548 175.164L350.023 175.024L351.595 176.291C355.908 171.999 354.767 167.369 354.745 167.251V167.253Z" fill="#3E4042"/>
<path d="M352.224 175.355C352.018 174.152 350.712 173.505 349.549 175.164L350.253 179.064C351.573 178.187 352.488 176.897 352.224 175.354V175.355Z" fill="#F4D4C9"/>
<path d="M358.274 222.015C358.274 222.015 356.159 220.91 355.738 220.682C355.076 220.325 354.222 219.816 353.071 220.051C351.344 220.402 350.412 221.936 350.412 221.936C348.066 223.457 349.151 227.215 349.238 227.51C349.347 227.816 349.637 229.02 349.681 229.94C349.699 230.317 349.164 232.094 349.019 232.627C348.887 233.108 348.667 233.757 349.386 233.977C350.106 234.197 350.467 233.168 350.467 233.168C350.932 231.879 351.437 229.961 351.437 229.961C351.458 230.357 351.507 231.038 351.495 231.135C351.38 232.148 351.142 233.79 351.138 233.841C351.09 234.397 351.031 234.988 351.817 235.028C352.716 235.075 352.895 233.619 352.895 233.619C352.895 233.619 353.045 234.193 353.854 234.103C354.733 234.006 354.801 233.021 354.801 233.021L354.965 231.861C355.436 232.274 356.477 232 356.597 231.047C356.67 230.471 357.029 227.725 356.766 226.73C356.504 225.733 355.639 223.249 355.639 223.249C355.639 223.249 356.179 223.414 356.704 223.624C357.389 223.897 358.403 223.715 358.696 222.945C358.916 222.366 358.27 222.016 358.27 222.016L358.274 222.015Z" fill="#F4D4C9"/>
<path opacity="0.4" d="M393.466 193.249C393.466 215.601 360.614 233.786 320.233 233.786C279.851 233.786 247.001 215.601 247.001 193.249H246C246 216.189 279.235 234.787 320.233 234.787C361.23 234.787 394.466 216.189 394.466 193.249H393.466Z" fill="#7B9265"/>
<path opacity="0.2" d="M393.466 230.608C393.466 252.96 360.614 271.146 320.233 271.146C279.851 271.146 247.001 252.96 247.001 230.608H246C246 253.549 279.235 272.146 320.233 272.146C361.23 272.146 394.466 253.549 394.466 230.608H393.466Z" fill="#7B9265"/>
<g opacity="0.4">
<path d="M305.497 158.63V144C297.873 144.859 290.678 146.377 284.094 148.435V163.065C290.678 161.008 297.873 159.489 305.497 158.63Z" fill="url(#paint7_linear_314_4566)"/>
</g>
<path opacity="0.6" d="M383.963 193.67V187.111C380.281 183.669 375.737 180.551 370.492 177.85V184.408C375.735 187.11 380.281 190.228 383.963 193.67Z" fill="url(#paint8_linear_314_4566)"/>
<path opacity="0.6" d="M272.347 179.27V172.741C266.437 175.538 261.32 178.84 257.207 182.53V189.059C261.32 185.369 266.435 182.067 272.347 179.27Z" fill="white"/>
<path opacity="0.5" d="M366.057 245.665V255.698C368.426 254.622 370.719 253.463 372.898 252.195C374.448 251.295 375.897 250.358 377.281 249.4V239.571C373.935 241.816 370.166 243.856 366.057 245.664V245.665Z" fill="url(#paint9_linear_314_4566)"/>
<path opacity="0.6" d="M271.303 210.683V229.902C281.331 235.024 293.157 238.317 305.497 239.78V220.175C292.559 218.717 280.852 215.372 271.303 210.683Z" fill="url(#paint10_linear_314_4566)"/>
<path opacity="0.3" d="M247.353 218.569C246.475 216.015 246 213.38 246 210.683V221.117C246 229.174 250.113 236.69 257.208 243.058V232.624C252.488 228.388 249.097 223.642 247.353 218.567V218.569Z" fill="white"/>
</g>
<path opacity="0.25" d="M783.487 103.36C802.388 111.426 813.825 132.142 816.983 159.2C820.141 186.25 815.015 219.587 800.845 252.793C786.675 285.998 766.152 312.764 744.437 329.2C722.716 345.64 699.846 351.717 680.944 343.651C662.043 335.585 650.606 314.868 647.448 287.811C644.29 260.761 649.416 227.424 663.586 194.219C677.756 161.013 698.279 134.246 719.994 117.81C741.715 101.37 764.585 95.2941 783.487 103.36Z" fill="url(#paint11_linear_314_4566)" stroke="url(#paint12_linear_314_4566)" stroke-width="0.458208"/>
<rect width="11" height="80.3527" transform="matrix(0.882948 -0.469472 0 1 751 135.812)" fill="url(#paint13_linear_314_4566)"/>
<rect width="16.9886" height="60.1854" transform="matrix(0.882948 -0.469472 0 1 660.002 211.503)" fill="url(#paint14_linear_314_4566)"/>
<rect width="16.9886" height="129.713" transform="matrix(0.882948 -0.469472 0 1 728 107.976)" fill="url(#paint15_linear_314_4566)"/>
<rect width="16.9886" height="129.713" transform="matrix(0.882948 -0.469472 0 1 703.004 161.976)" fill="url(#paint16_linear_314_4566)"/>
<path d="M644.372 186.129C672.738 119.658 726.555 78.9245 764.574 95.149L765.46 95.5387C790.91 107.072 802.465 141.768 798.26 183.624C797.622 183.334 796.98 183.049 796.334 182.77C797.406 171.681 797.356 161.124 796.222 151.406C793.098 124.65 781.855 104.698 763.789 96.9889C745.723 89.2795 723.539 94.9662 702.061 111.223C680.633 127.441 660.283 153.939 646.212 186.914C632.141 219.888 627.088 252.914 630.204 279.605C633.328 306.361 644.571 326.313 662.637 334.022C673.587 338.695 686.049 338.445 698.951 333.904C699.838 334.295 700.731 334.676 701.633 335.046C687.659 340.418 673.955 341.026 661.852 335.861L660.966 335.471C624.006 318.721 616.348 253.123 643.714 187.686L644.372 186.129Z" fill="url(#paint17_linear_314_4566)"/>
<path d="M662.026 295.931C659.338 294.369 659.338 291.815 662.026 290.253L760.428 233.097C763.116 231.536 767.515 231.536 770.202 233.097L803.192 252.259C805.881 253.821 805.881 256.375 803.192 257.937L704.79 315.093C702.102 316.654 697.704 316.654 695.016 315.093L662.026 295.931Z" fill="url(#paint18_linear_314_4566)"/>
<path d="M772.649 333.829C769.961 335.39 765.563 335.39 762.875 333.829L748.565 325.518C745.877 323.956 745.877 321.402 748.565 319.84L785.283 298.513C787.972 296.951 792.37 296.951 795.057 298.513L809.367 306.824C812.056 308.386 812.056 310.94 809.367 312.502L772.649 333.829Z" fill="url(#paint19_linear_314_4566)"/>
<path d="M766.896 301.305C766.896 301.305 767.693 302.018 767.752 302.641C767.81 303.265 767.771 304.674 767.752 305.18C767.734 305.641 767.219 306.462 766.16 306.744C764.696 307.132 763.449 306.862 762.162 305.949C760.261 304.6 758.857 304.942 757.247 304.225C756.188 303.754 755.022 302.849 754.795 302.141C754.526 301.303 755.124 299.207 758.521 299.984C760.59 300.458 763.764 300.423 763.827 300.441L766.897 301.304L766.896 301.305Z" fill="#3E4042"/>
<path d="M746.604 306.308C749.624 306.507 751.347 305.712 752.847 305.883C753.333 305.939 758.166 306.249 758.166 306.249C758.166 306.249 758.798 307.288 758.822 307.978C758.857 309.051 758.832 309.668 758.805 310.222C758.778 310.782 758.893 311.725 756.726 312.416C755.254 312.885 753.917 312.221 752.97 311.805C751.673 311.234 748.61 311.528 746.83 310.826C745.579 310.333 744.2 309.369 744.162 308.273C744.148 307.887 744.163 306.147 746.606 306.308H746.604Z" fill="#3E4042"/>
<path fill-rule="evenodd" clip-rule="evenodd" d="M766.521 282.916L757.391 278.161C758.59 287.089 759.887 298.017 760.292 301.141C762.143 303.289 766.697 303.168 767.684 301.287C767.307 296.609 766.841 289.36 766.521 282.915V282.916Z" fill="url(#paint20_linear_314_4566)"/>
<path fill-rule="evenodd" clip-rule="evenodd" d="M757.472 287.411L747.988 282.656C748.345 287.587 750.838 302.511 751.244 305.636C753.094 307.783 757.648 307.663 758.636 305.782C758.259 301.103 757.793 293.855 757.473 287.41L757.472 287.411Z" fill="url(#paint21_linear_314_4566)"/>
<path d="M803.193 228.412L770.203 209.25C767.515 207.688 763.118 207.688 760.429 209.25L662.027 266.406C660.677 267.189 660.008 268.223 660.014 269.257V274.909C660.008 275.942 660.677 276.977 662.027 277.76L695.016 296.922C697.705 298.484 702.103 298.484 704.791 296.922L803.193 239.766C804.542 238.983 805.213 237.949 805.207 236.915V231.263C805.213 230.23 804.542 229.195 803.193 228.412Z" fill="url(#paint22_linear_314_4566)"/>
<path d="M662.026 272.083C659.338 270.521 659.338 267.967 662.026 266.405L760.428 209.249C763.116 207.688 767.515 207.688 770.202 209.249L803.192 228.411C805.881 229.973 805.881 232.528 803.192 234.089L704.79 291.245C702.102 292.806 697.704 292.806 695.016 291.245L662.026 272.083Z" fill="url(#paint23_linear_314_4566)"/>
<path d="M809.369 281.841L795.057 273.53C792.369 271.969 787.972 271.969 785.283 273.53L748.566 294.857C747.216 295.641 746.546 296.676 746.553 297.71V303.361C746.546 304.394 747.216 305.429 748.566 306.213L762.876 314.525C765.565 316.086 769.963 316.086 772.65 314.525L809.369 293.197C810.718 292.414 811.388 291.378 811.382 290.345V284.694C811.388 283.66 810.718 282.626 809.369 281.841Z" fill="url(#paint24_linear_314_4566)"/>
<path d="M772.649 308.846C769.961 310.408 765.563 310.408 762.875 308.846L748.565 300.535C745.877 298.973 745.877 296.419 748.565 294.857L785.283 273.53C787.972 271.969 792.37 271.969 795.057 273.53L809.367 281.841C812.056 283.403 812.056 285.958 809.367 287.519L772.649 308.846Z" fill="url(#paint25_linear_314_4566)"/>
<path d="M701.445 265.164L758.294 232.147L773.831 241.172L716.981 274.188L701.445 265.164Z" fill="url(#paint26_linear_314_4566)"/>
<path d="M769.12 231.43C768.254 232.717 768.68 234.773 768.5 235.629C768.347 236.297 768.215 236.766 767.6 237.956C767.475 238.196 767.528 238.242 767.581 238.357C767.839 238.912 767.943 239.138 767.944 239.23C767.953 239.705 768.355 242.993 768.355 242.993C768.36 243.793 768.751 244.75 770.431 244.505L772.168 244.25C772.168 244.25 772.309 245.99 772.084 247.621L779.668 246.567L779.378 240.488L769.12 231.431V231.43Z" fill="url(#paint27_linear_314_4566)"/>
<path fill-rule="evenodd" clip-rule="evenodd" d="M781.895 233.187C781.389 230.531 779.803 227.172 775.17 227.899C770.154 226.971 768.543 230.756 768.294 233.559C768.211 234.356 769.874 234.005 770.655 235.493C771.051 236.629 771.549 239.386 771.549 239.386C772.397 237.511 772.522 238.907 773.222 239.615C773.493 239.889 774.656 242.747 774.656 242.747C775.781 242.927 778.473 242.374 779.442 241.831C782.378 237.256 783.191 234.524 781.895 233.188V233.187Z" fill="#3E4042"/>
<path d="M773.737 237.849C773.422 237.177 772.215 236.422 771.43 239.473L772.102 240.945C773.765 240.41 774.182 238.799 773.737 237.85V237.849Z" fill="url(#paint28_linear_314_4566)"/>
<path fill-rule="evenodd" clip-rule="evenodd" d="M777.581 276.184C771.156 273.81 767.275 271.471 764.394 270.701C757.717 268.918 757.256 275.691 757.394 278.162L766.15 282.917C775.093 288.969 777.411 292.558 783.512 292.16C787.99 291.867 785.722 279.193 777.581 276.184Z" fill="url(#paint29_linear_314_4566)"/>
<path fill-rule="evenodd" clip-rule="evenodd" d="M787.009 286.762C786.866 286.751 761.521 276.94 754.987 275.196C748.31 273.413 747.85 280.186 747.987 282.657L756.743 287.413C765.687 293.465 769.275 297.517 774.359 296.831C776.836 296.497 778.871 295.134 781.093 294.184C783.414 293.193 787.753 292.447 787.009 286.762Z" fill="url(#paint30_linear_314_4566)"/>
<path fill-rule="evenodd" clip-rule="evenodd" d="M786.124 272.089C786.667 266.716 787.348 254.726 786.893 250.643C786.498 247.697 780.775 244.957 779.57 244.949C778.123 245.084 774.376 246.312 772.169 247.169C769.262 248.798 764.677 252.041 764.135 253.506C762.147 258.88 765.786 270.781 765.981 277.12C766.129 281.91 765.71 285.006 765.536 289.761C770.51 295.815 779.628 291.493 787.752 287.146C787.809 282.037 786.124 272.089 786.124 272.089Z" fill="url(#paint31_linear_314_4566)"/>
<path d="M770.92 266.917C772.922 253.993 769.947 251.244 765.999 251.417C765.04 252.237 764.329 252.985 764.136 253.506C762.146 258.88 765.786 270.781 765.981 277.12C766.128 281.911 765.71 285.006 765.537 289.762C767.145 291.72 769.192 292.581 771.495 292.718C771.287 281.854 769.542 275.811 770.92 266.917Z" fill="url(#paint32_linear_314_4566)"/>
<path d="M763.994 253.756C763.994 253.756 762.46 252.447 762.012 252.076C761.564 251.705 760.1 251.08 759.782 250.909C759.399 250.703 759.147 250.909 759.147 250.909C759.147 250.909 757.243 250.851 757.121 250.868C756.696 250.93 756.894 251.482 756.894 251.482C756.45 251.447 755.877 251.371 755.719 251.5C755.392 251.766 755.603 252.145 755.603 252.145C755.115 252.092 754.734 252.255 754.732 252.623C754.731 253.03 755.12 253.216 755.12 253.216C755.12 253.216 757.152 253.615 757.293 253.729C757.434 253.844 758.554 254.791 758.554 254.791C758.905 255.104 758.858 255.385 758.424 255.343C757.981 255.3 757.388 255.004 756.869 254.971C756.138 254.925 755.927 255.045 756.016 255.479C756.065 255.721 756.416 255.885 756.416 255.885C756.416 255.885 758.472 256.914 758.86 256.968C759.42 257.044 762.339 257.497 762.339 257.497L765.762 258.845L766.062 254.744C764.678 254.357 763.995 253.758 763.995 253.758L763.994 253.756Z" fill="url(#paint33_linear_314_4566)"/>
<path d="M750.406 261.613C749.941 261.144 748.187 258.88 747.634 258.348C747.376 258.099 747.054 258.106 746.671 258.235C746.19 258.397 745.398 258.681 745.039 258.828C745.039 258.828 744.003 258.816 743.423 258.794C742.498 258.759 742.657 259.452 742.953 259.798C742.953 259.798 742.359 259.802 742.016 259.802C741.672 259.802 741.293 259.895 741.299 260.28C741.303 260.601 741.493 260.855 741.941 261.001C741.941 261.001 741.493 261.034 741.458 261.492C741.416 262.03 742.029 262.208 742.284 262.269C742.539 262.332 744.561 262.602 745.039 262.836C745.452 263.038 745.824 263.616 746.408 264.2C747.318 265.11 748.099 265.437 749.237 265.525L752.244 267.447L754.753 264.133C754.73 264.113 750.87 262.082 750.405 261.613H750.406Z" fill="url(#paint34_linear_314_4566)"/>
<path d="M750.675 267.448C750.798 267.545 756.783 271.647 756.91 271.726C759.891 273.594 762.14 271.984 763.488 269.782C766.457 264.936 768.636 261.342 770.817 257.729C771.496 256.604 772.033 253.244 769.935 251.648C768.379 250.463 766.093 250.218 763.749 253.924L758.27 265.201L754.035 263.035C753.744 263.026 751.312 264.447 750.674 267.449L750.675 267.448Z" fill="url(#paint35_linear_314_4566)"/>
<path d="M274.168 53.056C273.869 54.736 273.076 56.0893 271.788 57.116C270.5 58.1427 268.754 58.656 266.552 58.656H262.604L261.148 67H259.188L262.632 47.428H268.54C270.462 47.428 271.9 47.8293 272.852 48.632C273.804 49.4347 274.28 50.5173 274.28 51.88C274.28 52.3093 274.242 52.7013 274.168 53.056ZM266.86 57.032C269.921 57.032 271.685 55.7067 272.152 53.056C272.226 52.5707 272.264 52.2253 272.264 52.02C272.264 50.004 270.929 48.996 268.26 48.996H264.312L262.912 57.032H266.86ZM284.344 51.488C285.632 51.488 286.734 51.74 287.648 52.244C288.563 52.7293 289.254 53.4013 289.72 54.26C290.206 55.1187 290.448 56.0987 290.448 57.2C290.448 57.704 290.411 58.152 290.336 58.544C290.224 59.104 290.112 59.608 290 60.056H277.316C277.26 60.4107 277.232 60.7467 277.232 61.064C277.232 62.5013 277.662 63.612 278.52 64.396C279.398 65.18 280.508 65.572 281.852 65.572C283.14 65.572 284.27 65.264 285.24 64.648C286.211 64.032 286.92 63.2013 287.368 62.156H289.468C288.834 63.6493 287.816 64.872 286.416 65.824C285.035 66.7573 283.42 67.224 281.572 67.224C279.668 67.224 278.138 66.6827 276.98 65.6C275.842 64.4987 275.272 63.0053 275.272 61.12C275.272 60.56 275.328 59.972 275.44 59.356C275.72 57.7693 276.28 56.3787 277.12 55.184C277.979 53.9893 279.034 53.0747 280.284 52.44C281.535 51.8053 282.888 51.488 284.344 51.488ZM288.32 58.6C288.414 58.0773 288.46 57.6387 288.46 57.284C288.46 55.9587 288.04 54.9413 287.2 54.232C286.36 53.5227 285.287 53.168 283.98 53.168C283.028 53.168 282.114 53.3733 281.236 53.784C280.359 54.1947 279.594 54.8107 278.94 55.632C278.287 56.4533 277.839 57.4427 277.596 58.6H288.32ZM299.13 67.224C297.861 67.224 296.741 66.972 295.77 66.468C294.8 65.9453 294.044 65.2173 293.502 64.284C292.98 63.332 292.718 62.2213 292.718 60.952C292.718 59.2347 293.11 57.6573 293.894 56.22C294.678 54.764 295.77 53.616 297.17 52.776C298.57 51.9173 300.129 51.488 301.846 51.488C303.116 51.488 304.236 51.7493 305.206 52.272C306.177 52.776 306.933 53.504 307.474 54.456C308.016 55.3893 308.286 56.4907 308.286 57.76C308.286 59.496 307.885 61.0827 307.082 62.52C306.28 63.9573 305.178 65.1053 303.778 65.964C302.397 66.804 300.848 67.224 299.13 67.224ZM299.354 65.572C300.68 65.572 301.865 65.2173 302.91 64.508C303.974 63.7987 304.796 62.856 305.374 61.68C305.972 60.504 306.27 59.2347 306.27 57.872C306.27 56.3413 305.822 55.1747 304.926 54.372C304.049 53.5693 302.929 53.168 301.566 53.168C300.241 53.168 299.056 53.5227 298.01 54.232C296.984 54.9413 296.181 55.884 295.602 57.06C295.024 58.236 294.734 59.5053 294.734 60.868C294.734 62.38 295.173 63.5467 296.05 64.368C296.928 65.1707 298.029 65.572 299.354 65.572ZM314.435 55.072C315.07 54.0453 315.975 53.196 317.151 52.524C318.346 51.8333 319.662 51.488 321.099 51.488C322.947 51.488 324.422 52.0387 325.523 53.14C326.643 54.2227 327.203 55.7067 327.203 57.592C327.203 58.1333 327.147 58.712 327.035 59.328C326.755 60.896 326.195 62.2773 325.355 63.472C324.515 64.6667 323.479 65.5907 322.247 66.244C321.034 66.8973 319.727 67.224 318.327 67.224C316.89 67.224 315.704 66.888 314.771 66.216C313.838 65.5253 313.212 64.6667 312.895 63.64L311.047 74.224H309.087L313.063 51.712H315.023L314.435 55.072ZM325.047 59.328C325.14 58.768 325.187 58.292 325.187 57.9C325.187 56.4253 324.748 55.2773 323.871 54.456C323.012 53.616 321.874 53.196 320.455 53.196C319.41 53.196 318.411 53.448 317.459 53.952C316.507 54.456 315.695 55.1747 315.023 56.108C314.351 57.0413 313.903 58.124 313.679 59.356C313.586 59.8787 313.539 60.3453 313.539 60.756C313.539 62.212 313.978 63.3693 314.855 64.228C315.732 65.0867 316.871 65.516 318.271 65.516C319.354 65.516 320.362 65.2733 321.295 64.788C322.247 64.284 323.05 63.5653 323.703 62.632C324.375 61.68 324.823 60.5787 325.047 59.328ZM334.898 46.28L331.23 67H329.27L332.938 46.28H334.898ZM345.02 51.488C346.308 51.488 347.409 51.74 348.324 52.244C349.239 52.7293 349.929 53.4013 350.396 54.26C350.881 55.1187 351.124 56.0987 351.124 57.2C351.124 57.704 351.087 58.152 351.012 58.544C350.9 59.104 350.788 59.608 350.676 60.056H337.992C337.936 60.4107 337.908 60.7467 337.908 61.064C337.908 62.5013 338.337 63.612 339.196 64.396C340.073 65.18 341.184 65.572 342.528 65.572C343.816 65.572 344.945 65.264 345.916 64.648C346.887 64.032 347.596 63.2013 348.044 62.156H350.144C349.509 63.6493 348.492 64.872 347.092 65.824C345.711 66.7573 344.096 67.224 342.248 67.224C340.344 67.224 338.813 66.6827 337.656 65.6C336.517 64.4987 335.948 63.0053 335.948 61.12C335.948 60.56 336.004 59.972 336.116 59.356C336.396 57.7693 336.956 56.3787 337.796 55.184C338.655 53.9893 339.709 53.0747 340.96 52.44C342.211 51.8053 343.564 51.488 345.02 51.488ZM348.996 58.6C349.089 58.0773 349.136 57.6387 349.136 57.284C349.136 55.9587 348.716 54.9413 347.876 54.232C347.036 53.5227 345.963 53.168 344.656 53.168C343.704 53.168 342.789 53.3733 341.912 53.784C341.035 54.1947 340.269 54.8107 339.616 55.632C338.963 56.4533 338.515 57.4427 338.272 58.6H348.996ZM370.612 47.428C373.449 47.428 375.633 48.0907 377.164 49.416C378.695 50.7413 379.46 52.608 379.46 55.016C379.46 55.6693 379.385 56.416 379.236 57.256C378.881 59.272 378.163 61.0173 377.08 62.492C375.997 63.948 374.607 65.068 372.908 65.852C371.228 66.6173 369.305 67 367.14 67H361.344L364.788 47.428H370.612ZM367.42 65.46C370.145 65.46 372.348 64.7413 374.028 63.304C375.708 61.848 376.772 59.832 377.22 57.256C377.351 56.584 377.416 55.912 377.416 55.24C377.416 53.2613 376.819 51.7307 375.624 50.648C374.429 49.5653 372.656 49.024 370.304 49.024H366.468L363.584 65.46H367.42ZM389.905 57.228L394.105 67H391.893L388.365 58.824L382.205 67H380.021L387.665 57.172L383.465 47.428H385.677L389.177 55.548L395.393 47.428H397.605L389.905 57.228Z" fill="url(#paint36_linear_314_4566)"/>
<path d="M619.635 47.428L616.191 67H614.231L617.675 47.428H619.635ZM630.569 51.432C632.137 51.432 633.388 51.8613 634.321 52.72C635.273 53.56 635.749 54.792 635.749 56.416C635.749 57.0133 635.702 57.5547 635.609 58.04L634.013 67H632.081L633.621 58.264C633.696 57.8347 633.733 57.3773 633.733 56.892C633.733 55.66 633.397 54.7267 632.725 54.092C632.053 53.4573 631.11 53.14 629.897 53.14C628.422 53.14 627.162 53.6067 626.117 54.54C625.072 55.4733 624.39 56.8453 624.073 58.656V58.572L622.589 67H620.629L623.317 51.712H625.277L624.801 54.344C625.454 53.4107 626.285 52.692 627.293 52.188C628.301 51.684 629.393 51.432 630.569 51.432ZM647.7 47.484C646.43 47.484 645.497 47.7267 644.9 48.212C644.302 48.6973 643.901 49.5093 643.696 50.648L643.5 51.712H647.084L646.776 53.364H643.22L640.812 67H638.852L641.26 53.364H639.132L639.44 51.712H641.54L641.736 50.648C642.034 48.9867 642.678 47.764 643.668 46.98C644.657 46.196 646.104 45.804 648.008 45.804L647.7 47.484ZM651.569 54.764C652.185 53.7 652.988 52.8787 653.977 52.3C654.967 51.7213 656.115 51.432 657.421 51.432L657.057 53.476H656.497C655.153 53.476 653.996 53.8213 653.025 54.512C652.055 55.2027 651.383 56.3413 651.009 57.928L649.413 67H647.453L650.141 51.712H652.101L651.569 54.764ZM658.046 59.328C658.326 57.76 658.886 56.388 659.726 55.212C660.566 54.0173 661.592 53.1027 662.806 52.468C664.038 51.8147 665.354 51.488 666.754 51.488C668.21 51.488 669.404 51.824 670.338 52.496C671.271 53.168 671.878 54.0267 672.158 55.072L672.746 51.712H674.706L672.018 67H670.058L670.646 63.612C670.011 64.6573 669.096 65.5253 667.902 66.216C666.726 66.888 665.41 67.224 663.954 67.224C662.74 67.224 661.676 66.972 660.762 66.468C659.847 65.964 659.138 65.2547 658.634 64.34C658.13 63.4067 657.878 62.3147 657.878 61.064C657.878 60.5227 657.934 59.944 658.046 59.328ZM671.402 59.356C671.495 58.8333 671.542 58.3667 671.542 57.956C671.542 56.5 671.103 55.3427 670.226 54.484C669.348 53.6253 668.21 53.196 666.81 53.196C665.727 53.196 664.71 53.4387 663.758 53.924C662.824 54.4093 662.031 55.1187 661.378 56.052C660.724 56.9667 660.286 58.0587 660.062 59.328C659.968 59.888 659.922 60.364 659.922 60.756C659.922 62.2307 660.351 63.3973 661.21 64.256C662.087 65.096 663.226 65.516 664.626 65.516C665.671 65.516 666.67 65.264 667.622 64.76C668.592 64.256 669.404 63.5373 670.058 62.604C670.73 61.6707 671.178 60.588 671.402 59.356ZM681.588 67.224C680.039 67.224 678.779 66.8693 677.808 66.16C676.838 65.432 676.352 64.4427 676.352 63.192C676.352 62.968 676.362 62.8 676.38 62.688H678.284C678.21 63.584 678.471 64.3027 679.068 64.844C679.666 65.3853 680.543 65.656 681.7 65.656C682.876 65.656 683.819 65.4133 684.528 64.928C685.238 64.424 685.592 63.7613 685.592 62.94C685.592 62.4547 685.443 62.044 685.144 61.708C684.846 61.372 684.472 61.1013 684.024 60.896C683.595 60.672 682.988 60.42 682.204 60.14C681.234 59.7853 680.45 59.4587 679.852 59.16C679.274 58.8427 678.77 58.4133 678.34 57.872C677.93 57.312 677.724 56.612 677.724 55.772C677.724 54.932 677.967 54.1853 678.452 53.532C678.938 52.8787 679.6 52.3747 680.44 52.02C681.299 51.6653 682.27 51.488 683.352 51.488C684.864 51.488 686.096 51.8613 687.048 52.608C688.019 53.3547 688.504 54.344 688.504 55.576C688.504 55.8373 688.495 56.0333 688.476 56.164H686.628C686.647 56.0893 686.656 55.968 686.656 55.8C686.656 54.9787 686.33 54.316 685.676 53.812C685.042 53.308 684.22 53.056 683.212 53.056C682.204 53.056 681.364 53.2987 680.692 53.784C680.039 54.2507 679.712 54.8853 679.712 55.688C679.712 56.2293 679.871 56.6867 680.188 57.06C680.506 57.4147 680.898 57.704 681.364 57.928C681.831 58.152 682.456 58.4133 683.24 58.712C684.174 59.0667 684.92 59.3933 685.48 59.692C686.059 59.9907 686.544 60.4013 686.936 60.924C687.328 61.4467 687.524 62.1 687.524 62.884C687.524 64.2093 686.974 65.264 685.872 66.048C684.771 66.832 683.343 67.224 681.588 67.224ZM694.014 62.856C693.958 63.192 693.93 63.4813 693.93 63.724C693.93 64.3213 694.088 64.7413 694.406 64.984C694.742 65.208 695.283 65.32 696.03 65.32H697.822L697.514 67H695.414C694.256 67 693.388 66.776 692.81 66.328C692.231 65.88 691.942 65.1427 691.942 64.116C691.942 63.7053 691.979 63.2853 692.054 62.856L693.734 53.364H691.606L691.914 51.712H694.042L694.714 47.876H696.674L696.002 51.712H700.23L699.922 53.364H695.694L694.014 62.856ZM704.862 54.764C705.478 53.7 706.281 52.8787 707.27 52.3C708.26 51.7213 709.408 51.432 710.714 51.432L710.35 53.476H709.79C708.446 53.476 707.289 53.8213 706.318 54.512C705.348 55.2027 704.676 56.3413 704.302 57.928L702.706 67H700.746L703.434 51.712H705.394L704.862 54.764ZM726.823 51.712L724.135 67H722.175L722.651 64.312C722.016 65.264 721.195 65.992 720.187 66.496C719.179 67 718.096 67.252 716.939 67.252C715.371 67.252 714.111 66.832 713.159 65.992C712.207 65.1333 711.731 63.892 711.731 62.268C711.731 61.6707 711.777 61.1293 711.871 60.644L713.439 51.712H715.371L713.831 60.42C713.756 60.8493 713.719 61.2973 713.719 61.764C713.719 62.996 714.055 63.9387 714.727 64.592C715.417 65.2267 716.369 65.544 717.583 65.544C719.001 65.544 720.224 65.1147 721.251 64.256C722.277 63.3787 722.968 62.1 723.323 60.42L724.863 51.712H726.823ZM729.058 59.356C729.338 57.7693 729.898 56.388 730.738 55.212C731.596 54.0173 732.642 53.1027 733.874 52.468C735.106 51.8147 736.44 51.488 737.878 51.488C739.763 51.488 741.228 51.9547 742.274 52.888C743.338 53.8213 743.907 55.0907 743.982 56.696H741.882C741.826 55.5947 741.415 54.736 740.65 54.12C739.903 53.4853 738.886 53.168 737.598 53.168C736.011 53.168 734.611 53.7093 733.398 54.792C732.203 55.856 731.428 57.3773 731.074 59.356C730.98 59.8227 730.934 60.3547 730.934 60.952C730.934 62.4453 731.335 63.5933 732.138 64.396C732.959 65.18 734.042 65.572 735.386 65.572C736.692 65.572 737.831 65.264 738.802 64.648C739.772 64.0133 740.491 63.136 740.958 62.016H743.058C742.423 63.584 741.406 64.844 740.006 65.796C738.606 66.748 736.972 67.224 735.106 67.224C733.22 67.224 731.708 66.6827 730.57 65.6C729.45 64.5173 728.89 63.0333 728.89 61.148C728.89 60.5693 728.946 59.972 729.058 59.356ZM749.029 62.856C748.973 63.192 748.945 63.4813 748.945 63.724C748.945 64.3213 749.104 64.7413 749.421 64.984C749.757 65.208 750.299 65.32 751.045 65.32H752.837L752.529 67H750.429C749.272 67 748.404 66.776 747.825 66.328C747.247 65.88 746.957 65.1427 746.957 64.116C746.957 63.7053 746.995 63.2853 747.069 62.856L748.749 53.364H746.621L746.929 51.712H749.057L749.729 47.876H751.689L751.017 51.712H755.245L754.937 53.364H750.709L749.029 62.856ZM771.694 51.712L769.006 67H767.046L767.522 64.312C766.887 65.264 766.066 65.992 765.058 66.496C764.05 67 762.967 67.252 761.81 67.252C760.242 67.252 758.982 66.832 758.03 65.992C757.078 65.1333 756.602 63.892 756.602 62.268C756.602 61.6707 756.649 61.1293 756.742 60.644L758.31 51.712H760.242L758.702 60.42C758.627 60.8493 758.59 61.2973 758.59 61.764C758.59 62.996 758.926 63.9387 759.598 64.592C760.289 65.2267 761.241 65.544 762.454 65.544C763.873 65.544 765.095 65.1147 766.122 64.256C767.149 63.3787 767.839 62.1 768.194 60.42L769.734 51.712H771.694ZM777.597 54.764C778.213 53.7 779.015 52.8787 780.005 52.3C780.994 51.7213 782.142 51.432 783.449 51.432L783.085 53.476H782.525C781.181 53.476 780.023 53.8213 779.053 54.512C778.082 55.2027 777.41 56.3413 777.037 57.928L775.441 67H773.481L776.169 51.712H778.129L777.597 54.764ZM792.977 51.488C794.265 51.488 795.366 51.74 796.281 52.244C797.196 52.7293 797.886 53.4013 798.353 54.26C798.838 55.1187 799.081 56.0987 799.081 57.2C799.081 57.704 799.044 58.152 798.969 58.544C798.857 59.104 798.745 59.608 798.633 60.056H785.949C785.893 60.4107 785.865 60.7467 785.865 61.064C785.865 62.5013 786.294 63.612 787.153 64.396C788.03 65.18 789.141 65.572 790.485 65.572C791.773 65.572 792.902 65.264 793.873 64.648C794.844 64.032 795.553 63.2013 796.001 62.156H798.101C797.466 63.6493 796.449 64.872 795.049 65.824C793.668 66.7573 792.053 67.224 790.205 67.224C788.301 67.224 786.77 66.6827 785.613 65.6C784.474 64.4987 783.905 63.0053 783.905 61.12C783.905 60.56 783.961 59.972 784.073 59.356C784.353 57.7693 784.913 56.3787 785.753 55.184C786.612 53.9893 787.666 53.0747 788.917 52.44C790.168 51.8053 791.521 51.488 792.977 51.488ZM796.953 58.6C797.046 58.0773 797.093 57.6387 797.093 57.284C797.093 55.9587 796.673 54.9413 795.833 54.232C794.993 53.5227 793.92 53.168 792.613 53.168C791.661 53.168 790.746 53.3733 789.869 53.784C788.992 54.1947 788.226 54.8107 787.573 55.632C786.92 56.4533 786.472 57.4427 786.229 58.6H796.953ZM818.569 47.428C821.406 47.428 823.59 48.0907 825.121 49.416C826.652 50.7413 827.417 52.608 827.417 55.016C827.417 55.6693 827.342 56.416 827.193 57.256C826.838 59.272 826.12 61.0173 825.037 62.492C823.954 63.948 822.564 65.068 820.865 65.852C819.185 66.6173 817.262 67 815.097 67H809.301L812.745 47.428H818.569ZM815.377 65.46C818.102 65.46 820.305 64.7413 821.985 63.304C823.665 61.848 824.729 59.832 825.177 57.256C825.308 56.584 825.373 55.912 825.373 55.24C825.373 53.2613 824.776 51.7307 823.581 50.648C822.386 49.5653 820.613 49.024 818.261 49.024H814.425L811.541 65.46H815.377ZM837.862 57.228L842.062 67H839.85L836.322 58.824L830.162 67H827.978L835.622 57.172L831.422 47.428H833.634L837.134 55.548L843.35 47.428H845.562L837.862 57.228Z" fill="url(#paint37_linear_314_4566)"/>
<line x1="472.401" y1="136.458" x2="567.401" y2="263.945" stroke="url(#paint38_linear_314_4566)"/>
<line y1="-0.5" x2="158.99" y2="-0.5" transform="matrix(-0.59752 0.801854 0.801854 0.59752 567 136.756)" stroke="#7B9265"/>
<rect width="21.5188" height="80.9956" transform="matrix(0.882948 -0.469472 0 1 680 175.103)" fill="url(#paint39_linear_314_4566)"/>
<path d="M753.957 193.191L751.286 192.151C752.804 188.246 752.453 184.327 750.259 180.815C746.505 174.774 737.9 170.602 727.241 169.647C709.327 168.045 691.175 175.912 686.802 187.192L684.13 186.153C686.492 180.07 692.342 174.718 700.61 171.08C708.737 167.498 718.284 165.981 727.494 166.795C739.038 167.821 748.459 172.499 752.692 179.298C755.363 183.596 755.799 188.4 753.943 193.176L753.957 193.191Z" fill="url(#paint40_linear_314_4566)"/>
<path d="M685.776 230.388C682.528 225.766 686.057 215.863 689.601 208.361C694.409 198.149 702.045 186.335 711.072 175.111C726.567 155.866 742.372 143.041 750.555 143.041C750.64 143.041 750.724 143.041 750.794 143.041C752.721 143.097 754.267 143.883 755.266 145.302L752.917 146.946C752.622 146.51 752.06 145.948 750.71 145.892C750.654 145.892 750.597 145.892 750.541 145.892C744.41 145.892 729.745 156.47 713.307 176.895C704.407 187.95 696.912 199.568 692.188 209.583C687.787 218.939 686.254 226.103 688.124 228.744L685.776 230.388Z" fill="#7B9265"/>
<path d="M721.464 229.489C721.281 229.489 721.084 229.489 720.902 229.461C716.374 229.054 712.409 223.87 709.456 214.459C706.686 205.637 705.167 194.118 705.167 182.037C705.167 162.202 709.372 145.022 715.615 139.318C717.358 137.731 719.214 137.015 721.155 137.183C723.897 137.422 726.442 139.431 728.691 143.139L726.245 144.628C724.501 141.777 722.659 140.189 720.888 140.035C719.791 139.937 718.652 140.4 717.541 141.426C711.945 146.539 708.022 163.241 708.022 182.037C708.022 193.837 709.498 205.047 712.184 213.602C714.644 221.468 718.005 226.329 721.141 226.61C722.237 226.708 723.376 226.244 724.487 225.219C730.084 220.106 734.007 203.403 734.007 184.608H736.875C736.875 204.443 732.671 221.623 726.428 227.326C724.853 228.759 723.18 229.489 721.45 229.489H721.464Z" fill="#1D4524"/>
<path d="M715.502 212.773C713.857 212.773 712.212 212.702 710.581 212.562C699.037 211.536 689.616 206.859 685.383 200.06C682.712 195.761 682.276 190.957 684.132 186.181L686.803 187.22C685.285 191.125 685.636 195.045 687.83 198.557C691.584 204.597 700.19 208.769 710.848 209.724C728.762 211.326 746.914 203.459 751.287 192.179L753.959 193.218C751.597 199.301 745.747 204.653 737.479 208.291C730.786 211.241 723.137 212.787 715.516 212.787L715.502 212.773Z" fill="url(#paint41_linear_314_4566)"/>
<path d="M729.97 200.579L727.734 198.781C736.635 187.726 744.13 176.109 748.854 166.093C753.255 156.737 754.788 149.573 752.918 146.932L755.266 145.288C758.514 149.896 754.985 159.813 751.441 167.315C746.632 177.527 738.997 189.341 729.956 200.565L729.97 200.579Z" fill="#7B9265"/>
<path d="M690.516 232.663C690.122 232.663 689.743 232.635 689.377 232.579C687.859 232.34 686.621 231.596 685.778 230.402L688.126 228.758C688.519 229.32 689.068 229.643 689.827 229.756C692.583 230.191 698.967 226.749 704.887 222.254L706.799 224.446C700.64 229.109 694.13 232.663 690.53 232.663H690.516Z" fill="#7B9265"/>
<path d="M732.391 143.012C732.391 139.697 729.705 137 726.372 137C723.04 137 720.354 139.683 720.354 143.012C720.354 146.342 723.04 149.025 726.372 149.025C729.705 149.025 732.391 146.342 732.391 143.012Z" fill="url(#paint42_linear_314_4566)"/>
<path d="M724.824 140.568C724.824 139.542 724.107 139.121 723.207 139.64C722.321 140.16 721.59 141.41 721.59 142.436C721.59 143.461 722.307 143.883 723.207 143.363C724.093 142.843 724.824 141.593 724.824 140.568Z" fill="#1D4524" fill-opacity="0.5"/>
<path d="M735.454 186.04C734.667 186.04 734.02 185.393 734.02 184.607C734.02 168.551 731.236 153.548 726.737 145.456C726.357 144.768 726.596 143.897 727.299 143.518C727.988 143.139 728.86 143.377 729.239 144.08C733.95 152.565 736.889 168.101 736.889 184.621C736.889 185.408 736.242 186.054 735.454 186.054V186.04Z" fill="#1D4524"/>
<path d="M705.448 225.064C705.026 225.064 704.604 224.882 704.323 224.516C703.831 223.898 703.943 222.999 704.562 222.508C711.733 216.861 719.959 208.446 727.735 198.781C728.227 198.163 729.127 198.065 729.745 198.557C730.364 199.048 730.462 199.947 729.97 200.566C722.068 210.385 713.674 218.982 706.334 224.741C706.067 224.952 705.757 225.05 705.448 225.05V225.064Z" fill="#7B9265"/>
<path d="M731.912 187.937C731.912 181.574 726.738 176.404 720.368 176.404C713.998 176.404 708.824 181.574 708.824 187.937C708.824 194.301 713.998 199.47 720.368 199.47C726.738 199.47 731.912 194.301 731.912 187.937Z" fill="url(#paint43_linear_314_4566)"/>
<path d="M725.135 177.443C726.091 179.03 726.78 180.758 727.146 182.415C729.255 191.56 718.779 197.053 710.68 194.229C712.733 197.39 716.305 199.483 720.354 199.483C726.724 199.483 731.898 194.314 731.898 187.95C731.898 183.286 729.128 179.269 725.135 177.457V177.443Z" fill="url(#paint44_linear_314_4566)"/>
<path d="M718.764 182.275C718.764 179.704 716.95 178.665 714.728 179.943C712.492 181.235 710.693 184.354 710.693 186.925C710.693 189.495 712.507 190.535 714.728 189.257C716.964 187.964 718.764 184.846 718.764 182.275Z" fill="#1D4524" fill-opacity="0.5"/>
</g>
<defs>
<linearGradient id="paint0_linear_314_4566" x1="389.038" y1="244.882" x2="244.752" y2="79.4999" gradientUnits="userSpaceOnUse">
<stop stop-color="#1D4524"/>
<stop offset="1" stop-color="#F9F9BA"/>
</linearGradient>
<linearGradient id="paint1_linear_314_4566" x1="-4.67338" y1="802.192" x2="-201.549" y2="661.197" gradientUnits="userSpaceOnUse">
<stop stop-color="#1D4524"/>
<stop offset="1" stop-color="#FEFEBE"/>
</linearGradient>
<linearGradient id="paint2_linear_314_4566" x1="408.04" y1="252.882" x2="242.531" y2="197.565" gradientUnits="userSpaceOnUse">
<stop stop-color="#1D4524"/>
<stop offset="1" stop-color="#F9F9BA"/>
</linearGradient>
<linearGradient id="paint3_linear_314_4566" x1="306.787" y1="197.147" x2="336.904" y2="197.147" gradientUnits="userSpaceOnUse">
<stop stop-color="#F0F0F2"/>
<stop offset="1" stop-color="#E8E8EA"/>
</linearGradient>
<linearGradient id="paint4_linear_314_4566" x1="318.163" y1="210.231" x2="362.104" y2="210.231" gradientUnits="userSpaceOnUse">
<stop stop-color="#F7F7F9"/>
<stop offset="1" stop-color="#F0F0F2"/>
</linearGradient>
<linearGradient id="paint5_linear_314_4566" x1="336.485" y1="215.947" x2="362.091" y2="215.947" gradientUnits="userSpaceOnUse">
<stop stop-color="#F0F0F2"/>
<stop offset="1" stop-color="#E8E8EA"/>
</linearGradient>
<linearGradient id="paint6_linear_314_4566" x1="351.71" y1="208.482" x2="366.09" y2="208.482" gradientUnits="userSpaceOnUse">
<stop stop-color="#F7F7F9"/>
<stop offset="1" stop-color="#F0F0F2"/>
</linearGradient>
<linearGradient id="paint7_linear_314_4566" x1="282.049" y1="202.136" x2="252.23" y2="189.162" gradientUnits="userSpaceOnUse">
<stop stop-color="#1D4524"/>
<stop offset="1" stop-color="#FEFEBE"/>
</linearGradient>
<linearGradient id="paint8_linear_314_4566" x1="369.206" y1="226.092" x2="349.077" y2="219.449" gradientUnits="userSpaceOnUse">
<stop stop-color="#1D4524"/>
<stop offset="1" stop-color="#FEFEBE"/>
</linearGradient>
<linearGradient id="paint9_linear_314_4566" x1="364.985" y1="288.749" x2="347.648" y2="284.072" gradientUnits="userSpaceOnUse">
<stop stop-color="#1D4524"/>
<stop offset="1" stop-color="#FEFEBE"/>
</linearGradient>
<linearGradient id="paint10_linear_314_4566" x1="268.037" y1="299.413" x2="221.113" y2="278.042" gradientUnits="userSpaceOnUse">
<stop stop-color="#1D4524"/>
<stop offset="1" stop-color="#FEFEBE"/>
</linearGradient>
<linearGradient id="paint11_linear_314_4566" x1="388.342" y1="802.192" x2="191.467" y2="661.197" gradientUnits="userSpaceOnUse">
<stop stop-color="#1D4524"/>
<stop offset="1" stop-color="#FEFEBE"/>
</linearGradient>
<linearGradient id="paint12_linear_314_4566" x1="801.056" y1="252.882" x2="635.547" y2="197.565" gradientUnits="userSpaceOnUse">
<stop stop-color="#1D4524"/>
<stop offset="1" stop-color="#F9F9BA"/>
</linearGradient>
<linearGradient id="paint13_linear_314_4566" x1="5.5" y1="0" x2="5.5" y2="80.3527" gradientUnits="userSpaceOnUse">
<stop stop-color="white" stop-opacity="0"/>
<stop offset="1" stop-color="#F9F9BA"/>
</linearGradient>
<linearGradient id="paint14_linear_314_4566" x1="8.49428" y1="0" x2="8.49428" y2="60.1854" gradientUnits="userSpaceOnUse">
<stop stop-color="white" stop-opacity="0"/>
<stop offset="1" stop-color="#F9F9BA"/>
</linearGradient>
<linearGradient id="paint15_linear_314_4566" x1="8.49428" y1="0" x2="8.49428" y2="129.713" gradientUnits="userSpaceOnUse">
<stop stop-color="white" stop-opacity="0"/>
<stop offset="1" stop-color="#F9F9BA"/>
</linearGradient>
<linearGradient id="paint16_linear_314_4566" x1="8.49428" y1="0" x2="8.49428" y2="129.713" gradientUnits="userSpaceOnUse">
<stop stop-color="white" stop-opacity="0"/>
<stop offset="1" stop-color="#F9F9BA"/>
</linearGradient>
<linearGradient id="paint17_linear_314_4566" x1="782.052" y1="244.882" x2="637.765" y2="79.4998" gradientUnits="userSpaceOnUse">
<stop stop-color="#1D4524"/>
<stop offset="1" stop-color="#F9F9BA"/>
</linearGradient>
<linearGradient id="paint18_linear_314_4566" x1="694.502" y1="314.073" x2="770.646" y2="235.148" gradientUnits="userSpaceOnUse">
<stop stop-color="#C8CBCE"/>
<stop offset="1" stop-color="white"/>
</linearGradient>
<linearGradient id="paint19_linear_314_4566" x1="762.282" y1="332.805" x2="795.455" y2="300.126" gradientUnits="userSpaceOnUse">
<stop stop-color="#C8CBCE"/>
<stop offset="1" stop-color="white"/>
</linearGradient>
<linearGradient id="paint20_linear_314_4566" x1="762.537" y1="302.725" x2="762.537" y2="278.161" gradientUnits="userSpaceOnUse">
<stop stop-color="#2A68D1"/>
<stop offset="1" stop-color="#3C78E1"/>
</linearGradient>
<linearGradient id="paint21_linear_314_4566" x1="746.971" y1="357.562" x2="729.813" y2="354.679" gradientUnits="userSpaceOnUse">
<stop stop-color="#1D4524"/>
<stop offset="1" stop-color="#FEFEBE"/>
</linearGradient>
<linearGradient id="paint22_linear_314_4566" x1="660.014" y1="253.087" x2="805.207" y2="253.087" gradientUnits="userSpaceOnUse">
<stop stop-color="#E9EAED"/>
<stop offset="1" stop-color="#DCDEE2"/>
</linearGradient>
<linearGradient id="paint23_linear_314_4566" x1="660.009" y1="250.248" x2="805.207" y2="250.248" gradientUnits="userSpaceOnUse">
<stop stop-color="#FAFBFB"/>
<stop offset="1" stop-color="#F8F8FA"/>
</linearGradient>
<linearGradient id="paint24_linear_314_4566" x1="746.552" y1="294.026" x2="811.382" y2="294.026" gradientUnits="userSpaceOnUse">
<stop stop-color="#E9EAED"/>
<stop offset="1" stop-color="#DCDEE2"/>
</linearGradient>
<linearGradient id="paint25_linear_314_4566" x1="746.548" y1="291.187" x2="811.383" y2="291.187" gradientUnits="userSpaceOnUse">
<stop stop-color="#FAFBFB"/>
<stop offset="1" stop-color="#F8F8FA"/>
</linearGradient>
<linearGradient id="paint26_linear_314_4566" x1="694.531" y1="360.347" x2="611.545" y2="304.97" gradientUnits="userSpaceOnUse">
<stop stop-color="#1D4524"/>
<stop offset="1" stop-color="#FEFEBE"/>
</linearGradient>
<linearGradient id="paint27_linear_314_4566" x1="773.596" y1="231.43" x2="773.596" y2="247.621" gradientUnits="userSpaceOnUse">
<stop stop-color="#F0CAB0"/>
<stop offset="1" stop-color="#FFCCAA"/>
</linearGradient>
<linearGradient id="paint28_linear_314_4566" x1="772.666" y1="237.245" x2="772.666" y2="240.945" gradientUnits="userSpaceOnUse">
<stop stop-color="#F0CAB0"/>
<stop offset="1" stop-color="#FFCCAA"/>
</linearGradient>
<linearGradient id="paint29_linear_314_4566" x1="754.662" y1="336.835" x2="717.176" y2="317.895" gradientUnits="userSpaceOnUse">
<stop stop-color="#1D4524"/>
<stop offset="1" stop-color="#FEFEBE"/>
</linearGradient>
<linearGradient id="paint30_linear_314_4566" x1="744.232" y1="342.006" x2="700.274" y2="311.717" gradientUnits="userSpaceOnUse">
<stop stop-color="#1D4524"/>
<stop offset="1" stop-color="#FEFEBE"/>
</linearGradient>
<linearGradient id="paint31_linear_314_4566" x1="775.648" y1="292.75" x2="775.648" y2="244.949" gradientUnits="userSpaceOnUse">
<stop stop-color="#F7F7F9"/>
<stop offset="1" stop-color="#F0F0F2"/>
</linearGradient>
<linearGradient id="paint32_linear_314_4566" x1="767.552" y1="292.718" x2="767.552" y2="251.41" gradientUnits="userSpaceOnUse">
<stop stop-color="#F0F0F2"/>
<stop offset="1" stop-color="#E8E8EA"/>
</linearGradient>
<linearGradient id="paint33_linear_314_4566" x1="760.397" y1="250.817" x2="760.397" y2="258.845" gradientUnits="userSpaceOnUse">
<stop stop-color="#F0CAB0"/>
<stop offset="1" stop-color="#FFCCAA"/>
</linearGradient>
<linearGradient id="paint34_linear_314_4566" x1="748.026" y1="258.147" x2="748.026" y2="267.447" gradientUnits="userSpaceOnUse">
<stop stop-color="#F0CAB0"/>
<stop offset="1" stop-color="#FFCCAA"/>
</linearGradient>
<linearGradient id="paint35_linear_314_4566" x1="761.048" y1="272.547" x2="761.048" y2="250.87" gradientUnits="userSpaceOnUse">
<stop stop-color="#F7F7F9"/>
<stop offset="1" stop-color="#F0F0F2"/>
</linearGradient>
<linearGradient id="paint36_linear_314_4566" x1="397" y1="57" x2="258" y2="57" gradientUnits="userSpaceOnUse">
<stop stop-color="#1D4524"/>
<stop offset="1" stop-color="#7B9265"/>
</linearGradient>
<linearGradient id="paint37_linear_314_4566" x1="845" y1="57" x2="613" y2="57" gradientUnits="userSpaceOnUse">
<stop stop-color="#1D4524"/>
<stop offset="1" stop-color="#7B9265"/>
</linearGradient>
<linearGradient id="paint38_linear_314_4566" x1="478.5" y1="111.5" x2="516.543" y2="93.0325" gradientUnits="userSpaceOnUse">
<stop stop-color="#1D4524"/>
<stop offset="1" stop-color="#FEFEBE"/>
</linearGradient>
<linearGradient id="paint39_linear_314_4566" x1="10.7594" y1="0" x2="10.7594" y2="80.9956" gradientUnits="userSpaceOnUse">
<stop stop-color="white" stop-opacity="0"/>
<stop offset="1" stop-color="#F9F9BA"/>
</linearGradient>
<linearGradient id="paint40_linear_314_4566" x1="684.13" y1="179.885" x2="755.074" y2="179.885" gradientUnits="userSpaceOnUse">
<stop stop-color="#1D4524"/>
<stop offset="1" stop-color="#7B9265"/>
</linearGradient>
<linearGradient id="paint41_linear_314_4566" x1="683.001" y1="199.484" x2="753.959" y2="199.484" gradientUnits="userSpaceOnUse">
<stop stop-color="#1D4524"/>
<stop offset="1" stop-color="#7B9265"/>
</linearGradient>
<linearGradient id="paint42_linear_314_4566" x1="733.54" y1="173.668" x2="747.456" y2="164.891" gradientUnits="userSpaceOnUse">
<stop stop-color="#1D4524"/>
<stop offset="1" stop-color="#FEFEBE"/>
</linearGradient>
<linearGradient id="paint43_linear_314_4566" x1="734.117" y1="246.742" x2="760.81" y2="229.906" gradientUnits="userSpaceOnUse">
<stop stop-color="#1D4524"/>
<stop offset="1" stop-color="#FEFEBE"/>
</linearGradient>
<linearGradient id="paint44_linear_314_4566" x1="710.68" y1="188.463" x2="731.898" y2="188.463" gradientUnits="userSpaceOnUse">
<stop stop-color="#1D4524"/>
<stop offset="1" stop-color="#7B9265"/>
</linearGradient>
<clipPath id="clip0_314_4566">
<rect width="1080" height="436" rx="8" fill="white"/>
</clipPath>
<clipPath id="clip1_314_4566">
<rect width="240" height="283" fill="white" transform="translate(219 74)"/>
</clipPath>
</defs>
</svg>
