<svg width="130" height="166" viewBox="0 0 130 166" fill="none" xmlns="http://www.w3.org/2000/svg">
<g clip-path="url(#clip0_353_7368)">
<path d="M12.6173 84.5683C12.8798 85.0755 13.1576 85.5736 13.4503 86.0624C10.3547 98.5384 9.47981 110.472 10.6846 120.793C12.5196 136.512 19.1249 148.233 29.7384 152.763C40.3519 157.292 53.3852 153.951 66.004 144.4C74.8514 137.704 83.3827 128.022 90.544 116.135C91.0479 116.077 91.5469 116.004 92.0411 115.92C74.5176 145.512 48.4725 162.035 29.2774 153.844L28.7569 153.614C10.4086 145.299 4.35374 116.494 12.6173 84.5683ZM30.1075 45.1601C47.489 18.8604 71.5849 4.72635 89.627 12.4257L90.1475 12.6542C107.95 20.7222 114.179 48.0797 106.986 78.8603C106.672 78.5176 106.346 78.1839 106.01 77.8583C108.649 66.2351 109.349 55.1475 108.22 45.4755C106.385 29.7566 99.7786 18.035 89.1651 13.5058C78.5516 8.97675 65.5182 12.3172 52.8995 21.8681C45.4317 27.5204 38.1872 35.2987 31.8028 44.7353C31.2311 44.8604 30.6657 45.0018 30.1075 45.1601Z" fill="url(#paint0_linear_353_7368)"/>
<path opacity="0.25" d="M100.739 17.2491C111.843 21.988 118.562 34.1588 120.417 50.0547C122.272 65.9465 119.261 85.5324 110.936 105.041C102.611 124.549 90.5538 140.274 77.7964 149.93C65.0355 159.588 51.5998 163.158 40.4953 158.419C29.3907 153.681 22.6714 141.51 20.8157 125.614C18.9606 109.722 21.9719 90.1365 30.2968 70.6284C38.6218 51.1202 50.6792 35.3946 63.4367 25.7386C76.1977 16.08 89.6342 12.5103 100.739 17.2491Z" fill="url(#paint1_linear_353_7368)" stroke="url(#paint2_linear_353_7368)" stroke-width="0.269643"/>
<path opacity="0.94" d="M59.4749 45.6548C35.3886 45.6548 15.8633 56.581 15.8633 70.0585H16.4511C16.4511 56.9267 35.7515 46.2426 59.4749 46.2426C83.1983 46.2426 102.499 56.9267 102.499 70.0585H103.087C103.087 56.581 83.5612 45.6548 59.4749 45.6548Z" fill="#7B9265"/>
<path opacity="0.83" d="M59.4749 67.6028C35.3886 67.6028 15.8633 78.529 15.8633 92.0065H16.4511C16.4511 78.8747 35.7515 68.1906 59.4749 68.1906C83.1983 68.1906 102.499 78.8747 102.499 92.0065H103.087C103.087 78.529 83.5612 67.6028 59.4749 67.6028Z" fill="#7B9265"/>
<path d="M51.3256 75.4673C50.8906 75.4242 49.218 76.1022 48.192 76.034C47.3902 75.9901 46.4574 75.9023 46.4574 75.9023C46.1439 75.8341 45.9919 75.715 45.9895 75.4775C45.9926 75.1946 46.372 74.9281 46.8917 74.9116L47.8965 74.8552L47.3674 74.0776C47.3674 74.0776 46.9042 73.6403 46.3352 73.4177C45.7661 73.1943 44.5379 72.677 44.5379 72.677C44.5379 72.677 44.1977 72.5116 44.1915 72.2247C44.1852 71.9379 44.3506 71.9073 44.3506 71.9073C44.3506 71.9073 43.8254 71.7137 43.9195 71.3531C44.0112 71.0036 44.3937 70.9895 44.5943 71.0671C45.0881 71.2583 46.4143 71.8806 47.2985 72.2545C47.2985 72.2545 45.4683 71.2513 45.0631 71.0428C44.7487 70.8813 44.657 70.661 44.6994 70.4831C44.7284 70.3616 44.8679 70.201 45.1728 70.3044C45.7042 70.4855 46.4339 70.8813 47.7609 71.4668C47.1284 70.9056 47.242 71.0028 46.1502 70.3546C45.7724 70.1304 45.7552 69.9619 45.8186 69.8459C45.8649 69.7612 45.9848 69.548 46.4888 69.8044C47.1605 70.1461 48.145 70.661 48.1873 70.6885C49.1765 71.3045 49.1655 71.4253 50.1045 72.0178C50.9275 72.5367 51.7285 72.8243 51.7285 72.8243L52.9818 73.1841L52.6503 75.9259L51.3249 75.4673H51.3256Z" fill="#F4D4C9"/>
<path d="M66.7659 65.772C64.7366 67.911 59.6881 74.0873 59.6881 74.0873C59.6881 74.0873 56.4189 73.3278 52.5438 72.7031C52.5438 72.7031 51.8282 73.9862 51.5742 75.9356C51.5742 75.9356 57.6503 78.2674 59.1849 78.6718C61.2369 79.2118 62.0521 78.9046 63.191 77.6199C64.0594 76.6402 69.267 70.862 69.267 70.862L66.7651 65.772H66.7659Z" fill="url(#paint3_linear_353_7368)"/>
<path d="M54.7534 122.693L50.7764 123.65C50.0482 125.38 49.3044 127.531 48.0417 128.965C47.0776 130.06 45.0946 132.269 47.6467 133.134C52.9499 134.931 53.2234 128.813 54.3364 127.225C54.5433 126.841 55.1712 126.624 55.4228 126.301C56.0984 125.434 56.5507 124.205 54.7534 122.693Z" fill="#1A1A1A"/>
<path d="M38.1822 121.386C38.5647 121.958 38.8061 123.045 38.614 123.457C38.3491 124.027 37.7503 124.502 36.8983 125.033C36.1976 125.469 35.5219 125.177 35.0854 125.683C33.7168 127.268 29.8793 130.436 27.4895 128.329C26.2574 127.243 27.3461 125.82 28.9693 124.948C32.2793 123.169 33.3618 121.043 34.3564 120.27L38.1814 121.386L38.1822 121.386Z" fill="#1A1A1A"/>
<path d="M59.8389 87.429C59.8389 87.429 55.8062 90.1103 50.3549 92.7878C45.1763 95.3305 45.0007 94.9801 43.0122 98.2948C41.0237 101.61 33.2734 119.914 33.2734 119.914C33.2734 119.914 35.1091 122.566 38.9842 121.75C38.9842 121.75 47.8561 104.516 49.2842 101.966C49.2842 101.966 59.4823 98.3967 62.8471 97.1732C66.2128 95.9497 67.6401 87.8843 67.6401 87.8843L59.8389 87.4297V87.429Z" fill="#0E2623"/>
<path d="M64.5522 91.0026C61.2892 94.8777 57.222 96.9305 52.1908 101.659C50.5613 103.191 50.8144 108.186 50.457 123.585C50.457 123.585 53.5672 125.573 56.1169 123.585C56.1169 123.585 57.5959 110.288 58.2073 106.585C58.2073 106.585 66.4654 103.238 69.0214 101.684C74.1757 98.5522 74.7949 92.1054 74.5292 90.1608C74.2635 88.2162 64.5506 91.0018 64.5506 91.0018L64.5522 91.0026Z" fill="#0E2623"/>
<path fill-rule="evenodd" clip-rule="evenodd" d="M71.3975 62.8984C73.2261 63.2551 75.9702 63.9864 77.0699 63.7755C77.0699 63.7755 80.9058 66.366 83.0746 68.4713C85.2442 70.5766 83.3403 75.404 82.4217 80.0073C81.5031 84.6098 73.5765 97.1726 73.5765 97.1726C67.1516 95.8472 60.8287 90.1615 58.2578 88.0452C58.2578 88.0452 62.847 83.7617 63.3369 82.2733C66.3984 72.975 65.2823 69.2872 66.0621 66.8731C66.6296 65.1166 69.8471 63.6289 71.3967 62.8984H71.3975Z" fill="url(#paint4_linear_353_7368)"/>
<path d="M82.4206 80.0074C83.1997 76.104 84.678 72.0447 83.7891 69.6157L78.5729 70.0209C77.6708 70.9231 77.1448 72.7486 78.6497 78.9798C78.2672 81.4175 74.0535 88.9514 69.0215 95.5714C70.5005 96.2815 72.0344 96.8552 73.5762 97.1727C73.5762 97.1727 81.502 84.6099 82.4214 80.0074H82.4206Z" fill="url(#paint5_linear_353_7368)"/>
<path d="M86.3347 84.3583C85.8448 80.0364 84.3893 71.6913 84.0091 70.1958C83.375 67.7056 81.1192 67.3764 80.2837 67.8742C77.9511 69.2638 77.8602 71.8982 78.2035 73.3843C78.7937 75.9465 80.8692 84.7769 80.8692 84.7769C80.8692 84.7769 79.4678 85.4016 78.4206 85.7699C77.3233 86.1556 78.5609 90.3395 78.5609 90.3395C78.5609 90.3395 81.0338 89.6898 82.7292 89.1027C86.0752 87.945 86.6639 87.2654 86.3347 84.3575V84.3583Z" fill="url(#paint6_linear_353_7368)"/>
<path d="M77.0687 63.7753L77.1448 61.0602L71.6503 60.6887L71.3963 62.8983C69.2926 64.9847 73.9837 66.8839 77.0687 63.7753Z" fill="#EFC4B9"/>
<path fill-rule="evenodd" clip-rule="evenodd" d="M75.7991 52.0789L69.8986 53.5407L69.7168 55.5119C69.7168 55.5119 70.0139 59.5438 70.133 60.5C70.2137 61.5292 71.6018 63.6572 73.0276 63.8649C74.0998 64.0209 75.9465 62.7331 77.112 61.7259L78.3465 58.586L78.6882 55.3708L75.7999 52.0796L75.7991 52.0789Z" fill="#F4D4C9"/>
<path d="M79.7491 54.7859C79.4458 53.2292 78.2685 52.4697 77.7653 52.2957C76.5755 50.2555 74.7555 50.3762 73.728 50.6349C72.7976 50.8692 70.7221 51.849 69.9406 53.2645C69.1576 54.6832 69.7666 56.1889 69.7674 56.1912C69.7674 56.1912 69.7674 56.1897 69.7674 56.1889C70.0699 54.9105 70.8835 54.1925 70.8835 54.1925C72.1933 56.5189 74.2014 57.2533 75.9979 57.4242L76.6962 59.4338L76.9753 59.3515L77.8986 60.0961C80.4326 57.5747 79.7625 54.8541 79.7491 54.7851V54.7859Z" fill="#3E4042"/>
<path d="M78.2688 59.5459C78.1481 58.8389 77.3807 58.4587 76.6973 59.4338L77.1111 61.7249C77.8863 61.2099 78.424 60.452 78.2688 59.5451V59.5459Z" fill="#F4D4C9"/>
<path d="M81.8231 86.9589C81.8231 86.9589 80.5808 86.3099 80.3331 86.1759C79.9444 85.9658 79.4427 85.6672 78.7663 85.8051C77.7521 86.0113 77.2042 86.9127 77.2042 86.9127C75.8262 87.8062 76.4635 90.0142 76.5144 90.1874C76.5787 90.3669 76.7488 91.0747 76.7746 91.6147C76.7856 91.8365 76.4713 92.8805 76.3859 93.1933C76.3083 93.4762 76.179 93.8572 76.6014 93.9865C77.0247 94.1158 77.2363 93.5115 77.2363 93.5115C77.5099 92.7544 77.8061 91.6272 77.8061 91.6272C77.8187 91.86 77.8477 92.2598 77.8406 92.317C77.7732 92.9119 77.6329 93.8768 77.6306 93.9065C77.6023 94.2334 77.5679 94.5806 78.0295 94.6041C78.5578 94.6316 78.6628 93.7764 78.6628 93.7764C78.6628 93.7764 78.7514 94.1135 79.2264 94.061C79.7429 94.0037 79.7829 93.4253 79.7829 93.4253L79.8793 92.7434C80.156 92.9864 80.7673 92.8249 80.8379 92.2653C80.881 91.9267 81.0918 90.3136 80.9374 89.7289C80.783 89.1434 80.2751 87.6839 80.2751 87.6839C80.2751 87.6839 80.5926 87.7811 80.9006 87.9042C81.3035 88.0649 81.8992 87.9575 82.0708 87.5052C82.2001 87.165 81.8208 86.9597 81.8208 86.9597L81.8231 86.9589Z" fill="#F4D4C9"/>
<path opacity="0.94" d="M102.499 70.0586C102.499 83.1904 83.199 93.8745 59.4749 93.8745C35.7507 93.8745 16.4511 83.1904 16.4511 70.0586H15.8633C15.8633 83.5361 35.3886 94.4623 59.4749 94.4623C83.5612 94.4623 103.087 83.5361 103.087 70.0586H102.499Z" fill="#7B9265"/>
<path opacity="0.83" d="M102.499 92.0073C102.499 105.139 83.199 115.823 59.4749 115.823C35.7507 115.823 16.4511 105.139 16.4511 92.0073H15.8633C15.8633 105.485 35.3886 116.411 59.4749 116.411C83.5612 116.411 103.087 105.485 103.087 92.0073H102.499Z" fill="#7B9265"/>
<g opacity="0.4">
<path d="M50.8187 49.7202V41.125C46.3393 41.6298 42.1122 42.5217 38.2441 43.7304V52.3255C42.1122 51.1169 46.3393 50.225 50.8187 49.7202Z" fill="url(#paint7_linear_353_7368)"/>
</g>
<path opacity="0.6" d="M96.916 70.3061V66.4529C94.7527 64.4307 92.0831 62.5989 89.002 61.0117V64.8649C92.0823 66.4521 94.7527 68.2838 96.916 70.3061Z" fill="url(#paint8_linear_353_7368)"/>
<path d="M31.3419 61.8464V58.0105C27.8696 59.6533 24.8637 61.5933 22.4473 63.7613V67.5972C24.8637 65.4292 27.8688 63.4893 31.3419 61.8464Z" fill="url(#paint9_linear_353_7368)"/>
<path opacity="0.5" d="M86.3965 100.853V106.747C87.7885 106.116 89.1359 105.434 90.4158 104.69C91.3266 104.161 92.1778 103.611 92.9906 103.048V97.2727C91.0248 98.5918 88.8106 99.7903 86.3965 100.852V100.853Z" fill="url(#paint10_linear_353_7368)"/>
<path opacity="0.6" d="M30.7266 80.301V91.5925C36.6184 94.6015 43.566 96.5359 50.8154 97.3958V85.8778C43.2149 85.0211 36.337 83.0561 30.7266 80.301Z" fill="url(#paint11_linear_353_7368)"/>
<path d="M16.6581 84.9341C16.1423 83.4339 15.8633 81.8859 15.8633 80.301V86.4311C15.8633 91.1645 18.2797 95.5805 22.448 99.3216V93.1915C19.6749 90.7029 17.6825 87.9149 16.6581 84.9333V84.9341Z" fill="url(#paint12_linear_353_7368)"/>
</g>
<defs>
<linearGradient id="paint0_linear_353_7368" x1="99.8959" y1="100.393" x2="46.4999" y2="-70.4989" gradientUnits="userSpaceOnUse">
<stop stop-color="#1D4524"/>
<stop offset="1" stop-color="#F9F9BA"/>
</linearGradient>
<linearGradient id="paint1_linear_353_7368" x1="-131.409" y1="427.813" x2="-247.073" y2="344.978" gradientUnits="userSpaceOnUse">
<stop stop-color="#1D4524"/>
<stop offset="1" stop-color="#FEFEBE"/>
</linearGradient>
<linearGradient id="paint2_linear_353_7368" x1="111.06" y1="105.093" x2="13.8239" y2="72.5942" gradientUnits="userSpaceOnUse">
<stop stop-color="#1D4524"/>
<stop offset="1" stop-color="#F9F9BA"/>
</linearGradient>
<linearGradient id="paint3_linear_353_7368" x1="51.5742" y1="72.3489" x2="69.2678" y2="72.3489" gradientUnits="userSpaceOnUse">
<stop stop-color="#F0F0F2"/>
<stop offset="1" stop-color="#E8E8EA"/>
</linearGradient>
<linearGradient id="paint4_linear_353_7368" x1="58.2586" y1="80.0355" x2="84.0739" y2="80.0355" gradientUnits="userSpaceOnUse">
<stop stop-color="#F7F7F9"/>
<stop offset="1" stop-color="#F0F0F2"/>
</linearGradient>
<linearGradient id="paint5_linear_353_7368" x1="69.0207" y1="83.3942" x2="84.0642" y2="83.3942" gradientUnits="userSpaceOnUse">
<stop stop-color="#F0F0F2"/>
<stop offset="1" stop-color="#E8E8EA"/>
</linearGradient>
<linearGradient id="paint6_linear_353_7368" x1="77.9676" y1="79.0081" x2="86.4154" y2="79.0081" gradientUnits="userSpaceOnUse">
<stop stop-color="#F7F7F9"/>
<stop offset="1" stop-color="#F0F0F2"/>
</linearGradient>
<linearGradient id="paint7_linear_353_7368" x1="37.0431" y1="75.2802" x2="19.5242" y2="67.6576" gradientUnits="userSpaceOnUse">
<stop stop-color="#1D4524"/>
<stop offset="1" stop-color="#FEFEBE"/>
</linearGradient>
<linearGradient id="paint8_linear_353_7368" x1="88.246" y1="89.354" x2="76.4207" y2="85.4516" gradientUnits="userSpaceOnUse">
<stop stop-color="#1D4524"/>
<stop offset="1" stop-color="#FEFEBE"/>
</linearGradient>
<linearGradient id="paint9_linear_353_7368" x1="21.5977" y1="87.2444" x2="8.54719" y2="82.5516" gradientUnits="userSpaceOnUse">
<stop stop-color="#1D4524"/>
<stop offset="1" stop-color="#FEFEBE"/>
</linearGradient>
<linearGradient id="paint10_linear_353_7368" x1="85.7666" y1="126.165" x2="75.5815" y2="123.417" gradientUnits="userSpaceOnUse">
<stop stop-color="#1D4524"/>
<stop offset="1" stop-color="#FEFEBE"/>
</linearGradient>
<linearGradient id="paint11_linear_353_7368" x1="28.8077" y1="132.43" x2="1.23981" y2="119.874" gradientUnits="userSpaceOnUse">
<stop stop-color="#1D4524"/>
<stop offset="1" stop-color="#FEFEBE"/>
</linearGradient>
<linearGradient id="paint12_linear_353_7368" x1="15.2343" y1="138.303" x2="4.51669" y2="136.865" gradientUnits="userSpaceOnUse">
<stop stop-color="#1D4524"/>
<stop offset="1" stop-color="#FEFEBE"/>
</linearGradient>
<clipPath id="clip0_353_7368">
<rect width="130" height="166" fill="white"/>
</clipPath>
</defs>
</svg>
