<svg width="1014" height="192" viewBox="0 0 1014 192" fill="none" xmlns="http://www.w3.org/2000/svg">
<path d="M14 10C14 4.47715 18.4772 0 24 0H289C294.523 0 299 4.47715 299 10V182C299 187.523 294.523 192 289 192H24C18.4771 192 14 187.523 14 182V10Z" fill="url(#paint0_linear_1020_30410)" fill-opacity="0.4"/>
<path d="M587 10C587 4.47715 582.523 0 577 0H459C453.477 0 449 4.47715 449 10V182C449 187.523 453.477 192 459 192H577C582.523 192 587 187.523 587 182V10Z" fill="url(#paint1_linear_1020_30410)" fill-opacity="0.4"/>
<path d="M1014 10C1014 4.47715 1009.52 0 1004 0H886C880.477 0 876 4.47715 876 10V182C876 187.523 880.477 192 886 192H1004C1009.52 192 1014 187.523 1014 182V10Z" fill="url(#paint2_linear_1020_30410)" fill-opacity="0.4"/>
<path d="M889 72.0001L884 69.1133L884 74.8868L889 72.0001ZM0 72L-4.37114e-08 72.5L884.5 72.5001L884.5 72.0001L884.5 71.5001L4.37114e-08 71.5L0 72Z" fill="#F9F9BA"/>
<g clip-path="url(#clip0_1020_30410)">
<circle cx="80.0378" cy="68.3366" r="56.3269" fill="#E6DFA2"/>
<g clip-path="url(#clip1_1020_30410)">
<path d="M73.5775 87.9324C73.205 87.9324 72.8481 87.7099 72.6952 87.3404C72.2364 86.2359 71.6051 85.1909 70.813 84.2334C69.8758 83.0931 68.9112 81.9846 67.9505 80.8881C65.1115 77.6659 63.5469 73.367 63.5469 68.786C63.5469 64.8287 64.6448 61.2609 66.7231 58.4717C70.9816 52.7783 78.4712 50.4818 85.3609 52.7664C92.2075 55.035 96.5365 61.1655 96.662 68.7701C96.7365 73.2676 95.1798 77.5745 92.2741 80.8841C91.2938 81.9846 90.3292 83.0931 89.3959 84.2294C88.6273 85.1631 88.0039 86.1922 87.5411 87.2967C87.3372 87.7894 86.7765 88.0198 86.2863 87.8092C85.8001 87.5987 85.5727 87.0305 85.7805 86.5378C86.3177 85.2585 87.0392 84.0626 87.9254 82.9859C88.8744 81.8297 89.8547 80.7013 90.8468 79.5889C93.427 76.6487 94.8112 72.8107 94.7445 68.7979C94.6347 61.9443 90.9017 56.6401 84.761 54.6059C78.6477 52.5796 72.0051 54.6019 68.2406 59.6398C66.4172 62.0873 65.4487 65.2499 65.4487 68.786C65.4487 72.8902 66.8407 76.7322 69.366 79.5968C70.3424 80.7093 71.3228 81.8337 72.2678 82.9898C73.1814 84.0944 73.9108 85.3062 74.4441 86.5855C74.648 87.0782 74.4206 87.6463 73.9343 87.8529C73.8128 87.9046 73.6873 87.9284 73.5657 87.9284L73.5775 87.9324Z" fill="#0E2623"/>
<path d="M85.8524 90.4682H74.3513C73.822 90.4682 73.3945 90.0351 73.3945 89.4987C73.3945 88.9624 73.822 88.5293 74.3513 88.5293H85.8524C86.3818 88.5293 86.8092 88.9624 86.8092 89.4987C86.8092 90.0351 86.3818 90.4682 85.8524 90.4682Z" fill="#0E2623"/>
<path d="M84.2385 94.7592H75.9724C75.443 94.7592 75.0156 94.3261 75.0156 93.7897C75.0156 93.2534 75.443 92.8203 75.9724 92.8203H84.2385C84.7678 92.8203 85.1952 93.2534 85.1952 93.7897C85.1952 94.3261 84.7678 94.7592 84.2385 94.7592Z" fill="#0E2623"/>
<path d="M84.2385 98.515H75.9724C75.443 98.515 75.0156 98.082 75.0156 97.5456C75.0156 97.0092 75.443 96.5762 75.9724 96.5762H84.2385C84.7678 96.5762 85.1952 97.0092 85.1952 97.5456C85.1952 98.082 84.7678 98.515 84.2385 98.515Z" fill="#0E2623"/>
<path d="M80.1062 104.351C78.3142 104.351 76.6868 102.957 75.9653 100.803C75.93 100.712 75.8869 100.589 75.8595 100.466C75.7536 99.9413 76.0869 99.4287 76.6045 99.3215C77.1143 99.2182 77.628 99.5519 77.7338 100.076C78.2318 101.538 79.1455 102.417 80.1062 102.417C81.0669 102.417 82.0708 101.455 82.4982 100.021C82.6511 99.5082 83.1883 99.2261 83.6902 99.3731C84.1961 99.5281 84.4784 100.068 84.3255 100.581C83.6393 102.873 81.9806 104.355 80.1023 104.355L80.1062 104.351Z" fill="#0E2623"/>
<path d="M80.2888 43.1634C79.7595 43.1634 79.332 42.7303 79.332 42.1939V31.8718C79.332 31.3354 79.7595 30.9023 80.2888 30.9023C80.8182 30.9023 81.2456 31.3354 81.2456 31.8718V42.1979C81.2456 42.7343 80.8182 43.1673 80.2888 43.1673V43.1634Z" fill="#0E2623"/>
<path d="M68.5172 46.2611C68.1878 46.2611 67.8663 46.0863 67.6898 45.7764L62.604 36.8369C62.3412 36.372 62.4981 35.78 62.9529 35.5138C63.4078 35.2476 63.996 35.4066 64.2587 35.8674L69.3446 44.807C69.6073 45.2718 69.4505 45.8638 68.9956 46.13C68.8466 46.2174 68.6819 46.2611 68.5172 46.2611Z" fill="#0E2623"/>
<path d="M59.8527 54.9027C59.6919 54.9027 59.5273 54.859 59.3743 54.7716L50.5515 49.6026C50.0927 49.3364 49.9397 48.7444 50.2025 48.2796C50.4652 47.8187 51.0534 47.6598 51.5083 47.926L60.3311 53.095C60.7899 53.3612 60.9428 53.9532 60.6801 54.418C60.5036 54.7279 60.1821 54.9027 59.8527 54.9027Z" fill="#0E2623"/>
<path d="M56.6247 66.7768H46.4334C45.904 66.7768 45.4766 66.3437 45.4766 65.8073C45.4766 65.271 45.904 64.8379 46.4334 64.8379H56.6247C57.1541 64.8379 57.5815 65.271 57.5815 65.8073C57.5815 66.3437 57.1541 66.7768 56.6247 66.7768Z" fill="#0E2623"/>
<path d="M50.8649 83.8556C50.5356 83.8556 50.214 83.6808 50.0375 83.3709C49.7748 82.906 49.9317 82.314 50.3865 82.0478L59.2094 76.8947C59.6643 76.6285 60.2525 76.7874 60.5152 77.2483C60.7779 77.7132 60.6211 78.3052 60.1662 78.5714L51.3433 83.7245C51.1943 83.8119 51.0296 83.8556 50.8649 83.8556Z" fill="#0E2623"/>
<path d="M109.175 84.1661C109.014 84.1661 108.849 84.1224 108.696 84.035L99.8735 78.8819C99.4147 78.6157 99.2579 78.0237 99.5245 77.5589C99.7872 77.098 100.375 76.9391 100.83 77.2052L109.653 82.3584C110.112 82.6246 110.269 83.2166 110.002 83.6814C109.826 83.9913 109.504 84.1661 109.175 84.1661Z" fill="#0E2623"/>
<path d="M113.777 67.1342H103.586C103.056 67.1342 102.629 66.7011 102.629 66.1648C102.629 65.6284 103.056 65.1953 103.586 65.1953H113.777C114.306 65.1953 114.734 65.6284 114.734 66.1648C114.734 66.7011 114.306 67.1342 113.777 67.1342Z" fill="#0E2623"/>
<path d="M100.533 55.2151C100.204 55.2151 99.882 55.0402 99.7055 54.7303C99.4428 54.2655 99.5996 53.6735 100.055 53.4073L108.893 48.2383C109.352 47.9681 109.932 48.131 110.199 48.5919C110.462 49.0567 110.305 49.6487 109.85 49.9149L101.011 55.0839C100.862 55.1713 100.698 55.2151 100.533 55.2151Z" fill="#0E2623"/>
<path d="M92.0025 46.4356C91.8417 46.4356 91.677 46.3919 91.5241 46.3045C91.0653 46.0383 90.9124 45.4463 91.1751 44.9815L96.2767 36.042C96.5394 35.5771 97.1276 35.4182 97.5825 35.6884C98.0413 35.9546 98.1942 36.5465 97.9315 37.0114L92.8299 45.9509C92.6534 46.2608 92.3319 46.4356 92.0025 46.4356Z" fill="#0E2623"/>
<path d="M77.4585 75.3564C77.2115 75.3564 76.9683 75.261 76.784 75.0743L71.4903 69.7106C71.1178 69.3331 71.1178 68.7173 71.4903 68.3399C71.8628 67.9624 72.4667 67.9624 72.8432 68.3399L77.5212 73.0798L87.4381 64.7045C87.846 64.3628 88.4459 64.4184 88.7831 64.8276C89.1204 65.2369 89.0655 65.8487 88.6616 66.1904L78.0741 75.1299C77.8977 75.2809 77.6781 75.3564 77.4624 75.3564H77.4585Z" fill="#0E2623"/>
</g>
</g>
<path d="M48.3751 148.643L49.4471 149.715C49.6391 149.907 49.6391 149.923 49.6391 150.019C49.6391 150.147 49.5591 150.227 49.2871 150.323C48.3911 152.867 48.2311 153.219 47.6391 154.243C48.2791 154.659 48.6951 154.995 49.5751 155.763L48.3751 157.059C47.5751 156.291 47.2231 156.003 46.7111 155.635C45.1591 157.651 43.5271 158.947 40.5991 160.515C40.1991 159.843 39.9271 159.491 39.5431 159.123C42.3271 157.763 43.8151 156.627 45.3191 154.739C44.6631 154.387 44.1671 154.163 42.9671 153.715L43.7991 152.451C45.0311 152.915 45.5591 153.123 46.2151 153.459C46.8071 152.467 47.1751 151.651 47.5911 150.435H44.4071C43.3031 152.403 42.4551 153.427 40.3431 155.331C39.9271 154.723 39.7991 154.611 39.2231 154.115C40.1991 153.283 40.5831 152.915 41.1751 152.227C42.6791 150.467 43.4151 149.091 44.0391 146.851L45.6391 147.379C45.7831 147.427 45.8471 147.491 45.8471 147.587C45.8471 147.715 45.7991 147.747 45.5111 147.859C45.3671 148.227 45.2711 148.515 45.1911 148.691C45.1431 148.819 45.1271 148.851 45.0951 148.931H48.1511L48.3751 148.643ZM68.6471 152.515V154.227C67.8951 154.211 66.6311 154.179 65.7831 154.179H59.0791C58.2951 154.179 56.9031 154.211 56.2151 154.227V152.515C56.8711 152.531 58.2631 152.563 59.0791 152.563H65.7831C66.6631 152.563 67.9271 152.547 68.6471 152.515ZM84.9511 146.435L85.6551 145.619C86.4071 146.083 86.8871 146.467 87.6711 147.219L86.8711 148.099C86.1351 147.315 85.7671 146.995 84.9511 146.435ZM83.7031 147.891L84.4071 147.059C85.1591 147.539 85.6551 147.923 86.4391 148.675L85.6391 149.539C84.8871 148.755 84.5351 148.451 83.7031 147.891ZM78.0391 149.955H84.5191C85.1751 149.955 85.9111 149.939 86.4071 149.923V151.571C85.8951 151.555 85.0951 151.539 84.5191 151.539H82.6951C82.5351 152.499 82.4071 153.155 82.3111 153.491C81.7031 155.811 80.5991 157.587 78.9191 158.979C78.2471 159.539 77.7031 159.891 76.6951 160.435C76.4071 159.827 76.1031 159.411 75.6551 159.043C77.6711 157.923 78.7591 156.947 79.5911 155.507C80.2951 154.275 80.5671 153.411 80.8871 151.539H77.1271C76.4071 152.627 75.7351 153.411 74.4231 154.691C74.0871 154.163 73.7511 153.859 73.2711 153.587C75.5751 151.443 76.7591 149.491 77.5591 146.547L79.1431 147.203C79.3191 147.267 79.3671 147.315 79.3671 147.411C79.3671 147.523 79.3031 147.555 79.0151 147.667C78.5991 148.739 78.2951 149.427 78.0391 149.955ZM92.4391 152.259L93.7031 151.427C94.5511 152.387 95.0311 153.107 95.6071 154.387L94.1511 155.187C93.5271 153.763 93.2231 153.251 92.4391 152.259ZM100.951 150.707L102.423 151.331C102.583 151.395 102.647 151.475 102.647 151.587C102.647 151.731 102.567 151.795 102.311 151.907C101.351 154.931 100.599 156.227 99.0151 157.635C97.7671 158.739 96.8551 159.267 94.4871 160.307C94.2791 159.795 94.2151 159.683 93.6551 158.931C95.0311 158.387 95.6231 158.099 96.3911 157.619C98.4871 156.307 99.7831 154.675 100.503 152.419C100.663 151.891 100.727 151.651 100.951 150.707ZM95.5591 150.947L96.8871 150.275C97.6071 151.283 98.0711 152.227 98.4071 153.363L96.8871 153.955C96.4071 152.435 96.2791 152.131 95.5591 150.947ZM114.935 150.211V151.475C117.079 152.259 118.359 152.899 119.943 153.923L118.935 155.443C117.703 154.515 116.471 153.827 114.935 153.203V156.611C114.935 158.115 114.951 159.059 114.967 159.875H113.063C113.159 159.091 113.207 158.051 113.207 156.611V150.211C113.207 148.387 113.191 147.379 113.143 146.883L115.015 146.995C115.175 147.011 115.271 147.059 115.271 147.155C115.271 147.251 115.175 147.347 114.967 147.459C114.935 148.515 114.935 148.707 114.935 150.211ZM72.0071 172.363H75.9751C76.4391 172.363 76.7751 172.363 77.1271 172.347C77.0951 172.635 77.0791 173.179 77.0791 173.643V174.235C77.0791 174.523 77.1111 174.795 77.1111 175.083C77.1111 175.915 76.6631 176.123 75.9111 176.267C75.7511 176.299 75.2551 176.363 74.8231 176.347C75.7511 177.003 76.7911 177.451 78.7591 178.107C78.3431 178.603 78.1671 178.859 77.9271 179.435C75.5911 178.539 74.5991 178.011 73.5111 177.067C72.9031 176.539 72.4231 176.027 72.0071 175.435V176.571C72.0071 178.059 72.0231 179.115 72.0551 179.851H70.4391C70.4711 179.147 70.4871 178.043 70.4871 176.571V175.483C69.9111 176.203 69.3191 176.763 68.4711 177.435C67.3351 178.315 66.5191 178.779 64.6631 179.579C64.3271 178.939 64.1671 178.715 63.7991 178.299C65.5751 177.643 66.6791 177.051 67.7991 176.171C68.7111 175.451 69.4151 174.715 70.1031 173.755H67.2711V174.763C67.2711 175.499 67.2871 176.107 67.3191 176.459H65.7991C65.8311 176.075 65.8471 175.547 65.8471 174.763V173.755C65.8471 173.243 65.8151 172.635 65.7991 172.347C66.1511 172.363 66.4871 172.363 66.9511 172.363H70.4871V171.595H67.1591C66.3751 171.595 64.9671 171.611 64.2951 171.643V170.107C64.9511 170.139 66.3431 170.171 67.1591 170.171H70.4711C70.4711 169.611 70.4551 169.211 70.4231 168.955L71.5751 169.035C71.3191 168.763 71.0631 168.555 70.5991 168.315C70.8071 168.123 70.9831 167.947 71.1591 167.771C70.8231 167.755 70.3271 167.755 69.9111 167.755H68.8391C69.1591 168.235 69.3991 168.683 69.6711 169.227L68.2791 169.819C67.9751 169.051 67.6551 168.395 67.2711 167.755H66.6631C66.1511 168.587 65.5271 169.275 64.6791 170.027C64.3591 169.547 64.1351 169.291 63.7031 168.971C64.4711 168.315 64.7911 167.979 65.2871 167.275C65.7831 166.587 65.8471 166.443 66.5031 164.971L67.8151 165.435C67.9431 165.483 68.0551 165.579 68.0551 165.675C68.0551 165.803 67.9751 165.835 67.6071 165.899C67.5431 166.059 67.4631 166.219 67.3991 166.379H69.9111C70.2631 166.379 70.8391 166.379 71.1911 166.363V167.723C71.9751 166.907 72.4071 166.155 72.8391 164.987L74.1511 165.435C74.2791 165.483 74.3911 165.579 74.3911 165.675C74.3911 165.803 74.3111 165.835 73.9431 165.899C73.8791 166.059 73.8151 166.219 73.7351 166.379H77.1911C77.5271 166.379 78.1031 166.379 78.4551 166.363V167.771C78.1191 167.755 77.6231 167.755 77.1911 167.755H75.4311C75.7191 168.155 75.9911 168.587 76.2311 169.051L74.9031 169.739C74.4391 168.747 74.1831 168.315 73.7831 167.755H72.9511C72.6151 168.219 72.2471 168.651 71.8471 169.051L72.0551 169.067C72.2151 169.083 72.3111 169.131 72.3111 169.227C72.3111 169.323 72.2311 169.403 72.0231 169.547C72.0071 169.707 72.0071 169.771 72.0071 170.171H75.4151C76.3111 170.171 77.5751 170.139 78.2951 170.107V171.643C77.5431 171.611 76.2791 171.595 75.4151 171.595H72.0071V172.363ZM75.6391 173.755H72.3911C72.9671 174.683 73.6071 175.403 74.5031 176.107C74.4711 175.691 74.4071 175.451 74.2631 174.875C74.6631 174.907 74.9031 174.923 75.0951 174.923C75.5591 174.923 75.6391 174.827 75.6391 174.267V173.755ZM89.6711 175.019V177.787C90.1991 177.867 90.8231 177.899 91.6071 177.899C92.8071 177.899 95.2551 177.819 96.3271 177.739C96.1031 178.571 96.0711 178.763 96.0231 179.323C93.4951 179.371 92.7431 179.371 91.8951 179.371C89.5751 179.371 88.4711 179.195 87.3831 178.619C86.3591 178.091 85.7191 177.499 85.1271 176.443C85.0631 176.571 84.9991 176.715 84.9191 176.843C84.2311 178.075 83.4791 178.907 82.1671 179.899C81.8471 179.355 81.6391 179.083 81.1751 178.667C82.4231 177.723 83.0151 177.083 83.6071 176.027C84.2791 174.843 84.5831 173.835 84.7911 172.203L86.2631 172.587C86.5031 172.651 86.5991 172.715 86.5991 172.827C86.5991 172.939 86.4871 173.003 86.2151 173.067C86.0871 173.739 85.9431 174.315 85.7831 174.859C86.2951 175.915 87.0151 176.763 88.0871 177.291V171.579H86.4871C85.6071 171.579 84.1671 171.611 83.3031 171.643V170.043C84.1191 170.075 85.5751 170.107 86.4871 170.107H91.2391C92.2471 170.107 93.6071 170.075 94.4231 170.043V171.643C93.5751 171.595 92.2151 171.579 91.2391 171.579H89.6711V173.547H91.2071C91.9751 173.547 93.0631 173.531 93.7511 173.499V175.067C93.0631 175.051 91.9751 175.019 91.2071 175.019H89.6711ZM88.0391 166.603V165.979C88.0391 165.547 88.0391 165.195 88.0231 164.955L89.6231 165.067C89.8151 165.083 89.9271 165.147 89.9271 165.227C89.9271 165.323 89.8471 165.419 89.6231 165.547V166.603H92.5351C93.6231 166.603 94.8871 166.587 95.7031 166.539C95.6871 167.115 95.6711 167.419 95.6711 167.755V168.555C95.6711 168.907 95.6871 169.291 95.7191 169.755H94.0551C94.0871 169.339 94.1031 168.875 94.1031 168.555V168.075H83.6231V168.555C83.6231 168.875 83.6391 169.339 83.6711 169.755H82.0071C82.0391 169.291 82.0551 168.907 82.0551 168.555V167.755C82.0551 167.419 82.0391 167.115 82.0231 166.539C82.8391 166.587 84.1031 166.603 85.1911 166.603H88.0391Z" fill="white"/>
<g clip-path="url(#clip2_1020_30410)">
<circle cx="232.202" cy="68.3366" r="56.3269" fill="#E6DFA2"/>
<g clip-path="url(#clip3_1020_30410)">
<path d="M235.691 89.1169C236.309 86.3935 237.362 81.7708 237.418 81.5723L244.54 88.6936C244.398 88.7235 239.733 89.7874 236.98 90.4093L235.688 89.1169H235.691Z" fill="#E6DFA2"/>
<path d="M270.336 52.1718L266.781 55.7266L270.405 59.3502L273.96 55.7954L270.336 52.1718Z" fill="#E6DFA2"/>
<path d="M266.773 55.7302L270.399 59.3527V59.3677L272.183 61.1358L268.418 64.9006L257.01 76.3224L256.842 76.476L252.796 80.5218L244.576 88.7257L244.55 88.6995L237.428 81.5782L237.398 81.5482L253.301 65.6461L253.399 65.5487L257.291 61.6565L257.49 61.4617L264.99 53.9434L266.773 55.7302Z" fill="#E6DFA2"/>
<path d="M220.848 45.9071L223.826 44.1801V40.6963H228.869C228.082 39.9957 227.603 38.9693 227.603 37.8455C227.603 35.684 229.401 33.9121 231.634 33.9121C233.866 33.9121 235.68 35.684 235.68 37.8455C235.68 38.9693 235.189 39.9957 234.417 40.6963H239.46V44.1801L242.412 45.9071L243.494 46.5401C244.701 47.2407 243.959 48.563 242.37 48.563H220.919C219.32 48.563 218.574 47.2444 219.78 46.5401L220.848 45.9071Z" fill="#E6DFA2"/>
<path d="M210.494 45.909V96.6085H253.116V84.0216V83.6995V80.8599L252.794 80.5228L256.84 76.477L257.008 76.3234L257.094 76.4096V79.6125V80.047V101.344H206.52V41.1777H223.827V44.1821L220.849 45.909H210.494Z" fill="#E6DFA2"/>
<path d="M257.095 41.1777V57.5968V57.8515V61.4628L257.289 61.6575L253.397 65.5497L253.3 65.6471L253.116 65.4636V62.137V61.5751V45.909H242.413L239.461 44.1821V41.1777H257.095Z" fill="#E6DFA2"/>
<path d="M257.094 102.254H206.52C206.014 102.254 205.605 101.845 205.605 101.34V41.1738C205.605 40.6681 206.014 40.2598 206.52 40.2598H223.827C224.333 40.2598 224.741 40.6681 224.741 41.1738C224.741 41.6795 224.333 42.0879 223.827 42.0879H207.43V100.426H256.18V80.0431C256.18 79.5374 256.589 79.1291 257.094 79.1291C257.6 79.1291 258.008 79.5374 258.008 80.0431V101.34C258.008 101.845 257.6 102.254 257.094 102.254Z" fill="#0E2623"/>
<path d="M257.087 58.5069C256.581 58.5069 256.173 58.0986 256.173 57.5929V42.0879H239.453C238.947 42.0879 238.539 41.6795 238.539 41.1738C238.539 40.6681 238.947 40.2598 239.453 40.2598H257.083C257.589 40.2598 257.997 40.6681 257.997 41.1738V57.5966C257.997 58.1023 257.589 58.5107 257.083 58.5107L257.087 58.5069Z" fill="#0E2623"/>
<path d="M253.114 97.5178H210.492C209.986 97.5178 209.578 97.1094 209.578 96.6037V45.9043C209.578 45.3986 209.986 44.9902 210.492 44.9902H220.847C221.353 44.9902 221.761 45.3986 221.761 45.9043C221.761 46.41 221.353 46.8183 220.847 46.8183H211.406V95.6897H252.203V84.0169C252.203 83.5112 252.612 83.1028 253.117 83.1028C253.623 83.1028 254.032 83.5112 254.032 84.0169V96.6037C254.032 97.1094 253.623 97.5178 253.117 97.5178H253.114Z" fill="#0E2623"/>
<path d="M253.117 62.4807C252.611 62.4807 252.203 62.0724 252.203 61.5666V46.8183H242.41C241.904 46.8183 241.496 46.41 241.496 45.9043C241.496 45.3986 241.904 44.9902 242.41 44.9902H253.117C253.623 44.9902 254.031 45.3986 254.031 45.9043V61.5666C254.031 62.0724 253.623 62.4807 253.117 62.4807Z" fill="#0E2623"/>
<path d="M239.453 45.0987C238.947 45.0987 238.539 44.6979 238.539 44.1922V41.6074H234.41C233.904 41.6074 233.496 41.1991 233.496 40.6933C233.496 40.1876 233.904 39.7793 234.41 39.7793H239.453C239.958 39.7793 240.367 40.1876 240.367 40.6933V44.1772C240.367 44.6829 239.958 45.0987 239.453 45.0987Z" fill="#0E2623"/>
<path d="M223.824 45.0912C223.319 45.0912 222.91 44.6829 222.91 44.1772V40.6933C222.91 40.1876 223.319 39.7793 223.824 39.7793H228.867C229.372 39.7793 229.781 40.1876 229.781 40.6933C229.781 41.1991 229.372 41.6074 228.867 41.6074H224.738V44.1772C224.738 44.6829 224.33 45.0912 223.824 45.0912Z" fill="#0E2623"/>
<path d="M242.37 49.4733H220.919C219.634 49.4733 218.592 48.8177 218.33 47.8437C218.113 47.0346 218.491 46.2329 219.323 45.7497L223.369 43.3859C223.803 43.1312 224.361 43.281 224.616 43.7193C224.871 44.1538 224.721 44.712 224.286 44.9667L220.248 47.323C220.139 47.3867 220.094 47.4354 220.087 47.4504C220.132 47.4504 220.39 47.6452 220.922 47.6452H242.374C242.823 47.6452 243.082 47.4879 243.164 47.398C243.141 47.3942 243.1 47.3605 243.04 47.3268L239.006 44.963C238.571 44.7083 238.425 44.1501 238.68 43.7156C238.934 43.281 239.493 43.1349 239.931 43.3896L243.962 45.7497C244.79 46.2329 245.172 47.0346 244.955 47.8437C244.692 48.8177 243.655 49.4733 242.377 49.4733H242.37Z" fill="#0E2623"/>
<path d="M228.864 41.6103C228.647 41.6103 228.43 41.5316 228.257 41.378C227.261 40.4865 226.688 39.1978 226.688 37.8455C226.688 35.1745 228.905 32.998 231.633 32.998C234.36 32.998 236.593 35.1708 236.593 37.8455C236.593 39.1828 236.023 40.4715 235.03 41.3743C234.656 41.7114 234.079 41.6852 233.742 41.3143C233.405 40.9397 233.431 40.3628 233.802 40.0257C234.416 39.4675 234.768 38.6734 234.768 37.8492C234.768 36.1822 233.363 34.8299 231.636 34.8299C229.909 34.8299 228.516 36.1822 228.516 37.8492C228.516 38.6846 228.864 39.475 229.475 40.0219C229.849 40.3591 229.883 40.936 229.546 41.3106C229.366 41.5129 229.115 41.6178 228.864 41.6178V41.6103Z" fill="#0E2623"/>
<path d="M247.98 60.1152H224.098C223.592 60.1152 223.184 59.7069 223.184 59.2012C223.184 58.6954 223.592 58.2871 224.098 58.2871H247.98C248.486 58.2871 248.894 58.6954 248.894 59.2012C248.894 59.7069 248.486 60.1152 247.98 60.1152Z" fill="#0E2623"/>
<path d="M232.598 88.207H224.098C223.592 88.207 223.184 87.7987 223.184 87.293C223.184 86.7872 223.592 86.3789 224.098 86.3789H232.598C233.104 86.3789 233.512 86.7872 233.512 87.293C233.512 87.7987 233.104 88.207 232.598 88.207Z" fill="#0E2623"/>
<path d="M241.376 74.1621H224.098C223.592 74.1621 223.184 73.7537 223.184 73.248C223.184 72.7423 223.592 72.334 224.098 72.334H241.376C241.881 72.334 242.29 72.7423 242.29 73.248C242.29 73.7537 241.881 74.1621 241.376 74.1621Z" fill="#0E2623"/>
<path d="M216.525 61.6841C216.293 61.6841 216.06 61.5942 215.88 61.4181L213.887 59.4365C213.528 59.0806 213.528 58.5037 213.884 58.1441C214.24 57.7882 214.816 57.7844 215.176 58.1403L216.525 59.4777L218.859 57.1439C219.215 56.788 219.792 56.788 220.151 57.1439C220.507 57.4997 220.507 58.0804 220.151 58.4363L217.173 61.4144C216.993 61.5942 216.761 61.6804 216.529 61.6804L216.525 61.6841Z" fill="#0E2623"/>
<path d="M216.525 75.7329C216.293 75.7329 216.06 75.643 215.88 75.467L213.887 73.4853C213.528 73.1294 213.528 72.5525 213.884 72.1929C214.24 71.8333 214.816 71.8333 215.176 72.1891L216.525 73.5265L218.859 71.1927C219.215 70.8368 219.792 70.8368 220.151 71.1927C220.507 71.5486 220.507 72.1292 220.151 72.4851L217.173 75.4632C216.993 75.643 216.761 75.7292 216.529 75.7292L216.525 75.7329Z" fill="#0E2623"/>
<path d="M216.525 89.6118C216.293 89.6118 216.06 89.5219 215.88 89.3459L213.887 87.3642C213.528 87.0083 213.528 86.4314 213.884 86.0718C214.24 85.7122 214.816 85.7122 215.176 86.0681L216.525 87.4054L218.859 85.0716C219.215 84.7157 219.792 84.7157 220.151 85.0716C220.511 85.4275 220.507 86.0081 220.151 86.364L217.173 89.3421C216.993 89.5219 216.761 89.6081 216.529 89.6081L216.525 89.6118Z" fill="#0E2623"/>
<path d="M244.571 89.6415C244.342 89.6415 244.11 89.5554 243.934 89.3793L236.775 82.2205C236.419 81.8647 236.389 81.2578 236.745 80.9019L264.336 53.2971C264.508 53.1247 264.741 53.0273 264.98 53.0273C265.224 53.0273 265.456 53.1247 265.625 53.2933L271.034 58.7027C271.068 58.7364 271.098 58.7701 271.124 58.8075L272.818 60.4858C272.99 60.6581 273.087 60.8904 273.087 61.1339C273.087 61.3774 272.994 61.6096 272.821 61.7819L253.434 81.1679L245.215 89.3718C245.039 89.5516 244.803 89.6378 244.571 89.6378V89.6415ZM238.685 81.55L244.571 87.4351L270.881 61.1376L269.749 60.0138C269.716 59.9801 269.682 59.9426 269.656 59.9051L264.984 55.2338L238.685 81.5462V81.55Z" fill="#0E2623"/>
<path d="M235.688 90.0346C235.621 90.0346 235.553 90.0271 235.486 90.0122C234.995 89.8998 234.684 89.4128 234.796 88.9221C234.811 88.8509 236.344 82.1004 236.523 81.3812C236.613 80.9729 236.977 80.6582 237.415 80.6582C237.921 80.6582 238.329 81.059 238.329 81.5648V81.5797C238.329 81.6659 238.318 81.7483 238.295 81.8307C238.228 82.093 237.25 86.3747 236.58 89.3266C236.482 89.7499 236.108 90.0384 235.692 90.0384L235.688 90.0346Z" fill="#0E2623"/>
<path d="M236.988 91.3228C236.568 91.3228 236.193 91.0343 236.096 90.611C235.987 90.1203 236.295 89.6296 236.789 89.5209C238.419 89.1538 240.719 88.6331 242.352 88.2585C243.495 88 244.315 87.8127 244.372 87.8015C244.87 87.7003 245.346 88.03 245.443 88.5245C245.54 89.0189 245.218 89.4984 244.72 89.5958C244.634 89.6146 243.843 89.7944 242.753 90.0416C241.116 90.4162 238.816 90.9369 237.186 91.304C237.119 91.319 237.051 91.3265 236.988 91.3265V91.3228Z" fill="#0E2623"/>
<path d="M236.977 91.3267C236.745 91.3267 236.509 91.2368 236.333 91.0607L235.04 89.7683C234.684 89.4124 234.684 88.8318 235.04 88.4759C235.396 88.12 235.973 88.12 236.333 88.4759L237.625 89.7683C237.981 90.1242 237.981 90.7048 237.625 91.0607C237.445 91.2405 237.213 91.3267 236.981 91.3267H236.977Z" fill="#0E2623"/>
<path d="M235.005 92.1281C234.773 92.1281 234.537 92.0382 234.361 91.8622C234.005 91.5063 234.005 90.9294 234.361 90.5698L235.5 89.431C235.855 89.0751 236.436 89.0751 236.792 89.431C237.148 89.7868 237.148 90.3637 236.792 90.7234L235.653 91.8622C235.473 92.042 235.241 92.1281 235.009 92.1281H235.005Z" fill="#0E2623"/>
<path d="M270.389 60.2625C270.157 60.2625 269.921 60.1726 269.745 59.9966C269.389 59.6407 269.389 59.06 269.745 58.7042L272.652 55.7972L270.318 53.4634L267.407 56.3741C267.051 56.73 266.474 56.73 266.115 56.3741C265.759 56.0182 265.759 55.4376 266.115 55.0817L269.67 51.5267C270.026 51.1708 270.603 51.1708 270.962 51.5267L274.589 55.1529C274.761 55.3252 274.855 55.5575 274.855 55.7972C274.855 56.037 274.757 56.273 274.589 56.4415L271.033 59.9928C270.854 60.1726 270.621 60.2588 270.389 60.2588V60.2625Z" fill="#0E2623"/>
<path d="M270.772 68.1721C270.54 68.1721 270.304 68.0822 270.128 67.9061L262.204 59.9831C261.849 59.6273 261.849 59.0466 262.204 58.6907C262.56 58.3349 263.137 58.3349 263.497 58.6907L271.42 66.6137C271.776 66.9696 271.776 67.5502 271.42 67.9061C271.24 68.0859 271.008 68.1721 270.776 68.1721H270.772Z" fill="#0E2623"/>
<path d="M259.893 78.9509C259.657 78.9509 259.425 78.861 259.245 78.6812C258.889 78.3216 258.893 77.7447 259.253 77.3888L272.601 64.1689C272.96 63.813 273.537 63.8167 273.893 64.1764C274.249 64.536 274.245 65.1129 273.886 65.4688L260.541 78.6887C260.361 78.8647 260.133 78.9547 259.897 78.9547L259.893 78.9509Z" fill="#0E2623"/>
</g>
</g>
<path d="M217.915 149.603V152.563C217.915 155.955 217.419 157.427 215.787 158.787C214.875 159.539 214.091 159.971 212.363 160.675C212.075 159.843 211.835 159.475 211.339 159.107C212.715 158.643 213.755 158.115 214.491 157.507C215.691 156.515 216.107 155.283 216.107 152.723V149.603C216.107 148.387 216.091 147.651 216.059 147.203L217.947 147.315C218.123 147.331 218.219 147.379 218.219 147.491C218.219 147.571 218.155 147.651 217.947 147.795C217.915 148.259 217.915 148.579 217.915 149.603ZM211.291 147.555L213.179 147.667C213.355 147.683 213.451 147.731 213.451 147.827C213.451 147.923 213.387 147.987 213.147 148.147C213.147 148.611 213.131 149.187 213.131 149.955V153.011C213.131 154.131 213.147 154.835 213.163 155.347H211.291C211.323 154.803 211.339 154.067 211.339 153.011V149.955C211.339 148.691 211.323 148.003 211.291 147.555ZM227.243 150.963L227.099 149.171C228.459 149.171 230.763 149.107 231.947 149.043L234.875 148.867L235.115 148.579L236.331 149.683C236.459 149.811 236.491 149.843 236.491 149.939C236.491 150.035 236.427 150.083 236.299 150.115L236.107 150.163C234.763 152.419 234.699 152.499 233.819 153.587C233.867 153.619 233.963 153.683 234.043 153.747C235.451 154.835 235.627 154.979 236.475 155.859C237.163 156.563 237.483 156.947 238.075 157.763L236.683 158.995C235.595 157.443 234.907 156.627 234.107 155.923C233.115 155.059 232.955 154.931 232.747 154.771C231.035 156.579 229.211 157.827 226.475 159.059C226.091 158.259 225.963 158.051 225.547 157.539C228.699 156.163 230.283 155.075 232.155 152.995C232.891 152.179 233.419 151.475 233.851 150.771C233.979 150.579 234.027 150.515 234.059 150.435L232.043 150.627C231.899 150.643 231.339 150.675 230.523 150.723C229.755 150.771 227.979 150.899 227.243 150.963ZM249.499 150.211V151.475C251.643 152.259 252.923 152.899 254.507 153.923L253.499 155.443C252.267 154.515 251.035 153.827 249.499 153.203V156.611C249.499 158.115 249.515 159.059 249.531 159.875H247.627C247.723 159.091 247.771 158.051 247.771 156.611V150.211C247.771 148.387 247.755 147.379 247.707 146.883L249.579 146.995C249.739 147.011 249.835 147.059 249.835 147.155C249.835 147.251 249.739 147.347 249.531 147.459C249.499 148.515 249.499 148.707 249.499 150.211ZM226.235 169.371V171.227H227.691C228.459 171.227 229.547 171.195 230.235 171.179V172.747C229.547 172.715 228.459 172.699 227.691 172.699H226.235V174.603H227.691C228.459 174.603 229.547 174.571 230.235 174.539V176.123C229.547 176.091 228.459 176.075 227.691 176.075H226.235V176.539C226.235 178.011 226.251 179.099 226.283 179.819H224.635C224.683 179.099 224.699 178.011 224.699 176.539V169.371H223.547C222.827 171.067 222.107 172.171 220.923 173.675C220.619 173.291 220.235 172.955 219.755 172.587C221.531 170.347 222.571 168.171 223.435 164.939L224.875 165.371C225.115 165.451 225.211 165.531 225.211 165.643C225.211 165.755 225.163 165.787 224.843 165.883C224.587 166.635 224.363 167.307 224.139 167.899H228.299C229.067 167.899 230.155 167.883 230.843 167.851V169.419C230.155 169.403 229.067 169.371 228.299 169.371H226.235ZM217.851 176.571V172.427C217.531 173.067 217.243 173.563 216.763 174.331C216.363 173.531 216.203 173.307 215.739 172.811C217.275 170.443 218.267 168.027 219.035 164.843L220.571 165.435C220.715 165.483 220.795 165.563 220.795 165.659C220.795 165.787 220.747 165.819 220.411 165.931C219.947 167.531 219.739 168.171 219.163 169.531L219.451 169.547C219.611 169.563 219.707 169.627 219.707 169.707C219.707 169.803 219.627 169.899 219.403 170.027C219.387 170.827 219.387 171.595 219.387 172.763V176.571C219.387 178.011 219.403 179.147 219.435 179.851H217.787C217.819 179.131 217.851 178.043 217.851 176.571ZM239.979 172.491L239.899 172.507C239.851 175.595 239.643 176.843 239.115 177.371C238.715 177.787 238.363 177.867 236.683 177.867C236.619 177.259 236.523 176.811 236.315 176.267C236.683 176.283 237.147 176.299 237.371 176.299C237.915 176.299 238.043 176.203 238.171 175.755C238.331 175.195 238.395 174.395 238.427 172.763H236.139C236.075 173.819 235.947 174.875 235.771 175.675C235.435 177.243 235.051 178.139 234.219 179.467C233.819 178.859 233.579 178.587 233.179 178.235C234.267 176.475 234.699 174.475 234.699 171.211V168.939C234.699 168.443 234.683 167.819 234.651 167.531C235.195 167.547 235.723 167.547 236.411 167.547H241.259V167.003C241.259 165.979 241.211 165.323 241.163 165.019L242.875 165.211C243.051 165.227 243.131 165.291 243.131 165.387C243.131 165.499 243.051 165.579 242.811 165.707C242.795 166.155 242.795 166.523 242.795 167.547H245.051C244.395 166.763 244.251 166.619 243.627 166.043L244.523 165.131C245.195 165.643 245.723 166.155 246.283 166.795L245.515 167.547C246.411 167.531 247.419 167.515 248.091 167.483V169.083C247.259 169.051 245.819 169.019 244.891 169.019H242.811C242.875 170.427 243.083 172.043 243.323 173.003C243.419 173.371 243.531 173.755 243.659 174.107C244.507 172.827 244.827 172.059 245.483 169.787L246.907 170.331C247.051 170.379 247.115 170.443 247.115 170.523C247.115 170.635 247.019 170.715 246.811 170.779C245.963 173.163 245.275 174.587 244.411 175.755C245.083 176.971 245.867 177.851 246.395 177.851C246.747 177.851 247.035 177.227 247.323 175.867C247.707 176.075 248.155 176.299 248.635 176.491C248.331 177.739 248.187 178.187 247.915 178.651C247.547 179.307 247.163 179.563 246.587 179.563C245.467 179.563 244.299 178.667 243.291 177.035C242.235 178.027 240.875 178.827 238.699 179.739C238.459 179.195 238.251 178.859 237.915 178.411C240.203 177.467 241.483 176.715 242.523 175.595C242.139 174.731 241.851 173.819 241.659 172.875C241.419 171.611 241.339 170.315 241.291 169.019H236.187V171.403H238.923L239.179 171.115L240.107 172.043C240.235 172.171 240.235 172.187 240.235 172.251C240.235 172.363 240.139 172.459 239.979 172.491Z" fill="white"/>
<g clip-path="url(#clip4_1020_30410)">
<circle cx="374.858" cy="68.3366" r="56.3269" fill="white"/>
<g clip-path="url(#clip5_1020_30410)">
<path d="M403.844 94.5427V100.821H381.367V94.5427C381.367 94.022 381.423 93.5163 381.521 93.0256C382.225 89.7815 385.091 87.3652 388.518 87.3652H396.692C400.12 87.3652 402.986 89.7815 403.69 93.0256C403.787 93.5163 403.844 94.022 403.844 94.5427Z" fill="white"/>
<path d="M392.58 73.5684C395.641 73.5684 398.113 76.097 398.113 79.2025C398.113 82.308 395.641 84.8515 392.58 84.8515C389.52 84.8515 387.059 82.3379 387.059 79.2025C387.059 76.067 389.531 73.5684 392.58 73.5684Z" fill="white"/>
<path d="M346.611 93.0256C347.315 89.7815 350.181 87.3652 353.608 87.3652H361.797C365.21 87.3652 368.076 89.7815 368.78 93.0256C368.877 93.5163 368.934 94.022 368.934 94.5427V100.821H346.457V94.5427C346.457 94.022 346.513 93.5163 346.611 93.0256Z" fill="white"/>
<path d="M357.677 73.5684C360.727 73.5684 363.199 76.097 363.199 79.2025C363.199 82.308 360.727 84.8515 357.677 84.8515C354.628 84.8515 352.145 82.3379 352.145 79.2025C352.145 76.067 354.617 73.5684 357.677 73.5684Z" fill="white"/>
<path d="M364.498 61.8653H346.461V54.8975C346.461 50.923 349.649 47.7051 353.597 47.7051H361.786C365.735 47.7051 368.937 50.923 368.937 54.8975V61.8653H364.498Z" fill="white"/>
<path d="M357.677 33.9121C360.727 33.9121 363.199 36.4407 363.199 39.5612C363.199 42.6817 360.727 45.2065 357.677 45.2065C354.628 45.2065 352.145 42.6779 352.145 39.5612C352.145 36.4445 354.617 33.9121 357.677 33.9121Z" fill="white"/>
<path d="M399.42 61.8653H381.367V54.8975C381.367 50.923 384.57 47.7051 388.518 47.7051H396.707C400.656 47.7051 403.844 50.923 403.844 54.8975V61.8653H399.42Z" fill="white"/>
<path d="M392.58 33.9121C395.641 33.9121 398.113 36.4407 398.113 39.5612C398.113 42.6817 395.641 45.2065 392.58 45.2065C389.52 45.2065 387.059 42.6779 387.059 39.5612C387.059 36.4445 389.531 33.9121 392.58 33.9121Z" fill="white"/>
<path d="M357.681 46.1206C354.126 46.1206 351.23 43.1761 351.23 39.5574C351.23 35.9387 354.126 32.998 357.681 32.998C361.236 32.998 364.117 35.9425 364.117 39.5574C364.117 43.1724 361.229 46.1206 357.681 46.1206ZM357.681 34.8261C355.134 34.8261 353.059 36.9502 353.059 39.5574C353.059 42.1647 355.13 44.2925 357.681 44.2925C360.232 44.2925 362.289 42.1684 362.289 39.5574C362.289 36.9464 360.221 34.8261 357.681 34.8261Z" fill="#0E2623"/>
<path d="M364.508 62.7781C364.002 62.7781 363.594 62.3698 363.594 61.8641V55.3047C363.594 54.7989 364.002 54.3906 364.508 54.3906C365.014 54.3906 365.422 54.7989 365.422 55.3047V61.8641C365.422 62.3698 365.014 62.7781 364.508 62.7781Z" fill="#0E2623"/>
<path d="M350.82 62.7781C350.315 62.7781 349.906 62.3698 349.906 61.8641V55.3047C349.906 54.7989 350.315 54.3906 350.82 54.3906C351.326 54.3906 351.734 54.7989 351.734 55.3047V61.8641C351.734 62.3698 351.326 62.7781 350.82 62.7781Z" fill="#0E2623"/>
<path d="M368.953 62.7754C368.447 62.7754 368.039 62.3671 368.039 61.8613V54.8936C368.039 51.4322 365.241 48.6152 361.802 48.6152H353.613C350.181 48.6152 347.391 51.4322 347.391 54.8936V61.8613C347.391 62.3671 346.982 62.7754 346.477 62.7754C345.971 62.7754 345.562 62.3671 345.562 61.8613V54.8936C345.562 50.4246 349.174 46.7871 353.613 46.7871H361.802C366.248 46.7871 369.867 50.4246 369.867 54.8936V61.8613C369.867 62.3671 369.459 62.7754 368.953 62.7754Z" fill="#0E2623"/>
<path d="M392.584 46.1206C389.037 46.1206 386.148 43.1761 386.148 39.5574C386.148 35.9387 389.037 32.998 392.584 32.998C396.132 32.998 399.031 35.9425 399.031 39.5574C399.031 43.1724 396.139 46.1206 392.584 46.1206ZM392.584 34.8261C390.044 34.8261 387.977 36.9502 387.977 39.5574C387.977 42.1647 390.044 44.2925 392.584 44.2925C395.124 44.2925 397.203 42.1684 397.203 39.5574C397.203 36.9464 395.132 34.8261 392.584 34.8261Z" fill="#0E2623"/>
<path d="M399.426 62.7781C398.92 62.7781 398.512 62.3698 398.512 61.8641V55.3047C398.512 54.7989 398.92 54.3906 399.426 54.3906C399.931 54.3906 400.34 54.7989 400.34 55.3047V61.8641C400.34 62.3698 399.931 62.7781 399.426 62.7781Z" fill="#0E2623"/>
<path d="M385.73 62.7781C385.225 62.7781 384.816 62.3698 384.816 61.8641V55.3047C384.816 54.7989 385.225 54.3906 385.73 54.3906C386.236 54.3906 386.644 54.7989 386.644 55.3047V61.8641C386.644 62.3698 386.236 62.7781 385.73 62.7781Z" fill="#0E2623"/>
<path d="M403.851 62.7754C403.346 62.7754 402.937 62.3671 402.937 61.8613V54.8936C402.937 51.4322 400.147 48.6152 396.715 48.6152H388.526C385.087 48.6152 382.289 51.4322 382.289 54.8936V61.8613C382.289 62.3671 381.881 62.7754 381.375 62.7754C380.869 62.7754 380.461 62.3671 380.461 61.8613V54.8936C380.461 50.4246 384.08 46.7871 388.526 46.7871H396.715C401.154 46.7871 404.765 50.4246 404.765 54.8936V61.8613C404.765 62.3671 404.357 62.7754 403.851 62.7754Z" fill="#0E2623"/>
<path d="M357.681 85.7618C354.126 85.7618 351.23 82.8174 351.23 79.2024C351.23 75.5875 354.122 72.6543 357.681 72.6543C361.24 72.6543 364.117 75.5912 364.117 79.2024C364.117 82.8137 361.229 85.7618 357.681 85.7618ZM357.681 74.4824C355.134 74.4824 353.059 76.5989 353.059 79.2024C353.059 81.806 355.13 83.9337 357.681 83.9337C360.232 83.9337 362.289 81.8097 362.289 79.2024C362.289 76.5952 360.221 74.4824 357.681 74.4824Z" fill="#0E2623"/>
<path d="M368.937 102.252C368.432 102.252 368.023 101.844 368.023 101.338V94.5388C368.023 94.1042 367.978 93.6547 367.885 93.2014C367.27 90.3507 364.708 88.2754 361.797 88.2754H353.608C350.69 88.2754 348.124 90.3544 347.506 93.2164C347.416 93.6547 347.371 94.1042 347.371 94.5388V101.267C347.371 101.772 346.963 102.181 346.457 102.181C345.951 102.181 345.543 101.772 345.543 101.267V94.5388C345.543 93.9844 345.603 93.4112 345.715 92.8418C346.521 89.1295 349.836 86.4473 353.605 86.4473H361.793C365.555 86.4473 368.866 89.1332 369.668 92.8306C369.784 93.415 369.844 93.9844 369.844 94.5425V101.342C369.844 101.847 369.435 102.256 368.93 102.256L368.937 102.252Z" fill="#0E2623"/>
<path d="M392.584 85.7618C389.037 85.7618 386.148 82.8174 386.148 79.2024C386.148 75.5875 389.037 72.6543 392.584 72.6543C396.132 72.6543 399.031 75.5912 399.031 79.2024C399.031 82.8137 396.139 85.7618 392.584 85.7618ZM392.584 74.4824C390.044 74.4824 387.977 76.5989 387.977 79.2024C387.977 81.806 390.044 83.9337 392.584 83.9337C395.124 83.9337 397.203 81.8097 397.203 79.2024C397.203 76.5952 395.132 74.4824 392.584 74.4824Z" fill="#0E2623"/>
<path d="M403.847 102.252C403.342 102.252 402.933 101.843 402.933 101.338V94.5386C402.933 94.1041 402.888 93.6546 402.798 93.1975C402.184 90.3505 399.614 88.2714 396.696 88.2714H388.518C385.6 88.2714 383.034 90.3505 382.416 93.2125C382.326 93.6508 382.281 94.1003 382.281 94.5349V101.263C382.281 101.769 381.873 102.177 381.367 102.177C380.861 102.177 380.453 101.769 380.453 101.263V94.5349C380.453 93.9805 380.513 93.4073 380.625 92.8379C381.431 89.1256 384.746 86.4434 388.515 86.4434H396.692C400.465 86.4434 403.78 89.1293 404.582 92.8267C404.698 93.4148 404.758 93.9842 404.758 94.5386V101.338C404.758 101.843 404.349 102.252 403.844 102.252H403.847Z" fill="#0E2623"/>
<path d="M381.522 93.9375H368.793C368.287 93.9375 367.879 93.5291 367.879 93.0234C367.879 92.5177 368.287 92.1094 368.793 92.1094H381.522C382.028 92.1094 382.436 92.5177 382.436 93.0234C382.436 93.5291 382.028 93.9375 381.522 93.9375Z" fill="#0E2623"/>
<path d="M408.875 93.9372H403.69C403.184 93.9372 402.776 93.5289 402.776 93.0231C402.776 92.5174 403.184 92.1091 403.69 92.1091H407.961V62.7773H342.359V92.1091H346.615C347.121 92.1091 347.536 92.5174 347.536 93.0231C347.536 93.5289 347.136 93.9372 346.63 93.9372H341.445C340.94 93.9372 340.531 93.5289 340.531 93.0231V61.8633C340.531 61.3575 340.94 60.9492 341.445 60.9492H408.875C409.38 60.9492 409.789 61.3575 409.789 61.8633V93.0231C409.789 93.5289 409.38 93.9372 408.875 93.9372Z" fill="#0E2623"/>
</g>
</g>
<path d="M360.247 149.731L359.831 147.907H361.239C361.719 147.907 363.575 147.843 364.967 147.795L371.495 147.539L371.735 147.299L372.967 148.483C373.079 148.579 373.111 148.643 373.111 148.723C373.111 148.851 373.047 148.883 372.727 148.963C372.455 149.715 371.735 150.819 370.919 151.763C370.407 152.339 369.879 152.835 369.127 153.411C368.679 152.627 368.599 152.515 368.135 152.067C369.399 151.091 370.199 150.227 370.823 149.155L365.063 149.443C362.551 149.571 361.831 149.587 360.247 149.731ZM365.655 150.547L367.447 150.675C367.575 150.691 367.703 150.787 367.703 150.899C367.703 151.011 367.623 151.091 367.415 151.235C367.207 154.643 366.791 156.163 365.591 157.827C364.983 158.691 364.295 159.379 363.463 159.987C363.143 160.227 362.903 160.387 362.759 160.499C362.295 159.699 362.103 159.475 361.591 159.139C364.663 157.091 365.687 155.027 365.687 150.883C365.687 150.787 365.671 150.707 365.655 150.547ZM388.619 146.531C389.531 146.531 390.251 147.267 390.251 148.163C390.251 149.075 389.531 149.795 388.619 149.795C387.723 149.795 386.987 149.075 386.987 148.163C386.987 147.267 387.723 146.531 388.619 146.531ZM388.619 147.315C388.139 147.315 387.771 147.683 387.771 148.163C387.771 148.643 388.139 149.027 388.619 149.027C389.099 149.027 389.483 148.643 389.483 148.163C389.483 147.683 389.099 147.315 388.619 147.315ZM385.259 154.227L386.363 153.171C387.851 154.243 388.923 155.363 389.883 156.883L388.443 158.067C387.611 156.579 386.683 155.459 385.259 154.227ZM379.291 153.171L380.827 153.731C380.939 153.779 380.987 153.827 380.987 153.907C380.987 154.003 380.939 154.067 380.699 154.179C379.675 156.483 379.195 157.187 377.691 158.659C377.371 158.003 377.035 157.619 376.507 157.235C378.091 155.731 378.635 154.931 379.291 153.171ZM384.027 151.955V156.115C384.027 157.539 384.043 158.691 384.075 159.395H382.299C382.331 158.675 382.347 157.587 382.347 156.115V151.955H378.875C378.347 151.955 377.435 151.971 376.955 152.003V150.355C377.435 150.387 378.251 150.403 378.875 150.403H382.347C382.331 148.755 382.315 147.779 382.283 147.459L384.107 147.571C384.267 147.587 384.363 147.651 384.363 147.747C384.363 147.827 384.283 147.907 384.059 148.051C384.059 148.291 384.043 148.451 384.027 150.403H387.467C388.075 150.403 388.907 150.387 389.387 150.355V152.003C388.891 151.971 387.995 151.955 387.467 151.955H384.027Z" fill="white"/>
<g clip-path="url(#clip6_1020_30410)">
<circle cx="517.51" cy="68.3366" r="56.3269" fill="#E6DFA2"/>
<g clip-path="url(#clip7_1020_30410)">
<path d="M504.067 80.082C505.727 80.082 507.086 81.4473 507.086 83.1286C507.086 84.81 505.727 86.1753 504.067 86.1753C502.407 86.1753 501.043 84.81 501.043 83.1286C501.043 81.4473 502.389 80.082 504.067 80.082Z" fill="#0E2623"/>
<path d="M558.344 95.9528H478.654C478.057 95.9528 477.574 95.4743 477.574 94.8817C477.574 94.289 478.057 93.8105 478.654 93.8105H558.344C558.941 93.8105 559.424 94.289 559.424 94.8817C559.424 95.4743 558.941 95.9528 558.344 95.9528Z" fill="#0E2623"/>
<path d="M489.395 95.9593C488.913 95.9593 488.47 95.6344 488.35 95.1471L482.524 71.92C482.444 71.5995 482.515 71.2615 482.723 71.0025C482.927 70.7435 483.241 70.5898 483.573 70.5898H519.416C519.907 70.5898 520.337 70.9191 520.461 71.3932C520.461 71.3932 520.762 72.5521 521.196 74.2862C521.59 75.7787 522.09 77.7542 522.612 79.8175L524.374 86.758C524.706 88.0749 524.985 89.1636 525.162 89.8529H538.909C539.506 89.8529 539.989 90.3314 539.989 90.924C539.989 91.5166 539.506 91.9952 538.909 91.9952H524.33C523.852 91.9952 523.431 91.6879 523.298 91.2357C523.232 91.0118 522.834 89.4446 522.285 87.2848L520.523 80.3399C520 78.2854 519.504 76.3187 519.106 74.8173C518.893 73.9569 518.707 73.237 518.579 72.7365H484.95L490.444 94.6379C490.59 95.213 490.236 95.7924 489.656 95.9329C489.568 95.9549 489.479 95.9636 489.395 95.9636V95.9593Z" fill="#0E2623"/>
<path d="M538.92 95.9551C538.322 95.9551 537.84 95.4766 537.84 94.884V91.0165C537.84 90.4238 538.322 89.9453 538.92 89.9453C539.518 89.9453 540 90.4238 540 91.0165V94.884C540 95.4766 539.518 95.9551 538.92 95.9551Z" fill="#0E2623"/>
<path d="M540.68 86.1933C540.587 86.1933 540.494 86.1802 540.401 86.1582C539.825 86.0046 539.48 85.4207 539.635 84.85L541.875 76.5047C542.025 75.9341 542.619 75.5873 543.194 75.7453C543.77 75.8989 544.115 76.4828 543.96 77.0535L541.72 85.3987C541.592 85.8773 541.158 86.1933 540.68 86.1933Z" fill="#0E2623"/>
<path d="M540.516 86.195H528.346C527.748 86.195 527.266 85.7165 527.266 85.1239C527.266 84.5312 527.748 84.0527 528.346 84.0527H540.516C541.114 84.0527 541.596 84.5312 541.596 85.1239C541.596 85.7165 541.114 86.195 540.516 86.195Z" fill="#0E2623"/>
<path d="M553.854 95.9572C553.256 95.9572 552.773 95.4787 552.773 94.8861V80.8954C552.773 71.2024 545.469 63.3137 536.486 63.3137C532.125 63.3137 528.039 65.1267 524.975 68.4192C523.297 70.2234 522.009 72.4008 521.154 74.8899C520.96 75.4474 520.349 75.746 519.786 75.5572C519.224 75.364 518.919 74.7582 519.114 74.1963C520.07 71.4263 521.509 68.9942 523.39 66.9705C526.866 63.2347 531.514 61.1758 536.486 61.1758C546.655 61.1758 554.929 70.0215 554.929 80.8954V94.8861C554.929 95.4787 554.447 95.9572 553.849 95.9572H553.854Z" fill="#0E2623"/>
<path d="M535.45 58.8038C530.124 58.8038 525.785 54.4226 525.785 49.0406C525.785 43.6585 530.119 39.2949 535.45 39.2949C540.78 39.2949 545.114 43.6673 545.114 49.0406C545.114 54.4138 540.78 58.8038 535.45 58.8038ZM535.45 41.4328C531.31 41.4328 527.946 44.8438 527.946 49.0406C527.946 53.2373 531.31 56.6615 535.45 56.6615C539.589 56.6615 542.954 53.2417 542.954 49.0406C542.954 44.8394 539.589 41.4328 535.45 41.4328Z" fill="#0E2623"/>
</g>
</g>
<path d="M491.126 152.195H490.07C489.75 153.363 489.238 154.323 488.246 155.011C488.534 155.027 488.822 155.027 489.19 155.027H492.838C493.318 155.027 493.638 155.027 493.99 155.011C493.974 155.299 493.958 155.907 493.958 156.419V157.651C493.958 158.403 493.974 158.947 493.99 159.315H492.486V158.867H489.558V159.779H488.038C488.07 159.411 488.086 158.867 488.086 158.083V156.419C488.086 155.987 488.07 155.491 488.054 155.171C487.734 155.395 487.366 155.619 486.966 155.827C486.806 155.539 486.582 155.139 486.438 154.899V157.075C486.438 159.219 486.438 160.163 486.486 160.851H484.838C484.87 160.227 484.886 158.739 484.886 157.731V153.875C484.886 152.099 484.87 151.251 484.854 150.755C485.702 150.803 486.95 150.819 488.038 150.819H488.358C488.134 150.307 487.766 149.699 487.414 149.251L488.15 148.819H486.902C486.022 148.819 484.582 148.851 483.718 148.883V147.299C484.55 147.347 485.99 147.363 486.902 147.363H490.326V147.011C490.326 146.579 490.31 146.227 490.294 145.987L491.862 146.099C492.054 146.115 492.166 146.163 492.166 146.259C492.166 146.355 492.07 146.451 491.846 146.579V147.363H495.318C496.326 147.363 497.686 147.347 498.502 147.299V148.883C497.654 148.835 496.294 148.819 495.318 148.819H494.71L495.11 149.027C495.206 149.075 495.27 149.155 495.27 149.235C495.27 149.363 495.222 149.379 494.838 149.443C494.534 149.891 494.054 150.595 493.878 150.819H494.214C495.302 150.819 496.55 150.803 497.398 150.755C497.35 151.283 497.35 152.451 497.35 153.875V157.411C497.35 157.619 497.35 158.019 497.366 158.403C497.382 158.659 497.382 158.931 497.382 159.059C497.382 160.483 496.902 160.787 494.518 160.787C494.486 160.099 494.486 160.083 494.23 159.139C494.694 159.171 494.934 159.187 495.19 159.187C495.734 159.187 495.814 159.091 495.814 158.515V152.195H492.55V152.707C492.55 153.203 492.582 153.219 493.334 153.219C494.278 153.219 494.294 153.203 494.294 152.339C494.758 152.547 494.95 152.611 495.622 152.739C495.622 153.699 495.478 154.115 495.078 154.339C494.774 154.499 494.39 154.547 493.302 154.547C492.198 154.547 491.782 154.515 491.526 154.371C491.27 154.243 491.126 153.987 491.126 153.651V152.195ZM488.566 152.195H486.438V154.323C487.542 153.827 488.118 153.331 488.566 152.195ZM492.486 157.491V156.403H489.558V157.491H492.486ZM488.886 150.819H492.134C492.614 150.179 493.014 149.523 493.366 148.819H488.902C489.27 149.267 489.59 149.763 489.83 150.291L488.886 150.819ZM515.718 155.219H515.59C514.166 156.179 513.878 156.371 513.03 156.835C513.19 157.059 513.35 157.267 513.526 157.475C514.23 158.307 514.934 158.803 516.326 159.491C515.846 160.035 515.782 160.115 515.398 160.771C513.606 159.811 512.454 158.691 511.67 157.091C511.222 158.259 510.582 159.059 509.526 159.795C508.806 160.291 508.47 160.451 507.27 160.867C506.966 160.067 506.902 159.939 506.598 159.491C507.926 159.027 508.294 158.851 508.902 158.355C509.814 157.619 510.31 156.819 510.582 155.619C510.758 154.803 510.79 154.403 510.902 152.227L512.39 152.403C512.566 152.419 512.71 152.515 512.71 152.611C512.71 152.707 512.614 152.787 512.39 152.851C512.31 153.891 512.246 154.563 512.198 155.043C512.262 155.251 512.342 155.459 512.438 155.683C513.302 155.107 513.99 154.563 514.774 153.859L515.942 154.835C516.006 154.883 516.022 154.931 516.022 154.995C516.022 155.171 515.942 155.219 515.718 155.219ZM515.702 148.691H515.558C514.166 149.635 513.846 149.843 513.062 150.291C513.206 150.467 513.382 150.643 513.574 150.819C514.326 151.539 514.982 151.923 516.47 152.531C516.182 152.883 516.022 153.123 515.622 153.827C514.326 153.315 513.574 152.835 512.758 152.035C512.31 151.587 511.974 151.187 511.686 150.691C511.318 151.667 510.758 152.371 509.91 152.931C509.254 153.379 508.646 153.619 507.158 154.019C506.982 153.523 506.774 153.059 506.534 152.691C507.862 152.355 508.39 152.147 508.934 151.763C509.798 151.155 510.262 150.387 510.534 149.107C510.678 148.451 510.71 147.971 510.726 146.115L512.326 146.339C512.55 146.371 512.646 146.419 512.646 146.547C512.646 146.659 512.582 146.707 512.278 146.835C512.23 147.699 512.182 148.307 512.134 148.771C512.198 148.915 512.262 149.059 512.342 149.203C513.254 148.595 513.942 148.051 514.742 147.331L515.91 148.323C515.958 148.371 515.99 148.403 515.99 148.467C515.99 148.643 515.926 148.691 515.702 148.691ZM503.27 159.395V160.595H501.75C501.782 160.227 501.798 159.683 501.798 158.899V156.819C501.798 156.323 501.782 155.699 501.75 155.411C502.118 155.427 502.454 155.443 502.918 155.443H505.398C505.862 155.443 506.198 155.427 506.55 155.411C506.534 155.699 506.502 156.323 506.502 156.819V158.371C506.502 159.123 506.518 159.667 506.55 160.035H505.046V159.395H503.27ZM505.046 158.115V156.707H503.27V158.115H505.046ZM508.31 153.907L509.734 154.387C509.846 154.419 509.894 154.483 509.894 154.563C509.894 154.659 509.846 154.707 509.654 154.771C509.206 156.483 509.03 156.867 508.166 157.939C507.83 157.507 507.558 157.283 506.982 156.963C507.782 156.019 508.182 155.091 508.31 153.907ZM506.998 148.787V150.307C506.662 150.291 506.166 150.275 505.734 150.275H502.55C502.118 150.275 501.606 150.291 501.27 150.307V148.787C501.622 148.803 502.198 148.819 502.55 148.819H505.734C506.07 148.819 506.646 148.803 506.998 148.787ZM506.31 153.187V154.675C506.07 154.659 505.67 154.659 505.35 154.659H502.918C502.614 154.659 502.198 154.659 501.958 154.675V153.187C502.198 153.203 502.614 153.203 502.918 153.203H505.35C505.67 153.203 506.07 153.203 506.31 153.187ZM506.31 150.979V152.467C506.07 152.451 505.67 152.451 505.35 152.451H502.918C502.614 152.451 502.198 152.451 501.958 152.467V150.979C502.198 150.995 502.614 150.995 502.918 150.995H505.35C505.67 150.995 506.07 150.995 506.31 150.979ZM506.31 148.099L505.35 148.083H502.918L501.958 148.099V146.611C502.198 146.627 502.614 146.643 502.918 146.643H505.35C505.67 146.643 506.07 146.627 506.31 146.611V148.099ZM508.486 147.379L509.91 147.859C510.022 147.891 510.07 147.955 510.07 148.035C510.07 148.131 510.022 148.179 509.83 148.243C509.382 149.955 509.206 150.339 508.342 151.411C507.99 150.979 507.734 150.755 507.158 150.435C507.942 149.491 508.342 148.563 508.486 147.379ZM524.55 152.307V151.363C524.326 151.683 524.086 151.971 523.75 152.371C523.43 151.763 523.238 151.507 522.87 151.139C524.358 149.379 524.87 148.419 525.67 145.827L527.014 146.371C527.206 146.451 527.254 146.515 527.254 146.611C527.254 146.723 527.222 146.755 526.886 146.883C526.662 147.491 526.518 147.827 526.406 148.099H528.31C528.55 147.267 528.678 146.675 528.79 146.003L530.406 146.499C530.534 146.547 530.582 146.579 530.582 146.659C530.582 146.771 530.534 146.819 530.214 146.947C530.038 147.475 529.926 147.811 529.814 148.099H530.358C531.19 148.099 532.502 148.067 533.238 148.035V149.459C532.502 149.427 531.19 149.395 530.358 149.395H529.574V150.147H530.39C531.03 150.147 532.022 150.115 532.614 150.099V151.411C532.022 151.395 531.03 151.379 530.39 151.379H529.574V152.067H530.39C531.03 152.067 532.022 152.051 532.614 152.019V153.347C532.022 153.315 531.03 153.299 530.39 153.299H529.574V154.035H530.438C531.286 154.035 532.582 154.003 533.318 153.971V155.395C532.582 155.363 531.286 155.331 530.438 155.331H525.974V155.587H524.502C524.534 154.867 524.55 153.779 524.55 152.307ZM528.15 149.395H525.974V150.147H528.15V149.395ZM525.974 154.035H528.15V153.299H525.974V154.035ZM528.15 151.379H525.974V152.067H528.15V151.379ZM527.078 158.371V158.451C527.078 159.523 527.094 160.339 527.126 160.787H525.494C525.526 160.227 525.526 159.475 525.526 158.451V158.371H522.102C521.222 158.371 519.782 158.403 518.918 158.435V156.883C519.75 156.915 521.19 156.947 522.102 156.947H525.526C525.51 156.435 525.494 156.067 525.478 155.795L527.126 155.907C527.302 155.923 527.398 155.987 527.398 156.067C527.398 156.163 527.318 156.259 527.094 156.387V156.947H530.518C531.526 156.947 532.886 156.915 533.702 156.883V158.435C532.854 158.403 531.494 158.371 530.518 158.371H527.078ZM520.518 147.091L521.35 146.083C522.086 146.515 522.742 147.027 523.334 147.635L522.39 148.771C521.686 148.035 521.158 147.571 520.518 147.091ZM521.606 150.979L522.806 151.763C522.262 153.011 521.558 154.403 521.078 155.235C520.822 155.667 520.806 155.715 520.694 155.971C520.71 156.051 520.71 156.083 520.71 156.115C520.71 156.243 520.646 156.307 520.55 156.307C520.486 156.307 520.454 156.291 520.342 156.211L519.174 155.299C519.814 154.675 520.726 153.043 521.606 150.979ZM518.934 149.539L519.734 148.483C520.63 148.995 521.222 149.443 521.75 150.019L520.806 151.171C520.15 150.499 519.654 150.067 518.934 149.539ZM542.246 151.523V153.475C542.246 157.171 542.006 158.339 540.742 160.627C540.262 160.067 539.958 159.811 539.462 159.539C540.55 157.699 540.79 156.611 540.79 153.475V151.539C540.406 151.539 540.054 151.555 539.766 151.571V150.099C540.438 150.131 541.494 150.147 542.31 150.147H543.014V149.011H542.71C542.038 149.011 541.142 149.027 540.486 149.059V147.619C541.094 147.635 542.006 147.651 542.71 147.651H543.014V147.539C543.014 146.771 543.014 146.723 542.982 146.067L544.55 146.163C544.726 146.179 544.838 146.243 544.838 146.323C544.838 146.435 544.742 146.515 544.518 146.643V147.651H546.47V147.539C546.47 146.819 546.47 146.611 546.438 146.067L548.006 146.163C548.198 146.179 548.294 146.243 548.294 146.323C548.294 146.435 548.214 146.515 547.99 146.643V147.651H548.598C549.238 147.651 550.278 147.635 550.822 147.619V149.059C550.246 149.043 549.206 149.011 548.598 149.011H547.99V150.147H548.838C549.574 150.147 550.694 150.131 551.382 150.099V151.571C550.694 151.539 549.574 151.523 548.838 151.523H542.246ZM544.518 149.011V150.147H546.47V149.011H544.518ZM547.27 158.227V158.275C547.27 159.283 547.286 160.099 547.318 160.579H545.846C545.878 160.019 545.894 159.267 545.894 158.275V158.227H544.182V160.835H542.678C542.71 160.467 542.71 159.923 542.71 159.139V153.747C542.71 153.251 542.694 152.627 542.678 152.339C543.03 152.355 543.35 152.371 543.83 152.371H549.43C549.91 152.371 550.23 152.355 550.582 152.339C550.566 152.627 550.55 153.171 550.55 153.635V156.147L550.582 159.155C550.598 160.595 550.102 160.915 547.926 160.915C547.91 160.275 547.862 159.907 547.718 159.347C548.086 159.379 548.31 159.395 548.518 159.395C548.998 159.395 549.078 159.299 549.078 158.739V158.227H547.27ZM547.27 156.931H549.078V155.907H547.27V156.931ZM545.894 156.931V155.907H544.182V156.931H545.894ZM547.27 154.611H549.078V153.667H547.27V154.611ZM545.894 154.611V153.667H544.182V154.611H545.894ZM539.014 150.531L539.286 150.547C539.446 150.563 539.558 150.627 539.558 150.723C539.558 150.803 539.462 150.899 539.254 151.027C539.238 151.331 539.238 151.811 539.238 153.763V157.571C539.238 159.059 539.254 160.099 539.286 160.851H537.734C537.766 160.131 537.782 159.043 537.782 157.571V153.299C537.526 153.811 537.302 154.227 536.918 154.851C536.582 154.147 536.294 153.667 536.022 153.363C537.286 151.267 538.214 148.739 538.806 145.859L540.374 146.435C540.518 146.483 540.598 146.563 540.598 146.675C540.598 146.787 540.55 146.835 540.214 146.931C539.782 148.483 539.574 149.123 539.014 150.531Z" fill="white"/>
<g clip-path="url(#clip8_1020_30410)">
<circle cx="660.163" cy="68.3366" r="56.3269" fill="white"/>
<g clip-path="url(#clip9_1020_30410)">
<path d="M660.748 100.155C660.166 100.155 659.695 99.6847 659.695 99.1026V71.0326C659.695 70.4505 660.166 69.9805 660.748 69.9805C661.33 69.9805 661.801 70.4505 661.801 71.0326V99.1026C661.801 99.6847 661.33 100.155 660.748 100.155Z" fill="#0E2623"/>
<path d="M672.098 71.5241H649.447C648.865 71.5241 648.395 71.0541 648.395 70.472C648.395 69.8899 648.865 69.4199 649.447 69.4199H672.098C672.68 69.4199 673.15 69.8899 673.15 70.472C673.15 71.0541 672.68 71.5241 672.098 71.5241Z" fill="#0E2623"/>
<path d="M637.256 100.143H627.549C626.966 100.143 626.496 99.6732 626.496 99.0912C626.496 98.5091 626.966 98.0391 627.549 98.0391H637.256C637.839 98.0391 638.309 98.5091 638.309 99.0912C638.309 99.6732 637.839 100.143 637.256 100.143Z" fill="#0E2623"/>
<path d="M634.052 49.769C630.584 49.769 627.758 46.9491 627.758 43.4781C627.758 40.007 630.584 37.1914 634.052 37.1914C637.521 37.1914 640.36 40.0113 640.36 43.4824C640.36 46.9534 637.53 49.7733 634.052 49.7733V49.769ZM634.052 39.2913C631.74 39.2913 629.863 41.1712 629.863 43.4781C629.863 45.7849 631.744 47.6648 634.052 47.6648C636.361 47.6648 638.259 45.7849 638.259 43.4781C638.259 41.1712 636.374 39.2913 634.052 39.2913Z" fill="#0E2623"/>
<path d="M638.687 87.1735H632.634C627.319 87.1735 622.927 83.5387 622.413 78.7137C621.701 71.9485 620.895 63.2429 620.895 63.2429L622.987 63.0488C622.987 63.0488 623.798 71.7415 624.506 78.4938C624.903 82.2451 628.397 85.0694 632.634 85.0694H638.687C639.269 85.0694 639.74 85.5393 639.74 86.1214C639.74 86.7035 639.269 87.1735 638.687 87.1735Z" fill="#0E2623"/>
<path d="M632.221 99.3052C631.638 99.3052 631.168 98.8352 631.168 98.2531V86.1283C631.168 85.5462 631.638 85.0762 632.221 85.0762C632.803 85.0762 633.273 85.5462 633.273 86.1283V98.2531C633.273 98.8352 632.803 99.3052 632.221 99.3052Z" fill="#0E2623"/>
<path d="M649.037 100.064C646.534 100.064 644.571 97.5805 644.571 94.407V84.0758C644.571 83.9292 644.386 83.7697 644.135 83.7697H632.293C631.689 83.7697 631.11 83.6921 630.563 83.5368C628.142 82.8426 626.516 80.8031 626.516 78.4704V59.5501C626.516 56.7086 627.357 54.3242 628.884 52.8366C630.166 51.5862 631.84 50.9825 633.906 51.0299H635.757C637.09 51.0687 638.402 51.6293 639.381 52.5649C641.159 54.3242 644.023 57.5149 644.144 57.6529L645.917 59.8045C645.965 59.8606 646.042 59.908 646.159 59.908H654.136C655.396 59.908 656.561 60.4427 657.333 61.3783C658.019 62.2105 658.295 63.2798 658.097 64.3104C657.773 66.0825 656.03 67.3761 653.959 67.3761H644.287C643.277 67.3761 642.306 66.9708 641.62 66.2636C641.616 66.2593 640.266 64.8407 639.01 63.517V75.8833C639.01 76.3275 639.467 76.6896 640.028 76.6896C642.009 76.7069 643.98 76.7069 645.965 76.7069H646.487C648.998 76.7069 652.126 76.7112 653.209 80.0356C653.571 81.1136 653.571 88.4178 653.502 94.3552C653.502 95.8816 653.071 97.2657 652.29 98.3092C651.453 99.4302 650.271 100.073 649.037 100.073V100.064ZM631.141 81.5103C631.499 81.6138 631.883 81.6655 632.288 81.6655H644.131C645.533 81.6655 646.672 82.7478 646.672 84.0758V94.407C646.672 96.3344 647.755 97.9642 649.032 97.9642C649.602 97.9642 650.158 97.6365 650.598 97.0458C651.103 96.3732 651.392 95.4116 651.392 94.407C651.474 87.038 651.392 81.424 651.198 80.6738C650.62 78.8973 649.106 78.8068 646.478 78.8068H645.952C643.941 78.8197 641.987 78.8068 640.011 78.7895C638.298 78.7895 636.896 77.483 636.896 75.879V60.8738C636.896 60.4427 637.159 60.0546 637.56 59.8994C637.957 59.7355 638.419 59.8433 638.712 60.1538C639.765 61.2705 643.126 64.8062 643.126 64.8062C643.411 65.0994 643.829 65.2719 644.274 65.2719H653.946C654.969 65.2719 655.879 64.6769 656.017 63.918C656.125 63.3661 655.901 62.9608 655.698 62.7107C655.331 62.2666 654.745 62.0035 654.123 62.0035H646.146C645.4 62.0035 644.714 61.6802 644.269 61.1196L642.535 59.0198C642.535 59.0198 639.618 55.773 637.897 54.0698C637.302 53.5006 636.499 53.1514 635.71 53.1298H633.863C632.379 53.1039 631.201 53.5006 630.338 54.3371C629.221 55.428 628.604 57.2778 628.604 59.5458V78.4661C628.604 79.8545 629.618 81.0791 631.128 81.5146L631.141 81.5103Z" fill="#0E2623"/>
<path d="M693.975 100.143H684.268C683.685 100.143 683.215 99.6732 683.215 99.0912C683.215 98.5091 683.685 98.0391 684.268 98.0391H693.975C694.557 98.0391 695.028 98.5091 695.028 99.0912C695.028 99.6732 694.557 100.143 693.975 100.143Z" fill="#0E2623"/>
<path d="M687.476 49.7714C683.998 49.7714 681.168 46.9514 681.168 43.4804C681.168 40.0094 683.998 37.1895 687.476 37.1895C690.953 37.1895 693.77 40.0094 693.77 43.4804C693.77 46.9514 690.949 49.7714 687.476 49.7714ZM687.476 39.2936C685.154 39.2936 683.269 41.1736 683.269 43.4804C683.269 45.7872 685.154 47.6672 687.476 47.6672C689.797 47.6672 691.665 45.7872 691.665 43.4804C691.665 41.1736 689.784 39.2936 687.476 39.2936Z" fill="#0E2623"/>
<path d="M688.899 87.17H682.846C682.263 87.17 681.793 86.7 681.793 86.1179C681.793 85.5358 682.263 85.0659 682.846 85.0659H688.899C693.135 85.0659 696.63 82.2373 697.027 78.486C697.739 71.7337 698.546 63.041 698.546 63.041L700.638 63.235C700.638 63.235 699.827 71.9406 699.115 78.7059C698.606 83.5308 694.21 87.1657 688.894 87.1657L688.899 87.17Z" fill="#0E2623"/>
<path d="M689.318 99.3052C688.736 99.3052 688.266 98.8352 688.266 98.2531V86.1283C688.266 85.5462 688.736 85.0762 689.318 85.0762C689.901 85.0762 690.371 85.5462 690.371 86.1283V98.2531C690.371 98.8352 689.901 99.3052 689.318 99.3052Z" fill="#0E2623"/>
<path d="M672.49 100.066C671.26 100.066 670.074 99.4231 669.237 98.302C668.456 97.2629 668.024 95.8787 668.024 94.4084C667.955 88.415 667.955 81.1107 668.322 80.0198C669.401 76.7083 672.529 76.704 675.04 76.704H675.557C677.551 76.704 679.522 76.704 681.494 76.6868C682.063 76.6868 682.521 76.3246 682.521 75.8805V63.5141C681.265 64.8379 679.919 66.2565 679.919 66.2565C679.229 66.9722 678.258 67.3732 677.249 67.3732H667.576C665.505 67.3732 663.762 66.0797 663.434 64.2946C663.235 63.2727 663.512 62.2033 664.198 61.3755C664.97 60.4398 666.135 59.9051 667.395 59.9051H675.372C675.488 59.9051 675.566 59.8577 675.596 59.8189L677.356 57.6845C677.507 57.5164 680.372 54.3256 682.137 52.5793C683.129 51.6307 684.441 51.0702 685.744 51.0314H687.65C689.695 50.971 691.361 51.5876 692.642 52.838C694.169 54.3256 695.011 56.7101 695.011 59.5516V78.4719C695.011 80.8046 693.384 82.8441 690.968 83.5383C690.42 83.6935 689.842 83.7711 689.238 83.7711H677.395C677.145 83.7711 676.959 83.935 676.959 84.0773V94.4084C676.959 97.5819 674.996 100.066 672.494 100.066H672.49ZM683.573 59.8189C683.703 59.8189 683.837 59.8405 683.962 59.8922C684.363 60.0517 684.626 60.4398 684.626 60.8667V75.8719C684.626 77.4759 683.224 78.7823 681.503 78.7823C679.535 78.7996 677.559 78.7996 675.566 78.7996H675.044C672.416 78.7996 670.902 78.8901 670.32 80.6752C670.126 81.4169 670.044 87.0352 670.13 94.3222C670.13 95.4044 670.419 96.366 670.924 97.0386C671.368 97.6337 671.925 97.9614 672.494 97.9614C673.775 97.9614 674.854 96.3315 674.854 94.4041V84.073C674.854 82.7449 675.993 81.6626 677.395 81.6626H689.238C689.644 81.6626 690.032 81.6109 690.386 81.5074C691.896 81.0719 692.91 79.8474 692.91 78.459V59.5386C692.91 57.2663 692.293 55.4165 691.175 54.3299C690.312 53.4891 689.13 53.0709 687.676 53.1226H685.774C685.014 53.1442 684.216 53.4934 683.604 54.0755C681.895 55.7658 678.979 59.0126 678.953 59.0471L677.236 61.134C676.804 61.6773 676.122 62.0007 675.372 62.0007H667.395C666.773 62.0007 666.187 62.2637 665.82 62.7078C665.617 62.9536 665.393 63.3632 665.496 63.9022C665.639 64.674 666.549 65.2647 667.571 65.2647H677.244C677.689 65.2647 678.107 65.0923 678.4 64.7948C678.4 64.7948 681.757 61.2634 682.805 60.1466C683.008 59.931 683.289 59.8146 683.569 59.8146L683.573 59.8189Z" fill="#0E2623"/>
</g>
</g>
<path d="M651.379 152.195H650.323C650.003 153.363 649.491 154.323 648.499 155.011C648.787 155.027 649.075 155.027 649.443 155.027H653.091C653.571 155.027 653.891 155.027 654.243 155.011C654.227 155.299 654.211 155.907 654.211 156.419V157.651C654.211 158.403 654.227 158.947 654.243 159.315H652.739V158.867H649.811V159.779H648.291C648.323 159.411 648.339 158.867 648.339 158.083V156.419C648.339 155.987 648.323 155.491 648.307 155.171C647.987 155.395 647.619 155.619 647.219 155.827C647.059 155.539 646.835 155.139 646.691 154.899V157.075C646.691 159.219 646.691 160.163 646.739 160.851H645.091C645.123 160.227 645.139 158.739 645.139 157.731V153.875C645.139 152.099 645.123 151.251 645.107 150.755C645.955 150.803 647.203 150.819 648.291 150.819H648.611C648.387 150.307 648.019 149.699 647.667 149.251L648.403 148.819H647.155C646.275 148.819 644.835 148.851 643.971 148.883V147.299C644.803 147.347 646.243 147.363 647.155 147.363H650.579V147.011C650.579 146.579 650.563 146.227 650.547 145.987L652.115 146.099C652.307 146.115 652.419 146.163 652.419 146.259C652.419 146.355 652.323 146.451 652.099 146.579V147.363H655.571C656.579 147.363 657.939 147.347 658.755 147.299V148.883C657.907 148.835 656.547 148.819 655.571 148.819H654.963L655.363 149.027C655.459 149.075 655.523 149.155 655.523 149.235C655.523 149.363 655.475 149.379 655.091 149.443C654.787 149.891 654.307 150.595 654.131 150.819H654.467C655.555 150.819 656.803 150.803 657.651 150.755C657.603 151.283 657.603 152.451 657.603 153.875V157.411C657.603 157.619 657.603 158.019 657.619 158.403C657.635 158.659 657.635 158.931 657.635 159.059C657.635 160.483 657.155 160.787 654.771 160.787C654.739 160.099 654.739 160.083 654.483 159.139C654.947 159.171 655.187 159.187 655.443 159.187C655.987 159.187 656.067 159.091 656.067 158.515V152.195H652.803V152.707C652.803 153.203 652.835 153.219 653.587 153.219C654.531 153.219 654.547 153.203 654.547 152.339C655.011 152.547 655.203 152.611 655.875 152.739C655.875 153.699 655.731 154.115 655.331 154.339C655.027 154.499 654.643 154.547 653.555 154.547C652.451 154.547 652.035 154.515 651.779 154.371C651.523 154.243 651.379 153.987 651.379 153.651V152.195ZM648.819 152.195H646.691V154.323C647.795 153.827 648.371 153.331 648.819 152.195ZM652.739 157.491V156.403H649.811V157.491H652.739ZM649.139 150.819H652.387C652.867 150.179 653.267 149.523 653.619 148.819H649.155C649.523 149.267 649.843 149.763 650.083 150.291L649.139 150.819ZM675.971 155.219H675.843C674.419 156.179 674.131 156.371 673.283 156.835C673.443 157.059 673.603 157.267 673.779 157.475C674.483 158.307 675.187 158.803 676.579 159.491C676.099 160.035 676.035 160.115 675.651 160.771C673.859 159.811 672.707 158.691 671.923 157.091C671.475 158.259 670.835 159.059 669.779 159.795C669.059 160.291 668.723 160.451 667.523 160.867C667.219 160.067 667.155 159.939 666.851 159.491C668.179 159.027 668.547 158.851 669.155 158.355C670.067 157.619 670.563 156.819 670.835 155.619C671.011 154.803 671.043 154.403 671.155 152.227L672.643 152.403C672.819 152.419 672.963 152.515 672.963 152.611C672.963 152.707 672.867 152.787 672.643 152.851C672.563 153.891 672.499 154.563 672.451 155.043C672.515 155.251 672.595 155.459 672.691 155.683C673.555 155.107 674.243 154.563 675.027 153.859L676.195 154.835C676.259 154.883 676.275 154.931 676.275 154.995C676.275 155.171 676.195 155.219 675.971 155.219ZM675.955 148.691H675.811C674.419 149.635 674.099 149.843 673.315 150.291C673.459 150.467 673.635 150.643 673.827 150.819C674.579 151.539 675.235 151.923 676.723 152.531C676.435 152.883 676.275 153.123 675.875 153.827C674.579 153.315 673.827 152.835 673.011 152.035C672.563 151.587 672.227 151.187 671.939 150.691C671.571 151.667 671.011 152.371 670.163 152.931C669.507 153.379 668.899 153.619 667.411 154.019C667.235 153.523 667.027 153.059 666.787 152.691C668.115 152.355 668.643 152.147 669.187 151.763C670.051 151.155 670.515 150.387 670.787 149.107C670.931 148.451 670.963 147.971 670.979 146.115L672.579 146.339C672.803 146.371 672.899 146.419 672.899 146.547C672.899 146.659 672.835 146.707 672.531 146.835C672.483 147.699 672.435 148.307 672.387 148.771C672.451 148.915 672.515 149.059 672.595 149.203C673.507 148.595 674.195 148.051 674.995 147.331L676.163 148.323C676.211 148.371 676.243 148.403 676.243 148.467C676.243 148.643 676.179 148.691 675.955 148.691ZM663.523 159.395V160.595H662.003C662.035 160.227 662.051 159.683 662.051 158.899V156.819C662.051 156.323 662.035 155.699 662.003 155.411C662.371 155.427 662.707 155.443 663.171 155.443H665.651C666.115 155.443 666.451 155.427 666.803 155.411C666.787 155.699 666.755 156.323 666.755 156.819V158.371C666.755 159.123 666.771 159.667 666.803 160.035H665.299V159.395H663.523ZM665.299 158.115V156.707H663.523V158.115H665.299ZM668.563 153.907L669.987 154.387C670.099 154.419 670.147 154.483 670.147 154.563C670.147 154.659 670.099 154.707 669.907 154.771C669.459 156.483 669.283 156.867 668.419 157.939C668.083 157.507 667.811 157.283 667.235 156.963C668.035 156.019 668.435 155.091 668.563 153.907ZM667.251 148.787V150.307C666.915 150.291 666.419 150.275 665.987 150.275H662.803C662.371 150.275 661.859 150.291 661.523 150.307V148.787C661.875 148.803 662.451 148.819 662.803 148.819H665.987C666.323 148.819 666.899 148.803 667.251 148.787ZM666.563 153.187V154.675C666.323 154.659 665.923 154.659 665.603 154.659H663.171C662.867 154.659 662.451 154.659 662.211 154.675V153.187C662.451 153.203 662.867 153.203 663.171 153.203H665.603C665.923 153.203 666.323 153.203 666.563 153.187ZM666.563 150.979V152.467C666.323 152.451 665.923 152.451 665.603 152.451H663.171C662.867 152.451 662.451 152.451 662.211 152.467V150.979C662.451 150.995 662.867 150.995 663.171 150.995H665.603C665.923 150.995 666.323 150.995 666.563 150.979ZM666.563 148.099L665.603 148.083H663.171L662.211 148.099V146.611C662.451 146.627 662.867 146.643 663.171 146.643H665.603C665.923 146.643 666.323 146.627 666.563 146.611V148.099ZM668.739 147.379L670.163 147.859C670.275 147.891 670.323 147.955 670.323 148.035C670.323 148.131 670.275 148.179 670.083 148.243C669.635 149.955 669.459 150.339 668.595 151.411C668.243 150.979 667.987 150.755 667.411 150.435C668.195 149.491 668.595 148.563 668.739 147.379Z" fill="white"/>
<g clip-path="url(#clip10_1020_30410)">
<circle cx="802.819" cy="68.3366" r="56.3269" fill="white"/>
<g clip-path="url(#clip11_1020_30410)">
<path d="M772.453 79.2798C772.251 79.2798 772.05 79.2219 771.882 79.1062L764.687 74.3332C764.216 74.0233 764.095 73.3951 764.41 72.9364C764.725 72.4736 765.363 72.3537 765.829 72.6637L772.146 76.854L785.805 55.3899L764.678 41.1328C764.212 40.8187 764.095 40.1906 764.414 39.7319C764.733 39.2732 765.372 39.1575 765.838 39.4715L787.779 54.2741C788.233 54.5799 788.359 55.1833 788.065 55.642L773.322 78.8045C773.175 79.036 772.94 79.2013 772.667 79.255C772.596 79.2715 772.524 79.2757 772.453 79.2757V79.2798Z" fill="#0E2623"/>
<path d="M833.657 79.2816C833.585 79.2816 833.514 79.2733 833.443 79.2609C833.17 79.2031 832.934 79.0419 832.787 78.8064L818.062 55.6438C817.772 55.1851 817.898 54.5859 818.352 54.2801L840.276 39.4734C840.743 39.1552 841.381 39.275 841.7 39.7337C842.019 40.1924 841.902 40.8205 841.436 41.1346L820.321 55.3876L833.968 76.8517L840.285 72.6614C840.755 72.3514 841.389 72.4713 841.704 72.9341C842.019 73.3969 841.898 74.0209 841.427 74.3309L834.228 79.1039C834.056 79.2155 833.858 79.2775 833.657 79.2775V79.2816Z" fill="#0E2623"/>
<path d="M823.038 83.7853C822.634 83.7853 822.252 83.5497 822.093 83.1613C821.878 82.6447 822.126 82.0579 822.651 81.8471C823.777 81.3926 829.401 77.5989 831.484 75.3591C831.866 74.9459 832.513 74.9211 832.929 75.2971C833.345 75.6691 833.374 76.3096 832.996 76.7187C830.732 79.1569 824.936 83.1034 823.432 83.7109C823.306 83.7605 823.172 83.7853 823.042 83.7853H823.038Z" fill="#0E2623"/>
<path d="M779.325 82.749C779.056 82.749 778.783 82.6415 778.581 82.4349C776.599 80.381 774.167 77.2279 773.394 75.8849C773.117 75.4014 773.289 74.7857 773.78 74.5129C774.272 74.236 774.898 74.4096 775.175 74.8931C775.792 75.9634 778.056 78.9636 780.068 81.0505C780.459 81.4514 780.442 82.0919 780.03 82.4762C779.833 82.6622 779.581 82.7531 779.325 82.7531V82.749Z" fill="#0E2623"/>
<path d="M798.026 63.0058C797.959 63.0058 797.888 62.9976 797.82 62.9852C796.132 62.6463 789.857 60.1999 785.375 58.2411C784.859 58.0138 784.624 57.4229 784.855 56.9104C785.086 56.4021 785.69 56.1707 786.207 56.398C790.899 58.4477 796.859 60.733 798.236 61.0099C798.791 61.1214 799.148 61.6545 799.034 62.2C798.933 62.6752 798.509 63.0058 798.03 63.0058H798.026Z" fill="#0E2623"/>
<path d="M796.611 72.8867C795.678 72.8867 794.762 72.6718 793.981 72.2296C792.503 71.3866 791.629 69.6964 791.856 68.1178C791.936 67.3202 792.297 66.4937 792.986 65.5598C793.868 64.3159 795.073 63.4109 796.245 62.5348L797.644 61.5017C799.021 60.5182 800.193 59.7785 801.344 59.1586C803.39 58.08 805.901 57.5841 808.812 57.675C810.055 57.7205 811.261 57.9478 812.424 58.1709C813.764 58.4271 815.032 58.6627 816.297 58.6338C817.796 58.5924 819.098 58.2825 820.656 57.5882C821.173 57.3609 821.778 57.5882 822.009 58.0924C822.24 58.6007 822.009 59.1958 821.496 59.4272C819.699 60.2248 818.111 60.6008 816.347 60.6463C814.839 60.6917 813.415 60.4107 812.029 60.1462C810.891 59.9314 809.82 59.7247 808.736 59.6875C806.191 59.6132 804.032 60.0223 802.314 60.9314C801.247 61.5017 800.147 62.2001 798.858 63.1216L797.484 64.1382C796.442 64.9193 795.363 65.7292 794.653 66.7293C794.174 67.3781 793.935 67.8905 793.889 68.3575C793.775 69.1757 794.246 70.0518 795.006 70.4857C796.111 71.1097 797.753 70.9734 798.908 70.1634C799.912 69.4609 800.995 68.6344 802.045 67.8368C802.751 67.2996 803.444 66.7748 804.087 66.3036L804.423 66.0557C804.881 65.7334 805.523 65.8408 805.851 66.2954C806.178 66.75 806.069 67.3781 805.607 67.7004L805.301 67.9277C804.675 68.3864 803.994 68.903 803.301 69.4319C802.23 70.246 801.121 71.0891 800.097 71.8081C799.076 72.523 797.829 72.8867 796.615 72.8867H796.611Z" fill="#0E2623"/>
<path d="M819.981 88.7842C819.15 88.7842 818.331 88.5115 817.68 87.9536L817.335 87.6602L807.373 78.9902C806.948 78.6224 806.911 77.9819 807.284 77.5686C807.658 77.1513 808.305 77.1141 808.729 77.4819L819.024 86.4328C819.687 86.999 820.788 86.8419 821.477 86.0774C822.157 85.3171 822.178 84.2302 821.519 83.6558C821.502 83.6434 821.393 83.536 821.38 83.5194C820.406 82.6061 812.312 75.0602 807.381 70.4732C806.969 70.0888 806.953 69.4524 807.339 69.0475C807.73 68.6383 808.376 68.626 808.788 69.0061C813.719 73.5932 821.817 81.1432 822.808 82.0731C824.379 83.4492 824.438 85.8088 823.014 87.404C822.203 88.309 821.078 88.7759 819.986 88.7759L819.981 88.7842Z" fill="#0E2623"/>
<path d="M815.43 92.4964C814.64 92.4964 813.88 92.2443 813.275 91.7195L812.347 90.8847L802.435 82.1693C802.015 81.7974 801.977 81.161 802.355 80.7477C802.733 80.3303 803.38 80.2973 803.8 80.6692L814.644 90.2235C815.216 90.7153 816.278 90.5086 816.95 89.7607C817.307 89.3598 817.513 88.8556 817.513 88.3804C817.513 88.0498 817.421 87.7729 817.236 87.558C817.177 87.4878 817.135 87.4341 817.085 87.3845L807.496 79.0327C807.072 78.6649 807.034 78.0285 807.408 77.6111C807.781 77.1938 808.428 77.1566 808.852 77.5244L818.492 85.9216C818.647 86.0703 818.731 86.1737 818.815 86.277C819.298 86.8349 819.559 87.5704 819.559 88.3804C819.559 89.3474 819.176 90.3103 818.488 91.0913C817.656 92.017 816.522 92.5046 815.434 92.5046L815.43 92.4964Z" fill="#0E2623"/>
<path d="M804.148 98.0562C803.358 98.0562 802.593 97.8041 801.989 97.2793L797.259 93.1716C796.835 92.8038 796.797 92.1674 797.171 91.75C797.545 91.3326 798.192 91.2913 798.616 91.6632L803.341 95.7709C803.933 96.2833 805.009 96.0643 805.693 95.2998C806.067 94.8907 806.273 94.3907 806.273 93.8906C806.273 93.6303 806.21 93.3865 806.092 93.1798C806.046 93.1013 805.979 93.0228 805.912 92.965C805.475 92.6137 805.408 91.9773 805.769 91.5475C806.126 91.1177 806.768 91.0516 807.209 91.407C807.47 91.6178 807.692 91.874 807.869 92.1756C808.167 92.6963 808.322 93.2873 808.322 93.8906C808.322 94.8907 807.932 95.8701 807.226 96.6429C806.39 97.5727 805.248 98.0603 804.152 98.0603L804.148 98.0562Z" fill="#0E2623"/>
<path d="M810.014 95.6851C809.263 95.6851 808.565 95.4331 808.036 94.9661L797.452 85.5729C797.032 85.201 796.998 84.5646 797.376 84.1514C797.754 83.7381 798.401 83.7051 798.821 84.077L809.405 93.466C809.615 93.652 809.897 93.6809 810.09 93.6644C810.598 93.6354 811.148 93.342 811.56 92.8833C811.946 92.4494 812.169 91.9246 812.169 91.4411C812.169 91.2014 812.119 91.0113 812.026 90.8708C811.711 90.408 811.837 89.7798 812.308 89.474C812.778 89.1682 813.412 89.288 813.727 89.7509C814.051 90.2303 814.215 90.7964 814.215 91.4411C814.215 92.4205 813.816 93.4081 813.093 94.214C812.316 95.0818 811.262 95.6149 810.203 95.6769C810.136 95.681 810.073 95.681 810.006 95.681L810.014 95.6851Z" fill="#0E2623"/>
<path d="M785.742 90.6558C785.032 90.6558 784.318 90.4533 783.696 90.0236C783.667 90.0029 783.528 89.8872 783.503 89.8665C782.003 88.8499 781.592 86.6762 782.68 85.0894C782.885 84.7877 783.234 84.6472 783.578 84.6431C783.448 84.3331 783.473 83.9695 783.683 83.6761L785.464 81.18C786.01 80.4114 786.834 79.8948 787.774 79.7378C788.711 79.5766 789.66 79.7915 790.437 80.337C792.159 81.523 792.546 83.7174 791.424 85.296L788.682 89.1557C787.984 90.1351 786.876 90.66 785.742 90.66V90.6558ZM784.473 85.2588C784.603 85.5605 784.578 85.9159 784.376 86.2093C783.914 86.887 784.082 87.8168 784.754 88.2755C784.784 88.2962 784.922 88.4119 784.952 88.4367C785.548 88.8375 786.527 88.6681 787.002 88.0028L789.744 84.143C790.223 83.4653 790.059 82.5314 789.379 82.0561C788.921 81.7462 788.518 81.6594 788.123 81.7255C787.724 81.7917 787.375 82.0107 787.14 82.3371L785.359 84.8332C785.149 85.1266 784.805 85.2629 784.473 85.2629V85.2588Z" fill="#0E2623"/>
<path d="M790.076 93.627C789.349 93.627 788.643 93.4121 788.038 92.9947C786.312 91.8045 785.913 89.606 787.043 88.0109L789.786 84.1677C790.932 82.585 793.167 82.1965 794.771 83.2999C796.498 84.49 796.897 86.6926 795.767 88.2837L794.599 89.9242C794.276 90.3788 793.637 90.4945 793.175 90.1722C792.713 89.854 792.6 89.2259 792.923 88.7713L794.091 87.1307C794.574 86.4488 794.406 85.5066 793.713 85.0273C792.915 84.4776 791.957 84.6471 791.462 85.3289L788.727 89.1639C788.253 89.8333 788.425 90.7921 789.105 91.2632C789.546 91.569 789.954 91.6558 790.361 91.5855C790.769 91.5153 791.117 91.2962 791.348 90.9698C791.672 90.5152 792.314 90.4036 792.772 90.7218C793.234 91.04 793.347 91.6682 793.024 92.1227C792.478 92.8914 791.659 93.4038 790.714 93.5691C790.5 93.6063 790.29 93.6228 790.076 93.6228V93.627Z" fill="#0E2623"/>
<path d="M781.599 87.9122C781.002 87.9122 780.398 87.7386 779.873 87.375L779.574 87.1601C778.234 86.2386 777.903 84.3789 778.848 83.0317L780.099 81.2837C780.557 80.639 781.25 80.2093 782.044 80.0688C782.838 79.9324 783.636 80.1059 784.295 80.5605L784.556 80.73C785.904 81.6763 786.261 83.4987 785.379 84.8087C785.366 84.8294 785.341 84.8624 785.316 84.8955L784.375 86.2262L784.077 86.6435C783.493 87.4659 782.556 87.9039 781.603 87.9039L781.599 87.9122ZM782.569 82.0441C782.514 82.0441 782.456 82.0482 782.401 82.0565C782.145 82.1019 781.922 82.2383 781.775 82.4449L780.532 84.1806C780.23 84.6145 780.33 85.2178 780.771 85.5195L781.07 85.7344C781.49 86.0278 782.094 85.9204 782.401 85.4906L783.644 83.7425C783.644 83.7425 783.669 83.7095 783.682 83.6929C783.938 83.2012 783.804 82.6763 783.401 82.3912L783.149 82.2259C782.968 82.1019 782.771 82.0399 782.573 82.0399L782.569 82.0441Z" fill="#0E2623"/>
<path d="M794.308 96.2273C793.666 96.2273 793.044 96.0331 792.515 95.6571L792.07 95.3678C790.629 94.3553 790.297 92.4213 791.301 91.0452L792.838 88.8715C792.876 88.8219 792.918 88.7723 792.96 88.7269C793.993 87.4499 795.863 87.1896 797.211 88.1318L797.656 88.4335C798.345 88.9004 798.807 89.6112 798.95 90.4295C799.092 91.2394 798.908 92.0577 798.437 92.7313C798.42 92.756 798.399 92.7808 798.378 92.8056L796.871 94.9091C796.4 95.5827 795.678 96.0372 794.846 96.1819C794.665 96.2108 794.481 96.2273 794.3 96.2273H794.308ZM794.493 90.0575L793.019 92.132C792.62 92.6941 792.742 93.3635 793.233 93.7107L793.678 93.9999C793.939 94.1818 794.216 94.2437 794.502 94.1941C794.787 94.1446 795.035 93.9917 795.199 93.7561L796.749 91.5907C796.749 91.5907 796.774 91.5576 796.787 91.5411C796.934 91.3097 796.988 91.0369 796.942 90.7683C796.892 90.4873 796.736 90.2476 796.501 90.0865L796.043 89.7765C795.564 89.4459 794.917 89.5368 794.556 89.979C794.544 89.9914 794.523 90.0203 794.497 90.0493L794.493 90.0575Z" fill="#0E2623"/>
<path d="M802.775 49.7901C802.208 49.7901 801.75 49.3397 801.75 48.7818V42.645C801.75 42.0872 802.208 41.6367 802.775 41.6367C803.342 41.6367 803.8 42.0872 803.8 42.645V48.7818C803.8 49.3397 803.342 49.7901 802.775 49.7901Z" fill="#0E2623"/>
<path d="M795.076 52.1594C794.706 52.1594 794.349 51.961 794.165 51.618L791.111 45.8243C790.851 45.3284 791.048 44.7209 791.548 44.4647C792.048 44.2085 792.669 44.4027 792.93 44.8944L795.983 50.6882C796.244 51.1841 796.046 51.7916 795.546 52.0478C795.395 52.1263 795.236 52.1594 795.076 52.1594Z" fill="#0E2623"/>
<path d="M810.484 52.1594C810.324 52.1594 810.165 52.1222 810.014 52.0478C809.509 51.7916 809.316 51.1841 809.577 50.6882L812.63 44.8944C812.891 44.4027 813.508 44.2085 814.012 44.4647C814.516 44.7209 814.709 45.3284 814.449 45.8243L811.395 51.618C811.215 51.961 810.854 52.1594 810.484 52.1594Z" fill="#0E2623"/>
</g>
</g>
<path d="M798.323 154.707L798.051 154.803C797.203 156.195 796.611 156.867 795.667 157.683C795.587 157.747 795.571 157.763 795.523 157.795C796.883 158.435 798.387 158.787 801.603 159.251C801.219 159.779 801.091 160.019 800.835 160.691C797.651 160.227 795.763 159.683 794.163 158.771C793.475 159.171 792.739 159.523 791.939 159.811C790.611 160.291 789.539 160.515 787.267 160.819C787.075 160.115 786.963 159.859 786.675 159.315C789.427 158.995 791.203 158.547 792.739 157.795C791.795 157.011 791.059 156.035 790.483 154.963C789.971 154.963 789.475 154.979 789.107 154.995V153.475C789.779 153.491 790.867 153.523 791.651 153.523H797.315L797.523 153.267L798.467 154.195C798.579 154.291 798.595 154.371 798.595 154.451C798.595 154.563 798.531 154.627 798.323 154.707ZM796.163 154.947H792.083C792.371 155.347 792.659 155.715 792.995 156.067C793.331 156.419 793.699 156.723 794.099 157.011C794.483 156.723 794.851 156.435 795.187 156.099C795.539 155.731 795.859 155.347 796.163 154.947ZM798.291 146.019L799.459 146.979C799.571 147.075 799.603 147.123 799.603 147.187C799.603 147.283 799.523 147.347 799.379 147.347C799.283 147.347 799.171 147.347 799.059 147.331C797.459 147.699 795.779 147.971 793.843 148.179C794.403 148.835 794.627 149.123 795.107 150.035L793.827 150.771H796.035C796.707 149.747 797.139 148.915 797.571 147.667L799.203 148.291C799.299 148.323 799.363 148.403 799.363 148.467C799.363 148.579 799.267 148.643 798.979 148.723C798.243 149.955 798.003 150.355 797.731 150.771C798.819 150.771 800.019 150.755 800.819 150.707C800.803 151.283 800.803 151.587 800.803 151.923V152.563C800.803 152.915 800.819 153.331 800.851 153.795H799.251C799.267 153.395 799.299 152.883 799.299 152.563V152.195H788.723V152.563C788.723 152.883 788.739 153.395 788.771 153.795H787.171C787.203 153.331 787.219 152.915 787.219 152.563V151.923C787.219 151.587 787.219 151.283 787.187 150.707C787.987 150.755 789.171 150.771 790.227 150.771C789.939 150.147 789.619 149.587 789.235 149.027L790.291 148.467C789.667 148.499 789.011 148.531 788.323 148.563C788.195 147.795 788.147 147.571 787.987 147.171C792.035 147.155 796.259 146.675 798.291 146.019ZM792.627 148.803L793.731 148.195C792.659 148.307 791.571 148.387 790.499 148.451C791.011 149.043 791.283 149.443 791.651 150.131L790.515 150.771H793.763C793.443 150.083 793.075 149.411 792.627 148.803ZM812.851 159.123V155.203H811.171C810.643 155.203 809.747 155.219 809.251 155.235V153.683C809.731 153.715 810.547 153.731 811.171 153.731H812.851V150.483H810.563C810.035 150.483 809.139 150.499 808.659 150.531V148.979C809.123 148.995 809.955 149.011 810.563 149.011H813.187C812.243 147.667 812.083 147.475 811.379 146.787L812.483 145.891C813.347 146.579 813.891 147.155 814.643 148.211L813.475 149.011H816.931C817.539 149.011 818.371 148.995 818.851 148.979V150.531C818.355 150.499 817.459 150.483 816.931 150.483H814.419V153.731H816.579C817.203 153.731 818.019 153.715 818.499 153.683V155.235C818.003 155.219 817.107 155.203 816.579 155.203H814.419V159.123H816.835C817.475 159.123 818.515 159.107 819.059 159.075V160.627C818.467 160.611 817.443 160.579 816.835 160.579H809.875C809.187 160.579 808.291 160.595 807.635 160.627V159.075C808.243 159.107 809.155 159.123 809.875 159.123H812.851ZM805.395 147.219L806.515 146.307C807.299 146.979 807.715 147.427 808.435 148.323L807.139 149.299C806.547 148.435 806.243 148.051 805.395 147.219ZM804.211 150.867L805.283 149.891C806.035 150.515 806.755 151.267 807.299 151.971L806.035 152.979C805.315 152.003 804.899 151.507 804.211 150.867ZM806.883 153.379L808.195 154.275C807.587 156.035 807.091 157.315 806.531 158.595C806.339 159.027 806.227 159.155 805.875 159.923L805.667 160.371V160.483C805.667 160.611 805.619 160.707 805.539 160.707C805.475 160.707 805.427 160.675 805.299 160.563L804.163 159.619C804.947 158.371 805.923 156.131 806.883 153.379Z" fill="white"/>
<g clip-path="url(#clip12_1020_30410)">
<circle cx="945.471" cy="68.3366" r="56.3269" fill="#E6DFA2"/>
<g clip-path="url(#clip13_1020_30410)">
<path d="M974.084 45.1895H968.461V71.5823H974.084V45.1895Z" fill="#0E2623"/>
<path d="M964.967 58.3867H959.344V71.5831H964.967V58.3867Z" fill="#0E2623"/>
<path d="M955.858 63.6621H950.234V71.58H955.858V63.6621Z" fill="#0E2623"/>
<path d="M946.736 64.9883H941.102V71.5865H946.736V64.9883Z" fill="#0E2623"/>
<path d="M978.051 76.4022H935.108C934.633 76.4022 934.249 76.0187 934.249 75.5436C934.249 75.0685 934.633 74.6849 935.108 74.6849H977.192V36.813H926.124V41.2329C926.124 41.708 925.74 42.0916 925.265 42.0916C924.79 42.0916 924.406 41.708 924.406 41.2329V35.9543C924.406 35.4793 924.79 35.0957 925.265 35.0957H978.051C978.526 35.0957 978.909 35.4793 978.909 35.9543V75.5436C978.909 76.0187 978.526 76.4022 978.051 76.4022Z" fill="#0E2623"/>
<path d="M925.241 55.5011C921.965 55.5011 919.301 52.802 919.301 49.4836C919.301 46.1651 921.965 43.4766 925.241 43.4766H925.318C928.549 43.5258 931.163 46.2179 931.163 49.4836C931.163 52.7492 928.507 55.5011 925.237 55.5011H925.241ZM925.241 44.3352V45.1939C922.911 45.1939 921.018 47.1188 921.018 49.4836C921.018 51.8484 922.911 53.7838 925.241 53.7838C927.571 53.7838 929.45 51.8554 929.45 49.4836C929.45 47.1117 927.592 45.2255 925.308 45.1939L925.241 44.3352Z" fill="#0E2623"/>
<path d="M922.143 100.136H922.111C919.862 100.136 918.078 98.3556 918.078 96.1633V61.6555C918.078 61.1804 918.462 60.7969 918.937 60.7969C919.412 60.7969 919.795 61.1804 919.795 61.6555V96.1633C919.795 97.409 920.805 98.419 922.051 98.419H922.072C922.737 98.419 923.297 98.1867 923.723 97.7679C924.152 97.3386 924.388 96.7685 924.388 96.1597C924.388 95.6847 924.771 95.3011 925.246 95.3011C925.721 95.3011 926.105 95.6847 926.105 96.1597C926.105 97.2295 925.686 98.2325 924.93 98.982C924.184 99.7245 923.195 100.133 922.143 100.133V100.136Z" fill="#0E2623"/>
<path d="M928.382 100.158C927.308 100.158 926.305 99.7428 925.556 98.9968C924.817 98.2402 924.395 97.2126 924.395 96.1745V80.9863C924.395 80.5112 924.778 80.1277 925.253 80.1277C925.728 80.1277 926.112 80.5112 926.112 80.9863V96.1745C926.112 96.7692 926.355 97.3604 926.777 97.7933C927.196 98.212 927.769 98.4443 928.382 98.4443C929.634 98.4443 930.651 97.4273 930.651 96.1745V61.6668C930.651 61.1917 931.035 60.8081 931.51 60.8081H941.089C943.978 60.794 946.368 60.794 946.368 60.794C946.955 60.8609 947.511 60.4984 947.803 59.9952C947.916 59.8017 947.983 59.5483 947.993 59.2879C948.007 58.8938 947.874 58.5278 947.61 58.2463C947.335 57.9577 946.959 57.7923 946.547 57.7853L930.982 57.7993L921.284 57.7853C918.134 57.7853 915.569 60.3471 915.569 63.5002V77.5693C915.569 78.5195 916.118 79.4168 916.966 79.8567C917.385 80.0749 917.55 80.5922 917.332 81.011C917.114 81.4332 916.6 81.5986 916.178 81.3769C914.767 80.645 913.852 79.1529 913.852 77.5658V63.4967C913.852 59.4005 917.184 56.0645 921.284 56.0645H946.565C947.462 56.082 948.268 56.441 948.859 57.0674C949.44 57.6867 949.742 58.4961 949.707 59.3477C949.69 59.8826 949.538 60.421 949.285 60.8539C948.676 61.9061 947.546 62.5571 946.343 62.5043C946.343 62.5043 943.968 62.5043 941.092 62.5184H932.365V96.1675C932.365 98.3634 930.578 100.155 928.378 100.155L928.382 100.158Z" fill="#0E2623"/>
<path d="M950.276 53.787C949.646 53.787 949.016 53.7412 948.383 53.6497C947.915 53.5828 947.588 53.1465 947.658 52.6785C947.728 52.2104 948.154 51.8972 948.629 51.9535C951.599 52.3864 954.566 51.6333 956.973 49.8386C959.38 48.0368 960.942 45.4081 961.368 42.431C961.435 41.9594 961.875 41.6427 962.339 41.7026C962.807 41.7694 963.135 42.2058 963.068 42.6738C962.575 46.1084 960.777 49.1383 958 51.2145C955.741 52.9037 953.053 53.794 950.276 53.794V53.787Z" fill="#0E2623"/>
<path d="M964.849 44.7349C964.631 44.7349 964.409 44.6505 964.244 44.4851L962.052 42.2927L959.859 44.4851C959.525 44.8194 958.98 44.8194 958.645 44.4851C958.311 44.1508 958.311 43.6053 958.645 43.271L961.443 40.4734C961.777 40.1391 962.323 40.1391 962.657 40.4734L965.455 43.271C965.789 43.6053 965.789 44.1508 965.455 44.4851C965.286 44.654 965.068 44.7349 964.849 44.7349Z" fill="#0E2623"/>
</g>
</g>
<path d="M942.335 157.715L942.239 157.907C942.671 158.403 943.231 158.851 944.175 159.491C943.743 159.859 943.519 160.131 943.215 160.675C942.495 160.147 941.935 159.667 941.471 159.155C941.055 159.715 940.559 160.243 939.871 160.883C939.567 160.403 939.375 160.131 938.991 159.683C939.711 159.059 940.207 158.531 940.591 157.955C940.495 157.779 940.383 157.587 940.287 157.379C939.775 156.339 939.503 155.395 939.295 153.651H938.815V159.091C938.815 159.827 938.831 160.451 938.847 160.803H937.263C937.279 160.419 937.295 159.891 937.295 159.091V148.211C937.295 147.699 937.279 147.091 937.263 146.803C937.615 146.819 937.935 146.819 938.415 146.819H942.127C942.607 146.819 942.927 146.819 943.279 146.803C943.263 147.075 943.247 147.619 943.247 148.099V148.979C943.247 149.187 943.263 150.099 943.263 150.179C943.263 151.331 942.799 151.619 940.943 151.619H940.399C940.383 151.139 940.319 150.723 940.191 150.099C940.431 150.115 941.039 150.147 941.263 150.147C941.647 150.147 941.727 150.067 941.727 149.715V148.211H938.815V152.259H942.543L942.799 151.955L943.807 152.931C943.919 153.027 943.951 153.075 943.951 153.139C943.951 153.251 943.871 153.315 943.679 153.379L943.583 153.411C943.263 155.443 942.959 156.467 942.335 157.715ZM942.127 153.651H940.591C940.735 154.627 940.927 155.619 941.359 156.531C941.535 156.067 941.695 155.619 941.823 155.155C941.951 154.659 942.047 154.147 942.127 153.651ZM934.607 151.427L935.807 151.843C935.919 151.875 935.983 151.939 935.983 152.019C935.983 152.115 935.951 152.131 935.615 152.243C935.231 153.027 935.023 153.459 934.799 153.875H935.679C936.239 153.875 936.655 153.859 936.863 153.843V155.283C936.655 155.267 936.207 155.251 935.679 155.251H933.839V156.451H935.263C935.615 156.451 936.191 156.435 936.543 156.419V157.859C936.207 157.843 935.695 157.827 935.263 157.827H933.839V158.035C933.839 159.235 933.855 160.259 933.887 160.835H932.287C932.319 160.211 932.335 159.331 932.335 158.035V157.827H931.039C930.607 157.827 930.095 157.843 929.759 157.859V156.419C930.111 156.435 930.703 156.451 931.039 156.451H932.335V155.251H930.559C930.127 155.251 929.615 155.267 929.279 155.283V153.843C929.631 153.859 930.207 153.875 930.559 153.875H931.215C930.895 153.011 930.639 152.467 930.271 151.891L931.247 151.427H930.559C930.127 151.427 929.615 151.443 929.279 151.459V150.019C929.631 150.035 930.207 150.051 930.559 150.051H932.335V148.851H931.039C930.607 148.851 930.095 148.867 929.759 148.883V147.443C930.111 147.459 930.703 147.475 931.039 147.475H932.335C932.335 146.851 932.319 146.355 932.303 145.987L933.871 146.099C934.047 146.115 934.159 146.163 934.159 146.259C934.159 146.355 934.063 146.451 933.839 146.579V147.475H935.263C935.615 147.475 936.191 147.459 936.543 147.443V148.883C936.207 148.867 935.695 148.851 935.263 148.851H933.839V150.051H935.679C936.047 150.051 936.639 150.035 936.911 150.019V151.459C936.655 151.443 936.127 151.427 935.679 151.427H934.607ZM934.303 151.427H931.471C931.935 152.035 932.271 152.707 932.559 153.411L931.615 153.875H933.343C933.599 153.363 933.823 152.851 934.015 152.323C934.127 152.035 934.223 151.731 934.303 151.427ZM953.583 148.483V148.403C953.583 147.123 953.567 146.451 953.535 146.003L955.167 146.099C955.327 146.115 955.439 146.179 955.439 146.259C955.439 146.355 955.343 146.451 955.135 146.579C955.119 146.947 955.119 147.395 955.119 148.403V148.483H957.247C958.207 148.483 959.615 148.451 960.447 148.419V150.019C959.615 149.971 958.207 149.955 957.247 149.955H955.119V152.179H958.479C959.487 152.179 960.847 152.147 961.663 152.115V153.715C960.815 153.667 959.455 153.651 958.479 153.651H950.063C949.183 153.651 947.743 153.683 946.879 153.715V152.115C947.711 152.147 949.151 152.179 950.063 152.179H953.583V149.955H950.031C949.535 150.691 948.959 151.379 948.287 152.067C947.919 151.635 947.823 151.555 947.199 151.027C948.687 149.523 949.551 148.179 950.207 146.387L951.503 146.899C951.727 146.995 951.807 147.043 951.807 147.139C951.807 147.267 951.775 147.283 951.423 147.379C951.263 147.763 951.087 148.131 950.911 148.483H953.583ZM951.055 160.051V160.819H949.439C949.471 160.435 949.487 159.907 949.487 159.123V156.147C949.487 155.635 949.471 155.027 949.439 154.739C949.999 154.755 950.495 154.755 951.199 154.755H957.359C958.079 154.755 958.575 154.755 959.135 154.739C959.103 155.027 959.087 155.635 959.087 156.147V159.139C959.087 159.891 959.103 160.435 959.135 160.803H957.519V160.051H951.055ZM957.519 158.595V156.227H951.055V158.595H957.519Z" fill="white"/>
<defs>
<linearGradient id="paint0_linear_1020_30410" x1="156.5" y1="0" x2="156.5" y2="192" gradientUnits="userSpaceOnUse">
<stop stop-color="#F9F9BA"/>
<stop offset="1" stop-color="#7B9265"/>
</linearGradient>
<linearGradient id="paint1_linear_1020_30410" x1="518" y1="0" x2="518" y2="192" gradientUnits="userSpaceOnUse">
<stop stop-color="#F9F9BA"/>
<stop offset="1" stop-color="#7B9265"/>
</linearGradient>
<linearGradient id="paint2_linear_1020_30410" x1="945" y1="0" x2="945" y2="192" gradientUnits="userSpaceOnUse">
<stop stop-color="#F9F9BA"/>
<stop offset="1" stop-color="#7B9265"/>
</linearGradient>
<clipPath id="clip0_1020_30410">
<rect width="112.654" height="112.654" fill="white" transform="translate(23.7109 12.0098)"/>
</clipPath>
<clipPath id="clip1_1020_30410">
<rect width="69.2575" height="73.4549" fill="white" transform="translate(45.4766 30.9023)"/>
</clipPath>
<clipPath id="clip2_1020_30410">
<rect width="112.654" height="112.654" fill="white" transform="translate(175.875 12.0098)"/>
</clipPath>
<clipPath id="clip3_1020_30410">
<rect width="69.2575" height="69.2575" fill="white" transform="translate(205.605 32.998)"/>
</clipPath>
<clipPath id="clip4_1020_30410">
<rect width="112.654" height="112.654" fill="white" transform="translate(318.531 12.0098)"/>
</clipPath>
<clipPath id="clip5_1020_30410">
<rect width="69.2575" height="69.2575" fill="white" transform="translate(340.531 32.998)"/>
</clipPath>
<clipPath id="clip6_1020_30410">
<rect width="112.654" height="112.654" fill="white" transform="translate(461.184 12.0098)"/>
</clipPath>
<clipPath id="clip7_1020_30410">
<rect width="81.8498" height="56.6652" fill="white" transform="translate(477.574 39.2949)"/>
</clipPath>
<clipPath id="clip8_1020_30410">
<rect width="112.654" height="112.654" fill="white" transform="translate(603.836 12.0098)"/>
</clipPath>
<clipPath id="clip9_1020_30410">
<rect width="79.7511" height="62.9614" fill="white" transform="translate(620.895 37.1914)"/>
</clipPath>
<clipPath id="clip10_1020_30410">
<rect width="112.654" height="112.654" fill="white" transform="translate(746.492 12.0098)"/>
</clipPath>
<clipPath id="clip11_1020_30410">
<rect width="77.6524" height="58.764" fill="white" transform="translate(764.234 39.2949)"/>
</clipPath>
<clipPath id="clip12_1020_30410">
<rect width="112.654" height="112.654" fill="white" transform="translate(889.145 12.0098)"/>
</clipPath>
<clipPath id="clip13_1020_30410">
<rect width="65.0601" height="65.0601" fill="white" transform="translate(913.852 35.0957)"/>
</clipPath>
</defs>
</svg>
