<svg width="145" height="118" viewBox="0 0 145 118" fill="none" xmlns="http://www.w3.org/2000/svg">
<g opacity="0.9" clip-path="url(#clip0_305_4381)">
<path d="M71.7187 10.9932C78.909 14.0616 83.3181 21.9703 84.539 32.4289C85.7584 42.8741 83.7801 55.7714 78.2919 68.6321C72.8037 81.4928 64.8605 91.8446 56.4754 98.1912C48.0795 104.546 39.3185 106.835 32.1281 103.767C24.9378 100.698 20.5299 92.7892 19.309 82.3307C18.0897 71.8855 20.0679 58.9882 25.5561 46.1275C31.0444 33.2668 38.9875 22.9149 47.3726 16.5684C55.7683 10.2138 64.5284 7.92492 71.7187 10.9932Z" stroke="url(#paint0_linear_305_4381)" stroke-width="0.833579"/>
<path d="M111.085 11.2329C118.275 14.3014 122.684 22.21 123.905 32.6686C125.125 43.1138 123.146 56.0111 117.658 68.8719C112.17 81.7326 104.227 92.0843 95.8416 98.431C87.4457 104.786 78.6847 107.075 71.4943 104.007C64.3041 100.938 59.8961 93.029 58.6752 82.5704C57.4559 72.1252 59.4341 59.228 64.9223 46.3672C70.4106 33.5065 78.3537 23.1547 86.7388 16.8081C95.1345 10.4536 103.895 8.16467 111.085 11.2329Z" stroke="url(#paint1_linear_305_4381)" stroke-width="0.833579"/>
<path d="M139.707 85.1357L134.768 82.2843L134.768 87.9871L139.707 85.1357ZM9 85.1357L9 85.6296L135.262 85.6296L135.262 85.1357L135.262 84.6419L9 84.6419L9 85.1357Z" fill="url(#paint2_linear_305_4381)"/>
<path d="M80.1753 64.044C79.9641 65.364 79.4031 66.4273 78.4923 67.234C77.5815 68.0407 76.3473 68.444 74.7897 68.444H71.9979L70.9683 75H69.5823L72.0177 59.622H76.1955C77.5551 59.622 78.5715 59.9373 79.2447 60.568C79.9179 61.1987 80.2545 62.0493 80.2545 63.12C80.2545 63.4573 80.2281 63.7653 80.1753 64.044ZM75.0075 67.168C77.1723 67.168 78.4197 66.1267 78.7497 64.044C78.8025 63.6627 78.8289 63.3913 78.8289 63.23C78.8289 61.646 77.8851 60.854 75.9975 60.854H73.2057L72.2157 67.168H75.0075ZM85.5105 75.176C84.6129 75.176 83.8209 74.978 83.1345 74.582C82.4481 74.1713 81.9135 73.5993 81.5307 72.866C81.1611 72.118 80.9763 71.2453 80.9763 70.248C80.9763 68.8987 81.2535 67.6593 81.8079 66.53C82.3623 65.386 83.1345 64.484 84.1245 63.824C85.1145 63.1493 86.2167 62.812 87.4311 62.812C88.3287 62.812 89.1207 63.0173 89.8071 63.428C90.4935 63.824 91.0281 64.396 91.4109 65.144C91.7937 65.8773 91.9851 66.7427 91.9851 67.74C91.9851 69.104 91.7013 70.3507 91.1337 71.48C90.5661 72.6093 89.7873 73.5113 88.7973 74.186C87.8205 74.846 86.7249 75.176 85.5105 75.176ZM85.6689 73.878C86.6061 73.878 87.4443 73.5993 88.1835 73.042C88.9359 72.4847 89.5167 71.744 89.9259 70.82C90.3483 69.896 90.5595 68.8987 90.5595 67.828C90.5595 66.6253 90.2427 65.7087 89.6091 65.078C88.9887 64.4473 88.1967 64.132 87.2331 64.132C86.2959 64.132 85.4577 64.4107 84.7185 64.968C83.9925 65.5253 83.4249 66.266 83.0157 67.19C82.6065 68.114 82.4019 69.1113 82.4019 70.182C82.4019 71.37 82.7121 72.2867 83.3325 72.932C83.9529 73.5627 84.7317 73.878 85.6689 73.878ZM96.4322 60.722C96.1814 60.722 95.9768 60.6413 95.8184 60.48C95.66 60.304 95.5808 60.0767 95.5808 59.798C95.5808 59.4167 95.6996 59.1013 95.9372 58.852C96.1748 58.588 96.4586 58.456 96.7886 58.456C97.0394 58.456 97.2374 58.5367 97.3826 58.698C97.541 58.8593 97.6202 59.072 97.6202 59.336C97.6202 59.7173 97.5014 60.0473 97.2638 60.326C97.0262 60.59 96.749 60.722 96.4322 60.722ZM96.749 62.988L94.8482 75H93.4622L95.363 62.988H96.749ZM105.016 62.768C106.125 62.768 107.009 63.1053 107.669 63.78C108.342 64.44 108.679 65.408 108.679 66.684C108.679 67.1533 108.646 67.5787 108.58 67.96L107.451 75H106.085L107.174 68.136C107.227 67.7987 107.253 67.4393 107.253 67.058C107.253 66.09 107.016 65.3567 106.54 64.858C106.065 64.3593 105.399 64.11 104.541 64.11C103.498 64.11 102.607 64.4767 101.868 65.21C101.128 65.9433 100.647 67.0213 100.422 68.444V68.378L99.3728 75H97.9868L99.8876 62.988H101.274L100.937 65.056C101.399 64.3227 101.986 63.758 102.699 63.362C103.412 62.966 104.184 62.768 105.016 62.768ZM112.813 71.744C112.774 72.008 112.754 72.2353 112.754 72.426C112.754 72.8953 112.866 73.2253 113.09 73.416C113.328 73.592 113.711 73.68 114.239 73.68H115.506L115.288 75H113.803C112.985 75 112.371 74.824 111.962 74.472C111.553 74.12 111.348 73.5407 111.348 72.734C111.348 72.4113 111.374 72.0813 111.427 71.744L112.615 64.286H111.11L111.328 62.988H112.833L113.308 59.974H114.694L114.219 62.988H117.209L116.991 64.286H114.001L112.813 71.744ZM124.384 67.08C124.78 64.572 125.433 62.6213 126.344 61.228C127.268 59.8347 128.634 59.138 130.443 59.138C131.815 59.138 132.799 59.556 133.393 60.392C134 61.228 134.304 62.4013 134.304 63.912C134.304 64.7773 134.205 65.8333 134.007 67.08C133.611 69.588 132.951 71.546 132.027 72.954C131.103 74.3473 129.736 75.044 127.928 75.044C126.555 75.044 125.572 74.6333 124.978 73.812C124.384 72.976 124.087 71.8027 124.087 70.292C124.087 69.4267 124.186 68.356 124.384 67.08ZM132.64 67.08C132.838 65.8627 132.937 64.8507 132.937 64.044C132.937 62.9293 132.726 62.0713 132.304 61.47C131.895 60.854 131.202 60.546 130.225 60.546C129.274 60.546 128.502 60.832 127.908 61.404C127.314 61.9613 126.859 62.7093 126.542 63.648C126.225 64.5867 125.961 65.7307 125.75 67.08C125.539 68.4147 125.433 69.4487 125.433 70.182C125.433 71.282 125.638 72.1327 126.047 72.734C126.456 73.3353 127.156 73.636 128.146 73.636C129.096 73.636 129.868 73.3573 130.462 72.8C131.056 72.228 131.512 71.4727 131.829 70.534C132.145 69.5953 132.416 68.444 132.64 67.08ZM136.882 60.854L137.119 59.446H140.485L137.991 75H136.605L138.842 60.854H136.882Z" fill="url(#paint3_linear_305_4381)"/>
</g>
<defs>
<linearGradient id="paint0_linear_305_4381" x1="5.03243" y1="10.0488" x2="71.8364" y2="68.5907" gradientUnits="userSpaceOnUse">
<stop stop-color="#1D4524"/>
<stop offset="1" stop-color="#F9F9BA"/>
</linearGradient>
<linearGradient id="paint1_linear_305_4381" x1="44.3986" y1="10.2885" x2="111.203" y2="68.8305" gradientUnits="userSpaceOnUse">
<stop stop-color="#1D4524"/>
<stop offset="1" stop-color="#F9F9BA"/>
</linearGradient>
<linearGradient id="paint2_linear_305_4381" x1="7.93963" y1="96.94" x2="7.13847" y2="80.3368" gradientUnits="userSpaceOnUse">
<stop stop-color="#1D4524"/>
<stop offset="1" stop-color="#FEFEBE"/>
</linearGradient>
<linearGradient id="paint3_linear_305_4381" x1="140.988" y1="67" x2="68.9883" y2="67" gradientUnits="userSpaceOnUse">
<stop stop-color="#1D4524"/>
<stop offset="1" stop-color="#7B9265"/>
</linearGradient>
<clipPath id="clip0_305_4381">
<rect width="145" height="118" fill="white"/>
</clipPath>
</defs>
</svg>
