<svg width="16" height="16" viewBox="0 0 16 16" fill="none" xmlns="http://www.w3.org/2000/svg">
<g clip-path="url(#clip0_957_13307)">
<path d="M1.74056 9.89944C1.56831 9.69761 1.3246 9.57529 1.05959 9.56253C0.79479 9.54957 0.530393 9.64722 0.32801 9.83087C0.125627 10.0145 0.00282747 10.2682 -0.00993204 10.533C-0.0228914 10.798 0.0752429 11.0524 0.25944 11.2434C0.500487 11.4936 0.741535 11.7437 0.982582 11.9938C1.81286 12.8555 2.64313 13.7171 3.47341 14.5787C3.82081 14.9854 4.37768 14.9638 4.74882 14.5787C8.03283 10.7339 11.3168 6.88917 14.6009 3.04442C14.8265 2.78028 15.0521 2.51614 15.2777 2.252C15.3404 2.17855 15.3714 2.08172 15.3653 1.98395C15.359 1.88612 15.316 1.79536 15.2446 1.7305C15.1731 1.66564 15.0786 1.63166 14.9806 1.63491C14.8827 1.63823 14.7893 1.6785 14.7223 1.748C14.7223 1.748 14.7223 1.748 14.7223 1.748C14.4812 1.99815 14.2402 2.24829 13.9991 2.49843C10.4906 6.1394 6.98199 9.78037 3.47341 13.4213H4.74882C3.97168 12.5115 3.19455 11.6017 2.41742 10.6919C2.1918 10.4277 1.96618 10.1636 1.74056 9.89944Z" fill="#1D4524"/>
</g>
<defs>
<clipPath id="clip0_957_13307">
<rect width="16" height="16" fill="white"/>
</clipPath>
</defs>
</svg>
