<svg width="215" height="48" viewBox="0 0 215 48" fill="none" xmlns="http://www.w3.org/2000/svg">
<g clip-path="url(#clip0_531_1291)">
<path d="M28.4313 20.9011C27.4543 26.1213 23.0721 29.8945 17.8518 29.8945C12.0266 29.8945 7.41134 25.0012 7.41134 18.8939C7.41134 12.7866 12.0266 7.8035 17.8518 7.8035C21.441 7.8035 24.9811 9.62261 27.4992 13.3508L33.1405 9.34463C30.0133 4.26338 24.2821 0.907227 17.8028 0.907227C7.92233 0.907227 0 8.96854 0 18.898C0 28.8275 7.92233 36.8398 17.8518 36.8398C27.0782 36.8398 34.7225 29.8004 35.7486 20.9011H28.4313Z" fill="white"/>
<path d="M47.9117 33.9991L41.6204 47.4687H48.4717L64.6434 12.7012H58.0701L51.4068 27.2909L44.6005 12.7012H37.3281L47.9076 33.9991H47.9117Z" fill="white"/>
<path d="M90.4173 24.4901C90.4173 17.6838 85.9411 12.1855 79.5108 12.1855C77.3647 12.1855 74.6176 12.8396 73.3136 14.3317V12.7006H66.6953V36.2346H73.3136V24.4901C73.3136 20.7129 76.0157 18.8038 78.9549 18.8038C81.657 18.8038 83.8481 20.7129 83.8481 24.4901V36.2346H90.4214V24.4901H90.4173Z" fill="white"/>
<path d="M108.548 18.8038V12.6965H102.955V4.82324L96.337 9.62242V12.6965H92.7969V18.8038H96.337V26.4931C96.337 32.6005 101.369 36.7456 108.409 36.7456V30.1722C105.379 30.1722 102.955 28.9622 102.955 26.3051V18.8038H108.548Z" fill="white"/>
<path d="M135.296 24.4897C135.296 17.6834 130.82 12.1852 124.39 12.1852C122.244 12.1852 119.447 12.8393 118.193 14.3763V1.51172H111.574V36.2342H118.193V24.4897C118.193 21.1786 120.895 18.8035 123.834 18.8035C126.536 18.8035 128.727 20.7125 128.727 24.4897V36.2342H135.3V24.4897H135.296Z" fill="white"/>
<path d="M142.892 8.55197C145.129 8.55197 146.854 6.82688 146.854 4.77476C146.854 2.86571 145.129 1.14062 142.892 1.14062C140.84 1.14062 139.07 2.91068 139.07 4.77476C139.07 6.82688 140.84 8.55197 142.892 8.55197ZM146.249 12.7012H139.63V36.2352H146.249V12.7012Z" fill="white"/>
<path d="M167.225 12.7006V14.3317C166.199 13.2116 163.591 12.1855 161.494 12.1855C155.203 12.1855 149.938 17.6838 149.938 24.4901C149.938 31.2964 155.064 36.7456 161.494 36.7456C163.64 36.7456 166.203 35.9076 167.225 34.5545V36.2305H173.843V12.7006H167.225ZM162.144 30.1763C159.115 30.1763 156.646 27.8463 156.646 24.4901C156.646 21.1339 159.115 18.8038 162.144 18.8038C165.173 18.8038 167.503 21.1789 167.503 24.4901C167.503 27.8013 165.218 30.1763 162.144 30.1763Z" fill="white"/>
<path d="M178.5 1.5127V36.2352H185.118V1.5127H178.5Z" fill="white"/>
<path d="M197.752 33.9991L191.46 47.4687H198.312L214.483 12.7012H207.91L201.247 27.2909L194.44 12.7012H187.168L197.747 33.9991H197.752Z" fill="white"/>
</g>
<defs>
<clipPath id="clip0_531_1291">
<rect width="214.483" height="46.5611" fill="white" transform="translate(0 0.907227)"/>
</clipPath>
</defs>
</svg>
