<svg width="252" height="145" viewBox="0 0 252 145" fill="none" xmlns="http://www.w3.org/2000/svg">
<g clip-path="url(#clip0_1020_30584)">
<g clip-path="url(#clip1_1020_30584)">
<path d="M149.895 69.0327L152.97 87.0748C153.01 87.313 153.236 87.4739 153.478 87.4336C153.716 87.3934 153.877 87.1676 153.836 86.9263L150.656 68.2624C150.631 68.1201 150.542 67.9994 150.412 67.9406C150.282 67.8788 150.13 67.8849 150.007 67.9592L133.613 77.4226C133.496 77.4907 133.415 77.6113 133.397 77.7475C133.391 77.8031 132.701 83.282 132.045 88.7051C131.658 91.8916 131.358 94.4315 131.151 96.2629C130.87 98.7461 130.831 100.047 131.033 100.167C131.101 100.207 131.179 100.229 131.256 100.229C131.349 100.229 131.438 100.201 131.516 100.145C131.661 100.04 131.723 99.8577 131.686 99.6906C131.701 98.6295 133.202 86.3447 134.241 78.0754L149.898 69.0358L149.895 69.0327Z" fill="#2D108D"/>
<path d="M174.158 99.5289C174.241 99.7547 174.495 99.8722 174.721 99.7856C174.947 99.7021 175.064 99.4484 174.978 99.2226L167.024 77.8517C166.977 77.7311 166.882 77.6352 166.761 77.5919C166.64 77.5485 166.504 77.5609 166.393 77.6259L150 87.0893C149.854 87.1729 149.768 87.3368 149.783 87.5039C149.789 87.5658 150.281 93.7221 150.798 99.8135C151.101 103.393 151.352 106.248 151.543 108.302C151.799 111.047 152.029 112.467 152.233 112.562C152.292 112.59 152.354 112.603 152.416 112.603C152.509 112.603 152.598 112.575 152.676 112.519C152.849 112.392 152.905 112.16 152.812 111.975C152.586 110.864 151.426 97.0416 150.677 87.7111L166.38 78.6437L174.152 99.5289H174.158Z" fill="#0E2623"/>
<mask id="mask0_1020_30584" style="mask-type:luminance" maskUnits="userSpaceOnUse" x="132" y="65" width="36" height="23">
<path d="M132.984 77.4627L150.105 87.3469L167.222 77.4627V75.1115L150.105 65.2305L132.984 75.1115V77.4627Z" fill="white"/>
</mask>
<g mask="url(#mask0_1020_30584)">
<path d="M167.222 87.3164H132.984V87.3473H167.222V87.3164Z" fill="#C2D4FF"/>
<path d="M167.222 87.125H132.984V87.3168H167.222V87.125Z" fill="#C1D4FF"/>
<path d="M167.222 86.9355H132.984V87.1274H167.222V86.9355Z" fill="#C0D3FF"/>
<path d="M167.222 86.7441H132.984V86.936H167.222V86.7441Z" fill="#BFD2FF"/>
<path d="M167.222 86.5547H132.984V86.7465H167.222V86.5547Z" fill="#BED2FF"/>
<path d="M167.222 86.3633H132.984V86.5551H167.222V86.3633Z" fill="#BDD1FF"/>
<path d="M167.222 86.1738H132.984V86.3656H167.222V86.1738Z" fill="#BCD0FF"/>
<path d="M167.222 85.9824H132.984V86.1742H167.222V85.9824Z" fill="#BBCFFF"/>
<path d="M167.222 85.7949H132.984V85.9867H167.222V85.7949Z" fill="#BACFFF"/>
<path d="M167.222 85.6016H132.984V85.7934H167.222V85.6016Z" fill="#B9CEFF"/>
<path d="M167.222 85.4141H132.984V85.6059H167.222V85.4141Z" fill="#B8CDFF"/>
<path d="M167.222 85.2227H132.984V85.4145H167.222V85.2227Z" fill="#B7CDFF"/>
<path d="M167.222 85.0332H132.984V85.225H167.222V85.0332Z" fill="#B6CCFF"/>
<path d="M167.222 84.8418H132.984V85.0336H167.222V84.8418Z" fill="#B5CBFF"/>
<path d="M167.222 84.6504H132.984V84.8422H167.222V84.6504Z" fill="#B4CBFF"/>
<path d="M167.222 84.4609H132.984V84.6527H167.222V84.4609Z" fill="#B3CAFF"/>
<path d="M167.222 84.2695H132.984V84.4613H167.222V84.2695Z" fill="#B2C9FF"/>
<path d="M167.222 84.0801H132.984V84.2719H167.222V84.0801Z" fill="#B1C8FF"/>
<path d="M167.222 83.8887H132.984V84.0805H167.222V83.8887Z" fill="#B0C8FF"/>
<path d="M167.222 83.6992H132.984V83.891H167.222V83.6992Z" fill="#AFC7FF"/>
<path d="M167.222 83.5078H132.984V83.6996H167.222V83.5078Z" fill="#AEC6FF"/>
<path d="M167.222 83.3184H132.984V83.5102H167.222V83.3184Z" fill="#ADC6FF"/>
<path d="M167.222 83.127H132.984V83.3188H167.222V83.127Z" fill="#ACC5FF"/>
<path d="M167.222 82.9395H132.984V83.1313H167.222V82.9395Z" fill="#ABC4FF"/>
<path d="M167.222 82.7461H132.984V82.9379H167.222V82.7461Z" fill="#AAC4FF"/>
<path d="M167.222 82.5586H132.984V82.7504H167.222V82.5586Z" fill="#A9C3FF"/>
<path d="M167.222 82.3672H132.984V82.559H167.222V82.3672Z" fill="#A8C2FF"/>
<path d="M167.222 82.1777H132.984V82.3695H167.222V82.1777Z" fill="#A7C2FF"/>
<path d="M167.222 81.9863H132.984V82.1781H167.222V81.9863Z" fill="#A5C1FF"/>
<path d="M167.222 81.7949H132.984V81.9867H167.222V81.7949Z" fill="#A4C0FF"/>
<path d="M167.222 81.6055H132.984V81.7973H167.222V81.6055Z" fill="#A3BFFF"/>
<path d="M167.222 81.4141H132.984V81.6059H167.222V81.4141Z" fill="#A2BFFF"/>
<path d="M167.222 81.2246H132.984V81.4164H167.222V81.2246Z" fill="#A1BEFF"/>
<path d="M167.222 81.0332H132.984V81.225H167.222V81.0332Z" fill="#A0BDFF"/>
<path d="M167.222 80.8438H132.984V81.0356H167.222V80.8438Z" fill="#9FBDFF"/>
<path d="M167.222 80.6523H132.984V80.8441H167.222V80.6523Z" fill="#9EBCFF"/>
<path d="M167.222 80.4629H132.984V80.6547H167.222V80.4629Z" fill="#9DBBFF"/>
<path d="M167.222 80.2715H132.984V80.4633H167.222V80.2715Z" fill="#9CBBFF"/>
<path d="M167.222 80.084H132.984V80.2758H167.222V80.084Z" fill="#9BBAFF"/>
<path d="M167.222 79.8906H132.984V80.0824H167.222V79.8906Z" fill="#9AB9FF"/>
<path d="M167.222 79.7031H132.984V79.8949H167.222V79.7031Z" fill="#99B8FF"/>
<path d="M167.222 79.5117H132.984V79.7035H167.222V79.5117Z" fill="#98B8FF"/>
<path d="M167.222 79.3184H132.984V79.5102H167.222V79.3184Z" fill="#97B7FF"/>
<path d="M167.222 79.1309H132.984V79.3227H167.222V79.1309Z" fill="#96B6FF"/>
<path d="M167.222 78.9395H132.984V79.1313H167.222V78.9395Z" fill="#95B6FF"/>
<path d="M167.222 78.75H132.984V78.9418H167.222V78.75Z" fill="#94B5FF"/>
<path d="M167.222 78.5586H132.984V78.7504H167.222V78.5586Z" fill="#93B4FF"/>
<path d="M167.222 78.3691H132.984V78.5609H167.222V78.3691Z" fill="#92B4FF"/>
<path d="M167.222 78.1777H132.984V78.3695H167.222V78.1777Z" fill="#91B3FF"/>
<path d="M167.222 77.9883H132.984V78.1801H167.222V77.9883Z" fill="#90B2FF"/>
<path d="M167.222 77.7969H132.984V77.9887H167.222V77.7969Z" fill="#8FB1FF"/>
<path d="M167.222 77.6074H132.984V77.7992H167.222V77.6074Z" fill="#8EB1FF"/>
<path d="M167.222 77.416H132.984V77.6078H167.222V77.416Z" fill="#8DB0FF"/>
<path d="M167.222 77.2285H132.984V77.4203H167.222V77.2285Z" fill="#8CAFFF"/>
<path d="M167.222 77.0352H132.984V77.227H167.222V77.0352Z" fill="#8BAFFF"/>
<path d="M167.222 76.8477H132.984V77.0395H167.222V76.8477Z" fill="#8AAEFF"/>
<path d="M167.222 76.6562H132.984V76.8481H167.222V76.6562Z" fill="#89ADFF"/>
<path d="M167.222 76.4629H132.984V76.6547H167.222V76.4629Z" fill="#88ADFF"/>
<path d="M167.222 76.2754H132.984V76.4672H167.222V76.2754Z" fill="#87ACFF"/>
<path d="M167.222 76.084H132.984V76.2758H167.222V76.084Z" fill="#86ABFF"/>
<path d="M167.222 75.8945H132.984V76.0863H167.222V75.8945Z" fill="#85AAFF"/>
<path d="M167.222 75.7031H132.984V75.8949H167.222V75.7031Z" fill="#84AAFF"/>
<path d="M167.222 75.5137H132.984V75.7055H167.222V75.5137Z" fill="#83A9FF"/>
<path d="M167.222 75.3223H132.984V75.5141H167.222V75.3223Z" fill="#82A8FF"/>
<path d="M167.222 75.1328H132.984V75.3246H167.222V75.1328Z" fill="#81A8FF"/>
<path d="M167.222 74.9414H132.984V75.1332H167.222V74.9414Z" fill="#80A7FF"/>
<path d="M167.222 74.752H132.984V74.9438H167.222V74.752Z" fill="#7FA6FF"/>
<path d="M167.222 74.5605H132.984V74.7524H167.222V74.5605Z" fill="#7EA6FF"/>
<path d="M167.222 74.373H132.984V74.5649H167.222V74.373Z" fill="#7DA5FF"/>
<path d="M167.222 74.1797H132.984V74.3715H167.222V74.1797Z" fill="#7CA4FF"/>
<path d="M167.222 73.9883H132.984V74.1801H167.222V73.9883Z" fill="#7BA3FF"/>
<path d="M167.222 73.8008H132.984V73.9926H167.222V73.8008Z" fill="#7AA3FF"/>
<path d="M167.222 73.6074H132.984V73.7992H167.222V73.6074Z" fill="#79A2FF"/>
<path d="M167.222 73.4199H132.984V73.6117H167.222V73.4199Z" fill="#78A1FF"/>
<path d="M167.222 73.2285H132.984V73.4203H167.222V73.2285Z" fill="#77A1FF"/>
<path d="M167.222 73.0391H132.984V73.2309H167.222V73.0391Z" fill="#76A0FF"/>
<path d="M167.222 72.8477H132.984V73.0395H167.222V72.8477Z" fill="#759FFF"/>
<path d="M167.222 72.6582H132.984V72.85H167.222V72.6582Z" fill="#749FFF"/>
<path d="M167.222 72.4668H132.984V72.6586H167.222V72.4668Z" fill="#739EFF"/>
<path d="M167.222 72.2773H132.984V72.4691H167.222V72.2773Z" fill="#729DFF"/>
<path d="M167.222 72.0859H132.984V72.2777H167.222V72.0859Z" fill="#719CFF"/>
<path d="M167.222 71.8965H132.984V72.0883H167.222V71.8965Z" fill="#709CFF"/>
<path d="M167.222 71.7051H132.984V71.8969H167.222V71.7051Z" fill="#6F9BFF"/>
<path d="M167.222 71.5176H132.984V71.7094H167.222V71.5176Z" fill="#6E9AFF"/>
<path d="M167.222 71.3262H132.984V71.518H167.222V71.3262Z" fill="#6D9AFF"/>
<path d="M167.222 71.1328H132.984V71.3246H167.222V71.1328Z" fill="#6C99FF"/>
<path d="M167.222 70.9453H132.984V71.1371H167.222V70.9453Z" fill="#6B98FF"/>
<path d="M167.222 70.752H132.984V70.9438H167.222V70.752Z" fill="#6A98FF"/>
<path d="M167.222 70.5645H132.984V70.7563H167.222V70.5645Z" fill="#6997FF"/>
<path d="M167.222 70.373H132.984V70.5649H167.222V70.373Z" fill="#6896FF"/>
<path d="M167.222 70.1836H132.984V70.3754H167.222V70.1836Z" fill="#6795FF"/>
<path d="M167.222 69.9922H132.984V70.184H167.222V69.9922Z" fill="#6695FF"/>
<path d="M167.222 69.8027H132.984V69.9945H167.222V69.8027Z" fill="#6594FF"/>
<path d="M167.222 69.6113H132.984V69.8031H167.222V69.6113Z" fill="#6493FF"/>
<path d="M167.222 69.4219H132.984V69.6137H167.222V69.4219Z" fill="#6393FF"/>
<path d="M167.222 69.2305H132.984V69.4223H167.222V69.2305Z" fill="#6292FF"/>
<path d="M167.222 69.041H132.984V69.2328H167.222V69.041Z" fill="#6191FF"/>
<path d="M167.222 68.8496H132.984V69.0414H167.222V68.8496Z" fill="#6091FF"/>
<path d="M167.222 68.6582H132.984V68.85H167.222V68.6582Z" fill="#5F90FF"/>
<path d="M167.222 68.4707H132.984V68.6625H167.222V68.4707Z" fill="#5E8FFF"/>
<path d="M167.222 68.2773H132.984V68.4691H167.222V68.2773Z" fill="#5D8EFF"/>
<path d="M167.222 68.0898H132.984V68.2816H167.222V68.0898Z" fill="#5C8EFF"/>
<path d="M167.222 67.8965H132.984V68.0883H167.222V67.8965Z" fill="#5B8DFF"/>
<path d="M167.222 67.709H132.984V67.9008H167.222V67.709Z" fill="#5A8CFF"/>
<path d="M167.222 67.5176H132.984V67.7094H167.222V67.5176Z" fill="#598CFF"/>
<path d="M167.222 67.3281H132.984V67.5199H167.222V67.3281Z" fill="#588BFF"/>
<path d="M167.222 67.1367H132.984V67.3285H167.222V67.1367Z" fill="#578AFF"/>
<path d="M167.222 66.9473H132.984V67.1391H167.222V66.9473Z" fill="#568AFF"/>
<path d="M167.222 66.7559H132.984V66.9477H167.222V66.7559Z" fill="#5589FF"/>
<path d="M167.222 66.5664H132.984V66.7582H167.222V66.5664Z" fill="#5488FF"/>
<path d="M167.222 66.375H132.984V66.5668H167.222V66.375Z" fill="#5387FF"/>
<path d="M167.222 66.1875H132.984V66.3793H167.222V66.1875Z" fill="#5287FF"/>
<path d="M167.222 65.9941H132.984V66.1859H167.222V65.9941Z" fill="#5186FF"/>
<path d="M167.222 65.8027H132.984V65.9945H167.222V65.8027Z" fill="#5085FF"/>
<path d="M167.222 65.6133H132.984V65.8051H167.222V65.6133Z" fill="#4F85FF"/>
<path d="M167.222 65.4219H132.984V65.6137H167.222V65.4219Z" fill="url(#paint0_linear_1020_30584)"/>
<path d="M167.222 65.2305H132.984V65.4254H167.222V65.2305Z" fill="url(#paint1_linear_1020_30584)"/>
</g>
<path d="M150.105 84.9957L167.222 75.1115L150.105 65.2305L132.984 75.1115L150.105 84.9957Z" fill="white"/>
<mask id="mask1_1020_30584" style="mask-type:luminance" maskUnits="userSpaceOnUse" x="148" y="40" width="26" height="36">
<path d="M156.454 40.8496L154.864 41.1064C154.864 41.1064 148.324 57.9853 148.729 66.0226L165.886 75.9284L167.22 75.1148C165.923 70.3815 169.128 55.894 173.611 50.7554L156.454 40.8496Z" fill="white"/>
</mask>
<g mask="url(#mask1_1020_30584)">
<path d="M173.616 75.8789H148.328V75.9253H173.616V75.8789Z" fill="#C2D4FF"/>
<path d="M173.616 75.5781H148.328V75.8813H173.616V75.5781Z" fill="#C1D4FF"/>
<path d="M173.616 75.2754H148.328V75.5786H173.616V75.2754Z" fill="#C0D3FF"/>
<path d="M173.616 74.9727H148.328V75.2758H173.616V74.9727Z" fill="#BFD2FF"/>
<path d="M173.616 74.6719H148.328V74.9751H173.616V74.6719Z" fill="#BED2FF"/>
<path d="M173.616 74.3691H148.328V74.6723H173.616V74.3691Z" fill="#BDD1FF"/>
<path d="M173.616 74.0684H148.328V74.3715H173.616V74.0684Z" fill="#BCD0FF"/>
<path d="M173.616 73.7656H148.328V74.0688H173.616V73.7656Z" fill="#BBCFFF"/>
<path d="M173.616 73.4629H148.328V73.7661H173.616V73.4629Z" fill="#BACFFF"/>
<path d="M173.616 73.1621H148.328V73.4653H173.616V73.1621Z" fill="#B9CEFF"/>
<path d="M173.616 72.8594H148.328V73.1626H173.616V72.8594Z" fill="#B8CDFF"/>
<path d="M173.616 72.5586H148.328V72.8618H173.616V72.5586Z" fill="#B7CDFF"/>
<path d="M173.616 72.2559H148.328V72.559H173.616V72.2559Z" fill="#B6CCFF"/>
<path d="M173.616 71.9531H148.328V72.2563H173.616V71.9531Z" fill="#B5CBFF"/>
<path d="M173.616 71.6523H148.328V71.9555H173.616V71.6523Z" fill="#B4CBFF"/>
<path d="M173.616 71.3496H148.328V71.6528H173.616V71.3496Z" fill="#B3CAFF"/>
<path d="M173.616 71.0508H148.328V71.354H173.616V71.0508Z" fill="#B2C9FF"/>
<path d="M173.616 70.7461H148.328V71.0493H173.616V70.7461Z" fill="#B1C8FF"/>
<path d="M173.616 70.4434H148.328V70.7465H173.616V70.4434Z" fill="#B0C8FF"/>
<path d="M173.616 70.1426H148.328V70.4458H173.616V70.1426Z" fill="#AFC7FF"/>
<path d="M173.616 69.8398H148.328V70.143H173.616V69.8398Z" fill="#AEC6FF"/>
<path d="M173.616 69.541H148.328V69.8442H173.616V69.541Z" fill="#ADC6FF"/>
<path d="M173.616 69.2363H148.328V69.5395H173.616V69.2363Z" fill="#ACC5FF"/>
<path d="M173.616 68.9336H148.328V69.2368H173.616V68.9336Z" fill="#ABC4FF"/>
<path d="M173.616 68.6328H148.328V68.936H173.616V68.6328Z" fill="#AAC4FF"/>
<path d="M173.616 68.3301H148.328V68.6333H173.616V68.3301Z" fill="#A9C3FF"/>
<path d="M173.616 68.0312H148.328V68.3344H173.616V68.0312Z" fill="#A8C2FF"/>
<path d="M173.616 67.7266H148.328V68.0297H173.616V67.7266Z" fill="#A7C2FF"/>
<path d="M173.616 67.4238H148.328V67.727H173.616V67.4238Z" fill="#A5C1FF"/>
<path d="M173.616 67.123H148.328V67.4262H173.616V67.123Z" fill="#A4C0FF"/>
<path d="M173.616 66.8203H148.328V67.1235H173.616V66.8203Z" fill="#A3BFFF"/>
<path d="M173.616 66.5215H148.328V66.8247H173.616V66.5215Z" fill="#A2BFFF"/>
<path d="M173.616 66.2168H148.328V66.52H173.616V66.2168Z" fill="#A1BEFF"/>
<path d="M173.616 65.9141H148.328V66.2172H173.616V65.9141Z" fill="#A0BDFF"/>
<path d="M173.616 65.6133H148.328V65.9165H173.616V65.6133Z" fill="#9FBDFF"/>
<path d="M173.616 65.3105H148.328V65.6137H173.616V65.3105Z" fill="#9EBCFF"/>
<path d="M173.616 65.0117H148.328V65.3149H173.616V65.0117Z" fill="#9DBBFF"/>
<path d="M173.616 64.707H148.328V65.0102H173.616V64.707Z" fill="#9CBBFF"/>
<path d="M173.616 64.4043H148.328V64.7075H173.616V64.4043Z" fill="#9BBAFF"/>
<path d="M173.616 64.1055H148.328V64.4086H173.616V64.1055Z" fill="#9AB9FF"/>
<path d="M173.616 63.8008H148.328V64.104H173.616V63.8008Z" fill="#99B8FF"/>
<path d="M173.616 63.502H148.328V63.8051H173.616V63.502Z" fill="#98B8FF"/>
<path d="M173.616 63.1973H148.328V63.5004H173.616V63.1973Z" fill="#97B7FF"/>
<path d="M173.616 62.8945H148.328V63.1977H173.616V62.8945Z" fill="#96B6FF"/>
<path d="M173.616 62.5957H148.328V62.8989H173.616V62.5957Z" fill="#95B6FF"/>
<path d="M173.616 62.291H148.328V62.5942H173.616V62.291Z" fill="#94B5FF"/>
<path d="M173.616 61.9922H148.328V62.2954H173.616V61.9922Z" fill="#93B4FF"/>
<path d="M173.616 61.6875H148.328V61.9907H173.616V61.6875Z" fill="#92B4FF"/>
<path d="M173.616 61.3848H148.328V61.6879H173.616V61.3848Z" fill="#91B3FF"/>
<path d="M173.616 61.0859H148.328V61.3891H173.616V61.0859Z" fill="#90B2FF"/>
<path d="M173.616 60.7812H148.328V61.0844H173.616V60.7812Z" fill="#8FB1FF"/>
<path d="M173.616 60.4824H148.328V60.7856H173.616V60.4824Z" fill="#8EB1FF"/>
<path d="M173.616 60.1797H148.328V60.4829H173.616V60.1797Z" fill="#8DB0FF"/>
<path d="M173.616 59.875H148.328V60.1782H173.616V59.875Z" fill="#8CAFFF"/>
<path d="M173.616 59.5762H148.328V59.8794H173.616V59.5762Z" fill="#8BAFFF"/>
<path d="M173.616 59.2715H148.328V59.5747H173.616V59.2715Z" fill="#8AAEFF"/>
<path d="M173.616 58.9727H148.328V59.2758H173.616V58.9727Z" fill="#89ADFF"/>
<path d="M173.616 58.6699H148.328V58.9731H173.616V58.6699Z" fill="#88ADFF"/>
<path d="M173.616 58.3652H148.328V58.6684H173.616V58.3652Z" fill="#87ACFF"/>
<path d="M173.616 58.0664H148.328V58.3696H173.616V58.0664Z" fill="#86ABFF"/>
<path d="M173.616 57.7617H148.328V58.0649H173.616V57.7617Z" fill="#85AAFF"/>
<path d="M173.616 57.4629H148.328V57.7661H173.616V57.4629Z" fill="#84AAFF"/>
<path d="M173.616 57.1602H148.328V57.4633H173.616V57.1602Z" fill="#83A9FF"/>
<path d="M173.616 56.8555H148.328V57.1586H173.616V56.8555Z" fill="#82A8FF"/>
<path d="M173.616 56.5566H148.328V56.8598H173.616V56.5566Z" fill="#81A8FF"/>
<path d="M173.616 56.252H148.328V56.5551H173.616V56.252Z" fill="#80A7FF"/>
<path d="M173.616 55.9531H148.328V56.2563H173.616V55.9531Z" fill="#7FA6FF"/>
<path d="M173.616 55.6504H148.328V55.9536H173.616V55.6504Z" fill="#7EA6FF"/>
<path d="M173.616 55.3457H148.328V55.6489H173.616V55.3457Z" fill="#7DA5FF"/>
<path d="M173.616 55.0469H148.328V55.3501H173.616V55.0469Z" fill="#7CA4FF"/>
<path d="M173.616 54.7441H148.328V55.0473H173.616V54.7441Z" fill="#7BA3FF"/>
<path d="M173.616 54.4434H148.328V54.7465H173.616V54.4434Z" fill="#7AA3FF"/>
<path d="M173.616 54.1406H148.328V54.4438H173.616V54.1406Z" fill="#79A2FF"/>
<path d="M173.616 53.8359H148.328V54.1391H173.616V53.8359Z" fill="#78A1FF"/>
<path d="M173.616 53.5371H148.328V53.8403H173.616V53.5371Z" fill="#77A1FF"/>
<path d="M173.616 53.2344H148.328V53.5376H173.616V53.2344Z" fill="#76A0FF"/>
<path d="M173.616 52.9336H148.328V53.2368H173.616V52.9336Z" fill="#759FFF"/>
<path d="M173.616 52.6309H148.328V52.934H173.616V52.6309Z" fill="#749FFF"/>
<path d="M173.616 52.3262H148.328V52.6293H173.616V52.3262Z" fill="#739EFF"/>
<path d="M173.616 52.0273H148.328V52.3305H173.616V52.0273Z" fill="#729DFF"/>
<path d="M173.616 51.7246H148.328V52.0278H173.616V51.7246Z" fill="#719CFF"/>
<path d="M173.616 51.4238H148.328V51.727H173.616V51.4238Z" fill="#709CFF"/>
<path d="M173.616 51.1211H148.328V51.4243H173.616V51.1211Z" fill="#6F9BFF"/>
<path d="M173.616 50.8184H148.328V51.1215H173.616V50.8184Z" fill="#6E9AFF"/>
<path d="M173.616 50.5176H148.328V50.8208H173.616V50.5176Z" fill="#6D9AFF"/>
<path d="M173.616 50.2148H148.328V50.518H173.616V50.2148Z" fill="#6C99FF"/>
<path d="M173.616 49.9141H148.328V50.2172H173.616V49.9141Z" fill="#6B98FF"/>
<path d="M173.616 49.6113H148.328V49.9145H173.616V49.6113Z" fill="#6A98FF"/>
<path d="M173.616 49.3086H148.328V49.6118H173.616V49.3086Z" fill="#6997FF"/>
<path d="M173.616 49.0078H148.328V49.311H173.616V49.0078Z" fill="#6896FF"/>
<path d="M173.616 48.7051H148.328V49.0083H173.616V48.7051Z" fill="#6795FF"/>
<path d="M173.616 48.4043H148.328V48.7075H173.616V48.4043Z" fill="#6695FF"/>
<path d="M173.616 48.1016H148.328V48.4047H173.616V48.1016Z" fill="#6594FF"/>
<path d="M173.616 47.7988H148.328V48.102H173.616V47.7988Z" fill="#6493FF"/>
<path d="M173.616 47.498H148.328V47.8012H173.616V47.498Z" fill="#6393FF"/>
<path d="M173.616 47.1953H148.328V47.4985H173.616V47.1953Z" fill="#6292FF"/>
<path d="M173.616 46.8945H148.328V47.1977H173.616V46.8945Z" fill="#6191FF"/>
<path d="M173.616 46.5918H148.328V46.895H173.616V46.5918Z" fill="#6091FF"/>
<path d="M173.616 46.2891H148.328V46.5922H173.616V46.2891Z" fill="#5F90FF"/>
<path d="M173.616 45.9883H148.328V46.2915H173.616V45.9883Z" fill="#5E8FFF"/>
<path d="M173.616 45.6855H148.328V45.9887H173.616V45.6855Z" fill="#5D8EFF"/>
<path d="M173.616 45.3848H148.328V45.6879H173.616V45.3848Z" fill="#5C8EFF"/>
<path d="M173.616 45.082H148.328V45.3852H173.616V45.082Z" fill="#5B8DFF"/>
<path d="M173.616 44.7793H148.328V45.0825H173.616V44.7793Z" fill="#5A8CFF"/>
<path d="M173.616 44.4785H148.328V44.7817H173.616V44.4785Z" fill="#598CFF"/>
<path d="M173.616 44.1758H148.328V44.479H173.616V44.1758Z" fill="#588BFF"/>
<path d="M173.616 43.875H148.328V44.1782H173.616V43.875Z" fill="#578AFF"/>
<path d="M173.616 43.5723H148.328V43.8754H173.616V43.5723Z" fill="#568AFF"/>
<path d="M173.616 43.2715H148.328V43.5747H173.616V43.2715Z" fill="#5589FF"/>
<path d="M173.616 42.9688H148.328V43.2719H173.616V42.9688Z" fill="#5488FF"/>
<path d="M173.616 42.666H148.328V42.9692H173.616V42.666Z" fill="#5387FF"/>
<path d="M173.616 42.3652H148.328V42.6684H173.616V42.3652Z" fill="#5287FF"/>
<path d="M173.616 42.0625H148.328V42.3657H173.616V42.0625Z" fill="#5186FF"/>
<path d="M173.616 41.7617H148.328V42.0649H173.616V41.7617Z" fill="#5085FF"/>
<path d="M173.616 41.459H148.328V41.7622H173.616V41.459Z" fill="#4F85FF"/>
<path d="M173.616 41.1562H148.328V41.4594H173.616V41.1562Z" fill="url(#paint2_linear_1020_30584)"/>
<path d="M173.616 40.8496H148.328V41.1559H173.616V40.8496Z" fill="url(#paint3_linear_1020_30584)"/>
</g>
<path d="M154.866 41.1074C150.903 46.7378 148.316 57.7852 148.731 66.0236L165.888 75.9294C164.592 71.1962 167.54 56.1487 172.023 51.0133L154.866 41.1074Z" fill="#F1F1F1"/>
<path d="M127.693 51.3359C129.639 50.182 130.607 48.6445 129.422 46.25C129.422 46.25 127.077 47.8278 127.693 51.3359Z" fill="#1D4524"/>
<path d="M122.232 46.4579C121.691 46.9591 122.384 49.7186 124.014 49.6505C126.062 49.5639 127.692 49.7867 127.692 49.7867L130.266 50.8045L130.907 47.4386C129.787 47.6521 127.872 46.8291 127.872 46.8291C127.872 46.8291 126.071 45.3195 125.047 43.8654C124.874 43.6179 124.361 44.0449 124.45 44.5337C124.633 45.5267 125.453 46.2537 125.453 46.2537C124.274 45.9722 122.529 46.1919 122.235 46.4641L122.232 46.4579Z" fill="#E3985A"/>
<path d="M128.047 51.0055C129.098 49.8268 129.627 48.4316 129.562 46.792L128.786 46.4609C128.758 48.1624 128.173 49.5329 127.168 50.6528L128.047 51.0086V51.0055Z" fill="#F7F7F7"/>
<path d="M140.252 55.34C143.617 54.2387 144.7 41.9291 145.594 40.8834C147.082 38.3219 144.484 34.7735 142.637 36.5492C141.112 38.3312 137.65 48.7939 137.65 48.7939L129.421 46.2509C129.968 49.1311 127.691 51.3368 127.691 51.3368C127.691 51.3368 136.886 56.4413 140.252 55.34Z" fill="url(#paint4_linear_1020_30584)"/>
<path d="M141.042 54.7118L142.806 39.0703C142.209 40.8058 141.064 46.0217 140.888 48.1594C140.711 50.2971 141.042 54.7087 141.042 54.7087V54.7118Z" fill="#1D4524"/>
<path d="M126.773 46.3463C126.591 46.0833 125.072 45.6781 124.469 46.0493C123.776 46.4731 123.609 46.6897 123.609 46.6897C123.609 46.6897 124.113 45.6719 124.311 44.4035C124.521 43.067 124.159 42.6246 123.791 43.0175C123.5 43.3238 122.708 45.6007 122.708 45.6007C122.708 45.6007 122.727 45.149 122.977 43.7538C123.228 42.371 123.021 42.3246 122.928 42.272C122.387 41.9688 121.759 44.0663 121.712 44.6726C121.551 46.767 122.374 48.6139 122.517 48.8738C123.2 50.0989 125.601 49.6348 125.601 49.6348C125.601 49.6348 125.063 48.0942 125.567 47.8529C126.711 47.3084 126.758 46.8041 126.414 46.7949C125.746 46.7763 124.286 47.5497 124.286 47.5497C124.286 47.5497 124.605 47.2249 125.177 46.7949C125.455 46.5845 127.021 46.7144 126.767 46.3494L126.773 46.3463Z" fill="url(#paint5_linear_1020_30584)"/>
<path d="M121.369 103.558C119.835 103.793 120.543 105.21 121.369 105.327C122.195 105.445 127.742 105.801 129.159 105.327C130.576 104.854 131.519 105.21 131.754 104.148C131.99 103.087 131.164 101.553 131.164 101.553L127.621 100.609C127.148 100.727 122.9 103.322 121.366 103.561L121.369 103.558Z" fill="#0E2623"/>
<path d="M137.449 69.8216C137.449 69.8216 123.88 76.1233 123.657 78.6137C123.261 83.0345 126.658 100.78 126.658 100.78C126.658 100.78 129.39 102.998 131.4 101.21C131.4 101.21 132.27 85.2032 132.341 83.3934C132.375 82.5148 152.505 77.5247 153.703 74.5672C154.974 71.421 151.982 66.5795 151.982 66.5795L142.575 63.9746L137.449 69.8216Z" fill="#1D4524"/>
<path d="M132.339 83.3926C132.339 86.6471 133.969 104.371 133.969 104.371C136.061 105.679 138.978 104.371 138.978 104.371C138.978 104.371 140.172 97.9945 141.546 87.8196C142.028 84.2464 159.207 83.2626 157.927 70.9345C157.351 65.3814 154.978 59.5128 154.65 58.4609L145.094 65.4464C146.492 71.5996 143.717 70.9933 144.491 72.8464C144.918 73.8673 132.336 79.3121 132.336 83.3864L132.339 83.3926Z" fill="url(#paint6_linear_1020_30584)"/>
<path d="M153.724 36.5558L154.194 30.1582L148.892 31.606L148.747 36.627C148.694 39.8784 153.638 38.4956 153.724 36.5589V36.5558Z" fill="#E3985A"/>
<path d="M146.188 24.6104C145.566 25.9097 145.566 33.1086 146.491 33.6593C146.77 33.8263 147.555 34.312 148.31 34.3677C150.058 34.5008 152.36 33.8758 153.013 32.6848C153.944 30.9802 155.33 25.2786 153.647 24.0257C151.964 22.7728 148.221 20.3752 146.188 24.6073V24.6104Z" fill="url(#paint7_linear_1020_30584)"/>
<path d="M154.009 32.6819C154.009 32.6819 155.342 29.7491 155.98 26.7823C156.274 25.4118 156.203 22.6987 155.052 22.3708C155.052 22.3708 154.541 20.1434 149.799 20.5394C146.792 20.793 145.993 23.4938 146.037 23.8001C146.08 24.1032 146.185 24.6137 146.185 24.6137C146.185 24.6137 150.145 28.6261 152.803 27.6671L152.453 30.0214C152.453 30.0214 153.05 30.2255 153.313 29.251C153.576 28.2765 153.987 27.9672 153.987 27.9672L153.765 30.9587L154.006 32.6819H154.009Z" fill="#0E2623"/>
<path d="M153.708 28.3147L153.293 31.2289C153.293 31.2289 155.276 30.5143 154.682 28.2157C154.354 26.9473 153.708 28.3116 153.708 28.3116V28.3147Z" fill="url(#paint8_linear_1020_30584)"/>
<path d="M161.535 41.9602C161.173 40.0607 154.905 36.0823 154.905 36.0823L149.597 37.2115C148.73 37.7096 148.746 36.6268 148.746 36.6268L148.669 35.2749C148.415 35.1851 145.142 35.9338 144.155 36.9795C143.168 38.0251 142.008 45.5736 142.061 48.0454C142.11 50.5172 141.324 63.9436 141.324 63.9436C143.796 66.5052 152.548 66.27 156.39 63.2414L155.793 59.2227C155.793 59.2227 162.277 45.852 161.535 41.9633V41.9602Z" fill="#EEEEEF"/>
<path d="M149.207 38.0158C149.207 38.0158 151.447 38.09 151.534 38.1148C151.62 38.1395 151.228 37.1836 151.228 37.1836L149.09 37.7033L149.207 38.0158Z" fill="#E6DFA2"/>
<path d="M151.765 39.3775L154.908 36.0828L153.918 34.6133C153.015 35.5476 151.19 36.6706 149.309 37.314C150.212 37.809 151.214 38.2916 151.765 39.3775Z" fill="#F7F7F7"/>
<path d="M145.229 54.9987L148.023 52.2206L149.05 39.0695L148.506 39.0293L143.977 51.8834L145.229 54.9987Z" fill="#E6DFA2"/>
<path d="M147.853 35.3542C147.031 35.5769 146.981 37.0279 146.73 38.157L148.318 37.4084L148.707 37.2908C148.54 36.6783 148.673 35.2676 148.673 35.2676C148.673 35.2676 147.974 35.3728 147.853 35.3511V35.3542Z" fill="#B3CEFF"/>
<path d="M147.491 36.3548L148.587 37.286L149.02 37.3169C149.02 37.3169 148.772 36.4291 148.781 36.0114L148.788 35.0957L147.488 36.3517L147.491 36.3548Z" fill="#F7F7F7"/>
<path d="M148.437 37.8167L148.731 37.7053L148.589 37.2846L147.93 36.7246L148.437 37.8167Z" fill="#E6DFA2"/>
<path d="M148.141 38.1302L148.509 39.0335L149.053 39.0738L149.79 38.1024L149.406 37.5053L148.707 37.2949C148.128 37.5362 148.141 38.1302 148.141 38.1302Z" fill="#E6DFA2"/>
<path d="M135.384 104.114C135.127 103.594 134.468 104.114 134.468 104.114C133.487 105.382 130.82 108.875 129.416 109.033C128.011 109.19 128.599 110.926 129.53 111.285C130.381 111.613 134.749 111.73 135.872 110.781C136.995 109.828 137.002 108.94 137.682 108.893C138.363 108.844 138.539 108.463 138.533 108.027C138.524 107.207 138.022 104.655 138.022 104.655C138.022 104.655 135.637 104.637 135.38 104.117L135.384 104.114Z" fill="#0E2623"/>
<path d="M144.18 73.751C145.523 74.8585 150.383 76.0063 152.162 76.2909C155.119 76.7611 156.682 76.8694 156.682 76.8694L157.081 76.2569L141.773 65.6426C141.773 65.6426 142.968 70.6574 143.063 71.2792C143.215 72.263 143.478 73.1694 144.183 73.751H144.18Z" fill="#1D4524"/>
<path d="M161.955 42.0656C160.708 39.4174 155.096 36.2093 155.096 36.2093L146.412 50.5112C146.412 50.5112 146.926 36.3485 147.851 35.3555C147.851 35.3555 144.423 35.7638 143.591 36.3114C142.759 36.859 142.771 40.5033 141.682 44.8282C141.005 47.5289 140.909 54.8392 141.178 58.9878C141.447 63.1333 135 70.6415 135 70.6415C135 70.6415 137.837 71.1767 138.855 70.7312C139.266 70.5518 140.092 69.9671 140.801 68.6492C141.265 67.783 142.944 64.9276 142.944 64.9276C142.944 64.9276 143.22 70.3414 143.374 71.3531C143.464 71.9378 144.182 73.5217 145.596 73.9239C146.394 74.1497 149.29 75.3222 153.785 76.0801C156.043 76.4607 160.968 75.9254 160.968 75.9254L157.772 60.4263C157.772 60.4263 163.202 44.7137 161.955 42.0625V42.0656Z" fill="url(#paint9_linear_1020_30584)"/>
<path d="M144.498 54.6523C144.464 55.0977 144.799 55.4813 145.244 55.5154C145.69 55.5494 146.073 55.2153 146.107 54.7698C146.141 54.3243 145.807 53.9407 145.362 53.9067C144.916 53.8727 144.533 54.2068 144.498 54.6523Z" fill="#1D4524"/>
<path d="M143.377 61.1737C143.343 61.6192 143.677 62.0028 144.123 62.0369C144.568 62.0709 144.952 61.7368 144.986 61.2913C145.02 60.8458 144.686 60.4622 144.241 60.4282C143.795 60.3941 143.411 60.7283 143.377 61.1737Z" fill="#1D4524"/>
<path d="M156.721 37.582L156.635 37.5851L156.758 40.1405L154.296 39.7971L156.217 42.0987L146.648 51.0177L146.71 51.0796L156.307 42.1359L156.338 42.1049L154.506 39.9146L156.851 40.2395L156.721 37.582Z" fill="#1D4524"/>
<path d="M146.591 36.0117L145.177 37.6947L145.146 37.7318L146.349 38.5702L144.54 39.3962L144.512 39.4085L145.768 50.7313L145.854 50.7189L144.608 39.4611L146.526 38.5887L145.276 37.7132L146.659 36.0674L146.591 36.0117Z" fill="#1D4524"/>
<path d="M147.369 28.1875L146.008 29.9694L146.886 31.1017L147.06 30.9687L146.283 29.9694L147.545 28.3205L147.369 28.1875Z" fill="#E3985A"/>
<path d="M141.43 55.4972C141.43 55.4972 142.652 55.689 143.462 54.6526C144.27 53.6163 144.121 52.153 144.121 52.153C143.846 52.1127 141.408 54.037 141.43 55.4972Z" fill="#1D4524"/>
<path d="M152.53 62.8383C153.963 61.8484 159.751 51.9395 159.751 51.9395C154.028 55.1197 148.131 56.4995 142.043 55.9117C142.043 55.9117 151.098 63.8283 152.53 62.8383Z" fill="#1D4524"/>
<path d="M134.742 50.6782C133.513 50.7122 132.366 51.6867 133.278 52.2157C133.696 52.457 136.842 54.1554 137.495 54.0905C138.145 54.0255 140.981 54.3256 140.981 54.3256L142.519 55.3001C142.519 55.3001 144.539 53.4872 143.834 52.6488L142.262 51.136C142.262 51.136 141.684 49.1994 141.569 49.1221C141.458 49.0478 140.31 49.0138 139.964 48.5869C139.515 48.0362 138.875 48.5405 139.305 49.0509C139.849 49.6944 140.36 49.9574 140.36 49.9574C140.36 49.9574 139.456 50.8452 138.333 51.0185C137.21 51.1917 135.868 50.6473 134.742 50.6782Z" fill="url(#paint10_linear_1020_30584)"/>
<path d="M141.27 55.1013L142.102 55.621L144.252 52.5459L143.627 52.1035C143.559 52.3417 142.266 54.8352 141.27 55.1013Z" fill="#F7F7F7"/>
<path d="M159.48 42.046C158.36 42.4297 155.369 47.8157 155.369 47.8157L151.05 55.1971L144.117 52.0354C143.743 53.1244 142.345 55.1816 141.426 55.3796C141.426 55.3796 145.463 58.9342 147.95 60.4192C151.149 62.331 152.018 61.9041 152.937 61.3596C154.054 60.6976 161.568 49.4924 162.506 47.3052C163.567 44.8334 163.013 40.8395 159.474 42.046H159.48Z" fill="url(#paint11_linear_1020_30584)"/>
<path d="M157.999 43.791C154.018 46.6928 150.441 54.7116 150.441 54.7116C152.932 50.3774 155.447 46.6403 157.999 43.791Z" fill="#1D4524"/>
<path d="M152.498 58.5174C152.498 58.5174 152.488 55.6465 150.094 54.7617C151.13 55.7177 151.931 56.9706 152.498 58.5174Z" fill="#1D4524"/>
<path d="M132.447 134.03V103.459L129.523 101.77V132.341L132.447 134.03Z" fill="#F1F1F1"/>
<mask id="mask2_1020_30584" style="mask-type:luminance" maskUnits="userSpaceOnUse" x="132" y="101" width="4" height="34">
<path d="M135.376 132.341V101.77L132.449 103.459V134.03L135.376 132.341Z" fill="white"/>
</mask>
<g mask="url(#mask2_1020_30584)">
<path d="M135.376 134.029H132.449V133.434H135.376V134.029ZM135.376 133.433H132.449V132.877H135.376V133.433ZM135.376 132.876H132.449V132.045H135.376V132.876ZM135.376 132.044H132.449V131.766H135.376V132.044ZM135.376 131.765H132.449V131.213H135.376V131.765ZM135.376 131.212H132.449V130.934H135.376V131.212ZM135.376 130.933H132.449V130.102H135.376V130.933ZM135.376 130.101H132.449V129.545H135.376V130.101ZM135.376 129.544H132.449V128.713H135.376V129.544ZM135.376 128.712H132.449V128.156H135.376V128.712ZM135.376 128.155H132.449V127.602H135.376V128.155ZM135.376 127.601H132.449V125.936H135.376V127.601ZM135.376 125.935H132.449V125.381H135.376V125.935ZM135.376 125.38H132.449V124.824H135.376V125.38ZM135.376 124.823H132.449V123.992H135.376V124.823ZM135.376 123.991H132.449V123.436H135.376V123.991ZM135.376 123.435H132.449V122.604H135.376V123.435ZM135.376 122.603H132.449V122.324H135.376V122.603ZM135.376 122.323H132.449V121.771H135.376V122.323ZM135.376 121.771H132.449V121.492H135.376V121.771ZM135.376 121.491H132.449V120.66H135.376V121.491ZM135.376 120.659H132.449V120.104H135.376V120.659ZM135.376 120.103H132.449V119.271H135.376V120.103ZM135.376 119.271H132.449V118.992H135.376V119.271ZM135.376 118.991H132.449V118.439H135.376V118.991ZM135.376 118.438H132.449V118.16H135.376V118.438ZM135.376 118.159H132.449V117.328H135.376V118.159ZM135.376 117.327H132.449V116.771H135.376V117.327ZM135.376 116.771H132.449V115.939H135.376V116.771ZM135.376 115.938H132.449V115.66H135.376V115.938ZM135.376 115.659H132.449V114.828H135.376V115.659ZM135.376 114.827H132.449V113.439H135.376V114.827ZM135.376 113.438H132.449V112.607H135.376V113.438ZM135.376 112.606H132.449V112.051H135.376V112.606ZM135.376 112.05H132.449V111.496H135.376V112.05ZM135.376 111.495H132.449V110.662H135.376V111.495ZM135.376 110.661H132.449V110.107H135.376V110.661ZM135.376 110.106H132.449V109.551H135.376V110.106ZM135.376 109.55H132.449V108.719H135.376V109.55ZM135.376 108.718H132.449V107.887H135.376V108.718ZM135.376 107.886H132.449V107.33H135.376V107.886ZM135.376 107.329H132.449V106.498H135.376V107.329ZM135.376 106.497H132.449V106.219H135.376V106.497ZM135.376 106.218H132.449V105.666H135.376V106.218ZM135.376 105.665H132.449V105.387H135.376V105.665ZM135.376 105.386H132.449V104.555H135.376V105.386ZM135.376 104.554H132.449V103.998H135.376V104.554ZM135.376 103.997H132.449V103.719H135.376V103.997ZM135.376 103.718H132.449V103.166H135.376V103.718ZM135.376 103.165H132.449V102.887H135.376V103.165ZM135.376 102.886H132.449V102.055H135.376V102.886ZM135.376 101.77V102.051H132.449V101.77H135.376Z" fill="#4D5755"/>
</g>
<mask id="mask3_1020_30584" style="mask-type:luminance" maskUnits="userSpaceOnUse" x="160" y="84" width="4" height="33">
<path d="M163.693 116.325V85.7536L160.77 84.0645V114.636L163.693 116.325Z" fill="white"/>
</mask>
<g mask="url(#mask3_1020_30584)">
<path d="M163.696 116.281H160.77V116.325H163.696V116.281Z" fill="#384946"/>
<path d="M163.696 116.004H160.77V116.282H163.696V116.004Z" fill="#384946"/>
<path d="M163.696 115.725H160.77V116.003H163.696V115.725Z" fill="#384946"/>
<path d="M163.696 115.449H160.77V115.728H163.696V115.449Z" fill="#384946"/>
<path d="M163.696 115.17H160.77V115.448H163.696V115.17Z" fill="#384946"/>
<path d="M163.696 114.893H160.77V115.171H163.696V114.893Z" fill="#384946"/>
<path d="M163.696 114.613H160.77V114.892H163.696V114.613Z" fill="#384946"/>
<path d="M163.696 114.336H160.77V114.614H163.696V114.336Z" fill="#384946"/>
<path d="M163.696 114.061H160.77V114.339H163.696V114.061Z" fill="#384946"/>
<path d="M163.696 113.781H160.77V114.06H163.696V113.781Z" fill="#384946"/>
<path d="M163.696 113.504H160.77V113.782H163.696V113.504Z" fill="#384946"/>
<path d="M163.696 113.225H160.77V113.503H163.696V113.225Z" fill="#384946"/>
<path d="M163.696 112.949H160.77V113.228H163.696V112.949Z" fill="#384946"/>
<path d="M163.696 112.672H160.77V112.95H163.696V112.672Z" fill="#384946"/>
<path d="M163.696 112.393H160.77V112.671H163.696V112.393Z" fill="#384946"/>
<path d="M163.696 112.115H160.77V112.394H163.696V112.115Z" fill="#384946"/>
<path d="M163.696 111.84H160.77V112.118H163.696V111.84Z" fill="#384946"/>
<path d="M163.696 111.561H160.77V111.839H163.696V111.561Z" fill="#384946"/>
<path d="M163.696 111.281H160.77V111.56H163.696V111.281Z" fill="#384946"/>
<path d="M163.696 111.004H160.77V111.282H163.696V111.004Z" fill="#384946"/>
<path d="M163.696 110.729H160.77V111.007H163.696V110.729Z" fill="#384946"/>
<path d="M163.696 110.449H160.77V110.728H163.696V110.449Z" fill="#384946"/>
<path d="M163.696 110.172H160.77V110.45H163.696V110.172Z" fill="#384946"/>
<path d="M163.696 109.893H160.77V110.171H163.696V109.893Z" fill="#384946"/>
<path d="M163.696 109.617H160.77V109.896H163.696V109.617Z" fill="#384946"/>
<path d="M163.696 109.34H160.77V109.618H163.696V109.34Z" fill="#384946"/>
<path d="M163.696 109.061H160.77V109.339H163.696V109.061Z" fill="#384946"/>
<path d="M163.696 108.783H160.77V109.062H163.696V108.783Z" fill="#384946"/>
<path d="M163.696 108.504H160.77V108.782H163.696V108.504Z" fill="#384946"/>
<path d="M163.696 108.229H160.77V108.507H163.696V108.229Z" fill="#384946"/>
<path d="M163.696 107.951H160.77V108.23H163.696V107.951Z" fill="#384946"/>
<path d="M163.696 107.672H160.77V107.95H163.696V107.672Z" fill="#384946"/>
<path d="M163.696 107.393H160.77V107.671H163.696V107.393Z" fill="#384946"/>
<path d="M163.696 107.119H160.77V107.398H163.696V107.119Z" fill="#384946"/>
<path d="M163.696 106.84H160.77V107.118H163.696V106.84Z" fill="#384946"/>
<path d="M163.696 106.561H160.77V106.839H163.696V106.561Z" fill="#384946"/>
<path d="M163.696 106.283H160.77V106.562H163.696V106.283Z" fill="#384946"/>
<path d="M163.696 106.008H160.77V106.286H163.696V106.008Z" fill="#384946"/>
<path d="M163.696 105.729H160.77V106.007H163.696V105.729Z" fill="#384946"/>
<path d="M163.696 105.451H160.77V105.73H163.696V105.451Z" fill="#384946"/>
<path d="M163.696 105.172H160.77V105.45H163.696V105.172Z" fill="#384946"/>
<path d="M163.696 104.896H160.77V105.175H163.696V104.896Z" fill="#384946"/>
<path d="M163.696 104.619H160.77V104.898H163.696V104.619Z" fill="#384946"/>
<path d="M163.696 104.34H160.77V104.618H163.696V104.34Z" fill="#384946"/>
<path d="M163.696 104.062H160.77V104.341H163.696V104.062Z" fill="#384946"/>
<path d="M163.696 103.787H160.77V104.066H163.696V103.787Z" fill="#384946"/>
<path d="M163.696 103.508H160.77V103.786H163.696V103.508Z" fill="#384946"/>
<path d="M163.696 103.23H160.77V103.509H163.696V103.23Z" fill="#384946"/>
<path d="M163.696 102.951H160.77V103.23H163.696V102.951Z" fill="#384946"/>
<path d="M163.696 102.676H160.77V102.954H163.696V102.676Z" fill="#384946"/>
<path d="M163.696 102.396H160.77V102.675H163.696V102.396Z" fill="#384946"/>
<path d="M163.696 102.119H160.77V102.398H163.696V102.119Z" fill="#384946"/>
<path d="M163.696 101.84H160.77V102.118H163.696V101.84Z" fill="#384946"/>
<path d="M163.696 101.562H160.77V101.841H163.696V101.562Z" fill="#384946"/>
<path d="M163.696 101.287H160.77V101.566H163.696V101.287Z" fill="#384946"/>
<path d="M163.696 101.008H160.77V101.286H163.696V101.008Z" fill="#384946"/>
<path d="M163.696 100.73H160.77V101.009H163.696V100.73Z" fill="#384946"/>
<path d="M163.696 100.451H160.77V100.73H163.696V100.451Z" fill="#384946"/>
<path d="M163.696 100.176H160.77V100.454H163.696V100.176Z" fill="#384946"/>
<path d="M163.696 99.8984H160.77V100.177H163.696V99.8984Z" fill="#384946"/>
<path d="M163.696 99.6191H160.77V99.8976H163.696V99.6191Z" fill="#384946"/>
<path d="M163.696 99.3398H160.77V99.6183H163.696V99.3398Z" fill="#384946"/>
<path d="M163.696 99.0664H160.77V99.3448H163.696V99.0664Z" fill="#384946"/>
<path d="M163.696 98.7871H160.77V99.0655H163.696V98.7871Z" fill="#384946"/>
<path d="M163.696 98.5078H160.77V98.7862H163.696V98.5078Z" fill="#384946"/>
<path d="M163.696 98.2305H160.77V98.5089H163.696V98.2305Z" fill="#384946"/>
<path d="M163.696 97.9551H160.77V98.2335H163.696V97.9551Z" fill="#384946"/>
<path d="M163.696 97.6758H160.77V97.9542H163.696V97.6758Z" fill="#384946"/>
<path d="M163.696 97.3984H160.77V97.6769H163.696V97.3984Z" fill="#384946"/>
<path d="M163.696 97.1191H160.77V97.3976H163.696V97.1191Z" fill="#384946"/>
<path d="M163.696 96.8438H160.77V97.1222H163.696V96.8438Z" fill="#384946"/>
<path d="M163.696 96.5664H160.77V96.8448H163.696V96.5664Z" fill="#384946"/>
<path d="M163.696 96.2871H160.77V96.5655H163.696V96.2871Z" fill="#384946"/>
<path d="M163.696 96.0098H160.77V96.2882H163.696V96.0098Z" fill="#384946"/>
<path d="M163.696 95.7305H160.77V96.0089H163.696V95.7305Z" fill="#384946"/>
<path d="M163.696 95.4551H160.77V95.7335H163.696V95.4551Z" fill="#384946"/>
<path d="M163.696 95.1758H160.77V95.4542H163.696V95.1758Z" fill="#384946"/>
<path d="M163.696 94.8984H160.77V95.1769H163.696V94.8984Z" fill="#384946"/>
<path d="M163.696 94.6191H160.77V94.8976H163.696V94.6191Z" fill="#384946"/>
<path d="M163.696 94.3438H160.77V94.6222H163.696V94.3438Z" fill="#384946"/>
<path d="M163.696 94.0664H160.77V94.3448H163.696V94.0664Z" fill="#384946"/>
<path d="M163.696 93.7871H160.77V94.0655H163.696V93.7871Z" fill="#384946"/>
<path d="M163.696 93.5098H160.77V93.7882H163.696V93.5098Z" fill="#384946"/>
<path d="M163.696 93.2344H160.77V93.5128H163.696V93.2344Z" fill="#384946"/>
<path d="M163.696 92.9551H160.77V93.2335H163.696V92.9551Z" fill="#384946"/>
<path d="M163.696 92.6777H160.77V92.9562H163.696V92.6777Z" fill="#384946"/>
<path d="M163.696 92.3984H160.77V92.6769H163.696V92.3984Z" fill="#384946"/>
<path d="M163.696 92.123H160.77V92.4015H163.696V92.123Z" fill="#384946"/>
<path d="M163.696 91.8457H160.77V92.1241H163.696V91.8457Z" fill="#384946"/>
<path d="M163.696 91.5664H160.77V91.8448H163.696V91.5664Z" fill="#384946"/>
<path d="M163.696 91.2871H160.77V91.5655H163.696V91.2871Z" fill="#384946"/>
<path d="M163.696 91.0117H160.77V91.2901H163.696V91.0117Z" fill="#384946"/>
<path d="M163.696 90.7344H160.77V91.0128H163.696V90.7344Z" fill="#384946"/>
<path d="M163.696 90.4551H160.77V90.7335H163.696V90.4551Z" fill="#384946"/>
<path d="M163.696 90.1777H160.77V90.4562H163.696V90.1777Z" fill="#384946"/>
<path d="M163.696 89.9023H160.77V90.1808H163.696V89.9023Z" fill="#384946"/>
<path d="M163.696 89.623H160.77V89.9015H163.696V89.623Z" fill="#384946"/>
<path d="M163.696 89.3457H160.77V89.6241H163.696V89.3457Z" fill="#384946"/>
<path d="M163.696 89.0664H160.77V89.3448H163.696V89.0664Z" fill="#384946"/>
<path d="M163.696 88.7891H160.77V89.0675H163.696V88.7891Z" fill="#384946"/>
<path d="M163.696 88.5137H160.77V88.7921H163.696V88.5137Z" fill="#384946"/>
<path d="M163.696 88.2344H160.77V88.5128H163.696V88.2344Z" fill="#384946"/>
<path d="M163.696 87.957H160.77V88.2355H163.696V87.957Z" fill="#384946"/>
<path d="M163.696 87.6777H160.77V87.9562H163.696V87.6777Z" fill="#384946"/>
<path d="M163.696 87.4023H160.77V87.6808H163.696V87.4023Z" fill="#384946"/>
<path d="M163.696 87.125H160.77V87.4034H163.696V87.125Z" fill="#384946"/>
<path d="M163.696 86.8457H160.77V87.1241H163.696V86.8457Z" fill="#384946"/>
<path d="M163.696 86.5664H160.77V86.8448H163.696V86.5664Z" fill="#384946"/>
<path d="M163.696 86.291H160.77V86.5694H163.696V86.291Z" fill="#384946"/>
<path d="M163.696 86.0137H160.77V86.2921H163.696V86.0137Z" fill="#384946"/>
<path d="M163.696 85.7344H160.77V86.0128H163.696V85.7344Z" fill="#384946"/>
<path d="M163.696 85.457H160.77V85.7355H163.696V85.457Z" fill="#384946"/>
<path d="M163.696 85.1816H160.77V85.4601H163.696V85.1816Z" fill="#384946"/>
<path d="M163.696 84.9023H160.77V85.1808H163.696V84.9023Z" fill="#384946"/>
<path d="M163.696 84.625H160.77V84.9034H163.696V84.625Z" fill="#384946"/>
<path d="M163.696 84.3457H160.77V84.6241H163.696V84.3457Z" fill="#384946"/>
<path d="M163.696 84.0645H160.77V84.346H163.696V84.0645Z" fill="#384946"/>
</g>
<path d="M166.622 114.636V84.0645L163.695 85.7536V116.325L166.622 114.636Z" fill="#F4F7FB"/>
<path d="M89.1883 107.301V76.7301L86.2617 75.041V105.612L89.1883 107.301Z" fill="white"/>
<mask id="mask4_1020_30584" style="mask-type:luminance" maskUnits="userSpaceOnUse" x="89" y="75" width="4" height="33">
<path d="M92.111 105.612V75.041L89.1875 76.7301V107.301L92.111 105.612Z" fill="white"/>
</mask>
<g mask="url(#mask4_1020_30584)">
<path d="M92.1141 107.258H89.1875V107.301H92.1141V107.258Z" fill="#C2D4FF"/>
<path d="M92.1141 106.98H89.1875V107.259H92.1141V106.98Z" fill="#C1D4FF"/>
<path d="M92.1141 106.701H89.1875V106.98H92.1141V106.701Z" fill="#C0D3FF"/>
<path d="M92.1141 106.424H89.1875V106.702H92.1141V106.424Z" fill="#BFD2FF"/>
<path d="M92.1141 106.148H89.1875V106.427H92.1141V106.148Z" fill="#BED2FF"/>
<path d="M92.1141 105.869H89.1875V106.148H92.1141V105.869Z" fill="#BDD1FF"/>
<path d="M92.1141 105.592H89.1875V105.87H92.1141V105.592Z" fill="#BCD0FF"/>
<path d="M92.1141 105.312H89.1875V105.591H92.1141V105.312Z" fill="#BBCFFF"/>
<path d="M92.1141 105.033H89.1875V105.312H92.1141V105.033Z" fill="#BACFFF"/>
<path d="M92.1141 104.758H89.1875V105.036H92.1141V104.758Z" fill="#B9CEFF"/>
<path d="M92.1141 104.48H89.1875V104.759H92.1141V104.48Z" fill="#B8CDFF"/>
<path d="M92.1141 104.201H89.1875V104.48H92.1141V104.201Z" fill="#B7CDFF"/>
<path d="M92.1141 103.924H89.1875V104.202H92.1141V103.924Z" fill="#B6CCFF"/>
<path d="M92.1141 103.648H89.1875V103.927H92.1141V103.648Z" fill="#B5CBFF"/>
<path d="M92.1141 103.369H89.1875V103.648H92.1141V103.369Z" fill="#B4CBFF"/>
<path d="M92.1141 103.092H89.1875V103.37H92.1141V103.092Z" fill="#B3CAFF"/>
<path d="M92.1141 102.812H89.1875V103.091H92.1141V102.812Z" fill="#B2C9FF"/>
<path d="M92.1141 102.537H89.1875V102.816H92.1141V102.537Z" fill="#B1C8FF"/>
<path d="M92.1141 102.26H89.1875V102.538H92.1141V102.26Z" fill="#B0C8FF"/>
<path d="M92.1141 101.98H89.1875V102.259H92.1141V101.98Z" fill="#AFC7FF"/>
<path d="M92.1141 101.703H89.1875V101.982H92.1141V101.703Z" fill="#AEC6FF"/>
<path d="M92.1141 101.428H89.1875V101.706H92.1141V101.428Z" fill="#ADC6FF"/>
<path d="M92.1141 101.148H89.1875V101.427H92.1141V101.148Z" fill="#ACC5FF"/>
<path d="M92.1141 100.869H89.1875V101.148H92.1141V100.869Z" fill="#ABC4FF"/>
<path d="M92.1141 100.592H89.1875V100.87H92.1141V100.592Z" fill="#AAC4FF"/>
<path d="M92.1141 100.316H89.1875V100.595H92.1141V100.316Z" fill="#A9C3FF"/>
<path d="M92.1141 100.037H89.1875V100.316H92.1141V100.037Z" fill="#A8C2FF"/>
<path d="M92.1141 99.7598H89.1875V100.038H92.1141V99.7598Z" fill="#A7C2FF"/>
<path d="M92.1141 99.4805H89.1875V99.7589H92.1141V99.4805Z" fill="#A5C1FF"/>
<path d="M92.1141 99.2051H89.1875V99.4835H92.1141V99.2051Z" fill="#A4C0FF"/>
<path d="M92.1141 98.9277H89.1875V99.2062H92.1141V98.9277Z" fill="#A3BFFF"/>
<path d="M92.1141 98.6484H89.1875V98.9269H92.1141V98.6484Z" fill="#A2BFFF"/>
<path d="M92.1141 98.3711H89.1875V98.6495H92.1141V98.3711Z" fill="#A1BEFF"/>
<path d="M92.1141 98.0918H89.1875V98.3702H92.1141V98.0918Z" fill="#A0BDFF"/>
<path d="M92.1141 97.8164H89.1875V98.0948H92.1141V97.8164Z" fill="#9FBDFF"/>
<path d="M92.1141 97.5391H89.1875V97.8175H92.1141V97.5391Z" fill="#9EBCFF"/>
<path d="M92.1141 97.2598H89.1875V97.5382H92.1141V97.2598Z" fill="#9DBBFF"/>
<path d="M92.1141 96.9805H89.1875V97.2589H92.1141V96.9805Z" fill="#9CBBFF"/>
<path d="M92.1141 96.7051H89.1875V96.9835H92.1141V96.7051Z" fill="#9BBAFF"/>
<path d="M92.1141 96.4277H89.1875V96.7062H92.1141V96.4277Z" fill="#9AB9FF"/>
<path d="M92.1141 96.1484H89.1875V96.4269H92.1141V96.1484Z" fill="#99B8FF"/>
<path d="M92.1141 95.8711H89.1875V96.1495H92.1141V95.8711Z" fill="#98B8FF"/>
<path d="M92.1141 95.5957H89.1875V95.8741H92.1141V95.5957Z" fill="#97B7FF"/>
<path d="M92.1141 95.3164H89.1875V95.5948H92.1141V95.3164Z" fill="#96B6FF"/>
<path d="M92.1141 95.0391H89.1875V95.3175H92.1141V95.0391Z" fill="#95B6FF"/>
<path d="M92.1141 94.7598H89.1875V95.0382H92.1141V94.7598Z" fill="#94B5FF"/>
<path d="M92.1141 94.4844H89.1875V94.7628H92.1141V94.4844Z" fill="#93B4FF"/>
<path d="M92.1141 94.207H89.1875V94.4855H92.1141V94.207Z" fill="#92B4FF"/>
<path d="M92.1141 93.9277H89.1875V94.2062H92.1141V93.9277Z" fill="#91B3FF"/>
<path d="M92.1141 93.6504H89.1875V93.9288H92.1141V93.6504Z" fill="#90B2FF"/>
<path d="M92.1141 93.375H89.1875V93.6534H92.1141V93.375Z" fill="#8FB1FF"/>
<path d="M92.1141 93.0957H89.1875V93.3741H92.1141V93.0957Z" fill="#8EB1FF"/>
<path d="M92.1141 92.8164H89.1875V93.0948H92.1141V92.8164Z" fill="#8DB0FF"/>
<path d="M92.1141 92.5391H89.1875V92.8175H92.1141V92.5391Z" fill="#8CAFFF"/>
<path d="M92.1141 92.2598H89.1875V92.5382H92.1141V92.2598Z" fill="#8BAFFF"/>
<path d="M92.1141 91.9844H89.1875V92.2628H92.1141V91.9844Z" fill="#8AAEFF"/>
<path d="M92.1141 91.707H89.1875V91.9855H92.1141V91.707Z" fill="#89ADFF"/>
<path d="M92.1141 91.4277H89.1875V91.7062H92.1141V91.4277Z" fill="#88ADFF"/>
<path d="M92.1141 91.1504H89.1875V91.4288H92.1141V91.1504Z" fill="#87ACFF"/>
<path d="M92.1141 90.875H89.1875V91.1534H92.1141V90.875Z" fill="#86ABFF"/>
<path d="M92.1141 90.5957H89.1875V90.8741H92.1141V90.5957Z" fill="#85AAFF"/>
<path d="M92.1141 90.3184H89.1875V90.5968H92.1141V90.3184Z" fill="#84AAFF"/>
<path d="M92.1141 90.0391H89.1875V90.3175H92.1141V90.0391Z" fill="#83A9FF"/>
<path d="M92.1141 89.7637H89.1875V90.0421H92.1141V89.7637Z" fill="#82A8FF"/>
<path d="M92.1141 89.4863H89.1875V89.7648H92.1141V89.4863Z" fill="#81A8FF"/>
<path d="M92.1141 89.207H89.1875V89.4855H92.1141V89.207Z" fill="#80A7FF"/>
<path d="M92.1141 88.9277H89.1875V89.2062H92.1141V88.9277Z" fill="#7FA6FF"/>
<path d="M92.1141 88.6523H89.1875V88.9308H92.1141V88.6523Z" fill="#7EA6FF"/>
<path d="M92.1141 88.375H89.1875V88.6534H92.1141V88.375Z" fill="#7DA5FF"/>
<path d="M92.1141 88.0957H89.1875V88.3741H92.1141V88.0957Z" fill="#7CA4FF"/>
<path d="M92.1141 87.8184H89.1875V88.0968H92.1141V87.8184Z" fill="#7BA3FF"/>
<path d="M92.1141 87.543H89.1875V87.8214H92.1141V87.543Z" fill="#7AA3FF"/>
<path d="M92.1141 87.2637H89.1875V87.5421H92.1141V87.2637Z" fill="#79A2FF"/>
<path d="M92.1141 86.9863H89.1875V87.2648H92.1141V86.9863Z" fill="#78A1FF"/>
<path d="M92.1141 86.707H89.1875V86.9855H92.1141V86.707Z" fill="#77A1FF"/>
<path d="M92.1141 86.4316H89.1875V86.7101H92.1141V86.4316Z" fill="#76A0FF"/>
<path d="M92.1141 86.1543H89.1875V86.4327H92.1141V86.1543Z" fill="#759FFF"/>
<path d="M92.1141 85.875H89.1875V86.1534H92.1141V85.875Z" fill="#749FFF"/>
<path d="M92.1141 85.5977H89.1875V85.8761H92.1141V85.5977Z" fill="#739EFF"/>
<path d="M92.1141 85.3184H89.1875V85.5968H92.1141V85.3184Z" fill="#729DFF"/>
<path d="M92.1141 85.043H89.1875V85.3214H92.1141V85.043Z" fill="#719CFF"/>
<path d="M92.1141 84.7637H89.1875V85.0421H92.1141V84.7637Z" fill="#709CFF"/>
<path d="M92.1141 84.4863H89.1875V84.7648H92.1141V84.4863Z" fill="#6F9BFF"/>
<path d="M92.1141 84.207H89.1875V84.4855H92.1141V84.207Z" fill="#6E9AFF"/>
<path d="M92.1141 83.9316H89.1875V84.2101H92.1141V83.9316Z" fill="#6D9AFF"/>
<path d="M92.1141 83.6543H89.1875V83.9327H92.1141V83.6543Z" fill="#6C99FF"/>
<path d="M92.1141 83.375H89.1875V83.6534H92.1141V83.375Z" fill="#6B98FF"/>
<path d="M92.1141 83.0977H89.1875V83.3761H92.1141V83.0977Z" fill="#6A98FF"/>
<path d="M92.1141 82.8223H89.1875V83.1007H92.1141V82.8223Z" fill="#6997FF"/>
<path d="M92.1141 82.543H89.1875V82.8214H92.1141V82.543Z" fill="#6896FF"/>
<path d="M92.1141 82.2656H89.1875V82.5441H92.1141V82.2656Z" fill="#6795FF"/>
<path d="M92.1141 81.9863H89.1875V82.2648H92.1141V81.9863Z" fill="#6695FF"/>
<path d="M92.1141 81.7109H89.1875V81.9894H92.1141V81.7109Z" fill="#6594FF"/>
<path d="M92.1141 81.4336H89.1875V81.712H92.1141V81.4336Z" fill="#6493FF"/>
<path d="M92.1141 81.1543H89.1875V81.4327H92.1141V81.1543Z" fill="#6393FF"/>
<path d="M92.1141 80.875H89.1875V81.1534H92.1141V80.875Z" fill="#6292FF"/>
<path d="M92.1141 80.5996H89.1875V80.878H92.1141V80.5996Z" fill="#6191FF"/>
<path d="M92.1141 80.3223H89.1875V80.6007H92.1141V80.3223Z" fill="#6091FF"/>
<path d="M92.1141 80.043H89.1875V80.3214H92.1141V80.043Z" fill="#5F90FF"/>
<path d="M92.1141 79.7656H89.1875V80.0441H92.1141V79.7656Z" fill="#5E8FFF"/>
<path d="M92.1141 79.4863H89.1875V79.7648H92.1141V79.4863Z" fill="#5D8EFF"/>
<path d="M92.1141 79.2109H89.1875V79.4894H92.1141V79.2109Z" fill="#5C8EFF"/>
<path d="M92.1141 78.9336H89.1875V79.212H92.1141V78.9336Z" fill="#5B8DFF"/>
<path d="M92.1141 78.6543H89.1875V78.9327H92.1141V78.6543Z" fill="#5A8CFF"/>
<path d="M92.1141 78.377H89.1875V78.6554H92.1141V78.377Z" fill="#598CFF"/>
<path d="M92.1141 78.1016H89.1875V78.38H92.1141V78.1016Z" fill="#588BFF"/>
<path d="M92.1141 77.8223H89.1875V78.1007H92.1141V77.8223Z" fill="#578AFF"/>
<path d="M92.1141 77.543H89.1875V77.8214H92.1141V77.543Z" fill="#568AFF"/>
<path d="M92.1141 77.2656H89.1875V77.5441H92.1141V77.2656Z" fill="#5589FF"/>
<path d="M92.1141 76.9902H89.1875V77.2687H92.1141V76.9902Z" fill="#5488FF"/>
<path d="M92.1141 76.7109H89.1875V76.9894H92.1141V76.7109Z" fill="#5387FF"/>
<path d="M92.1141 76.4336H89.1875V76.712H92.1141V76.4336Z" fill="#5287FF"/>
<path d="M92.1141 76.1543H89.1875V76.4327H92.1141V76.1543Z" fill="#5186FF"/>
<path d="M92.1141 75.8789H89.1875V76.1573H92.1141V75.8789Z" fill="#5085FF"/>
<path d="M92.1141 75.6016H89.1875V75.88H92.1141V75.6016Z" fill="#4F85FF"/>
<path d="M92.1141 75.3223H89.1875V75.6007H92.1141V75.3223Z" fill="#4E84FF"/>
<path d="M92.1141 75.041H89.1875V75.3225H92.1141V75.041Z" fill="#4E84FF"/>
</g>
<mask id="mask5_1020_30584" style="mask-type:luminance" maskUnits="userSpaceOnUse" x="86" y="71" width="81" height="33">
<path d="M86.2617 75.0411L132.505 103.667L166.622 84.0714V80.5694L132.505 100.168L86.2617 71.5391V75.0411Z" fill="white"/>
</mask>
<g mask="url(#mask5_1020_30584)">
<path d="M166.618 103.666H86.2578V103.348H166.618V103.666ZM166.618 103.344H86.2578V102.52H166.618V103.344ZM166.618 102.516H86.2578V101.965H166.618V102.516ZM166.618 101.963H86.2578V101.137H166.618V101.963ZM166.618 101.133H86.2578V100.307H166.618V101.133ZM166.618 100.305H86.2578V99.7539H166.618V100.305ZM166.618 99.75H86.2578V98.9238H166.618V99.75ZM166.618 98.9219H86.2578V98.6465H166.618V98.9219ZM166.618 98.6445H86.2578V98.3691H166.618V98.6445ZM166.618 98.3672H86.2578V97.541H166.618V98.3672ZM166.618 97.5391H86.2578V97.2637H166.618V97.5391ZM166.618 97.2617H86.2578V96.9863H166.618V97.2617ZM166.618 96.9844H86.2578V96.1582H166.618V96.9844ZM166.618 96.1562H86.2578V95.8809H166.618V96.1562ZM166.618 95.8789H86.2578V95.6035H166.618V95.8789ZM166.618 95.6016H86.2578V94.7754H166.618V95.6016ZM166.618 94.7734H86.2578V94.498H166.618V94.7734ZM166.618 94.4961H86.2578V94.2207H166.618V94.4961ZM166.618 94.2188H86.2578V93.3926H166.618V94.2188ZM166.618 93.3906H86.2578V93.1152H166.618V93.3906ZM166.618 93.1133H86.2578V92.5645H166.618V93.1133ZM166.618 92.5605H86.2578V92.0098H166.618V92.5605ZM166.618 92.0078H86.2578V91.7324H166.618V92.0078ZM166.618 91.7305H86.2578V91.1816H166.618V91.7305ZM166.618 91.1777H86.2578V90.627H166.618V91.1777ZM166.618 90.625H86.2578V90.3496H166.618V90.625ZM166.618 90.3477H86.2578V89.7988H166.618V90.3477ZM166.618 89.7949H86.2578V89.2441H166.618V89.7949ZM166.618 89.2422H86.2578V88.9668H166.618V89.2422ZM166.618 88.9648H86.2578V88.416H166.618V88.9648ZM166.618 88.4121H86.2578V87.8613H166.618V88.4121ZM166.618 87.8594H86.2578V87.584H166.618V87.8594ZM166.618 87.582H86.2578V87.0332H166.618V87.582ZM166.618 87.0293H86.2578V86.4785H166.618V87.0293ZM166.618 86.4766H86.2578V86.2012H166.618V86.4766ZM166.618 86.1992H86.2578V85.6504H166.618V86.1992ZM166.618 85.6465H86.2578V84.8203H166.618V85.6465ZM166.618 84.8164H86.2578V84.2676H166.618V84.8164ZM166.618 84.2637H86.2578V83.4375H166.618V84.2637ZM166.618 83.4336H86.2578V82.8848H166.618V83.4336ZM166.618 82.8809H86.2578V82.0547H166.618V82.8809ZM166.618 82.0508H86.2578V81.502H166.618V82.0508ZM166.618 81.498H86.2578V80.6719H166.618V81.498ZM166.618 80.668H86.2578V80.1172H166.618V80.668ZM166.618 80.1152H86.2578V79.2891H166.618V80.1152ZM166.618 79.2852H86.2578V78.459H166.618V79.2852ZM166.618 78.457H86.2578V77.9062H166.618V78.457ZM166.618 77.9023H86.2578V77.0762H166.618V77.9023ZM166.618 77.0742H86.2578V76.5234H166.618V77.0742ZM166.618 76.5195H86.2578V75.6934H166.618V76.5195ZM166.618 75.6914H86.2578V75.1406H166.618V75.6914ZM166.618 75.1367H86.2578V74.3105H166.618V75.1367ZM166.618 74.3086H86.2578V73.7578H166.618V74.3086ZM166.618 73.7539H86.2578V72.9277H166.618V73.7539ZM166.618 72.9258H86.2578V72.375H166.618V72.9258ZM166.618 72.3711H86.2578V71.5391H166.618V72.3711Z" fill="#384946"/>
</g>
<path d="M132.505 100.167L166.622 80.5688L120.378 51.9434L86.2617 71.5385L132.505 100.167Z" fill="#F1F1F1"/>
<path d="M121.339 92.0862L133.033 79.0404L122.042 72.6953L110.348 85.7381L121.339 92.0862Z" fill="#EEF4FF"/>
<path d="M113.067 88.2189L122.802 73.6571L111.025 68.9238L101.289 83.4856L113.067 88.2189Z" fill="#F9F9BA"/>
<path d="M109.028 122.797C110.519 122.939 110.732 121.59 111.308 121.565C111.818 121.544 114.788 120.764 115.314 120.489C116.87 119.675 118.163 118.28 117.356 117.476C116.734 116.857 115.71 116.359 114.859 116.653C114.009 116.947 113.322 116.445 112.019 116.189C112.019 116.189 109.879 116.681 108.174 115.725L107.837 116.071C107.193 117.086 107.546 119.92 107.441 120.857C107.336 121.794 107.642 122.664 109.022 122.797H109.028Z" fill="#0E2623"/>
<path d="M98.3605 91.1856C98.5832 85.1684 83.6842 99.8447 88.8073 102.508C96.0681 106.279 105.272 99.4889 105.272 99.4889C105.368 101.37 106.989 116.513 106.989 116.513C109.309 117.927 112.099 116.04 112.099 116.04C112.099 116.04 113.909 104.661 113.999 93.5862C114.045 87.699 98.2677 93.5862 98.3574 91.1856H98.3605Z" fill="url(#paint12_linear_1020_30584)"/>
<path d="M115.153 125.711C116.644 125.853 116.857 124.504 117.433 124.479C117.943 124.458 120.913 123.678 121.439 123.403C122.995 122.589 124.288 121.194 123.481 120.39C122.859 119.771 121.835 119.273 120.984 119.567C120.134 119.861 119.447 119.359 118.144 119.103C118.144 119.103 116.004 119.595 114.299 118.639L113.962 118.985C113.318 120 113.671 122.834 113.566 123.771C113.461 124.708 113.767 125.578 115.147 125.711H115.153Z" fill="#0E2623"/>
<path d="M103.753 93.4352C103.976 87.4181 85.8752 104.801 91.4314 108.17C98.4292 112.412 111.401 102.404 111.401 102.404C111.497 104.285 113.118 119.428 113.118 119.428C115.438 120.842 118.228 118.955 118.228 118.955C118.228 118.955 118.479 108.34 118.479 97.2652C118.479 90.0756 103.661 95.839 103.75 93.4352H103.753Z" fill="url(#paint13_linear_1020_30584)"/>
<path d="M94.003 98.8608L97.2235 117.766C97.2637 118.004 97.4896 118.165 97.7309 118.125C97.9691 118.085 98.13 117.859 98.0897 117.618L94.7641 98.0905C94.7393 97.9482 94.6496 97.8275 94.5197 97.7687C94.3897 97.7069 94.2382 97.7131 94.1144 97.7873L76.9633 107.69C76.8457 107.758 76.7653 107.879 76.7467 108.015C76.7405 108.074 76.0197 113.806 75.3298 119.48C74.9246 122.812 74.609 125.472 74.3956 127.387C74.1027 129.978 74.0584 131.333 74.2625 131.452C74.3306 131.493 74.4079 131.514 74.4853 131.514C74.5781 131.514 74.6678 131.486 74.7451 131.431C74.8936 131.322 74.9524 131.143 74.9153 130.976C74.9308 129.881 76.5023 117.005 77.5882 108.343L94.0061 98.8639L94.003 98.8608Z" fill="#0E2623"/>
<path d="M119.393 130.796C119.477 131.025 119.73 131.14 119.956 131.053C120.182 130.969 120.3 130.716 120.213 130.49L111.891 108.129C111.845 108.008 111.749 107.913 111.628 107.869C111.508 107.826 111.371 107.838 111.26 107.903L94.109 117.806C93.9636 117.889 93.8769 118.053 93.8924 118.221C93.8986 118.285 94.4152 124.73 94.9535 131.102C95.2691 134.846 95.532 137.834 95.7331 139.984C96.0012 142.849 96.2384 144.329 96.4447 144.424C96.5034 144.451 96.5653 144.464 96.6272 144.464C96.72 144.464 96.8097 144.436 96.887 144.38C97.0634 144.253 97.116 144.021 97.0232 143.833C96.788 142.685 95.5722 128.201 94.7865 118.428L111.248 108.924L119.387 130.799L119.393 130.796Z" fill="#0E2623"/>
<mask id="mask6_1020_30584" style="mask-type:luminance" maskUnits="userSpaceOnUse" x="76" y="94" width="37" height="25">
<path d="M76.2969 107.714L94.209 118.056L112.118 107.714V105.255L94.209 94.916L76.2969 105.255V107.714Z" fill="white"/>
</mask>
<g mask="url(#mask6_1020_30584)">
<path d="M112.118 118.023H76.2969V118.054H112.118V118.023Z" fill="#C2D4FF"/>
<path d="M112.118 117.824H76.2969V118.022H112.118V117.824Z" fill="#C1D4FF"/>
<path d="M112.118 117.627H76.2969V117.825H112.118V117.627Z" fill="#C0D3FF"/>
<path d="M112.118 117.426H76.2969V117.624H112.118V117.426Z" fill="#BFD2FF"/>
<path d="M112.118 117.229H76.2969V117.427H112.118V117.229Z" fill="#BED2FF"/>
<path d="M112.118 117.029H76.2969V117.227H112.118V117.029Z" fill="#BDD1FF"/>
<path d="M112.118 116.828H76.2969V117.026H112.118V116.828Z" fill="#BCD0FF"/>
<path d="M112.118 116.631H76.2969V116.829H112.118V116.631Z" fill="#BBCFFF"/>
<path d="M112.118 116.43H76.2969V116.628H112.118V116.43Z" fill="#BACFFF"/>
<path d="M112.118 116.23H76.2969V116.428H112.118V116.23Z" fill="#B9CEFF"/>
<path d="M112.118 116.033H76.2969V116.231H112.118V116.033Z" fill="#B8CDFF"/>
<path d="M112.118 115.832H76.2969V116.03H112.118V115.832Z" fill="#B7CDFF"/>
<path d="M112.118 115.635H76.2969V115.833H112.118V115.635Z" fill="#B6CCFF"/>
<path d="M112.118 115.434H76.2969V115.632H112.118V115.434Z" fill="#B5CBFF"/>
<path d="M112.118 115.234H76.2969V115.432H112.118V115.234Z" fill="#B4CBFF"/>
<path d="M112.118 115.037H76.2969V115.235H112.118V115.037Z" fill="#B3CAFF"/>
<path d="M112.118 114.836H76.2969V115.034H112.118V114.836Z" fill="#B2C9FF"/>
<path d="M112.118 114.639H76.2969V114.837H112.118V114.639Z" fill="#B1C8FF"/>
<path d="M112.118 114.439H76.2969V114.637H112.118V114.439Z" fill="#B0C8FF"/>
<path d="M112.118 114.238H76.2969V114.436H112.118V114.238Z" fill="#AFC7FF"/>
<path d="M112.118 114.041H76.2969V114.239H112.118V114.041Z" fill="#AEC6FF"/>
<path d="M112.118 113.84H76.2969V114.038H112.118V113.84Z" fill="#ADC6FF"/>
<path d="M112.118 113.643H76.2969V113.841H112.118V113.643Z" fill="#ACC5FF"/>
<path d="M112.118 113.443H76.2969V113.641H112.118V113.443Z" fill="#ABC4FF"/>
<path d="M112.118 113.242H76.2969V113.44H112.118V113.242Z" fill="#AAC4FF"/>
<path d="M112.118 113.045H76.2969V113.243H112.118V113.045Z" fill="#A9C3FF"/>
<path d="M112.118 112.844H76.2969V113.042H112.118V112.844Z" fill="#A8C2FF"/>
<path d="M112.118 112.646H76.2969V112.844H112.118V112.646Z" fill="#A7C2FF"/>
<path d="M112.118 112.447H76.2969V112.645H112.118V112.447Z" fill="#A5C1FF"/>
<path d="M112.118 112.246H76.2969V112.444H112.118V112.246Z" fill="#A4C0FF"/>
<path d="M112.118 112.049H76.2969V112.247H112.118V112.049Z" fill="#A3BFFF"/>
<path d="M112.118 111.852H76.2969V112.05H112.118V111.852Z" fill="#A2BFFF"/>
<path d="M112.118 111.65H76.2969V111.848H112.118V111.65Z" fill="#A1BEFF"/>
<path d="M112.118 111.451H76.2969V111.649H112.118V111.451Z" fill="#A0BDFF"/>
<path d="M112.118 111.25H76.2969V111.448H112.118V111.25Z" fill="#9FBDFF"/>
<path d="M112.118 111.053H76.2969V111.251H112.118V111.053Z" fill="#9EBCFF"/>
<path d="M112.118 110.855H76.2969V111.053H112.118V110.855Z" fill="#9DBBFF"/>
<path d="M112.118 110.654H76.2969V110.852H112.118V110.654Z" fill="#9CBBFF"/>
<path d="M112.118 110.455H76.2969V110.653H112.118V110.455Z" fill="#9BBAFF"/>
<path d="M112.118 110.254H76.2969V110.452H112.118V110.254Z" fill="#9AB9FF"/>
<path d="M112.118 110.057H76.2969V110.255H112.118V110.057Z" fill="#99B8FF"/>
<path d="M112.118 109.859H76.2969V110.057H112.118V109.859Z" fill="#98B8FF"/>
<path d="M112.118 109.658H76.2969V109.856H112.118V109.658Z" fill="#97B7FF"/>
<path d="M112.118 109.459H76.2969V109.657H112.118V109.459Z" fill="#96B6FF"/>
<path d="M112.118 109.262H76.2969V109.46H112.118V109.262Z" fill="#95B6FF"/>
<path d="M112.118 109.061H76.2969V109.259H112.118V109.061Z" fill="#94B5FF"/>
<path d="M112.118 108.863H76.2969V109.061H112.118V108.863Z" fill="#93B4FF"/>
<path d="M112.118 108.662H76.2969V108.86H112.118V108.662Z" fill="#92B4FF"/>
<path d="M112.118 108.463H76.2969V108.661H112.118V108.463Z" fill="#91B3FF"/>
<path d="M112.118 108.266H76.2969V108.464H112.118V108.266Z" fill="#90B2FF"/>
<path d="M112.118 108.064H76.2969V108.262H112.118V108.064Z" fill="#8FB1FF"/>
<path d="M112.118 107.865H76.2969V108.063H112.118V107.865Z" fill="#8EB1FF"/>
<path d="M112.118 107.666H76.2969V107.864H112.118V107.666Z" fill="#8DB0FF"/>
<path d="M112.118 107.467H76.2969V107.665H112.118V107.467Z" fill="#8CAFFF"/>
<path d="M112.118 107.27H76.2969V107.468H112.118V107.27Z" fill="#8BAFFF"/>
<path d="M112.118 107.068H76.2969V107.266H112.118V107.068Z" fill="#8AAEFF"/>
<path d="M112.118 106.869H76.2969V107.067H112.118V106.869Z" fill="#89ADFF"/>
<path d="M112.118 106.672H76.2969V106.87H112.118V106.672Z" fill="#88ADFF"/>
<path d="M112.118 106.471H76.2969V106.669H112.118V106.471Z" fill="#87ACFF"/>
<path d="M112.118 106.273H76.2969V106.471H112.118V106.273Z" fill="#86ABFF"/>
<path d="M112.118 106.072H76.2969V106.27H112.118V106.072Z" fill="#85AAFF"/>
<path d="M112.118 105.873H76.2969V106.071H112.118V105.873Z" fill="#84AAFF"/>
<path d="M112.118 105.676H76.2969V105.874H112.118V105.676Z" fill="#83A9FF"/>
<path d="M112.118 105.475H76.2969V105.673H112.118V105.475Z" fill="#82A8FF"/>
<path d="M112.118 105.277H76.2969V105.475H112.118V105.277Z" fill="#81A8FF"/>
<path d="M112.118 105.076H76.2969V105.274H112.118V105.076Z" fill="#80A7FF"/>
<path d="M112.118 104.877H76.2969V105.075H112.118V104.877Z" fill="#7FA6FF"/>
<path d="M112.118 104.68H76.2969V104.878H112.118V104.68Z" fill="#7EA6FF"/>
<path d="M112.118 104.479H76.2969V104.677H112.118V104.479Z" fill="#7DA5FF"/>
<path d="M112.118 104.281H76.2969V104.479H112.118V104.281Z" fill="#7CA4FF"/>
<path d="M112.118 104.082H76.2969V104.28H112.118V104.082Z" fill="#7BA3FF"/>
<path d="M112.118 103.881H76.2969V104.079H112.118V103.881Z" fill="#7AA3FF"/>
<path d="M112.118 103.684H76.2969V103.882H112.118V103.684Z" fill="#79A2FF"/>
<path d="M112.118 103.482H76.2969V103.68H112.118V103.482Z" fill="#78A1FF"/>
<path d="M112.118 103.285H76.2969V103.483H112.118V103.285Z" fill="#77A1FF"/>
<path d="M112.118 103.086H76.2969V103.284H112.118V103.086Z" fill="#76A0FF"/>
<path d="M112.118 102.885H76.2969V103.083H112.118V102.885Z" fill="#759FFF"/>
<path d="M112.118 102.688H76.2969V102.885H112.118V102.688Z" fill="#749FFF"/>
<path d="M112.118 102.486H76.2969V102.684H112.118V102.486Z" fill="#739EFF"/>
<path d="M112.118 102.289H76.2969V102.487H112.118V102.289Z" fill="#729DFF"/>
<path d="M112.118 102.09H76.2969V102.288H112.118V102.09Z" fill="#719CFF"/>
<path d="M112.118 101.889H76.2969V102.087H112.118V101.889Z" fill="#709CFF"/>
<path d="M112.118 101.691H76.2969V101.889H112.118V101.691Z" fill="#6F9BFF"/>
<path d="M112.118 101.494H76.2969V101.692H112.118V101.494Z" fill="#6E9AFF"/>
<path d="M112.118 101.293H76.2969V101.491H112.118V101.293Z" fill="#6D9AFF"/>
<path d="M112.118 101.094H76.2969V101.292H112.118V101.094Z" fill="#6C99FF"/>
<path d="M112.118 100.893H76.2969V101.091H112.118V100.893Z" fill="#6B98FF"/>
<path d="M112.118 100.695H76.2969V100.893H112.118V100.695Z" fill="#6A98FF"/>
<path d="M112.118 100.498H76.2969V100.696H112.118V100.498Z" fill="#6997FF"/>
<path d="M112.118 100.297H76.2969V100.495H112.118V100.297Z" fill="#6896FF"/>
<path d="M112.118 100.098H76.2969V100.296H112.118V100.098Z" fill="#6795FF"/>
<path d="M112.118 99.8965H76.2969V100.094H112.118V99.8965Z" fill="#6695FF"/>
<path d="M112.118 99.6992H76.2969V99.8972H112.118V99.6992Z" fill="#6594FF"/>
<path d="M112.118 99.5H76.2969V99.698H112.118V99.5Z" fill="#6493FF"/>
<path d="M112.118 99.3008H76.2969V99.4988H112.118V99.3008Z" fill="#6393FF"/>
<path d="M112.118 99.1016H76.2969V99.2996H112.118V99.1016Z" fill="#6292FF"/>
<path d="M112.118 98.9043H76.2969V99.1023H112.118V98.9043Z" fill="#6191FF"/>
<path d="M112.118 98.7031H76.2969V98.9011H112.118V98.7031Z" fill="#6091FF"/>
<path d="M112.118 98.5059H76.2969V98.7038H112.118V98.5059Z" fill="#5F90FF"/>
<path d="M112.118 98.3047H76.2969V98.5027H112.118V98.3047Z" fill="#5E8FFF"/>
<path d="M112.118 98.1055H76.2969V98.3035H112.118V98.1055Z" fill="#5D8EFF"/>
<path d="M112.118 97.9082H76.2969V98.1062H112.118V97.9082Z" fill="#5C8EFF"/>
<path d="M112.118 97.707H76.2969V97.905H112.118V97.707Z" fill="#5B8DFF"/>
<path d="M112.118 97.5078H76.2969V97.7058H112.118V97.5078Z" fill="#5A8CFF"/>
<path d="M112.118 97.3086H76.2969V97.5066H112.118V97.3086Z" fill="#598CFF"/>
<path d="M112.118 97.1094H76.2969V97.3074H112.118V97.1094Z" fill="#588BFF"/>
<path d="M112.118 96.9121H76.2969V97.1101H112.118V96.9121Z" fill="#578AFF"/>
<path d="M112.118 96.7109H76.2969V96.9089H112.118V96.7109Z" fill="#568AFF"/>
<path d="M112.118 96.5117H76.2969V96.7097H112.118V96.5117Z" fill="#5589FF"/>
<path d="M112.118 96.3145H76.2969V96.5125H112.118V96.3145Z" fill="#5488FF"/>
<path d="M112.118 96.1133H76.2969V96.3113H112.118V96.1133Z" fill="#5387FF"/>
<path d="M112.118 95.916H76.2969V96.114H112.118V95.916Z" fill="#5287FF"/>
<path d="M112.118 95.7148H76.2969V95.9128H112.118V95.7148Z" fill="#5186FF"/>
<path d="M112.118 95.5156H76.2969V95.7136H112.118V95.5156Z" fill="#5085FF"/>
<path d="M112.118 95.3184H76.2969V95.5164H112.118V95.3184Z" fill="#4F85FF"/>
<path d="M112.118 95.1172H76.2969V95.3152H112.118V95.1172Z" fill="#4E84FF"/>
<path d="M112.118 94.916H76.2969V95.1202H112.118V94.916Z" fill="#4E84FF"/>
</g>
<path d="M94.209 115.597L112.118 105.255L94.209 94.916L76.2969 105.255L94.209 115.597Z" fill="#F1F1F1"/>
<path d="M125.531 80.3424L121.266 85.0527L121.717 85.4618L125.982 80.7515L125.531 80.3424Z" fill="#1D4524"/>
<path d="M103.753 93.4352C103.976 87.4181 85.8752 104.801 91.4314 108.17C98.4292 112.412 111.401 102.404 111.401 102.404C111.497 104.285 118.479 108.34 118.479 97.2652C118.479 90.0756 103.661 95.839 103.75 93.4352H103.753Z" fill="url(#paint14_linear_1020_30584)"/>
<path d="M113.358 76.8646C114.648 76.3727 115.96 75.1476 114.695 75.0393C113.599 74.9434 112.82 74.1453 111.997 74.3092C111.026 74.501 109.841 74.2845 109.516 74.5938C108.718 75.3487 106.271 76.119 106.24 76.2799L105.145 78.6094L106.481 79.1137C106.481 79.1137 106.685 79.4261 108.071 79.2281C108.173 79.3055 108.303 79.3828 108.473 79.4694C108.473 79.4694 110.58 80.4284 110.883 80.4687C111.186 80.512 112.993 79.7912 113.151 79.324C113.259 79.0054 111.629 79.3766 111.264 79.1291C111.796 78.9342 111.301 77.6504 113.358 76.8646Z" fill="url(#paint15_linear_1020_30584)"/>
<path d="M94.7923 76.9017C93.2579 78.1113 95.0275 80.447 96.8001 80.645C98.5759 80.843 108.769 80.2428 108.769 80.2428C109.029 79.9954 109.209 79.7169 109.329 79.423C109.976 77.8577 108.828 76.1128 107.151 75.8808L101.898 75.1476L94.5015 74.2969C94.5015 74.2969 96.3237 75.689 94.7893 76.9017H94.7923Z" fill="#1D4524"/>
<path d="M96.9884 69.165L97.5669 62.4766L91.9984 63.9182L91.7787 69.1681C91.6797 72.568 96.8709 71.1913 96.9884 69.165Z" fill="url(#paint16_linear_1020_30584)"/>
<path d="M91.4677 54.6417C89.6672 55.8946 92.9063 63.6875 94.8738 63.177C96.665 62.713 96.7269 65.2003 97.2992 65.5344C97.2992 65.5344 98.3356 65.1167 98.6326 64.9497C99.0843 64.6991 99.3813 62.979 99.5081 61.0548C99.5328 60.6743 100.266 60.5969 100.278 60.2102C100.294 59.7586 99.5854 59.0006 99.5792 58.5706C99.5669 57.1723 99.4586 55.9689 99.2482 55.4924C97.2652 51.0005 93.2682 53.3857 91.4677 54.6386V54.6417Z" fill="url(#paint17_linear_1020_30584)"/>
<path d="M90.6869 53.7311C89.4587 53.9724 88.2089 56.1287 88.8276 59.1202C89.468 62.2293 91.912 66.0469 91.912 66.0469C92.9793 65.6045 93.8176 65.8149 94.5013 66.48C94.5013 66.48 96.0265 62.1211 96.8494 61.292C97.595 60.5433 99.7296 56.8588 99.7296 56.8588C99.7296 56.8588 99.8843 56.3391 99.9585 56.0266C100.033 55.7141 100.593 53.4403 96.3266 52.2926C91.5191 50.9994 90.6869 53.7342 90.6869 53.7342V53.7311Z" fill="#0E2623"/>
<path d="M100.278 92.178C96.2961 93.0411 91.3184 99.4418 89.852 102.972C88.3825 106.502 94.9441 109.1 98.1151 109.403C99.3433 109.063 100.51 108.608 101.555 107.943C104.661 104.766 105.274 99.4882 105.274 99.4882C105.274 99.4882 104.259 91.3179 100.278 92.1811V92.178Z" fill="#1D4524"/>
<path d="M98.7409 109.147C101.915 107.761 105.272 99.4887 105.272 99.4887C105.272 99.4887 105.432 97.0602 105.002 92.395C104.569 87.7298 104.025 70.7117 104.025 70.7117C103.592 69.6846 98.5367 68.3667 98.5367 68.3667C98.5367 68.3667 94.6573 69.567 91.4832 67.5469C91.4832 67.5469 88.5071 68.1996 87.7337 68.8988C86.9634 69.598 83.8791 75.5006 85.9827 81.7714C86.9077 84.531 87.2171 92.9921 87.2171 92.9921L84.7422 104.5C85.0856 112.519 94.3696 111.059 98.7409 109.15V109.147Z" fill="url(#paint18_linear_1020_30584)"/>
<path d="M97.0937 59.0335C95.7789 61.1403 97.5361 62.4767 97.5361 62.4767L98.0342 59.4357C98.0342 59.4357 97.8176 57.8703 97.0937 59.0335Z" fill="url(#paint19_linear_1020_30584)"/>
<path d="M91.5736 66.416L91.4839 67.5483C91.4839 67.5483 91.0291 69.1601 92.8544 69.3828C94.6796 69.6056 98.3363 68.201 98.3363 68.201L97.9434 66.7965C97.9434 66.7965 92.6502 66.9698 91.5767 66.4191L91.5736 66.416Z" fill="#F7F7F7"/>
<path d="M91.366 66.7961L90.8524 68.1727C90.8524 68.1727 90.5059 69.305 92.9901 69.5277C95.4712 69.7505 98.7443 68.4666 98.7443 68.4666L98.1967 67.1364C98.1967 67.1364 92.8293 67.3467 91.3691 66.793L91.366 66.7961Z" fill="url(#paint20_linear_1020_30584)"/>
<path d="M98.332 68.9059C95.0713 69.4937 92.42 69.4194 90.8516 68.1758C91.0588 68.7017 91.9776 70.6569 98.332 68.9059Z" fill="#1D4524"/>
<path d="M103.872 70.5351C101.486 68.1746 99.2558 73.0409 100.02 75.8407C100.694 78.3187 103.825 84.3977 105.675 85.8703C106.575 86.588 110.99 89.0969 110.739 84.6823C110.643 83.0117 109.131 80.5028 109.131 80.5028C109.131 80.5028 104.781 71.4322 103.872 70.5351Z" fill="url(#paint21_linear_1020_30584)"/>
<path d="M87.7344 92.1144C87.7344 92.1144 89.3307 95.0132 90.8868 95.7897C94.0547 97.3736 97.1607 93.7417 97.1607 93.7417C97.1607 93.7417 93.835 95.8701 91.7778 95.372C89.7205 94.874 88.6656 92.7888 87.7344 92.1113V92.1144Z" fill="#1D4524"/>
<path d="M125.547 84.3004C124.928 84.1798 125.169 82.3143 124.377 82.5959C123.443 82.93 122.202 82.3267 121.927 82.6794C121.253 83.5425 120.396 84.1396 120.389 84.3035L119.656 86.7692L120.198 87.9231C120.198 87.9231 121.287 88.2851 124.003 87.3044C126.11 86.5433 125.98 86.0205 125.98 86.0205C125.98 86.0205 125.881 84.3623 125.543 84.2974L125.547 84.3004Z" fill="url(#paint22_linear_1020_30584)"/>
<path d="M104.556 84.6835C102.007 79.3408 99.8258 76.8411 100.277 72.6895C97.4406 75.0313 104.556 84.6835 104.556 84.6835Z" fill="#1D4524"/>
<path d="M119.231 87.4061C118.999 87.4989 118.885 87.7619 118.978 87.9939C119.07 88.2259 119.333 88.3404 119.565 88.2476C119.797 88.1548 119.912 87.8918 119.819 87.6629C119.726 87.4309 119.463 87.3164 119.231 87.4092V87.4061Z" fill="#5E5079"/>
<path d="M117.114 87.2725C116.882 87.3653 116.768 87.6283 116.86 87.8603C116.953 88.0923 117.216 88.2068 117.448 88.114C117.68 88.0212 117.795 87.7582 117.702 87.5262C117.609 87.2941 117.346 87.1797 117.114 87.2725Z" fill="#5E5079"/>
<path d="M109.132 80.5059L103.062 81.7278L103.681 83.8934C104.185 85.6568 105.695 86.9437 107.514 87.1665L120.928 88.7968C120.928 88.7968 121.674 85.3319 119.137 84.2028L109.129 80.5059H109.132Z" fill="url(#paint23_linear_1020_30584)"/>
<mask id="mask7_1020_30584" style="mask-type:luminance" maskUnits="userSpaceOnUse" x="66" y="82" width="30" height="34">
<path d="M94.2478 115.619L95.6431 114.768C94.2076 106.941 92.766 99.3836 85.5176 92.5961L67.5683 82.2324L66.0586 82.8357C72.778 90.4924 78.0403 98.01 77.8051 104.652L94.2478 115.619Z" fill="white"/>
</mask>
<g mask="url(#mask7_1020_30584)">
<path d="M95.6431 115.576H66.0586V115.623H95.6431V115.576Z" fill="#C2D4FF"/>
<path d="M95.6431 115.287H66.0586V115.575H95.6431V115.287Z" fill="#C1D4FF"/>
<path d="M95.6431 115H66.0586V115.288H95.6431V115Z" fill="#C0D3FF"/>
<path d="M95.6431 114.713H66.0586V115.001H95.6431V114.713Z" fill="#BFD2FF"/>
<path d="M95.6431 114.424H66.0586V114.712H95.6431V114.424Z" fill="#BED2FF"/>
<path d="M95.6431 114.137H66.0586V114.424H95.6431V114.137Z" fill="#BDD1FF"/>
<path d="M95.6431 113.85H66.0586V114.137H95.6431V113.85Z" fill="#BCD0FF"/>
<path d="M95.6431 113.562H66.0586V113.85H95.6431V113.562Z" fill="#BBCFFF"/>
<path d="M95.6431 113.273H66.0586V113.561H95.6431V113.273Z" fill="#BACFFF"/>
<path d="M95.6431 112.99H66.0586V113.278H95.6431V112.99Z" fill="#B9CEFF"/>
<path d="M95.6431 112.701H66.0586V112.989H95.6431V112.701Z" fill="#B8CDFF"/>
<path d="M95.6431 112.414H66.0586V112.702H95.6431V112.414Z" fill="#B7CDFF"/>
<path d="M95.6431 112.127H66.0586V112.415H95.6431V112.127Z" fill="#B6CCFF"/>
<path d="M95.6431 111.838H66.0586V112.126H95.6431V111.838Z" fill="#B5CBFF"/>
<path d="M95.6431 111.551H66.0586V111.838H95.6431V111.551Z" fill="#B4CBFF"/>
<path d="M95.6431 111.264H66.0586V111.551H95.6431V111.264Z" fill="#B3CAFF"/>
<path d="M95.6431 110.975H66.0586V111.262H95.6431V110.975Z" fill="#B2C9FF"/>
<path d="M95.6431 110.688H66.0586V110.975H95.6431V110.688Z" fill="#B1C8FF"/>
<path d="M95.6431 110.4H66.0586V110.688H95.6431V110.4Z" fill="#B0C8FF"/>
<path d="M95.6431 110.115H66.0586V110.403H95.6431V110.115Z" fill="#AFC7FF"/>
<path d="M95.6431 109.828H66.0586V110.116H95.6431V109.828Z" fill="#AEC6FF"/>
<path d="M95.6431 109.539H66.0586V109.827H95.6431V109.539Z" fill="#ADC6FF"/>
<path d="M95.6431 109.252H66.0586V109.54H95.6431V109.252Z" fill="#ACC5FF"/>
<path d="M95.6431 108.965H66.0586V109.253H95.6431V108.965Z" fill="#ABC4FF"/>
<path d="M95.6431 108.676H66.0586V108.963H95.6431V108.676Z" fill="#AAC4FF"/>
<path d="M95.6431 108.389H66.0586V108.676H95.6431V108.389Z" fill="#A9C3FF"/>
<path d="M95.6431 108.102H66.0586V108.389H95.6431V108.102Z" fill="#A8C2FF"/>
<path d="M95.6431 107.814H66.0586V108.102H95.6431V107.814Z" fill="#A7C2FF"/>
<path d="M95.6431 107.529H66.0586V107.817H95.6431V107.529Z" fill="#A5C1FF"/>
<path d="M95.6431 107.242H66.0586V107.53H95.6431V107.242Z" fill="#A4C0FF"/>
<path d="M95.6431 106.953H66.0586V107.241H95.6431V106.953Z" fill="#A3BFFF"/>
<path d="M95.6431 106.666H66.0586V106.954H95.6431V106.666Z" fill="#A2BFFF"/>
<path d="M95.6431 106.379H66.0586V106.667H95.6431V106.379Z" fill="#A1BEFF"/>
<path d="M95.6431 106.09H66.0586V106.378H95.6431V106.09Z" fill="#A0BDFF"/>
<path d="M95.6431 105.803H66.0586V106.09H95.6431V105.803Z" fill="#9FBDFF"/>
<path d="M95.6431 105.516H66.0586V105.803H95.6431V105.516Z" fill="#9EBCFF"/>
<path d="M95.6431 105.227H66.0586V105.514H95.6431V105.227Z" fill="#9DBBFF"/>
<path d="M95.6431 104.939H66.0586V105.227H95.6431V104.939Z" fill="#9CBBFF"/>
<path d="M95.6431 104.654H66.0586V104.942H95.6431V104.654Z" fill="#9BBAFF"/>
<path d="M95.6431 104.367H66.0586V104.655H95.6431V104.367Z" fill="#9AB9FF"/>
<path d="M95.6431 104.08H66.0586V104.368H95.6431V104.08Z" fill="#99B8FF"/>
<path d="M95.6431 103.791H66.0586V104.079H95.6431V103.791Z" fill="#98B8FF"/>
<path d="M95.6431 103.504H66.0586V103.792H95.6431V103.504Z" fill="#97B7FF"/>
<path d="M95.6431 103.217H66.0586V103.505H95.6431V103.217Z" fill="#96B6FF"/>
<path d="M95.6431 102.93H66.0586V103.217H95.6431V102.93Z" fill="#95B6FF"/>
<path d="M95.6431 102.641H66.0586V102.928H95.6431V102.641Z" fill="#94B5FF"/>
<path d="M95.6431 102.354H66.0586V102.641H95.6431V102.354Z" fill="#93B4FF"/>
<path d="M95.6431 102.066H66.0586V102.354H95.6431V102.066Z" fill="#92B4FF"/>
<path d="M95.6431 101.781H66.0586V102.069H95.6431V101.781Z" fill="#91B3FF"/>
<path d="M95.6431 101.494H66.0586V101.782H95.6431V101.494Z" fill="#90B2FF"/>
<path d="M95.6431 101.205H66.0586V101.493H95.6431V101.205Z" fill="#8FB1FF"/>
<path d="M95.6431 100.918H66.0586V101.206H95.6431V100.918Z" fill="#8EB1FF"/>
<path d="M95.6431 100.631H66.0586V100.919H95.6431V100.631Z" fill="#8DB0FF"/>
<path d="M95.6431 100.342H66.0586V100.63H95.6431V100.342Z" fill="#8CAFFF"/>
<path d="M95.6431 100.055H66.0586V100.342H95.6431V100.055Z" fill="#8BAFFF"/>
<path d="M95.6431 99.7676H66.0586V100.055H95.6431V99.7676Z" fill="#8AAEFF"/>
<path d="M95.6431 99.4785H66.0586V99.7662H95.6431V99.4785Z" fill="#89ADFF"/>
<path d="M95.6431 99.1914H66.0586V99.4791H95.6431V99.1914Z" fill="#88ADFF"/>
<path d="M95.6431 98.9062H66.0586V99.194H95.6431V98.9062Z" fill="#87ACFF"/>
<path d="M95.6431 98.6191H66.0586V98.9068H95.6431V98.6191Z" fill="#86ABFF"/>
<path d="M95.6431 98.332H66.0586V98.6197H95.6431V98.332Z" fill="#85AAFF"/>
<path d="M95.6431 98.043H66.0586V98.3307H95.6431V98.043Z" fill="#84AAFF"/>
<path d="M95.6431 97.7559H66.0586V98.0436H95.6431V97.7559Z" fill="#83A9FF"/>
<path d="M95.6431 97.4688H66.0586V97.7565H95.6431V97.4688Z" fill="#82A8FF"/>
<path d="M95.6431 97.1816H66.0586V97.4693H95.6431V97.1816Z" fill="#81A8FF"/>
<path d="M95.6431 96.8926H66.0586V97.1803H95.6431V96.8926Z" fill="#80A7FF"/>
<path d="M95.6431 96.6055H66.0586V96.8932H95.6431V96.6055Z" fill="#7FA6FF"/>
<path d="M95.6431 96.3184H66.0586V96.6061H95.6431V96.3184Z" fill="#7EA6FF"/>
<path d="M95.6431 96.0332H66.0586V96.3209H95.6431V96.0332Z" fill="#7DA5FF"/>
<path d="M95.6431 95.7461H66.0586V96.0338H95.6431V95.7461Z" fill="#7CA4FF"/>
<path d="M95.6431 95.457H66.0586V95.7447H95.6431V95.457Z" fill="#7BA3FF"/>
<path d="M95.6431 95.1699H66.0586V95.4576H95.6431V95.1699Z" fill="#7AA3FF"/>
<path d="M95.6431 94.8828H66.0586V95.1705H95.6431V94.8828Z" fill="#79A2FF"/>
<path d="M95.6431 94.5938H66.0586V94.8815H95.6431V94.5938Z" fill="#78A1FF"/>
<path d="M95.6431 94.3066H66.0586V94.5943H95.6431V94.3066Z" fill="#77A1FF"/>
<path d="M95.6431 94.0195H66.0586V94.3072H95.6431V94.0195Z" fill="#76A0FF"/>
<path d="M95.6431 93.7305H66.0586V94.0182H95.6431V93.7305Z" fill="#759FFF"/>
<path d="M95.6431 93.4434H66.0586V93.7311H95.6431V93.4434Z" fill="#749FFF"/>
<path d="M95.6431 93.1582H66.0586V93.4459H95.6431V93.1582Z" fill="#739EFF"/>
<path d="M95.6431 92.8711H66.0586V93.1588H95.6431V92.8711Z" fill="#729DFF"/>
<path d="M95.6431 92.584H66.0586V92.8717H95.6431V92.584Z" fill="#719CFF"/>
<path d="M95.6431 92.2949H66.0586V92.5826H95.6431V92.2949Z" fill="#709CFF"/>
<path d="M95.6431 92.0078H66.0586V92.2955H95.6431V92.0078Z" fill="#6F9BFF"/>
<path d="M95.6431 91.7207H66.0586V92.0084H95.6431V91.7207Z" fill="#6E9AFF"/>
<path d="M95.6431 91.4336H66.0586V91.7213H95.6431V91.4336Z" fill="#6D9AFF"/>
<path d="M95.6431 91.1445H66.0586V91.4322H95.6431V91.1445Z" fill="#6C99FF"/>
<path d="M95.6431 90.8574H66.0586V91.1451H95.6431V90.8574Z" fill="#6B98FF"/>
<path d="M95.6431 90.5703H66.0586V90.858H95.6431V90.5703Z" fill="#6A98FF"/>
<path d="M95.6431 90.2852H66.0586V90.5729H95.6431V90.2852Z" fill="#6997FF"/>
<path d="M95.6431 89.998H66.0586V90.2858H95.6431V89.998Z" fill="#6896FF"/>
<path d="M95.6431 89.709H66.0586V89.9967H95.6431V89.709Z" fill="#6795FF"/>
<path d="M95.6431 89.4219H66.0586V89.7096H95.6431V89.4219Z" fill="#6695FF"/>
<path d="M95.6431 89.1348H66.0586V89.4225H95.6431V89.1348Z" fill="#6594FF"/>
<path d="M95.6431 88.8457H66.0586V89.1334H95.6431V88.8457Z" fill="#6493FF"/>
<path d="M95.6431 88.5586H66.0586V88.8463H95.6431V88.5586Z" fill="#6393FF"/>
<path d="M95.6431 88.2715H66.0586V88.5592H95.6431V88.2715Z" fill="#6292FF"/>
<path d="M95.6431 87.9824H66.0586V88.2701H95.6431V87.9824Z" fill="#6191FF"/>
<path d="M95.6431 87.6953H66.0586V87.983H95.6431V87.6953Z" fill="#6091FF"/>
<path d="M95.6431 87.4102H66.0586V87.6979H95.6431V87.4102Z" fill="#5F90FF"/>
<path d="M95.6431 87.123H66.0586V87.4108H95.6431V87.123Z" fill="#5E8FFF"/>
<path d="M95.6431 86.8359H66.0586V87.1236H95.6431V86.8359Z" fill="#5D8EFF"/>
<path d="M95.6431 86.5488H66.0586V86.8365H95.6431V86.5488Z" fill="#5C8EFF"/>
<path d="M95.6431 86.2598H66.0586V86.5475H95.6431V86.2598Z" fill="#5B8DFF"/>
<path d="M95.6431 85.9727H66.0586V86.2604H95.6431V85.9727Z" fill="#5A8CFF"/>
<path d="M95.6431 85.6855H66.0586V85.9733H95.6431V85.6855Z" fill="#598CFF"/>
<path d="M95.6431 85.3965H66.0586V85.6842H95.6431V85.3965Z" fill="#588BFF"/>
<path d="M95.6431 85.1094H66.0586V85.3971H95.6431V85.1094Z" fill="#578AFF"/>
<path d="M95.6431 84.8223H66.0586V85.11H95.6431V84.8223Z" fill="#568AFF"/>
<path d="M95.6431 84.5371H66.0586V84.8248H95.6431V84.5371Z" fill="#5589FF"/>
<path d="M95.6431 84.25H66.0586V84.5377H95.6431V84.25Z" fill="#5488FF"/>
<path d="M95.6431 83.9609H66.0586V84.2486H95.6431V83.9609Z" fill="#5387FF"/>
<path d="M95.6431 83.6738H66.0586V83.9615H95.6431V83.6738Z" fill="#5287FF"/>
<path d="M95.6431 83.3867H66.0586V83.6744H95.6431V83.3867Z" fill="#5186FF"/>
<path d="M95.6431 83.0977H66.0586V83.3854H95.6431V83.0977Z" fill="#5085FF"/>
<path d="M95.6431 82.8105H66.0586V83.0983H95.6431V82.8105Z" fill="#4F85FF"/>
<path d="M95.6431 82.5234H66.0586V82.8111H95.6431V82.5234Z" fill="#4E84FF"/>
<path d="M95.6431 82.2324H66.0586V82.5263H95.6431V82.2324Z" fill="#4E84FF"/>
</g>
<path d="M94.2478 115.619C92.8124 107.792 91.2563 99.9871 84.011 93.1996L66.0586 82.8359C73.4431 90.8887 76.5398 98.3165 76.2954 105.256L94.2447 115.619H94.2478Z" fill="#F1F1F1"/>
<path d="M110.244 -0.374799C109.155 -1.00281 108.273 -0.337675 108.273 1.11634V8.07084C108.273 9.52175 109.155 11.2078 110.244 11.8358L137.709 27.6938C138.798 28.3218 139.68 27.6567 139.68 26.2027V19.2482C139.68 17.7972 138.798 16.1112 137.709 15.4832L110.244 -0.374799Z" fill="#E6DFA2"/>
<path d="M134.755 36.5015L130.319 21.1602H127.281L134.755 36.5015Z" fill="#E6DFA2"/>
<path d="M164.791 56.9729C163.702 56.3448 162.82 57.01 162.82 58.464V65.4185C162.82 66.8694 163.702 68.5554 164.791 69.1835L192.256 85.0414C193.345 85.6694 194.227 85.0043 194.227 83.5503V76.5958C194.227 75.1449 193.345 73.4589 192.256 72.8309L164.791 56.9729Z" fill="#E6DFA2"/>
<path d="M171.732 62.8692L162.711 49.6934L169.802 65.2172L171.732 62.8692Z" fill="#E6DFA2"/>
</g>
</g>
<defs>
<linearGradient id="paint0_linear_1020_30584" x1="167.222" y1="65.5178" x2="132.984" y2="65.5178" gradientUnits="userSpaceOnUse">
<stop stop-color="#1D4524"/>
<stop offset="1" stop-color="#7B9265"/>
</linearGradient>
<linearGradient id="paint1_linear_1020_30584" x1="167.222" y1="65.3279" x2="132.984" y2="65.3279" gradientUnits="userSpaceOnUse">
<stop stop-color="#1D4524"/>
<stop offset="1" stop-color="#7B9265"/>
</linearGradient>
<linearGradient id="paint2_linear_1020_30584" x1="173.616" y1="41.3078" x2="148.328" y2="41.3078" gradientUnits="userSpaceOnUse">
<stop stop-color="#1D4524"/>
<stop offset="1" stop-color="#7B9265"/>
</linearGradient>
<linearGradient id="paint3_linear_1020_30584" x1="173.616" y1="41.0027" x2="148.328" y2="41.0027" gradientUnits="userSpaceOnUse">
<stop stop-color="#1D4524"/>
<stop offset="1" stop-color="#7B9265"/>
</linearGradient>
<linearGradient id="paint4_linear_1020_30584" x1="146.036" y1="45.783" x2="127.691" y2="45.783" gradientUnits="userSpaceOnUse">
<stop stop-color="#1D4524"/>
<stop offset="1" stop-color="#7B9265"/>
</linearGradient>
<linearGradient id="paint5_linear_1020_30584" x1="124.243" y1="42.2422" x2="124.243" y2="49.721" gradientUnits="userSpaceOnUse">
<stop stop-color="#F0CAB0"/>
<stop offset="1" stop-color="#FFCCAA"/>
</linearGradient>
<linearGradient id="paint6_linear_1020_30584" x1="157.995" y1="81.7065" x2="132.336" y2="81.7065" gradientUnits="userSpaceOnUse">
<stop stop-color="#1D4524"/>
<stop offset="1" stop-color="#7B9265"/>
</linearGradient>
<linearGradient id="paint7_linear_1020_30584" x1="150.096" y1="22.207" x2="150.096" y2="34.3854" gradientUnits="userSpaceOnUse">
<stop stop-color="#F0CAB0"/>
<stop offset="1" stop-color="#FFCCAA"/>
</linearGradient>
<linearGradient id="paint8_linear_1020_30584" x1="154.043" y1="27.6758" x2="154.043" y2="31.2289" gradientUnits="userSpaceOnUse">
<stop stop-color="#F0CAB0"/>
<stop offset="1" stop-color="#FFCCAA"/>
</linearGradient>
<linearGradient id="paint9_linear_1020_30584" x1="162.141" y1="55.7861" x2="135" y2="55.7861" gradientUnits="userSpaceOnUse">
<stop stop-color="#1D4524"/>
<stop offset="1" stop-color="#7B9265"/>
</linearGradient>
<linearGradient id="paint10_linear_1020_30584" x1="138.466" y1="48.3477" x2="138.466" y2="55.3001" gradientUnits="userSpaceOnUse">
<stop stop-color="#F0CAB0"/>
<stop offset="1" stop-color="#FFCCAA"/>
</linearGradient>
<linearGradient id="paint11_linear_1020_30584" x1="162.988" y1="51.8226" x2="141.426" y2="51.8226" gradientUnits="userSpaceOnUse">
<stop stop-color="#1D4524"/>
<stop offset="1" stop-color="#7B9265"/>
</linearGradient>
<linearGradient id="paint12_linear_1020_30584" x1="113.999" y1="103.394" x2="87.7344" y2="103.394" gradientUnits="userSpaceOnUse">
<stop stop-color="#1D4524"/>
<stop offset="1" stop-color="#7B9265"/>
</linearGradient>
<linearGradient id="paint13_linear_1020_30584" x1="118.479" y1="106.067" x2="90.3711" y2="106.067" gradientUnits="userSpaceOnUse">
<stop stop-color="#1D4524"/>
<stop offset="1" stop-color="#7B9265"/>
</linearGradient>
<linearGradient id="paint14_linear_1020_30584" x1="118.479" y1="100.699" x2="90.3711" y2="100.699" gradientUnits="userSpaceOnUse">
<stop stop-color="#1D4524"/>
<stop offset="1" stop-color="#7B9265"/>
</linearGradient>
<linearGradient id="paint15_linear_1020_30584" x1="110.177" y1="74.2871" x2="110.177" y2="80.4705" gradientUnits="userSpaceOnUse">
<stop stop-color="#F0CAB0"/>
<stop offset="1" stop-color="#FFCCAA"/>
</linearGradient>
<linearGradient id="paint16_linear_1020_30584" x1="94.6721" y1="62.4766" x2="94.6721" y2="71.2333" gradientUnits="userSpaceOnUse">
<stop stop-color="#F0CAB0"/>
<stop offset="1" stop-color="#FFCCAA"/>
</linearGradient>
<linearGradient id="paint17_linear_1020_30584" x1="95.61" y1="52.875" x2="95.61" y2="65.5344" gradientUnits="userSpaceOnUse">
<stop stop-color="#F0CAB0"/>
<stop offset="1" stop-color="#FFCCAA"/>
</linearGradient>
<linearGradient id="paint18_linear_1020_30584" x1="105.301" y1="89.0982" x2="84.7422" y2="89.0982" gradientUnits="userSpaceOnUse">
<stop stop-color="#1D4524"/>
<stop offset="1" stop-color="#7B9265"/>
</linearGradient>
<linearGradient id="paint19_linear_1020_30584" x1="97.3198" y1="58.6035" x2="97.3198" y2="62.4767" gradientUnits="userSpaceOnUse">
<stop stop-color="#F0CAB0"/>
<stop offset="1" stop-color="#FFCCAA"/>
</linearGradient>
<linearGradient id="paint20_linear_1020_30584" x1="98.7443" y1="68.1733" x2="90.8359" y2="68.1733" gradientUnits="userSpaceOnUse">
<stop stop-color="#1D4524"/>
<stop offset="1" stop-color="#7B9265"/>
</linearGradient>
<linearGradient id="paint21_linear_1020_30584" x1="110.75" y1="78.5695" x2="99.8672" y2="78.5695" gradientUnits="userSpaceOnUse">
<stop stop-color="#1D4524"/>
<stop offset="1" stop-color="#7B9265"/>
</linearGradient>
<linearGradient id="paint22_linear_1020_30584" x1="122.819" y1="82.5645" x2="122.819" y2="87.9884" gradientUnits="userSpaceOnUse">
<stop stop-color="#F0CAB0"/>
<stop offset="1" stop-color="#FFCCAA"/>
</linearGradient>
<linearGradient id="paint23_linear_1020_30584" x1="121.03" y1="84.6513" x2="103.062" y2="84.6513" gradientUnits="userSpaceOnUse">
<stop stop-color="#1D4524"/>
<stop offset="1" stop-color="#7B9265"/>
</linearGradient>
<clipPath id="clip0_1020_30584">
<rect width="252" height="145" fill="white"/>
</clipPath>
<clipPath id="clip1_1020_30584">
<rect width="128.163" height="145.07" fill="white" transform="translate(66.0586 -0.609375)"/>
</clipPath>
</defs>
</svg>
