<svg width="252" height="82" viewBox="0 0 252 82" fill="none" xmlns="http://www.w3.org/2000/svg">
<g clip-path="url(#clip0_1010_27556)">
<g clip-path="url(#clip1_1010_27556)">
<path d="M89.1133 45.0948L112.591 66.1105L136.066 36.9734L159.544 24.9453" fill="#E6DFA2"/>
<path d="M89.1133 45.0948L112.591 66.1105L136.066 36.9734L159.544 24.9453" stroke="#0E2623" stroke-width="2" stroke-miterlimit="10"/>
<path d="M89.1143 51.0314C92.3941 51.0314 95.0529 48.3726 95.0529 45.0929C95.0529 41.8131 92.3941 39.1543 89.1143 39.1543C85.8346 39.1543 83.1758 41.8131 83.1758 45.0929C83.1758 48.3726 85.8346 51.0314 89.1143 51.0314Z" fill="#E6DFA2" stroke="#0E2623" stroke-width="2" stroke-miterlimit="10"/>
<path d="M112.595 72.047C115.875 72.047 118.533 69.3882 118.533 66.1085C118.533 62.8287 115.875 60.1699 112.595 60.1699C109.315 60.1699 106.656 62.8287 106.656 66.1085C106.656 69.3882 109.315 72.047 112.595 72.047Z" fill="#E6DFA2" stroke="#0E2623" stroke-width="2" stroke-miterlimit="10"/>
<path d="M138.34 42.4602C141.37 41.2051 142.809 37.7312 141.554 34.7011C140.299 31.671 136.825 30.2321 133.795 31.4872C130.765 32.7423 129.326 36.2162 130.581 39.2463C131.836 42.2764 135.31 43.7153 138.34 42.4602Z" fill="#E6DFA2" stroke="#0E2623" stroke-width="2" stroke-miterlimit="10"/>
<path d="M163.742 29.1425C166.061 26.8234 166.061 23.0633 163.742 20.7442C161.423 18.425 157.663 18.425 155.344 20.7442C153.025 23.0633 153.025 26.8234 155.344 29.1425C157.663 31.4617 161.423 31.4617 163.742 29.1425Z" fill="#E6DFA2" stroke="#0E2623" stroke-width="2" stroke-miterlimit="10"/>
<path d="M149.227 54.8633L155.225 63.0331" stroke="#0E2623" stroke-width="2" stroke-miterlimit="10"/>
<path opacity="0.94" d="M150.195 64.9668L158.579 58.8107L167.651 71.1655C169.265 73.3636 168.789 76.4565 166.593 78.0689L166.173 78.3775C163.975 79.9916 160.882 79.5157 159.27 77.3199L150.198 64.9651L150.195 64.9668Z" fill="#E6DFA2" stroke="#0E2623" stroke-width="2" stroke-linecap="round" stroke-linejoin="round"/>
<path d="M122.289 18.1759C112.053 25.6903 109.848 40.0836 117.362 50.3193C124.877 60.555 139.27 62.7635 149.506 55.2462C159.741 47.7319 161.95 33.3386 154.433 23.1028C146.918 12.8671 132.525 10.6587 122.289 18.1759ZM145.604 49.9318C138.304 55.2918 128.04 53.7189 122.677 46.4182C117.317 39.1176 118.89 28.8533 126.19 23.4904C133.491 18.1303 143.755 19.7033 149.118 27.0039C154.478 34.3046 152.905 44.5688 145.604 49.9318Z" fill="#E6DFA2" stroke="#0E2623" stroke-width="2" stroke-miterlimit="10"/>
<path d="M96.1955 20.714C95.5629 19.9076 94.537 16.9668 94.537 16.9668C94.537 16.9668 93.5112 19.9076 92.8786 20.714C92.3371 21.4065 89.8438 22.9652 89.8438 22.9652C89.8438 22.9652 92.283 24.5439 92.8786 25.3076C93.457 26.0456 94.537 28.9636 94.537 28.9636C94.537 28.9636 95.617 26.0484 96.1955 25.3076C96.7911 24.5439 99.2303 22.9652 99.2303 22.9652C99.2303 22.9652 96.7369 21.4065 96.1955 20.714Z" fill="#E6DFA2" stroke="#0E2623" stroke-width="2" stroke-linecap="round" stroke-linejoin="round"/>
<path d="M109.431 6.88772C108.542 5.75073 107.094 1.60742 107.094 1.60742C107.094 1.60742 105.647 5.75073 104.758 6.88772C103.994 7.86228 100.48 10.0593 100.48 10.0593C100.48 10.0593 103.917 12.2848 104.758 13.3591C105.573 14.3992 107.094 18.5084 107.094 18.5084C107.094 18.5084 108.616 14.3992 109.431 13.3591C110.272 12.2848 113.708 10.0593 113.708 10.0593C113.708 10.0593 110.195 7.86513 109.431 6.88772Z" fill="#E6DFA2" stroke="#0E2623" stroke-width="2" stroke-linecap="round" stroke-linejoin="round"/>
</g>
</g>
<defs>
<clipPath id="clip0_1010_27556">
<rect width="252" height="82" fill="white"/>
</clipPath>
<clipPath id="clip1_1010_27556">
<rect width="88.2148" height="80.5551" fill="white" transform="translate(81.7852 0.183594)"/>
</clipPath>
</defs>
</svg>
