<svg width="252" height="82" viewBox="0 0 252 82" fill="none" xmlns="http://www.w3.org/2000/svg">
<g clip-path="url(#clip0_1018_30334)">
<path d="M152.57 15.9141V57.679" stroke="#0E2623" stroke-width="2" stroke-linecap="round" stroke-linejoin="round"/>
<path d="M140.477 8.59766V16.5927H148.035" fill="#E6DFA2"/>
<path d="M140.477 8.59766V16.5927H148.035" stroke="#0E2623" stroke-width="2" stroke-linecap="round" stroke-linejoin="round"/>
<path d="M131.687 77.847H96.7617V3.96875H141.275L152.57 15.7269" fill="#E6DFA2"/>
<path d="M131.687 77.847H96.7617V3.96875H141.275L152.57 15.7269" stroke="#0E2623" stroke-width="2" stroke-linecap="round" stroke-linejoin="round"/>
<path d="M140.166 33.2715H121.449" stroke="#0E2623" stroke-width="2" stroke-linecap="round" stroke-linejoin="round"/>
<path d="M116.797 33.2715H109.164" stroke="#0E2623" stroke-width="2" stroke-linecap="round" stroke-linejoin="round"/>
<path d="M109.164 25.6387H128.619" stroke="#0E2623" stroke-width="2" stroke-linecap="round" stroke-linejoin="round"/>
<path d="M109.164 40.9082H132.806" stroke="#0E2623" stroke-width="2" stroke-linecap="round" stroke-linejoin="round"/>
<path d="M109.164 48.541H113.351" stroke="#0E2623" stroke-width="2" stroke-linecap="round" stroke-linejoin="round"/>
<path d="M117.465 48.541H124.608" stroke="#0E2623" stroke-width="2" stroke-linecap="round" stroke-linejoin="round"/>
<path d="M109.164 56.1758H121.476" stroke="#0E2623" stroke-width="2" stroke-linecap="round" stroke-linejoin="round"/>
<path d="M128.263 59.7126L128.911 59.2412C129.323 58.9403 129.515 58.4209 129.398 57.9229C129.398 57.9149 129.393 57.9043 129.393 57.8963C129.278 57.3876 128.86 57.0041 128.343 56.9242L127.608 56.8097C127.417 56.7804 127.283 56.5993 127.313 56.4049L127.566 54.7963C127.595 54.6045 127.776 54.4713 127.97 54.5006L128.761 54.6258C129.267 54.7057 129.771 54.4713 130.04 54.0372C130.042 54.0319 130.045 54.0266 130.048 54.0239C130.325 53.5818 130.309 53.0146 130.003 52.5938L129.56 51.9892C129.446 51.8321 129.481 51.611 129.638 51.4965L130.953 50.5377C131.11 50.4232 131.331 50.4578 131.446 50.615L131.917 51.2621C132.218 51.6749 132.738 51.8667 133.236 51.7495C133.244 51.7495 133.254 51.7442 133.262 51.7442C133.771 51.6297 134.154 51.2115 134.234 50.6949L134.349 49.9598C134.378 49.7681 134.559 49.6349 134.754 49.6642L136.362 49.9172C136.554 49.9465 136.687 50.1276 136.658 50.322L136.533 51.113C136.453 51.619 136.687 52.1224 137.121 52.3914C137.127 52.394 137.132 52.3967 137.135 52.3993C137.577 52.6763 138.144 52.6603 138.565 52.3541L139.169 51.912C139.326 51.7975 139.548 51.8321 139.662 51.9892L140.621 53.3048C140.735 53.462 140.701 53.683 140.544 53.7975L139.896 54.2689C139.484 54.5699 139.292 55.0892 139.409 55.5872C139.409 55.5952 139.414 55.6059 139.414 55.6139C139.529 56.1225 139.947 56.5061 140.464 56.586L141.199 56.7005C141.391 56.7298 141.524 56.9109 141.494 57.1053L141.241 58.7139C141.212 58.9056 141.031 59.0388 140.837 59.0095L140.046 58.8843C139.54 58.8044 139.036 59.0388 138.767 59.4729C138.765 59.4782 138.762 59.4836 138.759 59.4862C138.482 59.9283 138.498 60.4956 138.805 60.9164L139.247 61.5209C139.361 61.6781 139.326 61.8991 139.169 62.0136L137.854 62.9724C137.697 63.0869 137.476 63.0523 137.361 62.8952L136.89 62.248C136.589 61.8352 136.069 61.6434 135.571 61.7606C135.563 61.7606 135.553 61.7659 135.545 61.7659C135.036 61.8805 134.653 62.2986 134.573 62.8153L134.458 63.5503C134.429 63.7421 134.248 63.8752 134.053 63.8459L132.445 63.5929C132.253 63.5636 132.12 63.3825 132.149 63.1881L132.274 62.3971C132.354 61.8911 132.12 61.3878 131.686 61.1188C131.68 61.1161 131.675 61.1135 131.672 61.1108C131.23 60.8338 130.663 60.8498 130.242 61.1561L129.638 61.5982C129.481 61.7127 129.259 61.6781 129.145 61.5209L128.186 60.2053C128.072 60.0482 128.106 59.8271 128.263 59.7126ZM135.891 58.7884C137.015 57.9682 137.262 56.3942 136.442 55.2703C135.622 54.1464 134.048 53.8987 132.924 54.719C131.8 55.5393 131.553 57.1133 132.373 58.2372C133.193 59.361 134.767 59.6087 135.891 58.7884Z" fill="#0E2623"/>
<path d="M137.224 72.6219L138.247 72.1851C138.899 71.9054 139.32 71.2636 139.317 70.5525C139.317 70.5392 139.317 70.5259 139.317 70.5126C139.317 69.7882 138.872 69.1383 138.201 68.8694L137.243 68.4858C136.992 68.3846 136.87 68.0997 136.968 67.8467L137.81 65.7454C137.911 65.495 138.196 65.3725 138.449 65.4711L139.482 65.8839C140.143 66.1475 140.897 65.9877 141.397 65.4844C141.403 65.479 141.408 65.4737 141.413 65.4684C141.927 64.9544 142.082 64.1847 141.797 63.5162L141.387 62.5601C141.28 62.3098 141.395 62.0222 141.645 61.9156L143.725 61.0261C143.975 60.9196 144.263 61.0341 144.369 61.2845L144.806 62.3071C145.086 62.9596 145.728 63.3804 146.439 63.3778C146.452 63.3778 146.465 63.3778 146.479 63.3778C147.203 63.3778 147.853 62.933 148.122 62.2619L148.505 61.3031C148.607 61.0527 148.892 60.9302 149.145 61.0288L151.246 61.8704C151.496 61.9716 151.619 62.2565 151.52 62.5095L151.107 63.5429C150.844 64.2034 151.003 64.9571 151.507 65.4577C151.512 65.4631 151.517 65.4684 151.523 65.4737C152.037 65.9877 152.807 66.1422 153.475 65.8572L154.431 65.4471C154.681 65.3406 154.969 65.4551 155.076 65.7054L155.965 67.7854C156.072 68.0358 155.957 68.3234 155.707 68.4299L154.684 68.8667C154.032 69.1463 153.611 69.7882 153.613 70.4993C153.613 70.5126 153.613 70.5259 153.613 70.5392C153.613 71.2636 154.058 71.9134 154.729 72.1824L155.688 72.5659C155.938 72.6671 156.061 72.9521 155.962 73.2051L155.121 75.3064C155.02 75.5567 154.735 75.6793 154.482 75.5807L153.448 75.1679C152.788 74.9042 152.034 75.064 151.533 75.5674C151.528 75.5727 151.523 75.578 151.517 75.5834C151.003 76.0974 150.849 76.8671 151.134 77.5355L151.544 78.4916C151.651 78.742 151.536 79.0296 151.286 79.1361L149.206 80.0256C148.955 80.1322 148.668 80.0177 148.561 79.7673L148.125 78.7446C147.845 78.0921 147.203 77.6713 146.492 77.674C146.479 77.674 146.465 77.674 146.452 77.674C145.728 77.674 145.078 78.1188 144.809 78.7899L144.425 79.7487C144.324 79.999 144.039 80.1215 143.786 80.023L141.685 79.1814C141.434 79.0802 141.312 78.7952 141.411 78.5422L141.823 77.5089C142.087 76.8484 141.927 76.0947 141.424 75.594C141.419 75.5887 141.413 75.5834 141.408 75.578C140.894 75.064 140.124 74.9096 139.456 75.1945L138.5 75.6047C138.249 75.7112 137.962 75.5967 137.855 75.3463L136.966 73.2664C136.859 73.016 136.974 72.7284 137.224 72.6219ZM147.837 73.7431C149.613 72.984 150.436 70.928 149.677 69.1517C148.918 67.3753 146.862 66.5523 145.086 67.3114C143.309 68.0704 142.486 70.1264 143.245 71.9028C144.005 73.6792 146.061 74.5021 147.837 73.7431Z" fill="#0E2623"/>
</g>
<defs>
<clipPath id="clip0_1018_30334">
<rect width="60.57" height="77.4256" fill="white" transform="translate(95.4297 2.63672)"/>
</clipPath>
</defs>
</svg>
