<svg width="252" height="82" viewBox="0 0 252 82" fill="none" xmlns="http://www.w3.org/2000/svg">
<g clip-path="url(#clip0_1018_30347)">
<g clip-path="url(#clip1_1018_30347)">
<path d="M174.595 0.925781H76.8698C72.9981 0.925781 69.8594 4.06446 69.8594 7.93622V73.4229C69.8594 77.2946 72.9981 80.4333 76.8698 80.4333H174.595C178.467 80.4333 181.606 77.2946 181.606 73.4229V7.93622C181.606 4.06446 178.467 0.925781 174.595 0.925781Z" fill="#E6DFA2" stroke="#0E2623" stroke-width="2" stroke-linecap="round" stroke-linejoin="round"/>
<path d="M159.639 18.1798C158.587 17.0032 156.872 12.7207 156.872 12.7207C156.872 12.7207 155.159 17.0065 154.104 18.1798C153.201 19.1888 149.043 21.4566 149.043 21.4566C149.043 21.4566 153.112 23.7573 154.104 24.8682C155.067 25.9462 156.872 30.1926 156.872 30.1926C156.872 30.1926 158.673 25.9429 159.639 24.8682C160.635 23.7573 164.701 21.4566 164.701 21.4566C164.701 21.4566 160.543 19.1888 159.639 18.1798Z" fill="#E6DFA2" stroke="#0E2623" stroke-width="2" stroke-linecap="round" stroke-linejoin="round"/>
<path d="M102.141 30.1953H118.37" stroke="#0E2623" stroke-width="2" stroke-linecap="round" stroke-linejoin="round"/>
<path d="M88.0938 30.1953H94.1215" stroke="#0E2623" stroke-width="2" stroke-linecap="round" stroke-linejoin="round"/>
<path d="M125.715 30.0605H142.871" stroke="#0E2623" stroke-width="2" stroke-linecap="round" stroke-linejoin="round"/>
<path d="M102.141 64.873H118.37" stroke="#0E2623" stroke-width="2" stroke-linecap="round" stroke-linejoin="round"/>
<path d="M88.0938 64.873H94.1215" stroke="#0E2623" stroke-width="2" stroke-linecap="round" stroke-linejoin="round"/>
<path d="M125.715 64.7383H142.871" stroke="#0E2623" stroke-width="2" stroke-linecap="round" stroke-linejoin="round"/>
<path d="M155.036 53.1328H143.207" stroke="#0E2623" stroke-width="2" stroke-linecap="round" stroke-linejoin="round"/>
<path d="M165.273 53.1328H160.879" stroke="#0E2623" stroke-width="2" stroke-linecap="round" stroke-linejoin="round"/>
<path d="M137.853 53.2715H125.348" stroke="#0E2623" stroke-width="2" stroke-linecap="round" stroke-linejoin="round"/>
<path d="M125.406 41.666H137.238" stroke="#0E2623" stroke-width="2" stroke-linecap="round" stroke-linejoin="round"/>
<path d="M142.98 41.666H147.375" stroke="#0E2623" stroke-width="2" stroke-linecap="round" stroke-linejoin="round"/>
<path d="M153.383 41.666H165.211" stroke="#0E2623" stroke-width="2" stroke-linecap="round" stroke-linejoin="round"/>
<path d="M92.9605 40.4395L85.7266 47.4663L92.9605 54.4932" fill="#E6DFA2"/>
<path d="M92.9605 40.4395L85.7266 47.4663L92.9605 54.4932" stroke="#0E2623" stroke-width="2" stroke-linecap="round" stroke-linejoin="round"/>
<path d="M111.219 54.4932L118.453 47.4663L111.219 40.4395" fill="#E6DFA2"/>
<path d="M111.219 54.4932L118.453 47.4663L111.219 40.4395" stroke="#0E2623" stroke-width="2" stroke-linecap="round" stroke-linejoin="round"/>
<path d="M105.993 43.3184L98.1875 51.6139" stroke="#0E2623" stroke-width="2" stroke-linecap="round" stroke-linejoin="round"/>
<path d="M69.8594 16.1621H142.869" stroke="#0E2623" stroke-width="2" stroke-linecap="round" stroke-linejoin="round"/>
<path d="M169.977 16.1621H181.608" stroke="#0E2623" stroke-width="2" stroke-linecap="round" stroke-linejoin="round"/>
<path d="M81.5098 6.75C82.4839 6.75 83.2742 7.53959 83.2744 8.51367C83.2744 9.48795 82.484 10.2783 81.5098 10.2783C80.5357 10.2781 79.7461 9.48781 79.7461 8.51367C79.7463 7.53972 80.5358 6.75022 81.5098 6.75Z" fill="#E6DFA2" stroke="#0E2623" stroke-width="2"/>
<path d="M89.3457 6.75C90.3198 6.75 91.1101 7.53959 91.1104 8.51367C91.1104 9.48795 90.32 10.2783 89.3457 10.2783C88.3716 10.2781 87.582 9.48781 87.582 8.51367C87.5823 7.53972 88.3718 6.75022 89.3457 6.75Z" fill="#E6DFA2" stroke="#0E2623" stroke-width="2"/>
<path d="M97.1816 6.75C98.1558 6.75 98.9461 7.53958 98.9463 8.51367C98.9463 9.48795 98.1559 10.2783 97.1816 10.2783C96.2076 10.2781 95.418 9.48781 95.418 8.51367C95.4182 7.53972 96.2077 6.75022 97.1816 6.75Z" fill="#E6DFA2" stroke="#0E2623" stroke-width="2"/>
</g>
</g>
<defs>
<clipPath id="clip0_1018_30347">
<rect width="252" height="82" fill="white"/>
</clipPath>
<clipPath id="clip1_1018_30347">
<rect width="114.859" height="82.62" fill="white" transform="translate(68.3047 -0.628906)"/>
</clipPath>
</defs>
</svg>
