<svg width="29" height="80" viewBox="0 0 29 80" fill="none" xmlns="http://www.w3.org/2000/svg">
<g clip-path="url(#clip0_327_27115)">
<path d="M22.5902 11.9771C20.6868 9.64822 17.3261 10.9923 15.7632 13.3296C17.8284 15.3243 20.8798 14.0126 22.5902 11.9771Z" fill="#7B8180"/>
<path d="M13.7773 5.13965C15.6383 7.49945 14.4599 11.4933 12.8224 13.7131C10.6386 11.3889 11.9076 7.23386 13.7773 5.13965Z" fill="#AEB2B2"/>
<path d="M18.6995 16.9106C16.3763 14.893 13.0909 17.0037 11.8252 19.7673C14.3086 21.3327 17.1021 19.5191 18.6995 16.9106Z" fill="#AEB2B2"/>
<path d="M8.78585 11.6982C11.0722 13.7597 10.4497 18.1622 9.08786 20.8213C6.50029 18.7732 7.06667 14.6128 8.78585 11.6982Z" fill="#7B8180"/>
<path d="M15.703 22.7725C12.9865 21.2012 9.91185 24.1215 9.06348 27.2699C11.8345 28.369 14.5791 25.6644 15.703 22.7725Z" fill="#7B8180"/>
<path d="M4.95315 18.7334C7.64406 20.3553 7.68971 25.0534 6.72518 28.1116C3.68259 26.7053 3.67459 21.7892 4.95315 18.7334Z" fill="#AEB2B2"/>
<path d="M13.5541 29.474C10.4121 28.5139 7.83497 32.2312 7.47607 35.6686C10.5203 36.1302 12.8619 32.7075 13.5541 29.474Z" fill="#AEB2B2"/>
<path d="M1.91537 26.9824C5.02285 28.1135 5.75185 32.8288 5.31124 36.2273C1.92257 35.4887 1.09904 30.4411 1.91537 26.9824Z" fill="#7B8180"/>
<path d="M12.6548 36.8601C9.25254 36.6457 7.2674 41.0461 7.4861 44.6914C10.6376 44.4555 12.5082 40.324 12.6548 36.8601Z" fill="#7B8180"/>
<path d="M0.165885 36.2412C3.55376 36.6665 5.09908 41.2941 5.24488 44.9057C1.77049 45.0821 -0.146546 39.9586 0.165885 36.2412Z" fill="#AEB2B2"/>
<path d="M13.1059 44.6885C9.67394 45.2634 8.33209 50.3975 9.279 53.9966C12.453 52.8741 13.6098 48.2935 13.1059 44.6885Z" fill="#AEB2B2"/>
<path d="M0 46.2068C3.44155 45.6991 6.0131 50.1482 6.79899 53.7604C5.02831 54.252 3.50348 53.4464 2.34276 52.0381C1.08198 50.5085 0.250666 48.268 0 46.2068Z" fill="#7B8180"/>
<path d="M14.6292 52.5996C11.2309 54.1086 10.8536 59.6818 12.5103 63.0922C15.5216 61.1007 15.8028 56.1017 14.6292 52.5996Z" fill="#7B8180"/>
<path d="M1.43799 56.4834C4.82987 55.0531 8.31068 58.8834 9.80234 62.3417C6.26466 64.4176 2.62282 60.3413 1.43799 56.4834Z" fill="#AEB2B2"/>
<path d="M18.3059 60.1953C15.1584 62.6627 15.8642 68.3902 18.217 71.4221C20.8567 68.6168 20.1885 63.4002 18.3059 60.1953Z" fill="#AEB2B2"/>
<path d="M4.82178 66.5179C7.98294 64.1374 12.2608 67.0239 14.4583 70.1378C11.4333 73.2144 6.7204 70.1191 4.82178 66.5179Z" fill="#7B8180"/>
<path d="M23.096 65.874C20.2897 69.2616 22.0313 74.8129 24.9682 77.3071C27.1536 73.7067 25.5378 68.7272 23.096 65.874Z" fill="#7B8180"/>
<path d="M10.4751 76.7698C13.3407 73.4147 18.0351 75.2064 20.964 77.6454C18.382 81.7233 13.166 79.8602 10.4751 76.7698Z" fill="#AEB2B2"/>
<path d="M27.2047 8.37251C25.685 5.77011 22.2827 6.4257 20.4658 8.3669C22.2379 10.6585 25.1283 10.0613 27.2047 8.37251Z" fill="#AEB2B2"/>
<path d="M19.1718 0.210938C20.6387 2.82194 18.9732 6.43729 17.0994 8.25179C15.3866 5.5127 16.9311 2.11754 19.1718 0.210938Z" fill="#7B8180"/>
<path d="M28.9429 0.040352C27.7933 2.98793 25.0624 5.06119 22.333 5.07645C23.2006 1.92657 26.1767 -0.333008 28.9429 0.040352Z" fill="#7B8180"/>
<path d="M14.2268 67.2982C8.64392 58.8296 5.96101 48.2538 6.67159 37.5185C7.39019 26.6591 11.5135 16.6694 18.1603 9.38989C20.0364 7.33523 21.6467 5.7795 21.5225 5.58612C21.3983 5.39274 19.5878 6.63667 17.7084 8.68719C10.895 16.121 6.66839 26.339 5.93298 37.4493C5.20718 48.4055 7.94616 59.1991 13.6436 67.8424C16.7647 72.5758 20.6204 76.4401 24.9608 79.2592C25.8565 79.8407 26.684 80.0901 26.7833 79.8773C26.8827 79.6637 26.2154 79.07 25.3197 78.4884C21.0651 75.7254 17.2854 71.9382 14.2268 67.2982Z" fill="#7B8180"/>
</g>
<defs>
<clipPath id="clip0_327_27115">
<rect width="29" height="80" fill="white"/>
</clipPath>
</defs>
</svg>
