<svg width="36" height="98" viewBox="0 0 36 98" fill="none" xmlns="http://www.w3.org/2000/svg">
<path d="M28.0433 14.672C25.6804 11.8191 21.5086 13.4656 19.5684 16.3288C22.1321 18.7724 25.9201 17.1656 28.0433 14.672Z" fill="#B8AB3D"/>
<path d="M17.1029 6.29688C19.4131 9.18763 17.9502 14.0801 15.9175 16.7994C13.2066 13.9522 14.7818 8.86229 17.1029 6.29688Z" fill="#E6DFA2"/>
<path d="M23.2133 20.7156C20.3293 18.244 16.251 20.8297 14.6797 24.2151C17.7626 26.1327 21.2303 23.911 23.2133 20.7156Z" fill="#E6DFA2"/>
<path d="M10.9072 14.3301C13.7454 16.8554 12.9727 22.2484 11.2821 25.5059C8.06994 22.9969 8.77303 17.9005 10.9072 14.3301Z" fill="#B8AB3D"/>
<path d="M19.4932 27.8965C16.1209 25.9717 12.3041 29.5491 11.251 33.4059C14.6909 34.7522 18.0979 31.4392 19.4932 27.8965Z" fill="#B8AB3D"/>
<path d="M6.14897 22.9482C9.48942 24.9351 9.54609 30.6902 8.34874 34.4365C4.57172 32.7138 4.56179 26.6916 6.14897 22.9482Z" fill="#E6DFA2"/>
<path d="M16.8263 36.1062C12.926 34.9301 9.72677 39.4839 9.28125 43.6946C13.0603 44.2601 15.9671 40.0673 16.8263 36.1062Z" fill="#E6DFA2"/>
<path d="M2.3779 33.0537C6.23547 34.4392 7.14043 40.2155 6.59347 44.3786C2.38684 43.4739 1.36453 37.2906 2.3779 33.0537Z" fill="#B8AB3D"/>
<path d="M15.7101 45.1538C11.4866 44.8911 9.02227 50.2817 9.29376 54.7471C13.206 54.4582 15.5281 49.397 15.7101 45.1538Z" fill="#B8AB3D"/>
<path d="M0.206094 44.3953C4.41173 44.9163 6.33006 50.5851 6.51106 55.0093C2.19802 55.2254 -0.181751 48.9491 0.206094 44.3953Z" fill="#E6DFA2"/>
<path d="M16.2699 54.7432C12.0096 55.4475 10.3438 61.7367 11.5193 66.1456C15.4594 64.7706 16.8954 59.1593 16.2699 54.7432Z" fill="#E6DFA2"/>
<path d="M0 56.6036C4.27226 55.9817 7.46454 61.4318 8.44012 65.8567C6.24203 66.4591 4.34915 65.4721 2.90826 63.747C1.34315 61.8733 0.311171 59.1287 0 56.6036Z" fill="#B8AB3D"/>
<path d="M18.1609 64.4346C13.9423 66.2831 13.4739 73.1103 15.5305 77.288C19.2687 74.8484 19.6178 68.7247 18.1609 64.4346Z" fill="#B8AB3D"/>
<path d="M1.78516 69.1923C5.99576 67.4402 10.3168 72.1323 12.1685 76.3686C7.77688 78.9117 3.25598 73.9181 1.78516 69.1923Z" fill="#E6DFA2"/>
<path d="M22.7253 73.7393C18.818 76.7618 19.6941 83.778 22.6149 87.4921C25.8917 84.0556 25.0623 77.6652 22.7253 73.7393Z" fill="#E6DFA2"/>
<path d="M5.98633 81.4839C9.91053 78.5677 15.221 82.1037 17.9488 85.9182C14.1937 89.687 8.34323 85.8953 5.98633 81.4839Z" fill="#B8AB3D"/>
<path d="M28.671 80.6963C25.1873 84.8461 27.3493 91.6464 30.9951 94.7018C33.708 90.2913 31.7021 84.1915 28.671 80.6963Z" fill="#B8AB3D"/>
<path d="M13.0039 94.0429C16.5611 89.9329 22.3888 92.1277 26.0246 95.1154C22.8194 100.111 16.3443 97.8286 13.0039 94.0429Z" fill="#E6DFA2"/>
<path d="M33.7718 10.2555C31.8853 7.06758 27.6617 7.87068 25.4062 10.2486C27.606 13.0558 31.1941 12.3243 33.7718 10.2555Z" fill="#E6DFA2"/>
<path d="M23.7998 0.257812C25.6206 3.45629 23.5531 7.8851 21.227 10.1079C19.1008 6.75248 21.0182 2.5934 23.7998 0.257812Z" fill="#B8AB3D"/>
<path d="M35.929 0.0494312C34.502 3.66021 31.1118 6.19995 27.7236 6.21866C28.8006 2.36004 32.4951 -0.407935 35.929 0.0494312Z" fill="#B8AB3D"/>
<path d="M17.6607 82.4398C10.7302 72.0657 7.39975 59.1104 8.28185 45.9596C9.17389 32.6569 14.2925 20.4195 22.5436 11.5021C24.8727 8.98517 26.8716 7.0794 26.7174 6.8425C26.5633 6.60561 24.3158 8.12944 21.9827 10.6413C13.5247 19.7478 8.27787 32.2648 7.36494 45.8749C6.46395 59.2963 9.86406 72.5184 16.9368 83.1064C20.8112 88.9048 25.5976 93.6387 30.9857 97.092C32.0975 97.8044 33.1248 98.1099 33.2481 97.8492C33.3715 97.5875 32.5431 96.8602 31.4312 96.1479C26.1496 92.7631 21.4577 88.1238 17.6607 82.4398Z" fill="#B8AB3D"/>
</svg>
