<svg width="37" height="104" viewBox="0 0 37 104" fill="none" xmlns="http://www.w3.org/2000/svg">
<g clip-path="url(#clip0_620_8683)">
<path d="M28.8221 15.57C26.3936 12.5425 22.1059 14.2898 20.1118 17.3283C22.7468 19.9214 26.64 18.2162 28.8221 15.57Z" fill="url(#paint0_linear_620_8683)"/>
<path d="M17.5779 6.68188C19.9522 9.74962 18.4487 14.9416 16.3596 17.8274C13.5733 14.8059 15.1923 9.40436 17.5779 6.68188Z" fill="url(#paint1_linear_620_8683)"/>
<path d="M23.858 21.9835C20.894 19.3606 16.7023 22.1045 15.0874 25.6972C18.2559 27.7322 21.82 25.3745 23.858 21.9835Z" fill="url(#paint2_linear_620_8683)"/>
<path d="M11.2092 15.2076C14.1262 17.8876 13.3321 23.6107 11.5945 27.0677C8.29313 24.405 9.01575 18.9966 11.2092 15.2076Z" fill="url(#paint3_linear_620_8683)"/>
<path d="M20.0356 29.6048C16.5697 27.5621 12.6469 31.3585 11.5645 35.4515C15.0999 36.8802 18.6016 33.3643 20.0356 29.6048Z" fill="url(#paint4_linear_620_8683)"/>
<path d="M6.31883 24.353C9.75206 26.4615 9.81031 32.569 8.5797 36.5447C4.69777 34.7165 4.68756 28.3256 6.31883 24.353Z" fill="url(#paint5_linear_620_8683)"/>
<path d="M17.2933 38.3162C13.2846 37.0681 9.99647 41.9007 9.53857 46.3692C13.4226 46.9693 16.4102 42.5198 17.2933 38.3162Z" fill="url(#paint6_linear_620_8683)"/>
<path d="M2.44314 35.0773C6.40786 36.5476 7.33796 42.6775 6.77581 47.0955C2.45232 46.1355 1.40162 39.5736 2.44314 35.0773Z" fill="url(#paint7_linear_620_8683)"/>
<path d="M16.1458 47.9187C11.8049 47.6399 9.27213 53.3606 9.55117 58.0994C13.5721 57.7928 15.9587 52.4217 16.1458 47.9187Z" fill="url(#paint8_linear_620_8683)"/>
<path d="M0.211629 47.1134C4.53409 47.6662 6.50571 53.6822 6.69173 58.3772C2.25888 58.6065 -0.18699 51.946 0.211629 47.1134Z" fill="url(#paint9_linear_620_8683)"/>
<path d="M16.7211 58.0944C12.3425 58.8418 10.6304 65.5161 11.8386 70.1949C15.8881 68.7357 17.364 62.7809 16.7211 58.0944Z" fill="url(#paint10_linear_620_8683)"/>
<path d="M0 60.0689C4.39094 59.4088 7.67189 65.1926 8.67457 69.8885C6.41542 70.5277 4.46996 69.4803 2.98904 67.6496C1.38046 65.6611 0.319815 62.7485 0 60.0689Z" fill="url(#paint11_linear_620_8683)"/>
<path d="M18.6648 68.3799C14.3291 70.3416 13.8476 77.5868 15.9614 82.0203C19.8034 79.4313 20.1622 72.9327 18.6648 68.3799Z" fill="url(#paint12_linear_620_8683)"/>
<path d="M1.83447 73.4292C6.16204 71.5699 10.6031 76.5492 12.5062 81.045C7.99264 83.7437 3.34616 78.4444 1.83447 73.4292Z" fill="url(#paint13_linear_620_8683)"/>
<path d="M23.3558 78.2543C19.3399 81.4619 20.2404 88.9077 23.2423 92.8491C26.6101 89.2022 25.7577 82.4206 23.3558 78.2543Z" fill="url(#paint14_linear_620_8683)"/>
<path d="M6.15186 86.4729C10.1851 83.3783 15.6431 87.1307 18.4467 91.1788C14.5872 95.1783 8.57423 91.1545 6.15186 86.4729Z" fill="url(#paint15_linear_620_8683)"/>
<path d="M29.4675 85.6365C25.8871 90.0404 28.1091 97.2571 31.8561 100.5C34.6444 95.819 32.5828 89.3457 29.4675 85.6365Z" fill="url(#paint16_linear_620_8683)"/>
<path d="M13.3647 99.8008C17.0208 95.4391 23.0103 97.7683 26.7471 100.939C23.4529 106.24 16.798 103.818 13.3647 99.8008Z" fill="url(#paint17_linear_620_8683)"/>
<path d="M34.7092 10.8839C32.7703 7.50074 28.4294 8.35301 26.1113 10.8766C28.3722 13.8556 32.06 13.0793 34.7092 10.8839Z" fill="url(#paint18_linear_620_8683)"/>
<path d="M24.4609 0.273804C26.3324 3.66811 24.2074 8.36806 21.8167 10.7269C19.6315 7.1661 21.6021 2.75238 24.4609 0.273804Z" fill="url(#paint19_linear_620_8683)"/>
<path d="M36.927 0.0523966C35.4603 3.88424 31.9759 6.57948 28.4937 6.59933C29.6006 2.50448 33.3977 -0.432972 36.927 0.0523966Z" fill="url(#paint20_linear_620_8683)"/>
<path d="M18.1519 87.4875C11.0289 76.4783 7.60584 62.7298 8.51244 48.7738C9.42926 34.6566 14.69 21.67 23.1704 12.2067C25.5641 9.53562 27.6186 7.51316 27.4601 7.26177C27.3017 7.01037 24.9918 8.62749 22.5939 11.2932C13.9009 20.9571 8.50835 34.2405 7.57007 48.6839C6.64404 62.927 10.1386 76.9587 17.4078 88.1949C21.3899 94.3483 26.3092 99.372 31.847 103.037C32.9897 103.793 34.0455 104.117 34.1723 103.84C34.299 103.563 33.4476 102.791 32.3049 102.035C26.8765 98.4428 22.0542 93.5195 18.1519 87.4875Z" fill="url(#paint21_linear_620_8683)"/>
</g>
<defs>
<linearGradient id="paint0_linear_620_8683" x1="28.8221" y1="16.3046" x2="20.1118" y2="16.3046" gradientUnits="userSpaceOnUse">
<stop stop-color="#1D4524"/>
<stop offset="1" stop-color="#7B9265"/>
</linearGradient>
<linearGradient id="paint1_linear_620_8683" x1="14.5194" y1="40.6693" x2="8.17952" y2="39.8102" gradientUnits="userSpaceOnUse">
<stop stop-color="#1D4524"/>
<stop offset="1" stop-color="#FEFEBE"/>
</linearGradient>
<linearGradient id="paint2_linear_620_8683" x1="14.2497" y1="37.7443" x2="3.72363" y2="31.2503" gradientUnits="userSpaceOnUse">
<stop stop-color="#1D4524"/>
<stop offset="1" stop-color="#FEFEBE"/>
</linearGradient>
<linearGradient id="paint3_linear_620_8683" x1="13.1507" y1="21.1376" x2="9.33936" y2="21.1376" gradientUnits="userSpaceOnUse">
<stop stop-color="#1D4524"/>
<stop offset="1" stop-color="#7B9265"/>
</linearGradient>
<linearGradient id="paint4_linear_620_8683" x1="20.0356" y1="32.4058" x2="11.5645" y2="32.4058" gradientUnits="userSpaceOnUse">
<stop stop-color="#1D4524"/>
<stop offset="1" stop-color="#7B9265"/>
</linearGradient>
<linearGradient id="paint5_linear_620_8683" x1="4.9076" y1="61.5305" x2="-1.64504" y2="60.6933" gradientUnits="userSpaceOnUse">
<stop stop-color="#1D4524"/>
<stop offset="1" stop-color="#FEFEBE"/>
</linearGradient>
<linearGradient id="paint6_linear_620_8683" x1="8.79787" y1="63.4491" x2="-2.56416" y2="59.3386" gradientUnits="userSpaceOnUse">
<stop stop-color="#1D4524"/>
<stop offset="1" stop-color="#FEFEBE"/>
</linearGradient>
<linearGradient id="paint7_linear_620_8683" x1="6.92559" y1="41.0864" x2="2.0708" y2="41.0864" gradientUnits="userSpaceOnUse">
<stop stop-color="#1D4524"/>
<stop offset="1" stop-color="#7B9265"/>
</linearGradient>
<linearGradient id="paint8_linear_620_8683" x1="16.1458" y1="53.0041" x2="9.53027" y2="53.0041" gradientUnits="userSpaceOnUse">
<stop stop-color="#1D4524"/>
<stop offset="1" stop-color="#7B9265"/>
</linearGradient>
<linearGradient id="paint9_linear_620_8683" x1="-0.453554" y1="81.479" x2="-10.743" y2="79.171" gradientUnits="userSpaceOnUse">
<stop stop-color="#1D4524"/>
<stop offset="1" stop-color="#FEFEBE"/>
</linearGradient>
<linearGradient id="paint10_linear_620_8683" x1="10.9452" y1="94.994" x2="2.25078" y2="93.489" gradientUnits="userSpaceOnUse">
<stop stop-color="#1D4524"/>
<stop offset="1" stop-color="#FEFEBE"/>
</linearGradient>
<linearGradient id="paint11_linear_620_8683" x1="8.67457" y1="65.047" x2="0" y2="65.047" gradientUnits="userSpaceOnUse">
<stop stop-color="#1D4524"/>
<stop offset="1" stop-color="#7B9265"/>
</linearGradient>
<linearGradient id="paint12_linear_620_8683" x1="19.4852" y1="75.2001" x2="14.7446" y2="75.2001" gradientUnits="userSpaceOnUse">
<stop stop-color="#1D4524"/>
<stop offset="1" stop-color="#7B9265"/>
</linearGradient>
<linearGradient id="paint13_linear_620_8683" x1="0.815143" y1="99.6957" x2="-13.635" y2="92.8613" gradientUnits="userSpaceOnUse">
<stop stop-color="#1D4524"/>
<stop offset="1" stop-color="#FEFEBE"/>
</linearGradient>
<linearGradient id="paint14_linear_620_8683" x1="20.1995" y1="122.76" x2="12.3539" y2="121.757" gradientUnits="userSpaceOnUse">
<stop stop-color="#1D4524"/>
<stop offset="1" stop-color="#FEFEBE"/>
</linearGradient>
<linearGradient id="paint15_linear_620_8683" x1="18.4467" y1="89.0732" x2="6.15186" y2="89.0732" gradientUnits="userSpaceOnUse">
<stop stop-color="#1D4524"/>
<stop offset="1" stop-color="#7B9265"/>
</linearGradient>
<linearGradient id="paint16_linear_620_8683" x1="33.1685" y1="93.068" x2="27.6567" y2="93.068" gradientUnits="userSpaceOnUse">
<stop stop-color="#1D4524"/>
<stop offset="1" stop-color="#7B9265"/>
</linearGradient>
<linearGradient id="paint17_linear_620_8683" x1="12.0865" y1="117.48" x2="-1.59587" y2="106.701" gradientUnits="userSpaceOnUse">
<stop stop-color="#1D4524"/>
<stop offset="1" stop-color="#FEFEBE"/>
</linearGradient>
<linearGradient id="paint18_linear_620_8683" x1="25.2901" y1="21.3921" x2="16.5839" y2="14.4471" gradientUnits="userSpaceOnUse">
<stop stop-color="#1D4524"/>
<stop offset="1" stop-color="#FEFEBE"/>
</linearGradient>
<linearGradient id="paint19_linear_620_8683" x1="25.1762" y1="5.50036" x2="20.8838" y2="5.50036" gradientUnits="userSpaceOnUse">
<stop stop-color="#1D4524"/>
<stop offset="1" stop-color="#7B9265"/>
</linearGradient>
<linearGradient id="paint20_linear_620_8683" x1="36.927" y1="3.29963" x2="28.4937" y2="3.29963" gradientUnits="userSpaceOnUse">
<stop stop-color="#1D4524"/>
<stop offset="1" stop-color="#7B9265"/>
</linearGradient>
<linearGradient id="paint21_linear_620_8683" x1="34.1848" y1="55.5871" x2="7.42383" y2="55.5871" gradientUnits="userSpaceOnUse">
<stop stop-color="#1D4524"/>
<stop offset="1" stop-color="#7B9265"/>
</linearGradient>
<clipPath id="clip0_620_8683">
<rect width="37" height="104" fill="white"/>
</clipPath>
</defs>
</svg>
