<svg width="480" height="343" viewBox="0 0 480 343" fill="none" xmlns="http://www.w3.org/2000/svg">
<g clip-path="url(#clip0_327_25966)">
<rect x="116" y="36" width="66" height="146" fill="url(#paint0_linear_327_25966)"/>
<rect x="174" y="85" width="66" height="128" fill="url(#paint1_linear_327_25966)"/>
<rect x="233" y="168" width="66" height="76" fill="url(#paint2_linear_327_25966)"/>
<g clip-path="url(#clip1_327_25966)">
<path d="M108.011 232.476L60.9301 259.663C57.8381 261.447 52.8148 261.447 49.7228 259.663L2.64173 232.476C-0.450238 230.692 -0.450238 227.791 2.64173 226.006L49.7228 198.82C52.8148 197.035 57.8381 197.035 60.9301 198.82L108.011 226.006C111.103 227.791 111.103 230.692 108.011 232.476Z" fill="white"/>
<path d="M110.003 230.535C109.708 231.098 109.232 231.644 108.548 232.12C108.375 232.242 108.201 232.354 108.002 232.467L60.921 259.654C57.8291 261.438 52.8057 261.438 49.7137 259.654L17.7201 241.18L2.63266 232.467C1.66264 231.913 1.0044 231.246 0.640641 230.535C0.424116 230.111 0.311523 229.669 0.311523 229.236V253.132C0.311523 254.301 1.08235 255.47 2.63266 256.371L49.7137 283.558C52.8057 285.342 57.8291 285.342 60.921 283.558L108.002 256.371C109.552 255.479 110.323 254.31 110.323 253.132V229.236C110.323 229.678 110.211 230.111 109.994 230.535H110.003Z" fill="url(#paint3_linear_327_25966)"/>
<path d="M55.3263 274.022C53.0052 274.022 50.8053 273.485 49.1251 272.524L2.04399 245.337C1.17789 244.835 0.493676 244.246 0 243.579L0.632251 243.111C1.0653 243.692 1.67157 244.211 2.4424 244.653L49.5235 271.84C51.0824 272.741 53.1438 273.234 55.3263 273.234C57.5089 273.234 59.5702 272.741 61.1292 271.84L108.21 244.653C108.981 244.211 109.587 243.692 110.02 243.111L110.653 243.579C110.159 244.246 109.475 244.835 108.609 245.337L61.5276 272.524C59.856 273.494 57.6475 274.022 55.335 274.022H55.3263Z" fill="white"/>
<path d="M445.928 230.268L398.847 257.454C395.755 259.239 390.731 259.239 387.639 257.454L340.558 230.268C337.466 228.483 337.466 225.582 340.558 223.798L387.639 196.611C390.731 194.827 395.755 194.827 398.847 196.611L445.928 223.798C449.02 225.582 449.02 228.483 445.928 230.268Z" fill="white"/>
<path d="M339.762 172.588L343.641 171.079C341.436 165.408 341.946 159.718 345.131 154.618C350.582 145.848 363.077 139.79 378.553 138.403C404.564 136.078 430.922 147.5 437.271 163.879L441.15 162.369C437.72 153.537 429.227 145.766 417.222 140.483C405.421 135.282 391.558 133.079 378.186 134.262C361.424 135.751 347.744 142.543 341.599 152.416C337.72 158.657 337.087 165.633 339.782 172.568L339.762 172.588Z" fill="url(#paint4_linear_327_25966)"/>
<path d="M438.761 226.599C443.477 219.888 438.353 205.508 433.208 194.616C426.225 179.788 415.139 162.634 402.032 146.337C379.533 118.393 356.584 99.7705 344.702 99.7705C344.579 99.7705 344.457 99.7705 344.355 99.7705C341.558 99.8521 339.312 100.994 337.862 103.054L341.272 105.441C341.701 104.809 342.517 103.993 344.477 103.911C344.559 103.911 344.641 103.911 344.722 103.911C353.624 103.911 374.918 119.27 398.785 148.927C411.709 164.979 422.591 181.848 429.451 196.391C435.842 209.975 438.067 220.377 435.352 224.212L438.761 226.599Z" fill="#7B9265"/>
<path d="M386.944 225.294C387.209 225.294 387.495 225.294 387.761 225.253C394.335 224.661 400.092 217.135 404.38 203.469C408.402 190.66 410.607 173.934 410.607 156.393C410.607 127.592 404.502 102.647 395.437 94.3658C392.906 92.0609 390.211 91.0207 387.393 91.2655C383.412 91.6122 379.717 94.529 376.45 99.9137L380.002 102.076C382.534 97.9352 385.209 95.6304 387.781 95.406C389.374 95.2632 391.027 95.9363 392.64 97.4253C400.766 104.85 406.462 129.102 406.462 156.393C406.462 173.526 404.319 189.803 400.419 202.225C396.846 213.647 391.966 220.704 387.414 221.112C385.821 221.255 384.167 220.582 382.554 219.093C374.429 211.668 368.732 187.417 368.732 160.125H364.567C364.567 188.926 370.672 213.871 379.737 222.152C382.024 224.233 384.453 225.294 386.964 225.294H386.944Z" fill="#1D4524"/>
<path d="M395.601 201.021C397.989 201.021 400.378 200.919 402.746 200.715C419.508 199.226 433.188 192.434 439.333 182.562C443.212 176.32 443.845 169.345 441.15 162.41L437.271 163.919C439.476 169.589 438.965 175.28 435.781 180.379C430.329 189.15 417.834 195.208 402.359 196.595C376.348 198.92 349.99 187.498 343.64 171.119L339.761 172.629C343.191 181.46 351.685 189.232 363.689 194.514C373.408 198.798 384.514 201.041 395.58 201.041L395.601 201.021Z" fill="url(#paint5_linear_327_25966)"/>
<path d="M374.592 183.316L377.838 180.706C364.915 164.653 354.033 147.785 347.173 133.242C340.782 119.658 338.557 109.255 341.272 105.421L337.863 103.034C333.146 109.724 338.271 124.125 343.416 135.017C350.399 149.845 361.485 166.999 374.613 183.296L374.592 183.316Z" fill="#7B9265"/>
<path d="M431.88 229.903C432.451 229.903 433.003 229.862 433.533 229.78C435.738 229.434 437.535 228.353 438.76 226.619L435.351 224.232C434.779 225.048 433.983 225.517 432.88 225.681C428.878 226.313 419.609 221.316 411.014 214.789L408.237 217.97C417.18 224.742 426.633 229.903 431.859 229.903H431.88Z" fill="#7B9265"/>
<path d="M371.081 99.7299C371.081 94.9162 374.981 91 379.819 91C384.658 91 388.558 94.8958 388.558 99.7299C388.558 104.564 384.658 108.46 379.819 108.46C374.981 108.46 371.081 104.564 371.081 99.7299Z" fill="url(#paint6_linear_327_25966)"/>
<path d="M382.064 96.1797C382.064 94.6907 383.106 94.0788 384.412 94.8335C385.699 95.5882 386.76 97.4035 386.76 98.8925C386.76 100.381 385.719 100.993 384.412 100.239C383.126 99.484 382.064 97.6687 382.064 96.1797Z" fill="#1D4524" fill-opacity="0.5"/>
<path d="M366.63 162.205C367.774 162.205 368.713 161.267 368.713 160.124C368.713 136.811 372.755 115.027 379.289 103.278C379.84 102.279 379.493 101.014 378.472 100.463C377.472 99.9127 376.206 100.259 375.654 101.279C368.815 113.599 364.548 136.158 364.548 160.145C364.548 161.287 365.487 162.225 366.63 162.225V162.205Z" fill="#1D4524"/>
<path d="M410.197 218.868C410.81 218.868 411.422 218.603 411.83 218.073C412.545 217.175 412.382 215.87 411.483 215.156C401.071 206.956 389.127 194.739 377.837 180.705C377.122 179.808 375.816 179.665 374.917 180.379C374.019 181.093 373.876 182.398 374.591 183.296C386.065 197.553 398.253 210.036 408.911 218.399C409.299 218.705 409.748 218.848 410.197 218.848V218.868Z" fill="#7B9265"/>
<path d="M371.774 164.96C371.774 155.72 379.288 148.214 388.536 148.214C397.785 148.214 405.298 155.72 405.298 164.96C405.298 174.2 397.785 181.706 388.536 181.706C379.288 181.706 371.774 174.2 371.774 164.96Z" fill="url(#paint7_linear_327_25966)"/>
<path d="M381.614 149.722C380.226 152.027 379.226 154.536 378.695 156.943C375.632 170.221 390.843 178.196 402.603 174.096C399.622 178.686 394.436 181.725 388.556 181.725C379.307 181.725 371.794 174.219 371.794 164.979C371.794 158.207 375.816 152.374 381.614 149.743V149.722Z" fill="url(#paint8_linear_327_25966)"/>
<path d="M390.864 156.739C390.864 153.006 393.498 151.497 396.724 153.353C399.97 155.23 402.583 159.758 402.583 163.49C402.583 167.223 399.95 168.732 396.724 166.876C393.478 165 390.864 160.472 390.864 156.739Z" fill="#1D4524" fill-opacity="0.5"/>
<path d="M447.928 228.336C447.642 228.899 447.157 229.445 446.473 229.921C446.3 230.042 446.127 230.155 445.927 230.268L398.846 257.454C395.754 259.239 390.731 259.239 387.639 257.454L355.645 238.981L340.558 230.268C339.588 229.713 338.93 229.038 338.566 228.336C338.349 227.912 338.237 227.47 338.237 227.037V250.933C338.237 252.102 339.008 253.271 340.558 254.172L387.639 281.359C390.731 283.143 395.754 283.143 398.846 281.359L445.927 254.172C447.478 253.28 448.249 252.111 448.249 250.933V227.037C448.249 227.479 448.136 227.912 447.919 228.336H447.928Z" fill="url(#paint9_linear_327_25966)"/>
<path d="M393.243 271.823C390.922 271.823 388.722 271.286 387.05 270.325L339.969 243.138C339.103 242.636 338.419 242.047 337.925 241.389L338.558 240.921C338.991 241.501 339.597 242.021 340.368 242.463L387.449 269.649C389.008 270.55 391.069 271.044 393.252 271.044C395.434 271.044 397.495 270.55 399.054 269.649L446.136 242.463C446.906 242.021 447.513 241.501 447.946 240.921L448.578 241.389C448.084 242.055 447.4 242.644 446.534 243.147L399.453 270.334C397.781 271.304 395.581 271.832 393.26 271.832L393.243 271.823Z" fill="white"/>
<path d="M477.168 271.191L433.741 296.265C429.965 298.447 423.842 298.447 420.066 296.265L408.296 289.466C404.519 287.283 404.519 283.749 408.296 281.567L451.722 256.493C455.498 254.311 461.621 254.311 465.397 256.493L477.168 263.292C480.944 265.475 480.944 269.008 477.168 271.191Z" fill="white"/>
<path d="M477.168 271.191L433.741 296.265C429.965 298.447 423.842 298.447 420.066 296.265L408.296 289.466C406.407 288.374 405.463 286.945 405.463 285.516V289.673H405.481C405.567 291.033 406.503 292.376 408.296 293.406L420.066 300.205C423.842 302.388 429.965 302.388 433.741 300.205L477.168 275.132C479.125 273.997 480.06 272.499 479.982 271.018H480V267.233C480 268.662 479.056 270.091 477.168 271.182V271.191Z" fill="url(#paint10_linear_327_25966)"/>
<path d="M302.467 265.925C302.45 266.046 302.433 266.176 302.433 266.297V265.925H302.467Z" fill="url(#paint11_linear_327_25966)"/>
<path d="M61.605 110.911L61.614 110.902L61.605 110.911Z" fill="url(#paint12_linear_327_25966)"/>
<path d="M99.1333 206.38C99.1333 206.38 99.1592 206.38 99.1765 206.38C99.1937 206.38 99.211 206.363 99.2369 206.354C99.2024 206.363 99.1678 206.372 99.1333 206.38Z" fill="url(#paint13_linear_327_25966)"/>
<path d="M94.9419 253.002V262.174L82.0803 269.596L76.4507 272.844V263.681L77.8971 262.841L94.9419 253.002Z" fill="url(#paint14_linear_327_25966)"/>
<path d="M354.779 251.755V260.927L367.641 268.35L373.27 271.598V262.434L371.824 261.594L354.779 251.755Z" fill="#5EAD8E"/>
<path d="M371.47 261.378V265.327C371.184 265.561 248.484 336.442 248.484 336.442C240.611 340.989 231.785 343.258 222.96 343.258C214.134 343.258 205.248 340.972 197.349 336.39L82.0803 269.597L76.4507 266.332V263.681L77.8971 262.841L93.3569 257.827L94.9419 258.745L205.274 322.732C216.161 329.046 229.689 329.054 240.594 322.767L355.767 256.268L371.47 261.378Z" fill="url(#paint15_linear_327_25966)"/>
<path d="M355.766 252.319L240.584 318.818C229.689 325.114 216.151 325.097 205.265 318.783L93.3474 253.878L77.7144 262.902C78.0781 263.214 78.4679 263.5 78.9009 263.751L197.34 332.441C205.239 337.023 214.09 339.31 222.95 339.31C231.81 339.31 240.601 337.04 248.474 332.493L370.533 262.019C370.862 261.828 371.166 261.612 371.46 261.378L355.758 252.31L355.766 252.319Z" fill="white"/>
<path d="M222.96 334.987C214.715 334.987 206.617 332.813 199.524 328.708L82.0981 260.243L89.2175 256.129L203.101 322.533C209.111 326.023 215.98 327.859 222.96 327.859C229.915 327.859 236.757 326.032 242.751 322.567L355.768 257.315L362.896 261.429L246.319 328.734C239.252 332.813 231.171 334.97 222.96 334.97V334.987Z" fill="url(#paint16_linear_327_25966)"/>
<path d="M222.96 334.987C214.715 334.987 206.617 332.813 199.524 328.708L82.0981 260.243L89.2175 256.129L203.101 322.533C209.111 326.023 215.98 327.859 222.96 327.859C229.915 327.859 236.757 326.032 242.751 322.567L355.768 257.315L362.896 261.429L246.319 328.734C239.252 332.813 231.171 334.97 222.96 334.97V334.987Z" fill="url(#paint17_linear_327_25966)"/>
<path opacity="0.2" d="M284.885 306.475L343.624 272.558V264.331L284.885 298.247V306.475Z" fill="white"/>
<path opacity="0.2" d="M245.807 329.029C245.98 328.934 246.154 328.838 246.318 328.743L273.522 313.041V304.804L245.807 320.81V329.029Z" fill="white"/>
<path d="M95.6776 205.748L65.9618 188.59C62.6533 186.676 59.9424 181.991 59.9424 178.163V114.582C59.9424 110.962 62.506 109.481 65.65 111.291L95.3658 128.449C98.6743 130.363 101.385 135.048 101.385 138.876V202.457C101.385 206.077 98.8215 207.558 95.6776 205.748Z" fill="white"/>
<path d="M98.207 205.731C97.5661 205.731 96.8212 205.497 96.0677 205.064L66.3519 187.906C63.3033 186.148 60.731 181.688 60.731 178.163V114.582C60.731 112.53 61.623 111.309 63.1127 111.309C63.7536 111.309 64.4985 111.542 65.252 111.975L94.9678 129.133C98.0165 130.891 100.589 135.351 100.589 138.876V202.448C100.589 204.501 99.6967 205.722 98.207 205.722V205.731Z" fill="url(#paint18_linear_327_25966)"/>
<path d="M98.103 126.847L68.3871 109.689C66.8195 108.78 65.3904 108.702 64.3598 109.299C64.1259 109.429 62.0906 110.599 61.6143 110.91C62.6449 110.313 64.074 110.399 65.6416 111.3L95.3574 128.458C98.6659 130.372 101.377 135.057 101.377 138.885V202.466C101.377 204.129 100.831 205.332 99.9391 205.982C100.848 205.471 102.234 204.648 102.381 204.57C103.447 203.99 104.114 202.699 104.114 200.855V137.274C104.114 133.455 101.403 128.761 98.0943 126.847H98.103Z" fill="url(#paint19_linear_327_25966)"/>
<path opacity="0.3" d="M82.3573 120.948L65.6417 111.3C62.5064 109.49 59.9341 110.971 59.9341 114.591V159.793L82.3573 120.957V120.948Z" fill="white"/>
<path opacity="0.4" d="M66.1094 221.156C73.4279 225.383 73.4279 232.242 66.1094 236.469C58.7909 240.695 46.9167 240.695 39.5895 236.469C32.271 232.242 32.271 225.383 39.5895 221.156C46.908 216.93 58.7822 216.93 66.1094 221.156Z" fill="#D2E8DF"/>
<path d="M46.1199 220.143C45.1845 219.459 42.2311 221.347 42.0319 222.724C41.9107 223.556 42.5689 224.335 43.5736 224.552C44.5783 224.768 45.938 225.019 46.3364 225.626C46.7348 226.232 47.1246 227.904 47.9907 228.146C48.8568 228.389 51.3252 228.605 51.3252 227.384C51.3252 226.7 50.1819 226.31 49.5323 226.059C48.8828 225.808 48.7269 224.006 48.06 222.291C47.1766 220.005 46.1286 220.143 46.1286 220.143H46.1199Z" fill="#3E4042"/>
<path d="M58.955 201.557L47.3233 221.962C46.8643 222.759 45.851 223.045 45.0455 222.586C44.3007 222.161 44.0062 221.252 44.3353 220.49L53.4813 198.846C54.1395 197.287 55.9324 196.559 57.4913 197.218C59.0503 197.876 59.7778 199.669 59.1196 201.228C59.0763 201.332 59.0157 201.453 58.955 201.557Z" fill="url(#paint20_linear_327_25966)"/>
<path d="M59.3624 197.685L55.8547 182.485C55.7854 182.19 55.6815 181.879 55.5516 181.593C54.4603 179.176 51.6195 178.103 49.1944 179.194C46.778 180.285 45.704 183.126 46.7953 185.551L52.7541 198.75L45.5135 217.467C44.8899 219.156 48.7267 220.758 49.5495 219.078L59.5963 201.851C59.6915 201.695 59.7781 201.504 59.8474 201.331C60.3411 200.067 60.1073 198.707 59.3537 197.694L59.3624 197.685Z" fill="url(#paint21_linear_327_25966)"/>
<path d="M44.3791 220.324C44.3791 220.324 43.3138 220.991 43.4524 221.814C43.591 222.637 44.6389 223.018 45.1673 223.364C45.6956 223.711 47.4711 224.992 47.7829 225.607C48.0947 226.222 48.5104 226.933 49.2033 227.036C49.8442 227.132 50.4764 226.803 50.104 226.465C49.7316 226.127 49.1946 225.867 48.9348 225.157C48.7442 224.62 48.571 223.737 48.2852 222.931C47.9994 222.134 47.601 220.896 47.2632 220.627C46.9254 220.359 44.3791 220.324 44.3791 220.324Z" fill="url(#paint22_linear_327_25966)"/>
<path d="M41.7808 166.445C42.7161 164.834 45.1759 165.527 46.3018 166.818C47.1246 167.762 51.5244 172.248 53.0054 173.149L51.8621 174.985C51.8621 174.985 39.7801 169.901 41.7808 166.445Z" fill="url(#paint23_linear_327_25966)"/>
<path d="M51.4124 157.151C52.0359 155.688 51.3517 153.999 49.8794 153.375C48.4157 152.752 46.7268 153.436 46.1032 154.908C46.0945 154.934 46.0772 154.969 46.0685 155.003C43.9986 160.382 43.4616 161.785 41.6861 166.393C41.2097 167.631 41.79 169.034 43.0199 169.554C44.2497 170.073 45.6615 169.519 46.2158 168.315C48.2944 163.838 48.9267 162.469 51.3517 157.247C51.3517 157.247 51.3777 157.186 51.395 157.16L51.4124 157.151Z" fill="url(#paint24_linear_327_25966)"/>
<path d="M71.921 167.146C72.5099 167.38 73.1682 167.034 73.3154 166.41C73.376 166.159 73.4367 165.942 73.4973 165.847C73.6965 165.544 74.1555 164.938 74.1382 164.522C74.1209 164.106 73.7485 162.469 73.7052 162.097C73.6619 161.724 74.9177 159.628 75.0389 159.36C75.2035 158.996 74.8311 158.71 74.3807 159.308C73.9303 159.906 72.9863 161.127 72.9863 161.127C72.9863 161.127 73.5493 159.672 73.6532 159.499C73.7571 159.325 74.7272 158.295 74.8657 158.095C75.0563 157.844 74.7445 157.42 74.3547 157.836C74.3547 157.836 74.476 157.593 74.5713 157.385C74.7272 157.056 74.424 156.736 74.0083 157.177C73.5233 157.688 72.5619 158.598 72.3887 158.832C72.2241 159.066 71.3754 160.365 71.3754 160.365C71.3754 160.365 72.0769 157.818 72.1115 157.411C72.1462 157.004 71.7738 156.77 71.5746 157.351C71.3754 157.931 70.2408 160.902 70.3707 161.395C70.5093 161.889 71.3147 163.864 71.3494 164.427C71.3754 164.747 71.3061 165.492 71.2454 166.072C71.1935 166.531 71.462 166.973 71.895 167.138H71.9123L71.921 167.146Z" fill="url(#paint25_linear_327_25966)"/>
<path d="M52.0265 189.015C55.1213 189.015 57.6302 186.506 57.6302 183.411C57.6302 180.316 55.1213 177.808 52.0265 177.808C48.9317 177.808 46.4229 180.316 46.4229 183.411C46.4229 186.506 48.9317 189.015 52.0265 189.015Z" fill="url(#paint26_linear_327_25966)"/>
<path d="M52.6764 230.571C52.6764 230.571 51.8016 232.165 52.1481 233.065C52.4858 233.975 53.811 234.053 54.5731 234.2C55.3353 234.347 56.7644 234.616 57.5265 234.997C58.28 235.378 60.6705 235.941 62.0649 235.187C63.468 234.434 63.5372 233.481 62.4806 233.065C61.424 232.65 60.6098 232.693 60.0382 232.442C59.4666 232.191 58.1241 230.891 56.8769 230.571C56.8769 230.571 55.8463 228.033 54.703 227.938C53.6551 227.851 52.6764 230.571 52.6764 230.571Z" fill="url(#paint27_linear_327_25966)"/>
<path d="M61.3373 183.879L56.5651 229.947C56.4698 230.899 55.6124 231.592 54.6596 231.497C53.7589 231.402 53.092 230.631 53.1007 229.739L53.8282 183.429C53.8628 181.35 55.569 179.687 57.6563 179.722C59.735 179.756 61.3979 181.463 61.3632 183.55C61.3632 183.662 61.3546 183.775 61.3459 183.879H61.3373Z" fill="#B5DDC2"/>
<path d="M62.2815 183.94L57.1109 227.245C56.9724 228.89 52.8584 228.414 52.8584 227.011L52.893 183.385C52.893 180.787 55.0063 178.674 57.6133 178.674C60.2116 178.674 62.3248 180.787 62.3248 183.385C62.3248 183.559 62.3075 183.766 62.2902 183.94H62.2815Z" fill="url(#paint28_linear_327_25966)"/>
<path d="M61.7352 185.81C61.7352 188.876 59.2495 191.362 56.1835 191.362C53.1175 191.362 50.6318 188.876 50.6318 185.81C50.6318 182.744 53.1175 180.259 56.1835 180.259C59.2495 180.259 61.7352 182.744 61.7352 185.81Z" fill="url(#paint29_linear_327_25966)"/>
<path d="M57.3964 151.514C57.5263 151.228 57.6043 150.916 57.6389 150.578C57.8035 148.881 56.565 147.374 54.8674 147.209C53.1699 147.044 51.6629 148.283 51.4983 149.981C51.4983 150.024 51.4983 150.058 51.4983 150.102C51.3078 153.367 51.2818 153.462 49.974 156.459C49.8441 156.745 49.7661 157.057 49.7315 157.394C49.5669 159.092 50.8054 160.599 52.503 160.763C54.2005 160.928 55.7075 159.689 55.8721 157.992C55.8721 157.949 55.8721 157.914 55.8721 157.871C56.0626 154.605 56.0886 154.51 57.3964 151.514Z" fill="#B5DDC2"/>
<path d="M46.2151 182.841C46.3969 180.537 47.4189 172.525 47.2804 170.975C47.1418 169.425 43.9286 158.858 46.371 154.407C48.6055 150.345 56.9633 157.187 61.3198 159.716C65.6763 162.245 61.0859 172.3 61.0859 172.3C61.0859 172.3 62.3331 179.939 62.5237 185.266C62.6536 188.877 45.834 187.639 46.2064 182.832L46.2151 182.841Z" fill="url(#paint30_linear_327_25966)"/>
<path d="M53.4642 151.617C53.2564 151.08 50.8746 148.569 50.9526 146.62C51.0305 144.671 52.3903 142.203 55.4563 142.229C58.5222 142.255 60.8954 145.407 60.445 147.01C60.3064 147.503 60.1765 148.187 60.2977 148.491C60.4277 148.794 60.6095 149.435 60.5403 149.842C60.471 150.249 59.9253 151.825 59.8387 152.146C59.7521 152.466 59.6568 153.349 59.1458 153.358C57.6128 153.375 53.6634 152.154 53.4556 151.617H53.4642Z" fill="url(#paint31_linear_327_25966)"/>
<path d="M65.832 174.768C64.2124 173.858 64.8706 171.381 66.1438 170.247C67.0792 169.415 71.4963 164.946 72.371 163.457L73.9906 165.05C73.9906 165.05 69.3224 176.725 65.832 174.768Z" fill="url(#paint32_linear_327_25966)"/>
<path d="M62.5321 160.79C61.64 159.473 59.8472 159.127 58.5307 160.019C57.2143 160.911 56.8678 162.704 57.7599 164.02C57.7772 164.046 57.8032 164.072 57.8205 164.098C61.207 168.766 62.0904 169.979 64.9918 173.98C65.7713 175.045 67.261 175.323 68.3696 174.578C69.4782 173.833 69.7813 172.343 69.0711 171.226C66.4469 167.043 65.65 165.761 62.5841 160.885C62.5841 160.885 62.5494 160.833 62.5321 160.807V160.79Z" fill="url(#paint33_linear_327_25966)"/>
<path d="M57.9855 147.391C56.5911 147.928 57.1454 149.175 57.0501 150.483C56.9375 151.947 56.0022 151.886 56.21 153.315C56.3139 158.382 52.0614 160.686 47.9301 159.871C45.4098 159.378 43.7988 156.338 44.8555 154.943C46.1546 153.228 49.2379 153.428 49.6363 152.57C49.8615 152.094 48.8655 149.877 48.8482 147.807C48.8135 144.862 49.7576 143.476 50.4764 142.801C52.8929 140.549 56.9982 141.666 57.5005 142.177C57.9942 142.688 59.4406 141.883 60.1248 142.653C60.9562 143.589 61.0169 146.239 57.9855 147.4V147.391Z" fill="#3E4042"/>
<path d="M53.066 229.661C53.066 229.661 52.5204 230.787 52.6416 231.411C52.7715 232.087 54.2092 232.502 55.1879 232.502C56.4351 232.502 57.3359 232.97 57.7169 233.109C58.098 233.238 60.8782 234.182 61.2506 233.36C61.4931 232.831 60.7396 232.84 60.1334 232.476C59.5271 232.121 58.5397 231.29 57.8382 230.969C57.1367 230.649 56.4265 229.939 56.3658 229.514C56.3052 229.09 53.066 229.661 53.066 229.661Z" fill="#B5DDC2"/>
<path d="M288.792 228.761C301.653 236.183 301.653 248.231 288.792 255.653C275.93 263.075 255.075 263.075 242.213 255.653C229.352 248.231 229.352 236.183 242.213 228.761C255.075 221.338 275.93 221.338 288.792 228.761Z" fill="white"/>
<path d="M288.792 255.662C275.93 263.084 255.074 263.084 242.213 255.662C235.908 252.015 232.694 247.269 232.573 242.497H232.564V258.251C232.564 263.119 235.778 267.986 242.213 271.702C255.074 279.124 275.93 279.124 288.792 271.702C295.227 267.986 298.44 263.119 298.44 258.251V242.497H298.431C298.31 247.269 295.105 252.024 288.792 255.662Z" fill="url(#paint34_linear_327_25966)"/>
<path d="M290.273 221.814V241.933C290.394 245.684 287.987 249.468 283.024 252.327C273.592 257.766 258.47 257.904 248.752 252.742C248.493 252.604 248.241 252.474 247.99 252.327C247.687 252.153 247.393 251.971 247.115 251.79C246.864 251.642 246.63 251.469 246.397 251.305C245.868 250.932 245.383 250.56 244.924 250.17C244.777 250.04 244.621 249.91 244.482 249.772C244.231 249.555 244.006 249.33 243.798 249.096C243.686 248.992 243.59 248.888 243.486 248.776C241.572 246.636 240.663 244.281 240.741 241.933V221.814H290.273Z" fill="url(#paint35_linear_327_25966)"/>
<path opacity="0.8" d="M254.815 221.814L250.649 253.643C249.991 253.366 249.358 253.063 248.743 252.751C248.484 252.612 248.232 252.482 247.981 252.335C247.678 252.162 247.384 251.98 247.106 251.798C246.855 251.651 246.621 251.478 246.388 251.313C245.859 250.941 245.374 250.568 244.915 250.179C244.768 250.049 244.612 249.919 244.474 249.78C244.222 249.564 243.997 249.339 243.789 249.105C243.677 249.001 243.581 248.897 243.478 248.784V221.823H254.806L254.815 221.814Z" fill="url(#paint36_linear_327_25966)"/>
<path d="M283.015 210.806C292.689 216.393 292.689 225.443 283.015 231.03C273.341 236.616 257.656 236.616 247.981 231.03C238.307 225.443 238.307 216.393 247.981 210.806C257.656 205.22 273.341 205.22 283.015 210.806Z" fill="url(#paint37_linear_327_25966)"/>
<path d="M230.339 195.129C243.2 202.552 243.2 214.599 230.339 222.022C217.477 229.444 196.621 229.444 183.76 222.022C170.898 214.599 170.898 202.552 183.76 195.129C196.621 187.707 217.477 187.707 230.339 195.129Z" fill="white"/>
<path d="M230.339 222.031C217.477 229.453 196.622 229.453 183.76 222.031C177.455 218.385 174.242 213.638 174.12 208.866H174.112V224.621C174.112 229.488 177.325 234.355 183.76 238.071C196.622 245.493 217.477 245.493 230.339 238.071C236.774 234.355 239.987 229.488 239.987 224.621V208.866H239.979C239.857 213.638 236.653 218.393 230.339 222.031Z" fill="url(#paint38_linear_327_25966)"/>
<path d="M231.82 149.703V208.303C231.941 212.054 229.533 215.838 224.571 218.696C215.139 224.136 200.017 224.274 190.299 219.112C190.039 218.974 189.788 218.844 189.537 218.696C189.234 218.523 188.939 218.341 188.662 218.159C188.411 218.012 188.177 217.839 187.943 217.674C187.415 217.302 186.93 216.93 186.471 216.54C186.324 216.41 186.168 216.28 186.029 216.141C185.778 215.925 185.553 215.7 185.345 215.466C185.233 215.362 185.137 215.258 185.033 215.145C183.119 213.006 182.21 210.65 182.288 208.303V149.703H231.82Z" fill="url(#paint39_linear_327_25966)"/>
<path opacity="0.4" d="M231.82 149.703V186.737C230.209 173.209 226.805 160.729 222.7 149.703H231.82Z" fill="url(#paint40_linear_327_25966)"/>
<path opacity="0.4" d="M201.394 149.703L192.196 220.004C191.538 219.727 190.906 219.424 190.291 219.112C190.031 218.974 189.78 218.844 189.529 218.696C189.225 218.523 188.931 218.341 188.654 218.159C188.403 218.012 188.169 217.839 187.935 217.674C187.407 217.302 186.922 216.93 186.463 216.54C186.315 216.41 186.159 216.28 186.021 216.141C185.77 215.925 185.545 215.7 185.337 215.466C185.224 215.362 185.129 215.258 185.025 215.145V149.703H201.385H201.394Z" fill="url(#paint41_linear_327_25966)"/>
<path d="M224.562 139.587C234.236 145.174 234.236 154.224 224.562 159.811C214.888 165.397 199.203 165.397 189.528 159.811C179.854 154.224 179.854 145.174 189.528 139.587C199.203 134.001 214.888 134.001 224.562 139.587Z" fill="url(#paint42_linear_327_25966)"/>
<path d="M172.042 161.49C184.903 168.913 184.903 180.96 172.042 188.383C159.18 195.805 138.325 195.805 125.463 188.383C112.602 180.96 112.602 168.913 125.463 161.49C138.325 154.068 159.18 154.068 172.042 161.49Z" fill="white"/>
<path d="M172.042 188.383C159.18 195.805 138.325 195.805 125.463 188.383C119.158 184.737 115.945 179.99 115.824 175.218H115.815V190.973C115.815 195.84 119.028 200.708 125.463 204.423C138.325 211.846 159.18 211.846 172.042 204.423C178.477 200.708 181.69 195.84 181.69 190.973V175.218H181.682C181.56 179.99 178.356 184.745 172.042 188.383Z" fill="url(#paint43_linear_327_25966)"/>
<path d="M166.274 60.1917C175.948 65.778 175.948 74.8288 166.274 80.4151C156.599 86.0014 140.914 86.0014 131.24 80.4151C121.566 74.8288 121.566 65.778 131.24 60.1917C140.914 54.6054 156.599 54.6054 166.274 60.1917Z" fill="url(#paint44_linear_327_25966)"/>
<path d="M166.274 80.4152C156.599 86.0015 140.914 86.0015 131.24 80.4152C126.459 77.6523 124.043 74.0494 123.991 70.4291V174.655C123.869 178.405 126.277 182.182 131.231 185.048C140.906 190.635 156.591 190.635 166.265 185.048C171.228 182.182 173.635 178.414 173.505 174.655V70.4204C173.454 74.0407 171.037 77.6523 166.256 80.4152H166.274Z" fill="url(#paint45_linear_327_25966)"/>
<path opacity="0.19" d="M166.274 80.4152C162.688 82.4852 158.289 83.7756 153.664 84.3126V92.5232C161.892 107.689 170.622 128.7 173.523 153.081V70.4204C173.471 74.0407 171.055 77.6523 166.274 80.4152Z" fill="url(#paint46_linear_327_25966)"/>
<path opacity="0.19" d="M147.228 84.5637C141.408 84.3559 135.692 82.9874 131.24 80.4151C129.378 79.3412 127.88 78.1373 126.736 76.8555V181.489C127.88 182.771 129.378 183.966 131.24 185.04C132.08 185.525 132.981 185.949 133.908 186.356L147.228 84.5551V84.5637Z" fill="url(#paint47_linear_327_25966)"/>
<path d="M51.7065 242.973C51.4467 242.973 51.1782 242.93 50.9184 242.844C49.5846 242.411 48.8657 240.973 49.2988 239.639L54.4174 224.049C54.8505 222.715 56.2882 221.997 57.622 222.43C58.9558 222.863 59.6746 224.3 59.2416 225.634L54.1229 241.224C53.7765 242.289 52.7805 242.973 51.7152 242.973H51.7065Z" fill="url(#paint48_linear_327_25966)"/>
<path d="M59.4316 222.308C57.89 221.32 55.846 221.762 54.8586 223.304C54.7633 223.451 54.6854 223.598 54.6248 223.754C53.0918 227.201 51.4289 230.865 51.0218 231.835C50.5281 233.013 55.7161 236.087 56.6947 234.373C57.5175 232.926 59.2844 229.081 60.5749 226.647C61.3717 225.14 60.904 223.252 59.4403 222.316L59.4316 222.308Z" fill="url(#paint49_linear_327_25966)"/>
<path d="M36.0988 276.863C37.2074 277.088 37.0255 278.275 37.3113 278.691C37.6058 279.106 38.6711 280.856 37.3806 281.661C36.1768 282.415 34.8343 281.999 34.1761 282.077C33.5092 282.164 31.3093 283.385 29.6031 283.653C27.8969 283.922 26.5111 283.939 26.5024 282.926C26.5024 282.224 28.226 281.679 29.1873 281.367C30.1487 281.055 31.1187 279.869 31.8289 279.375C32.5391 278.873 34.2367 276.482 36.0988 276.863Z" fill="url(#paint50_linear_327_25966)"/>
<path d="M61.1987 250.569C60.4625 248.378 58.0807 247.209 55.8895 247.945L36.4456 254.518C36.2031 254.605 35.9866 254.718 35.77 254.848C34.8173 255.315 34.1244 256.259 34.0638 257.394L32.9206 277.894C32.8253 279.575 38.7754 280.363 38.9919 278.232L39.9793 260.598L58.2626 255.965C58.3665 255.939 58.4704 255.904 58.5744 255.87C60.7656 255.133 61.9348 252.752 61.1987 250.56V250.569Z" fill="url(#paint51_linear_327_25966)"/>
<path d="M46.1727 283.134C46.3459 284.121 47.0301 285.715 46.6837 286.563C46.3199 287.456 45.7916 286.979 45.0467 288.148C44.5877 288.876 43.6004 289.768 42.8382 290.227C40.3525 291.717 38.3691 291.457 37.8062 290.937C36.8881 290.088 39.0447 288.4 39.7982 287.776C40.5517 287.144 41.8508 284.823 42.6996 283.827C44.2066 282.068 45.9994 282.146 46.1727 283.142V283.134Z" fill="url(#paint52_linear_327_25966)"/>
<path d="M68.5089 250.456C67.0279 248.68 64.3863 248.438 62.6108 249.919L49.732 260.633C48.6667 260.892 47.7746 261.715 47.4974 262.858L42.526 283.991C42.1276 285.619 47.3588 287.412 47.9131 284.944L52.7806 266.903L67.6688 256.579C67.7641 256.51 67.868 256.432 67.9633 256.354C69.7388 254.873 69.9813 252.24 68.5003 250.456H68.5089Z" fill="url(#paint53_linear_327_25966)"/>
<path d="M54.0792 248.352C54.5122 245.122 55.283 239.856 55.283 239.856C55.283 239.856 52.4249 223.902 56.1924 222.257C60.6961 220.282 70.9507 225.885 73.2112 228.319C75.2119 230.467 71.1153 244.229 71.1153 244.229C71.1153 244.229 71.1759 254.597 68.6123 255.87C66.8194 256.753 53.6374 251.591 54.0705 248.361L54.0792 248.352Z" fill="url(#paint54_linear_327_25966)"/>
<path d="M68.3958 227.011C68.0754 228.535 65.7196 229.332 63.1386 228.786C60.5577 228.241 58.7302 226.56 59.0593 225.027C59.3798 223.503 61.7356 222.706 64.3165 223.252C66.8975 223.798 68.725 225.478 68.3958 227.011Z" fill="url(#paint55_linear_327_25966)"/>
<path d="M67.9884 226.925C67.6939 228.319 65.5373 229.047 63.1816 228.544C60.8258 228.042 59.1542 226.509 59.4487 225.106C59.7432 223.703 61.8997 222.984 64.2555 223.486C66.6113 223.989 68.2829 225.522 67.9884 226.925Z" fill="url(#paint56_linear_327_25966)"/>
<path d="M72.4321 247.001C71.5401 245.191 68.8119 245.771 67.504 247.087C66.5427 248.057 61.45 252.604 59.7871 253.479L61.2335 255.644C61.2335 255.644 74.3549 250.898 72.4321 247.009V247.001Z" fill="url(#paint57_linear_327_25966)"/>
<path d="M53.8885 239.292C52.6327 237.56 49.8958 238.642 48.7699 240.253C47.9384 241.431 43.4434 247.078 41.8584 248.273L43.7552 250.274C43.7552 250.274 56.5907 243.007 53.8972 239.292H53.8885Z" fill="url(#paint58_linear_327_25966)"/>
<path d="M67.1658 219.242C67.2437 218.964 67.287 218.67 67.2784 218.358C67.2264 216.782 65.9186 215.543 64.3423 215.595C62.766 215.647 61.5275 216.955 61.5794 218.531C61.5794 218.566 61.5794 218.609 61.5881 218.644C61.796 221.658 61.7873 221.753 60.9472 224.655C60.8692 224.932 60.8259 225.226 60.8346 225.538C60.8606 226.352 61.2243 227.08 61.7873 227.582C61.9432 227.721 62.6101 228.102 62.7747 228.154C63.0864 228.258 63.4242 228.31 63.7707 228.301C65.347 228.249 66.5855 226.941 66.5335 225.365C66.5335 225.33 66.5335 225.287 66.5249 225.252C66.317 222.238 66.3257 222.143 67.1658 219.242Z" fill="url(#paint59_linear_327_25966)"/>
<path d="M62.8012 211.784C61.3375 212.018 59.3021 213.127 58.8344 214.261C58.3667 215.387 58.3494 216.045 58.3754 216.47C58.4014 216.903 58.6093 217.899 58.5226 218.237C58.4274 218.574 58.1242 219.718 58.2455 220.151C58.3581 220.584 59.1289 223.581 59.3454 223.806C59.6919 224.152 60.4454 224.68 61.7359 224.187C63.0177 223.693 66.56 221.069 67.2529 219.891C67.9544 218.713 68.4741 216.193 68.145 214.608C67.4694 211.291 62.8012 211.784 62.8012 211.784Z" fill="url(#paint60_linear_327_25966)"/>
<path d="M59.7524 223.945C59.5272 223.72 58.765 220.731 58.6524 220.29C58.5398 219.857 58.8343 218.705 58.9296 218.376C59.0249 218.038 58.817 217.042 58.7823 216.609C58.7564 216.176 58.765 215.526 59.2414 214.4C59.7091 213.274 61.7444 212.157 63.2081 211.923C63.2081 211.923 64.6198 211.776 66.0056 212.192C64.5072 211.594 62.7924 211.776 62.7924 211.776C61.3287 212.01 59.2933 213.118 58.8256 214.253C58.358 215.379 58.3406 216.037 58.3666 216.462C58.3926 216.895 58.6005 217.891 58.5139 218.228C58.4186 218.566 58.1154 219.709 58.2367 220.143C58.3493 220.576 59.1201 223.572 59.3366 223.797C59.5185 223.979 59.8303 224.222 60.2807 224.326C60.0468 224.213 59.8736 224.066 59.7524 223.945Z" fill="url(#paint61_linear_327_25966)"/>
<path d="M68.82 214.019C68.4995 212.408 67.1397 211.005 63.0604 211.395C62.6793 211.282 62.3069 211.204 62.0384 211.222C61.4754 211.256 61.2243 211.663 60.8086 211.715C60.3928 211.767 60.4535 211.681 59.9511 211.828C59.6826 211.906 59.4834 212.252 59.5527 212.798C59.1976 212.659 58.6087 211.932 58.089 212.261C57.3182 212.755 57.3268 215.838 59.0677 216.955C60.1157 217.631 61.9864 218.055 64.2729 216.999C66.7933 215.838 64.6887 219.77 65.9358 220.705C66.6114 221.216 67.5208 220.983 68.2916 219.233C69.2357 217.076 68.9759 214.773 68.8286 214.01L68.82 214.019Z" fill="#3E4042"/>
<path d="M67.0796 217.666C67.6166 217.96 67.6946 218.844 67.2529 219.632C66.8111 220.42 66.023 220.827 65.486 220.533C64.949 220.238 64.8711 219.355 65.3128 218.566C65.7545 217.778 66.5426 217.371 67.0796 217.666Z" fill="url(#paint62_linear_327_25966)"/>
<path d="M47.7741 249.157L51.7235 262.582C51.7755 262.763 51.8534 262.928 51.9487 263.084C51.9747 263.136 52.0093 263.188 52.044 263.231C52.1479 263.378 52.2692 263.5 52.3991 263.612C52.4337 263.647 52.477 263.673 52.5117 263.707C52.6243 263.794 52.7369 263.863 52.8668 263.924H52.8754C53.4817 264.201 54.2092 264.201 54.8501 263.837L65.174 257.887C65.278 257.827 65.3299 257.723 65.3386 257.619C65.3386 257.584 65.3473 257.229 65.3386 257.194C65.3126 257.125 65.252 257.368 65.1827 257.324L46.3884 246.282C46.2844 246.221 46.1632 246.221 46.0593 246.282L44.4483 247.208L35.4149 252.414C34.8173 252.76 34.1418 252.777 33.5615 252.552C33.3449 252.465 33.1371 252.353 32.9639 252.197C32.6521 251.937 32.4096 251.582 32.2796 251.158L28.7373 239.136L47.7655 249.157H47.7741Z" fill="#0E8555"/>
<path d="M28.7456 238.773L32.2879 250.794C32.4092 251.219 32.6517 251.574 32.9722 251.834C33.154 251.981 33.3532 252.102 33.5698 252.189C34.1501 252.414 34.8256 252.397 35.4232 252.05L44.4566 246.845L46.0676 245.918C46.1715 245.858 46.2927 245.858 46.3967 245.918L65.191 256.961C65.4075 257.091 65.4075 257.394 65.191 257.524L54.8671 263.474C54.2262 263.838 53.4987 263.838 52.8924 263.561H52.8837C52.7625 263.5 52.6412 263.431 52.5286 263.353C52.5286 263.353 52.4507 263.292 52.4161 263.258C52.2861 263.145 52.1649 263.024 52.061 262.876C52.0263 262.833 51.9917 262.781 51.9657 262.729C51.8704 262.573 51.8011 262.409 51.7405 262.227L46.2408 249.547L28.7629 238.782L28.7456 238.773Z" fill="url(#paint63_linear_327_25966)"/>
<path opacity="0.2" d="M49.9908 251.634L53.9229 253.904C54.0701 253.99 54.304 253.99 54.4512 253.904L56.833 252.526C56.9802 252.44 56.9802 252.31 56.833 252.223L52.9009 249.954C52.7537 249.868 52.5198 249.868 52.3726 249.954L49.9908 251.331C49.8436 251.418 49.8436 251.548 49.9908 251.634Z" fill="#34986F"/>
<path opacity="0.5" d="M56.8337 252.284L52.9017 250.015C52.7544 249.928 52.5206 249.928 52.3733 250.015L49.9916 251.392C49.9309 251.426 49.8963 251.47 49.8876 251.513C49.8703 251.452 49.905 251.383 49.9916 251.331L52.3733 249.954C52.5206 249.868 52.7544 249.868 52.9017 249.954L56.8337 252.223C56.9203 252.275 56.955 252.345 56.9377 252.405C56.929 252.362 56.8944 252.319 56.8337 252.284Z" fill="#04804E"/>
<path d="M39.9185 253.739L40.213 253.575C40.2823 253.54 40.2823 253.471 40.213 253.436L39.2603 252.882C39.191 252.847 39.0871 252.847 39.0178 252.882L38.7233 253.046C38.654 253.081 38.654 253.15 38.7233 253.185L39.676 253.739C39.7453 253.774 39.8492 253.774 39.9185 253.739ZM41.1397 254.588L40.187 254.034C40.1177 253.999 40.1177 253.93 40.187 253.895L40.4815 253.731C40.5508 253.696 40.6547 253.696 40.724 253.731L41.6767 254.285C41.746 254.319 41.746 254.389 41.6767 254.423L41.3822 254.588C41.313 254.623 41.209 254.623 41.1397 254.588ZM42.5948 255.428L41.6421 254.874C41.5728 254.839 41.5728 254.77 41.6421 254.735L41.9365 254.571C42.0058 254.536 42.1098 254.536 42.179 254.571L43.1318 255.125C43.201 255.16 43.201 255.229 43.1318 255.264L42.8373 255.428C42.768 255.463 42.6641 255.463 42.5948 255.428ZM44.0585 256.268L43.1058 255.714C43.0365 255.679 43.0365 255.61 43.1058 255.575L43.4002 255.411C43.4695 255.376 43.5735 255.376 43.6428 255.411L44.5955 255.965C44.6648 256 44.6648 256.069 44.5955 256.104L44.301 256.268C44.2317 256.303 44.1278 256.303 44.0585 256.268ZM45.5222 257.117L44.5695 256.563C44.5002 256.528 44.5002 256.459 44.5695 256.424L44.864 256.26C44.9332 256.225 45.0372 256.225 45.1065 256.26L46.0592 256.814C46.1285 256.848 46.1285 256.918 46.0592 256.952L45.7647 257.117C45.6954 257.152 45.5915 257.152 45.5222 257.117ZM46.9772 257.957L46.0245 257.403C45.9552 257.368 45.9552 257.299 46.0245 257.264L46.319 257.1C46.3883 257.065 46.4922 257.065 46.5615 257.1L47.5142 257.654C47.5835 257.689 47.5835 257.758 47.5142 257.793L47.2197 257.957C47.1504 257.992 47.0465 257.992 46.9772 257.957ZM48.4409 258.797L47.4882 258.243C47.4189 258.208 47.4189 258.139 47.4882 258.104L47.7827 257.94C47.852 257.905 47.9559 257.905 48.0252 257.94L48.9779 258.494C49.0472 258.529 49.0472 258.598 48.9779 258.633L48.6834 258.797C48.6142 258.832 48.5102 258.832 48.4409 258.797ZM49.896 259.646L48.9433 259.092C48.874 259.057 48.874 258.988 48.9433 258.953L49.2377 258.789C49.307 258.754 49.411 258.754 49.4803 258.789L50.433 259.343C50.5022 259.378 50.5022 259.447 50.433 259.481L50.1385 259.646C50.0692 259.681 49.9653 259.681 49.896 259.646ZM51.3597 260.486L50.407 259.932C50.3377 259.897 50.3377 259.828 50.407 259.793L50.7015 259.629C50.7707 259.594 50.8747 259.594 50.944 259.629L51.8967 260.183C51.966 260.218 51.966 260.287 51.8967 260.322L51.6022 260.486C51.5329 260.521 51.429 260.521 51.3597 260.486ZM52.8147 261.326L51.862 260.772C51.7927 260.737 51.7927 260.668 51.862 260.633L52.1565 260.469C52.2258 260.434 52.3297 260.434 52.399 260.469L53.3517 261.023C53.421 261.058 53.421 261.127 53.3517 261.162L53.0572 261.326C52.9879 261.361 52.884 261.361 52.8147 261.326ZM54.2784 262.175L53.3257 261.621C53.2564 261.586 53.2564 261.517 53.3257 261.482L53.6202 261.318C53.6895 261.283 53.7934 261.283 53.8627 261.318L54.8154 261.872C54.8847 261.907 54.8847 261.976 54.8154 262.01L54.5209 262.175C54.4517 262.21 54.3477 262.21 54.2784 262.175ZM38.221 252.899L37.2683 252.345C37.199 252.31 37.199 252.241 37.2683 252.206L37.5627 252.042C37.632 252.007 37.736 252.007 37.8053 252.042L38.758 252.596C38.8273 252.631 38.8273 252.7 38.758 252.735L38.4635 252.899C38.3942 252.934 38.2903 252.934 38.221 252.899ZM44.786 255.922L43.842 255.376C43.842 255.376 43.8073 255.324 43.842 255.307L44.786 254.761C44.786 254.761 44.8726 254.744 44.9073 254.761L45.8513 255.307C45.8513 255.307 45.8859 255.359 45.8513 255.376L44.9073 255.922C44.9073 255.922 44.8206 255.939 44.786 255.922ZM45.9726 256.615L45.0285 256.069C45.0285 256.069 44.9939 256.017 45.0285 256L45.9726 255.454C45.9726 255.454 46.0592 255.437 46.0938 255.454L47.0379 256C47.0379 256 47.0725 256.052 47.0379 256.069L46.0938 256.615C46.0938 256.615 46.0072 256.632 45.9726 256.615ZM47.1678 257.299L46.2237 256.753C46.2237 256.753 46.1891 256.701 46.2237 256.684L47.1678 256.138C47.1678 256.138 47.2544 256.121 47.289 256.138L48.2331 256.684C48.2331 256.684 48.2677 256.736 48.2331 256.753L47.289 257.299C47.289 257.299 47.2024 257.316 47.1678 257.299ZM48.363 257.992L47.4189 257.446C47.4189 257.446 47.3843 257.394 47.4189 257.377L48.363 256.831C48.363 256.831 48.4496 256.814 48.4842 256.831L49.4283 257.377C49.4283 257.377 49.4629 257.429 49.4283 257.446L48.4842 257.992C48.4842 257.992 48.3976 258.009 48.363 257.992ZM49.5582 258.685L48.6142 258.139C48.6142 258.139 48.5795 258.087 48.6142 258.07L49.5582 257.524C49.5582 257.524 49.6448 257.507 49.6795 257.524L50.6235 258.07C50.6235 258.07 50.6581 258.122 50.6235 258.139L49.6795 258.685C49.6795 258.685 49.5928 258.702 49.5582 258.685ZM50.7534 259.369L49.8094 258.823C49.8094 258.823 49.7747 258.771 49.8094 258.754L50.7534 258.208C50.7534 258.208 50.84 258.191 50.8747 258.208L51.8187 258.754C51.8187 258.754 51.8534 258.806 51.8187 258.823L50.8747 259.369C50.8747 259.369 50.7881 259.386 50.7534 259.369ZM51.9486 260.062L51.0046 259.516C51.0046 259.516 50.9699 259.464 51.0046 259.447L51.9486 258.901C51.9486 258.901 52.0352 258.884 52.0699 258.901L53.0139 259.447C53.0139 259.447 53.0486 259.499 53.0139 259.516L52.0699 260.062C52.0699 260.062 51.9833 260.079 51.9486 260.062ZM53.1438 260.746L52.1998 260.2C52.1998 260.2 52.1652 260.148 52.1998 260.131L53.1438 259.585C53.1438 259.585 53.2305 259.568 53.2651 259.585L54.2091 260.131C54.2091 260.131 54.2438 260.183 54.2091 260.2L53.2651 260.746C53.2651 260.746 53.1785 260.763 53.1438 260.746ZM54.9973 261.82L53.395 260.893C53.395 260.893 53.3604 260.841 53.395 260.824L54.3391 260.278C54.3391 260.278 54.4257 260.261 54.4603 260.278L56.0626 261.205C56.0626 261.205 56.0972 261.257 56.0626 261.274L55.1185 261.82C55.1185 261.82 55.0319 261.837 54.9973 261.82ZM47.1678 251.782L46.2237 251.236C46.2237 251.236 46.1891 251.184 46.2237 251.167L47.1678 250.621C47.1678 250.621 47.2544 250.604 47.289 250.621L48.2331 251.167C48.2331 251.167 48.2677 251.219 48.2331 251.236L47.289 251.782C47.289 251.782 47.2024 251.799 47.1678 251.782ZM48.363 252.475L47.4189 251.929C47.4189 251.929 47.3843 251.877 47.4189 251.86L48.363 251.314C48.363 251.314 48.4496 251.297 48.4842 251.314L49.4283 251.86C49.4283 251.86 49.4629 251.912 49.4283 251.929L48.4842 252.475C48.4842 252.475 48.3976 252.492 48.363 252.475ZM49.5582 253.168L48.6142 252.622C48.6142 252.622 48.5795 252.57 48.6142 252.553L49.5582 252.007C49.5582 252.007 49.6448 251.99 49.6795 252.007L50.6235 252.553C50.6235 252.553 50.6581 252.605 50.6235 252.622L49.6795 253.168C49.6795 253.168 49.5928 253.185 49.5582 253.168ZM56.7295 257.299L55.7854 256.753C55.7854 256.753 55.7508 256.701 55.7854 256.684L56.7295 256.138C56.7295 256.138 56.8161 256.121 56.8507 256.138L57.7948 256.684C57.7948 256.684 57.8294 256.736 57.7948 256.753L56.8507 257.299C56.8507 257.299 56.7641 257.316 56.7295 257.299ZM57.916 257.992L56.972 257.446C56.972 257.446 56.9374 257.394 56.972 257.377L57.916 256.831C57.916 256.831 58.0027 256.814 58.0373 256.831L58.9813 257.377C58.9813 257.377 59.016 257.429 58.9813 257.446L58.0373 257.992C58.0373 257.992 57.9507 258.009 57.916 257.992ZM59.7781 259.066L58.1759 258.139C58.1759 258.139 58.1412 258.087 58.1759 258.07L59.1199 257.524C59.1199 257.524 59.2065 257.507 59.2412 257.524L60.8435 258.451C60.8435 258.451 60.8781 258.503 60.8435 258.52L59.8994 259.066C59.8994 259.066 59.8128 259.083 59.7781 259.066ZM56.3138 259.975L57.2578 260.521C57.2578 260.521 57.2925 260.573 57.2578 260.59L56.3138 261.136C56.3138 261.136 56.2271 261.153 56.1925 261.136L55.2485 260.59C55.2485 260.59 55.2138 260.538 55.2485 260.521L56.1925 259.975C56.1925 259.975 56.2791 259.958 56.3138 259.975ZM55.1185 259.291L56.0626 259.837C56.0626 259.837 56.0972 259.888 56.0626 259.906L55.1185 260.451C55.1185 260.451 55.0319 260.469 54.9973 260.451L54.0532 259.906C54.0532 259.906 54.0186 259.854 54.0532 259.837L54.9973 259.291C54.9973 259.291 55.0839 259.274 55.1185 259.291ZM53.9233 258.598L54.8674 259.144C54.8674 259.144 54.902 259.196 54.8674 259.213L53.9233 259.759C53.9233 259.759 53.8367 259.776 53.8021 259.759L52.858 259.213C52.858 259.213 52.8234 259.161 52.858 259.144L53.8021 258.598C53.8021 258.598 53.8887 258.581 53.9233 258.598ZM52.7281 257.905L53.6722 258.451C53.6722 258.451 53.7068 258.503 53.6722 258.52L52.7281 259.066C52.7281 259.066 52.6415 259.083 52.6069 259.066L51.6628 258.52C51.6628 258.52 51.6282 258.468 51.6628 258.451L52.6069 257.905C52.6069 257.905 52.6935 257.888 52.7281 257.905ZM51.5329 257.221L52.4769 257.767C52.4769 257.767 52.5116 257.819 52.4769 257.836L51.5329 258.381C51.5329 258.381 51.4463 258.399 51.4116 258.381L50.4676 257.836C50.4676 257.836 50.433 257.784 50.4676 257.767L51.4116 257.221C51.4116 257.221 51.4983 257.204 51.5329 257.221ZM50.3464 256.528L51.2904 257.074C51.2904 257.074 51.325 257.126 51.2904 257.143L50.3464 257.689C50.3464 257.689 50.2597 257.706 50.2251 257.689L49.2811 257.143C49.2811 257.143 49.2464 257.091 49.2811 257.074L50.2251 256.528C50.2251 256.528 50.3117 256.511 50.3464 256.528ZM49.1511 255.835L50.0952 256.381C50.0952 256.381 50.1298 256.433 50.0952 256.45L49.1511 256.996C49.1511 256.996 49.0645 257.013 49.0299 256.996L48.0858 256.45C48.0858 256.45 48.0512 256.398 48.0858 256.381L49.0299 255.835C49.0299 255.835 49.1165 255.818 49.1511 255.835ZM47.9559 255.151L48.9 255.697C48.9 255.697 48.9346 255.749 48.9 255.766L47.9559 256.312C47.9559 256.312 47.8693 256.329 47.8347 256.312L46.8906 255.766C46.8906 255.766 46.856 255.714 46.8906 255.697L47.8347 255.151C47.8347 255.151 47.9213 255.134 47.9559 255.151ZM46.7607 254.458L47.7048 255.004C47.7048 255.004 47.7394 255.056 47.7048 255.073L46.7607 255.619C46.7607 255.619 46.6741 255.636 46.6395 255.619L45.6954 255.073C45.6954 255.073 45.6608 255.021 45.6954 255.004L46.6395 254.458C46.6395 254.458 46.7261 254.441 46.7607 254.458ZM45.5655 253.774L46.5095 254.319C46.5095 254.319 46.5442 254.371 46.5095 254.389L45.5655 254.934C45.5655 254.934 45.4789 254.952 45.4442 254.934L44.5002 254.389C44.5002 254.389 44.4655 254.337 44.5002 254.319L45.4442 253.774C45.4442 253.774 45.5308 253.757 45.5655 253.774ZM47.289 253.384L48.2331 253.93C48.2331 253.93 48.2677 253.982 48.2331 253.999L47.289 254.545C47.289 254.545 47.2024 254.562 47.1678 254.545L46.2237 253.999C46.2237 253.999 46.1891 253.947 46.2237 253.93L47.1678 253.384C47.1678 253.384 47.2544 253.367 47.289 253.384ZM48.4842 254.077L49.4283 254.623C49.4283 254.623 49.4629 254.675 49.4283 254.692L48.4842 255.238C48.4842 255.238 48.3976 255.255 48.363 255.238L47.4189 254.692C47.4189 254.692 47.3843 254.64 47.4189 254.623L48.363 254.077C48.363 254.077 48.4496 254.06 48.4842 254.077ZM49.6795 254.77L50.6235 255.316C50.6235 255.316 50.6581 255.367 50.6235 255.385L49.6795 255.93C49.6795 255.93 49.5928 255.948 49.5582 255.93L48.6142 255.385C48.6142 255.385 48.5795 255.333 48.6142 255.316L49.5582 254.77C49.5582 254.77 49.6448 254.753 49.6795 254.77ZM50.8747 255.454L51.8187 256C51.8187 256 51.8534 256.052 51.8187 256.069L50.8747 256.615C50.8747 256.615 50.7881 256.632 50.7534 256.615L49.8094 256.069C49.8094 256.069 49.7747 256.017 49.8094 256L50.7534 255.454C50.7534 255.454 50.84 255.437 50.8747 255.454ZM52.0699 256.147L53.0139 256.693C53.0139 256.693 53.0486 256.745 53.0139 256.762L52.0699 257.308C52.0699 257.308 51.9833 257.325 51.9486 257.308L51.0046 256.762C51.0046 256.762 50.9699 256.71 51.0046 256.693L51.9486 256.147C51.9486 256.147 52.0352 256.13 52.0699 256.147ZM53.2651 256.831L54.2091 257.377C54.2091 257.377 54.2438 257.429 54.2091 257.446L53.2651 257.992C53.2651 257.992 53.1785 258.009 53.1438 257.992L52.1998 257.446C52.1998 257.446 52.1652 257.394 52.1998 257.377L53.1438 256.831C53.1438 256.831 53.2305 256.814 53.2651 256.831ZM54.4603 257.524L55.4044 258.07C55.4044 258.07 55.439 258.122 55.4044 258.139L54.4603 258.685C54.4603 258.685 54.3737 258.702 54.3391 258.685L53.395 258.139C53.395 258.139 53.3604 258.087 53.395 258.07L54.3391 257.524C54.3391 257.524 54.4257 257.507 54.4603 257.524ZM55.6469 258.217L56.5909 258.763C56.5909 258.763 56.6256 258.815 56.5909 258.832L55.6469 259.378C55.6469 259.378 55.5603 259.395 55.5256 259.378L54.5816 258.832C54.5816 258.832 54.5469 258.78 54.5816 258.763L55.5256 258.217C55.5256 258.217 55.6122 258.2 55.6469 258.217ZM56.8421 258.901L58.4444 259.828C58.4444 259.828 58.479 259.88 58.4444 259.897L57.5003 260.443C57.5003 260.443 57.4137 260.46 57.3791 260.443L55.7768 259.516C55.7768 259.516 55.7421 259.464 55.7768 259.447L56.7208 258.901C56.7208 258.901 56.8074 258.884 56.8421 258.901ZM46.0938 252.7L47.0379 253.246C47.0379 253.246 47.0725 253.298 47.0379 253.315L46.0938 253.86C46.0938 253.86 46.0072 253.878 45.9726 253.86L45.0285 253.315C45.0285 253.315 44.9939 253.263 45.0285 253.246L45.9726 252.7C45.9726 252.7 46.0592 252.683 46.0938 252.7ZM41.3216 251.314L42.2657 251.86C42.2657 251.86 42.3003 251.912 42.2657 251.929L41.3216 252.475C41.3216 252.475 41.235 252.492 41.2004 252.475L40.2563 251.929C40.2563 251.929 40.2217 251.877 40.2563 251.86L41.2004 251.314C41.2004 251.314 41.287 251.297 41.3216 251.314ZM42.5168 252.007L43.4609 252.553C43.4609 252.553 43.4955 252.605 43.4609 252.622L42.5168 253.168C42.5168 253.168 42.4302 253.185 42.3956 253.168L41.4515 252.622C41.4515 252.622 41.4169 252.57 41.4515 252.553L42.3956 252.007C42.3956 252.007 42.4822 251.99 42.5168 252.007ZM40.1264 250.63L41.0704 251.176C41.0704 251.176 41.1051 251.228 41.0704 251.245L40.1264 251.79C40.1264 251.79 40.0398 251.808 40.0051 251.79L39.0611 251.245C39.0611 251.245 39.0265 251.193 39.0611 251.176L40.0051 250.63C40.0051 250.63 40.0918 250.613 40.1264 250.63ZM40.1264 252.007L41.0704 252.553C41.0704 252.553 41.1051 252.605 41.0704 252.622L40.1264 253.168C40.1264 253.168 40.0398 253.185 40.0051 253.168L39.0611 252.622C39.0611 252.622 39.0265 252.57 39.0611 252.553L40.0051 252.007C40.0051 252.007 40.0918 251.99 40.1264 252.007ZM44.8986 249.253L45.8426 249.798C45.8426 249.798 45.8773 249.85 45.8426 249.868L45.4356 250.102C45.4356 250.102 45.349 250.119 45.3143 250.102L44.3703 249.556C44.3703 249.556 44.3356 249.504 44.3703 249.487L44.7773 249.253C44.7773 249.253 44.864 249.236 44.8986 249.253ZM46.0938 249.937L47.0379 250.483C47.0379 250.483 47.0725 250.535 47.0379 250.552L46.6308 250.786C46.6308 250.786 46.5442 250.803 46.5095 250.786L45.5655 250.24C45.5655 250.24 45.5308 250.188 45.5655 250.171L45.9726 249.937C45.9726 249.937 46.0592 249.92 46.0938 249.937ZM43.7034 248.56L44.6474 249.106C44.6474 249.106 44.6821 249.158 44.6474 249.175L44.2404 249.409C44.2404 249.409 44.1538 249.426 44.1191 249.409L43.1751 248.863C43.1751 248.863 43.1404 248.811 43.1751 248.794L43.5821 248.56C43.5821 248.56 43.6687 248.543 43.7034 248.56ZM44.2663 249.617L45.2104 250.162C45.2104 250.162 45.245 250.214 45.2104 250.232L44.8033 250.465C44.8033 250.465 44.7167 250.483 44.6821 250.465L43.738 249.92C43.738 249.92 43.7034 249.868 43.738 249.85L44.1451 249.617C44.1451 249.617 44.2317 249.599 44.2663 249.617ZM41.3216 252.7L42.2657 253.246C42.2657 253.246 42.3003 253.298 42.2657 253.315L41.3216 253.86C41.3216 253.86 41.235 253.878 41.2004 253.86L40.2563 253.315C40.2563 253.315 40.2217 253.263 40.2563 253.246L41.2004 252.7C41.2004 252.7 41.287 252.683 41.3216 252.7ZM38.9312 251.314L39.8752 251.86C39.8752 251.86 39.9099 251.912 39.8752 251.929L38.9312 252.475C38.9312 252.475 38.8446 252.492 38.8099 252.475L37.8659 251.929C37.8659 251.929 37.8312 251.877 37.8659 251.86L38.8099 251.314C38.8099 251.314 38.8965 251.297 38.9312 251.314ZM44.249 254.242L42.6467 253.315C42.6467 253.315 42.6121 253.263 42.6467 253.246L43.6514 252.665L44.786 252.007C44.786 252.007 44.8726 251.99 44.9073 252.007L45.8513 252.553C45.8513 252.553 45.8859 252.605 45.8513 252.622L44.7773 253.246C44.7773 253.246 44.7427 253.298 44.7773 253.315L45.323 253.627C45.323 253.627 45.3576 253.679 45.323 253.696L44.3789 254.242C44.3789 254.242 44.2923 254.259 44.2577 254.242H44.249ZM46.0938 251.314L48.5709 252.743C48.5709 252.743 48.6055 252.795 48.5709 252.812L47.6268 253.358C47.6268 253.358 47.5402 253.375 47.5055 253.358L45.0285 251.929C45.0285 251.929 44.9939 251.877 45.0285 251.86L45.9726 251.314C45.9726 251.314 46.0592 251.297 46.0938 251.314ZM49.9826 253.557L50.9266 254.103C50.9266 254.103 50.9613 254.155 50.9266 254.172L49.9826 254.718C49.9826 254.718 49.896 254.735 49.8613 254.718L48.9173 254.172C48.9173 254.172 48.8826 254.12 48.9173 254.103L49.8613 253.557C49.8613 253.557 49.9479 253.54 49.9826 253.557ZM51.1778 254.25L52.1219 254.796C52.1219 254.796 52.1565 254.848 52.1219 254.865L51.1778 255.411C51.1778 255.411 51.0912 255.428 51.0566 255.411L50.1125 254.865C50.1125 254.865 50.0779 254.813 50.1125 254.796L51.0566 254.25C51.0566 254.25 51.1432 254.233 51.1778 254.25ZM52.3644 254.943L53.3084 255.489C53.3084 255.489 53.343 255.541 53.3084 255.558L52.3644 256.104C52.3644 256.104 52.2777 256.121 52.2431 256.104L51.2991 255.558C51.2991 255.558 51.2644 255.506 51.2991 255.489L52.2431 254.943C52.2431 254.943 52.3297 254.926 52.3644 254.943ZM53.5596 255.627L54.5036 256.173C54.5036 256.173 54.5383 256.225 54.5036 256.242L53.5596 256.788C53.5596 256.788 53.473 256.805 53.4383 256.788L52.4943 256.242C52.4943 256.242 52.4596 256.19 52.4943 256.173L53.4383 255.627C53.4383 255.627 53.5249 255.61 53.5596 255.627ZM54.7548 256.32L55.6988 256.866C55.6988 256.866 55.7335 256.918 55.6988 256.935L54.7548 257.481C54.7548 257.481 54.6682 257.498 54.6335 257.481L53.6895 256.935C53.6895 256.935 53.6548 256.883 53.6895 256.866L54.6335 256.32C54.6335 256.32 54.7201 256.303 54.7548 256.32ZM55.95 257.004L56.894 257.55C56.894 257.55 56.9287 257.602 56.894 257.619L55.95 258.165C55.95 258.165 55.8634 258.182 55.8287 258.165L54.8847 257.619C54.8847 257.619 54.8501 257.567 54.8847 257.55L55.8287 257.004C55.8287 257.004 55.9154 256.987 55.95 257.004ZM57.1452 257.697L58.0893 258.243C58.0893 258.243 58.1239 258.295 58.0893 258.312L57.1452 258.858C57.1452 258.858 57.0586 258.875 57.024 258.858L56.0799 258.312C56.0799 258.312 56.0453 258.26 56.0799 258.243L57.024 257.697C57.024 257.697 57.1106 257.68 57.1452 257.697ZM58.3404 258.39L59.6482 259.144C59.6482 259.144 59.6829 259.196 59.6482 259.213L58.7042 259.759C58.7042 259.759 58.6176 259.776 58.5829 259.759L57.2751 259.005C57.2751 259.005 57.2405 258.953 57.2751 258.936L58.2192 258.39C58.2192 258.39 58.3058 258.373 58.3404 258.39ZM48.822 252.89L49.7661 253.436C49.7661 253.436 49.8007 253.488 49.7661 253.505L48.822 254.051C48.822 254.051 48.7354 254.068 48.7008 254.051L47.7567 253.505C47.7567 253.505 47.7221 253.453 47.7567 253.436L48.7008 252.89C48.7008 252.89 48.7874 252.873 48.822 252.89ZM43.5908 255.238L41.4515 254.008C41.4515 254.008 41.4169 253.956 41.4515 253.938L42.3956 253.393C42.3956 253.393 42.4822 253.375 42.5168 253.393L44.6561 254.623C44.6561 254.623 44.6907 254.675 44.6561 254.692L43.712 255.238C43.712 255.238 43.6254 255.255 43.5908 255.238ZM55.5343 256.615L49.818 253.315C49.818 253.315 49.7834 253.263 49.818 253.246L50.7621 252.7C50.7621 252.7 50.8487 252.683 50.8833 252.7L56.5996 256C56.5996 256 56.6342 256.052 56.5996 256.069L55.6555 256.615C55.6555 256.615 55.5689 256.632 55.5343 256.615Z" fill="#48A27E"/>
<path d="M39.9185 253.574L40.213 253.409C40.2823 253.375 40.2823 253.306 40.213 253.271L39.2603 252.717C39.191 252.682 39.0871 252.682 39.0178 252.717L38.7233 252.881C38.654 252.916 38.654 252.985 38.7233 253.02L39.676 253.574C39.7453 253.609 39.8492 253.609 39.9185 253.574ZM41.1397 254.414L40.187 253.86C40.1177 253.825 40.1177 253.756 40.187 253.721L40.4815 253.557C40.5508 253.522 40.6547 253.522 40.724 253.557L41.6767 254.111C41.746 254.146 41.746 254.215 41.6767 254.25L41.3822 254.414C41.313 254.449 41.209 254.449 41.1397 254.414ZM42.5948 255.254L41.6421 254.7C41.5728 254.665 41.5728 254.596 41.6421 254.561L41.9365 254.397C42.0058 254.362 42.1098 254.362 42.179 254.397L43.1318 254.951C43.201 254.986 43.201 255.055 43.1318 255.09L42.8373 255.254C42.768 255.289 42.6641 255.289 42.5948 255.254ZM44.0585 256.094L43.1058 255.54C43.0365 255.505 43.0365 255.436 43.1058 255.402L43.4002 255.237C43.4695 255.202 43.5735 255.202 43.6428 255.237L44.5955 255.791C44.6648 255.826 44.6648 255.895 44.5955 255.93L44.301 256.094C44.2317 256.129 44.1278 256.129 44.0585 256.094ZM45.5222 256.943L44.5695 256.389C44.5002 256.354 44.5002 256.285 44.5695 256.25L44.864 256.086C44.9332 256.051 45.0372 256.051 45.1065 256.086L46.0592 256.64C46.1285 256.675 46.1285 256.744 46.0592 256.779L45.7647 256.943C45.6954 256.978 45.5915 256.978 45.5222 256.943ZM46.9772 257.783L46.0245 257.229C45.9552 257.194 45.9552 257.125 46.0245 257.09L46.319 256.926C46.3883 256.891 46.4922 256.891 46.5615 256.926L47.5142 257.48C47.5835 257.515 47.5835 257.584 47.5142 257.619L47.2197 257.783C47.1504 257.818 47.0465 257.818 46.9772 257.783ZM48.4409 258.623L47.4882 258.069C47.4189 258.034 47.4189 257.965 47.4882 257.931L47.7827 257.766C47.852 257.731 47.9559 257.731 48.0252 257.766L48.9779 258.32C49.0472 258.355 49.0472 258.424 48.9779 258.459L48.6834 258.623C48.6142 258.658 48.5102 258.658 48.4409 258.623ZM49.896 259.472L48.9433 258.918C48.874 258.883 48.874 258.814 48.9433 258.779L49.2377 258.615C49.307 258.58 49.411 258.58 49.4803 258.615L50.433 259.169C50.5022 259.204 50.5022 259.273 50.433 259.308L50.1385 259.472C50.0692 259.507 49.9653 259.507 49.896 259.472ZM51.3597 260.312L50.407 259.758C50.3377 259.723 50.3377 259.654 50.407 259.619L50.7015 259.455C50.7707 259.42 50.8747 259.42 50.944 259.455L51.8967 260.009C51.966 260.044 51.966 260.113 51.8967 260.148L51.6022 260.312C51.5329 260.347 51.429 260.347 51.3597 260.312ZM52.8147 261.152L51.862 260.598C51.7927 260.563 51.7927 260.494 51.862 260.46L52.1565 260.295C52.2258 260.26 52.3297 260.26 52.399 260.295L53.3517 260.849C53.421 260.884 53.421 260.953 53.3517 260.988L53.0572 261.152C52.9879 261.187 52.884 261.187 52.8147 261.152ZM54.2784 262.001L53.3257 261.447C53.2564 261.412 53.2564 261.343 53.3257 261.308L53.6202 261.144C53.6895 261.109 53.7934 261.109 53.8627 261.144L54.8154 261.698C54.8847 261.733 54.8847 261.802 54.8154 261.837L54.5209 262.001C54.4517 262.036 54.3477 262.036 54.2784 262.001ZM38.221 252.725L37.2683 252.171C37.199 252.136 37.199 252.067 37.2683 252.032L37.5627 251.868C37.632 251.833 37.736 251.833 37.8053 251.868L38.758 252.422C38.8273 252.457 38.8273 252.526 38.758 252.561L38.4635 252.725C38.3942 252.76 38.2903 252.76 38.221 252.725ZM44.786 255.748L43.842 255.202C43.842 255.202 43.8073 255.15 43.842 255.133L44.786 254.587C44.786 254.587 44.8726 254.57 44.9073 254.587L45.8513 255.133C45.8513 255.133 45.8859 255.185 45.8513 255.202L44.9073 255.748C44.9073 255.748 44.8206 255.765 44.786 255.748ZM45.9726 256.441L45.0285 255.895C45.0285 255.895 44.9939 255.843 45.0285 255.826L45.9726 255.28C45.9726 255.28 46.0592 255.263 46.0938 255.28L47.0379 255.826C47.0379 255.826 47.0725 255.878 47.0379 255.895L46.0938 256.441C46.0938 256.441 46.0072 256.458 45.9726 256.441ZM47.1678 257.125L46.2237 256.579C46.2237 256.579 46.1891 256.527 46.2237 256.51L47.1678 255.964C47.1678 255.964 47.2544 255.947 47.289 255.964L48.2331 256.51C48.2331 256.51 48.2677 256.562 48.2331 256.579L47.289 257.125C47.289 257.125 47.2024 257.142 47.1678 257.125ZM48.363 257.818L47.4189 257.272C47.4189 257.272 47.3843 257.22 47.4189 257.203L48.363 256.657C48.363 256.657 48.4496 256.64 48.4842 256.657L49.4283 257.203C49.4283 257.203 49.4629 257.255 49.4283 257.272L48.4842 257.818C48.4842 257.818 48.3976 257.835 48.363 257.818ZM49.5582 258.511L48.6142 257.965C48.6142 257.965 48.5795 257.913 48.6142 257.896L49.5582 257.35C49.5582 257.35 49.6448 257.333 49.6795 257.35L50.6235 257.896C50.6235 257.896 50.6581 257.948 50.6235 257.965L49.6795 258.511C49.6795 258.511 49.5928 258.528 49.5582 258.511ZM50.7534 259.195L49.8094 258.649C49.8094 258.649 49.7747 258.597 49.8094 258.58L50.7534 258.034C50.7534 258.034 50.84 258.017 50.8747 258.034L51.8187 258.58C51.8187 258.58 51.8534 258.632 51.8187 258.649L50.8747 259.195C50.8747 259.195 50.7881 259.212 50.7534 259.195ZM51.9486 259.888L51.0046 259.342C51.0046 259.342 50.9699 259.29 51.0046 259.273L51.9486 258.727C51.9486 258.727 52.0352 258.71 52.0699 258.727L53.0139 259.273C53.0139 259.273 53.0486 259.325 53.0139 259.342L52.0699 259.888C52.0699 259.888 51.9833 259.905 51.9486 259.888ZM53.1438 260.581L52.1998 260.035C52.1998 260.035 52.1652 259.983 52.1998 259.966L53.1438 259.42C53.1438 259.42 53.2305 259.403 53.2651 259.42L54.2091 259.966C54.2091 259.966 54.2438 260.018 54.2091 260.035L53.2651 260.581C53.2651 260.581 53.1785 260.598 53.1438 260.581ZM54.9973 261.646L53.395 260.719C53.395 260.719 53.3604 260.667 53.395 260.65L54.3391 260.104C54.3391 260.104 54.4257 260.087 54.4603 260.104L56.0626 261.031C56.0626 261.031 56.0972 261.083 56.0626 261.1L55.1185 261.646C55.1185 261.646 55.0319 261.663 54.9973 261.646ZM47.1678 251.608L46.2237 251.062C46.2237 251.062 46.1891 251.01 46.2237 250.993L47.1678 250.447C47.1678 250.447 47.2544 250.43 47.289 250.447L48.2331 250.993C48.2331 250.993 48.2677 251.045 48.2331 251.062L47.289 251.608C47.289 251.608 47.2024 251.625 47.1678 251.608ZM48.363 252.301L47.4189 251.755C47.4189 251.755 47.3843 251.703 47.4189 251.686L48.363 251.14C48.363 251.14 48.4496 251.123 48.4842 251.14L49.4283 251.686C49.4283 251.686 49.4629 251.738 49.4283 251.755L48.4842 252.301C48.4842 252.301 48.3976 252.318 48.363 252.301ZM49.5582 252.994L48.6142 252.448C48.6142 252.448 48.5795 252.396 48.6142 252.379L49.5582 251.833C49.5582 251.833 49.6448 251.816 49.6795 251.833L50.6235 252.379C50.6235 252.379 50.6581 252.431 50.6235 252.448L49.6795 252.994C49.6795 252.994 49.5928 253.011 49.5582 252.994ZM56.7295 257.125L55.7854 256.579C55.7854 256.579 55.7508 256.527 55.7854 256.51L56.7295 255.964C56.7295 255.964 56.8161 255.947 56.8507 255.964L57.7948 256.51C57.7948 256.51 57.8294 256.562 57.7948 256.579L56.8507 257.125C56.8507 257.125 56.7641 257.142 56.7295 257.125ZM57.916 257.818L56.972 257.272C56.972 257.272 56.9374 257.22 56.972 257.203L57.916 256.657C57.916 256.657 58.0027 256.64 58.0373 256.657L58.9813 257.203C58.9813 257.203 59.016 257.255 58.9813 257.272L58.0373 257.818C58.0373 257.818 57.9507 257.835 57.916 257.818ZM59.7781 258.892L58.1759 257.965C58.1759 257.965 58.1412 257.913 58.1759 257.896L59.1199 257.35C59.1199 257.35 59.2065 257.333 59.2412 257.35L60.8435 258.277C60.8435 258.277 60.8781 258.329 60.8435 258.346L59.8994 258.892C59.8994 258.892 59.8128 258.909 59.7781 258.892ZM56.3138 259.801L57.2578 260.347C57.2578 260.347 57.2925 260.399 57.2578 260.416L56.3138 260.962C56.3138 260.962 56.2271 260.979 56.1925 260.962L55.2485 260.416C55.2485 260.416 55.2138 260.364 55.2485 260.347L56.1925 259.801C56.1925 259.801 56.2791 259.784 56.3138 259.801ZM55.1185 259.117L56.0626 259.663C56.0626 259.663 56.0972 259.715 56.0626 259.732L55.1185 260.278C55.1185 260.278 55.0319 260.295 54.9973 260.278L54.0532 259.732C54.0532 259.732 54.0186 259.68 54.0532 259.663L54.9973 259.117C54.9973 259.117 55.0839 259.1 55.1185 259.117ZM53.9233 258.424L54.8674 258.97C54.8674 258.97 54.902 259.022 54.8674 259.039L53.9233 259.585C53.9233 259.585 53.8367 259.602 53.8021 259.585L52.858 259.039C52.858 259.039 52.8234 258.987 52.858 258.97L53.8021 258.424C53.8021 258.424 53.8887 258.407 53.9233 258.424ZM52.7281 257.731L53.6722 258.277C53.6722 258.277 53.7068 258.329 53.6722 258.346L52.7281 258.892C52.7281 258.892 52.6415 258.909 52.6069 258.892L51.6628 258.346C51.6628 258.346 51.6282 258.294 51.6628 258.277L52.6069 257.731C52.6069 257.731 52.6935 257.714 52.7281 257.731ZM51.5329 257.047L52.4769 257.593C52.4769 257.593 52.5116 257.645 52.4769 257.662L51.5329 258.208C51.5329 258.208 51.4463 258.225 51.4116 258.208L50.4676 257.662C50.4676 257.662 50.433 257.61 50.4676 257.593L51.4116 257.047C51.4116 257.047 51.4983 257.03 51.5329 257.047ZM50.3464 256.354L51.2904 256.9C51.2904 256.9 51.325 256.952 51.2904 256.969L50.3464 257.515C50.3464 257.515 50.2597 257.532 50.2251 257.515L49.2811 256.969C49.2811 256.969 49.2464 256.917 49.2811 256.9L50.2251 256.354C50.2251 256.354 50.3117 256.337 50.3464 256.354ZM49.1511 255.661L50.0952 256.207C50.0952 256.207 50.1298 256.259 50.0952 256.276L49.1511 256.822C49.1511 256.822 49.0645 256.839 49.0299 256.822L48.0858 256.276C48.0858 256.276 48.0512 256.224 48.0858 256.207L49.0299 255.661C49.0299 255.661 49.1165 255.644 49.1511 255.661ZM47.9559 254.977L48.9 255.523C48.9 255.523 48.9346 255.575 48.9 255.592L47.9559 256.138C47.9559 256.138 47.8693 256.155 47.8347 256.138L46.8906 255.592C46.8906 255.592 46.856 255.54 46.8906 255.523L47.8347 254.977C47.8347 254.977 47.9213 254.96 47.9559 254.977ZM46.7607 254.284L47.7048 254.83C47.7048 254.83 47.7394 254.882 47.7048 254.899L46.7607 255.445C46.7607 255.445 46.6741 255.462 46.6395 255.445L45.6954 254.899C45.6954 254.899 45.6608 254.847 45.6954 254.83L46.6395 254.284C46.6395 254.284 46.7261 254.267 46.7607 254.284ZM45.5655 253.6L46.5095 254.146C46.5095 254.146 46.5442 254.198 46.5095 254.215L45.5655 254.761C45.5655 254.761 45.4789 254.778 45.4442 254.761L44.5002 254.215C44.5002 254.215 44.4655 254.163 44.5002 254.146L45.4442 253.6C45.4442 253.6 45.5308 253.583 45.5655 253.6ZM47.289 253.21L48.2331 253.756C48.2331 253.756 48.2677 253.808 48.2331 253.825L47.289 254.371C47.289 254.371 47.2024 254.388 47.1678 254.371L46.2237 253.825C46.2237 253.825 46.1891 253.773 46.2237 253.756L47.1678 253.21C47.1678 253.21 47.2544 253.193 47.289 253.21ZM48.4842 253.903L49.4283 254.449C49.4283 254.449 49.4629 254.501 49.4283 254.518L48.4842 255.064C48.4842 255.064 48.3976 255.081 48.363 255.064L47.4189 254.518C47.4189 254.518 47.3843 254.466 47.4189 254.449L48.363 253.903C48.363 253.903 48.4496 253.886 48.4842 253.903ZM49.6795 254.596L50.6235 255.142C50.6235 255.142 50.6581 255.194 50.6235 255.211L49.6795 255.757C49.6795 255.757 49.5928 255.774 49.5582 255.757L48.6142 255.211C48.6142 255.211 48.5795 255.159 48.6142 255.142L49.5582 254.596C49.5582 254.596 49.6448 254.579 49.6795 254.596ZM50.8747 255.28L51.8187 255.826C51.8187 255.826 51.8534 255.878 51.8187 255.895L50.8747 256.441C50.8747 256.441 50.7881 256.458 50.7534 256.441L49.8094 255.895C49.8094 255.895 49.7747 255.843 49.8094 255.826L50.7534 255.28C50.7534 255.28 50.84 255.263 50.8747 255.28ZM52.0699 255.973L53.0139 256.519C53.0139 256.519 53.0486 256.571 53.0139 256.588L52.0699 257.134C52.0699 257.134 51.9833 257.151 51.9486 257.134L51.0046 256.588C51.0046 256.588 50.9699 256.536 51.0046 256.519L51.9486 255.973C51.9486 255.973 52.0352 255.956 52.0699 255.973ZM53.2651 256.657L54.2091 257.203C54.2091 257.203 54.2438 257.255 54.2091 257.272L53.2651 257.818C53.2651 257.818 53.1785 257.835 53.1438 257.818L52.1998 257.272C52.1998 257.272 52.1652 257.22 52.1998 257.203L53.1438 256.657C53.1438 256.657 53.2305 256.64 53.2651 256.657ZM54.4603 257.35L55.4044 257.896C55.4044 257.896 55.439 257.948 55.4044 257.965L54.4603 258.511C54.4603 258.511 54.3737 258.528 54.3391 258.511L53.395 257.965C53.395 257.965 53.3604 257.913 53.395 257.896L54.3391 257.35C54.3391 257.35 54.4257 257.333 54.4603 257.35ZM55.6469 258.043L56.5909 258.589C56.5909 258.589 56.6256 258.641 56.5909 258.658L55.6469 259.204C55.6469 259.204 55.5603 259.221 55.5256 259.204L54.5816 258.658C54.5816 258.658 54.5469 258.606 54.5816 258.589L55.5256 258.043C55.5256 258.043 55.6122 258.026 55.6469 258.043ZM56.8421 258.727L58.4444 259.654C58.4444 259.654 58.479 259.706 58.4444 259.723L57.5003 260.269C57.5003 260.269 57.4137 260.286 57.3791 260.269L55.7768 259.342C55.7768 259.342 55.7421 259.29 55.7768 259.273L56.7208 258.727C56.7208 258.727 56.8074 258.71 56.8421 258.727ZM46.0938 252.526L47.0379 253.072C47.0379 253.072 47.0725 253.124 47.0379 253.141L46.0938 253.687C46.0938 253.687 46.0072 253.704 45.9726 253.687L45.0285 253.141C45.0285 253.141 44.9939 253.089 45.0285 253.072L45.9726 252.526C45.9726 252.526 46.0592 252.509 46.0938 252.526ZM41.3216 251.149L42.2657 251.695C42.2657 251.695 42.3003 251.747 42.2657 251.764L41.3216 252.31C41.3216 252.31 41.235 252.327 41.2004 252.31L40.2563 251.764C40.2563 251.764 40.2217 251.712 40.2563 251.695L41.2004 251.149C41.2004 251.149 41.287 251.132 41.3216 251.149ZM42.5168 251.833L43.4609 252.379C43.4609 252.379 43.4955 252.431 43.4609 252.448L42.5168 252.994C42.5168 252.994 42.4302 253.011 42.3956 252.994L41.4515 252.448C41.4515 252.448 41.4169 252.396 41.4515 252.379L42.3956 251.833C42.3956 251.833 42.4822 251.816 42.5168 251.833ZM40.1264 250.456L41.0704 251.002C41.0704 251.002 41.1051 251.054 41.0704 251.071L40.1264 251.617C40.1264 251.617 40.0398 251.634 40.0051 251.617L39.0611 251.071C39.0611 251.071 39.0265 251.019 39.0611 251.002L40.0051 250.456C40.0051 250.456 40.0918 250.439 40.1264 250.456ZM40.1264 251.833L41.0704 252.379C41.0704 252.379 41.1051 252.431 41.0704 252.448L40.1264 252.994C40.1264 252.994 40.0398 253.011 40.0051 252.994L39.0611 252.448C39.0611 252.448 39.0265 252.396 39.0611 252.379L40.0051 251.833C40.0051 251.833 40.0918 251.816 40.1264 251.833ZM44.8986 249.079L45.8426 249.625C45.8426 249.625 45.8773 249.677 45.8426 249.694L45.4356 249.928C45.4356 249.928 45.349 249.945 45.3143 249.928L44.3703 249.382C44.3703 249.382 44.3356 249.33 44.3703 249.313L44.7773 249.079C44.7773 249.079 44.864 249.062 44.8986 249.079ZM46.0938 249.763L47.0379 250.309C47.0379 250.309 47.0725 250.361 47.0379 250.378L46.6308 250.612C46.6308 250.612 46.5442 250.629 46.5095 250.612L45.5655 250.066C45.5655 250.066 45.5308 250.014 45.5655 249.997L45.9726 249.763C45.9726 249.763 46.0592 249.746 46.0938 249.763ZM43.7034 248.386L44.6474 248.932C44.6474 248.932 44.6821 248.984 44.6474 249.001L44.2404 249.235C44.2404 249.235 44.1538 249.252 44.1191 249.235L43.1751 248.689C43.1751 248.689 43.1404 248.637 43.1751 248.62L43.5821 248.386C43.5821 248.386 43.6687 248.369 43.7034 248.386ZM44.2663 249.443L45.2104 249.988C45.2104 249.988 45.245 250.04 45.2104 250.058L44.8033 250.292C44.8033 250.292 44.7167 250.309 44.6821 250.292L43.738 249.746C43.738 249.746 43.7034 249.694 43.738 249.677L44.1451 249.443C44.1451 249.443 44.2317 249.425 44.2663 249.443ZM41.3216 252.526L42.2657 253.072C42.2657 253.072 42.3003 253.124 42.2657 253.141L41.3216 253.687C41.3216 253.687 41.235 253.704 41.2004 253.687L40.2563 253.141C40.2563 253.141 40.2217 253.089 40.2563 253.072L41.2004 252.526C41.2004 252.526 41.287 252.509 41.3216 252.526ZM38.9312 251.149L39.8752 251.695C39.8752 251.695 39.9099 251.747 39.8752 251.764L38.9312 252.31C38.9312 252.31 38.8446 252.327 38.8099 252.31L37.8659 251.764C37.8659 251.764 37.8312 251.712 37.8659 251.695L38.8099 251.149C38.8099 251.149 38.8965 251.132 38.9312 251.149ZM44.249 254.068L42.6467 253.141C42.6467 253.141 42.6121 253.089 42.6467 253.072L43.6514 252.491L44.786 251.833C44.786 251.833 44.8726 251.816 44.9073 251.833L45.8513 252.379C45.8513 252.379 45.8859 252.431 45.8513 252.448L44.7773 253.072C44.7773 253.072 44.7427 253.124 44.7773 253.141L45.323 253.453C45.323 253.453 45.3576 253.505 45.323 253.522L44.3789 254.068C44.3789 254.068 44.2923 254.085 44.2577 254.068H44.249ZM46.0938 251.149L48.5709 252.578C48.5709 252.578 48.6055 252.63 48.5709 252.647L47.6268 253.193C47.6268 253.193 47.5402 253.21 47.5055 253.193L45.0285 251.764C45.0285 251.764 44.9939 251.712 45.0285 251.695L45.9726 251.149C45.9726 251.149 46.0592 251.132 46.0938 251.149ZM49.9826 253.383L50.9266 253.929C50.9266 253.929 50.9613 253.981 50.9266 253.998L49.9826 254.544C49.9826 254.544 49.896 254.561 49.8613 254.544L48.9173 253.998C48.9173 253.998 48.8826 253.946 48.9173 253.929L49.8613 253.383C49.8613 253.383 49.9479 253.366 49.9826 253.383ZM51.1778 254.076L52.1219 254.622C52.1219 254.622 52.1565 254.674 52.1219 254.691L51.1778 255.237C51.1778 255.237 51.0912 255.254 51.0566 255.237L50.1125 254.691C50.1125 254.691 50.0779 254.639 50.1125 254.622L51.0566 254.076C51.0566 254.076 51.1432 254.059 51.1778 254.076ZM52.3644 254.769L53.3084 255.315C53.3084 255.315 53.343 255.367 53.3084 255.384L52.3644 255.93C52.3644 255.93 52.2777 255.947 52.2431 255.93L51.2991 255.384C51.2991 255.384 51.2644 255.332 51.2991 255.315L52.2431 254.769C52.2431 254.769 52.3297 254.752 52.3644 254.769ZM53.5596 255.453L54.5036 255.999C54.5036 255.999 54.5383 256.051 54.5036 256.068L53.5596 256.614C53.5596 256.614 53.473 256.631 53.4383 256.614L52.4943 256.068C52.4943 256.068 52.4596 256.016 52.4943 255.999L53.4383 255.453C53.4383 255.453 53.5249 255.436 53.5596 255.453ZM54.7548 256.146L55.6988 256.692C55.6988 256.692 55.7335 256.744 55.6988 256.761L54.7548 257.307C54.7548 257.307 54.6682 257.324 54.6335 257.307L53.6895 256.761C53.6895 256.761 53.6548 256.709 53.6895 256.692L54.6335 256.146C54.6335 256.146 54.7201 256.129 54.7548 256.146ZM55.95 256.839L56.894 257.385C56.894 257.385 56.9287 257.437 56.894 257.454L55.95 258C55.95 258 55.8634 258.017 55.8287 258L54.8847 257.454C54.8847 257.454 54.8501 257.402 54.8847 257.385L55.8287 256.839C55.8287 256.839 55.9154 256.822 55.95 256.839ZM57.1452 257.523L58.0893 258.069C58.0893 258.069 58.1239 258.121 58.0893 258.138L57.1452 258.684C57.1452 258.684 57.0586 258.701 57.024 258.684L56.0799 258.138C56.0799 258.138 56.0453 258.086 56.0799 258.069L57.024 257.523C57.024 257.523 57.1106 257.506 57.1452 257.523ZM58.3404 258.216L59.6482 258.97C59.6482 258.97 59.6829 259.022 59.6482 259.039L58.7042 259.585C58.7042 259.585 58.6176 259.602 58.5829 259.585L57.2751 258.831C57.2751 258.831 57.2405 258.779 57.2751 258.762L58.2192 258.216C58.2192 258.216 58.3058 258.199 58.3404 258.216ZM48.822 252.717L49.7661 253.262C49.7661 253.262 49.8007 253.314 49.7661 253.332L48.822 253.877C48.822 253.877 48.7354 253.894 48.7008 253.877L47.7567 253.332C47.7567 253.332 47.7221 253.28 47.7567 253.262L48.7008 252.717C48.7008 252.717 48.7874 252.699 48.822 252.717ZM43.5908 255.064L41.4515 253.834C41.4515 253.834 41.4169 253.782 41.4515 253.765L42.3956 253.219C42.3956 253.219 42.4822 253.202 42.5168 253.219L44.6561 254.449C44.6561 254.449 44.6907 254.501 44.6561 254.518L43.712 255.064C43.712 255.064 43.6254 255.081 43.5908 255.064ZM55.5343 256.441L49.818 253.141C49.818 253.141 49.7834 253.089 49.818 253.072L50.7621 252.526C50.7621 252.526 50.8487 252.509 50.8833 252.526L56.5996 255.826C56.5996 255.826 56.6342 255.878 56.5996 255.895L55.6555 256.441C55.6555 256.441 55.5689 256.458 55.5343 256.441Z" fill="#F1F9F4"/>
<path d="M52.5375 263.352H52.5201V263.344L52.9878 263.967C52.9878 263.967 52.6327 263.811 52.4249 263.699C52.1477 263.552 33.5786 252.188 33.5786 252.188L32.981 251.833C32.6692 251.574 32.4267 251.218 32.2968 250.794L28.2607 237.993C28.2607 237.993 28.6765 237.569 28.867 237.673L44.4654 246.836L47.5401 248.637C47.696 248.733 47.8172 248.88 47.8692 249.062L51.7407 262.209C51.7926 262.391 51.8706 262.556 51.9658 262.712C51.9918 262.763 52.0265 262.815 52.0611 262.859C52.165 262.997 52.2863 263.127 52.4162 263.24C52.4595 263.274 52.5028 263.309 52.5548 263.344L52.5375 263.352Z" fill="#0E8555"/>
<path d="M52.2431 263.604H52.2258V263.595L33.2756 252.44L32.678 252.085C32.3662 251.825 32.1237 251.47 31.9938 251.046L28.2176 238.21C28.157 238.002 28.3821 237.82 28.5727 237.933L44.1711 247.096L47.2458 248.898C47.4016 248.993 47.5229 249.14 47.5749 249.322L51.4463 262.469C51.4983 262.651 51.5762 262.816 51.6715 262.972C51.6975 263.024 51.7321 263.076 51.7668 263.119C51.8707 263.258 51.992 263.388 52.1219 263.5C52.1652 263.535 52.2085 263.569 52.2605 263.604H52.2431Z" fill="url(#paint64_linear_327_25966)"/>
<path d="M37.0688 248.482C37.0688 247.477 37.779 247.07 38.6451 247.573C39.5199 248.075 40.2214 249.296 40.2214 250.309C40.2214 251.323 39.5112 251.721 38.6451 251.219C37.7704 250.717 37.0688 249.495 37.0688 248.482Z" fill="#75B99E"/>
<path d="M70.1195 250.274C70.1195 250.274 70.0328 250.274 69.9895 250.274C68.5865 250.205 67.5125 249.018 67.5818 247.615L68.4306 230.285C68.4999 228.882 69.6777 227.799 71.0895 227.877C72.4926 227.946 73.5665 229.133 73.4972 230.536L72.6485 247.867C72.5792 249.226 71.4619 250.283 70.1195 250.283V250.274Z" fill="url(#paint65_linear_327_25966)"/>
<path d="M73.2284 238.703C73.3843 237.083 73.6961 233.238 73.9213 230.648C74.0686 228.951 72.8907 227.392 71.1844 227.106C69.383 226.794 67.6768 228.007 67.365 229.808C67.339 229.981 67.3217 230.146 67.3217 230.311C67.2783 233.021 67.2437 237.014 67.1831 238.495C67.1224 239.976 73.0985 240.097 73.2371 238.703H73.2284Z" fill="url(#paint66_linear_327_25966)"/>
<path d="M63.0089 251.071L61.1121 252.578C60.1335 252.11 58.3493 251.192 58.1068 251.183C57.7603 251.166 55.9156 251.703 55.6817 251.816C55.4479 251.92 54.296 253.297 54.1401 253.496C53.9842 253.695 54.3479 254.206 54.7377 253.929C55.1188 253.643 55.9415 252.907 55.9415 252.907L56.7903 252.829C56.7903 252.829 55.9675 253.548 55.8636 253.678C55.7597 253.816 54.3219 255.479 54.1401 255.661C53.9582 255.843 54.244 256.449 54.7983 256.086C55.3526 255.722 56.288 254.821 56.288 254.821C56.288 254.821 55.3526 256.042 55.188 256.285C55.0235 256.527 55.5431 256.813 55.7857 256.588C56.0282 256.363 58.2021 254.587 58.2021 254.587C58.2021 254.587 55.9848 256.553 55.8896 256.657C55.7943 256.752 56.0628 257.168 56.4179 256.952C56.7817 256.726 57.8556 255.99 57.8556 255.99C57.8556 255.99 59.8563 255.644 59.9256 255.661C61.3806 256.051 63.7278 254.656 63.7278 254.656L63.0176 251.097L63.0089 251.071Z" fill="url(#paint67_linear_327_25966)"/>
</g>
</g>
<defs>
<linearGradient id="paint0_linear_327_25966" x1="149" y1="36" x2="149" y2="182" gradientUnits="userSpaceOnUse">
<stop stop-color="#989872" stop-opacity="0"/>
<stop offset="1" stop-color="#FEFEBE"/>
</linearGradient>
<linearGradient id="paint1_linear_327_25966" x1="207" y1="85" x2="207" y2="213" gradientUnits="userSpaceOnUse">
<stop stop-color="#989872" stop-opacity="0"/>
<stop offset="1" stop-color="#FEFEBE"/>
</linearGradient>
<linearGradient id="paint2_linear_327_25966" x1="266" y1="168" x2="266" y2="244" gradientUnits="userSpaceOnUse">
<stop stop-color="#989872" stop-opacity="0"/>
<stop offset="1" stop-color="#FEFEBE"/>
</linearGradient>
<linearGradient id="paint3_linear_327_25966" x1="0.311814" y1="257.067" x2="108.916" y2="257.067" gradientUnits="userSpaceOnUse">
<stop stop-color="#E9EAED"/>
<stop offset="1" stop-color="#DCDEE2"/>
</linearGradient>
<linearGradient id="paint4_linear_327_25966" x1="441.15" y1="153.269" x2="338.14" y2="153.269" gradientUnits="userSpaceOnUse">
<stop stop-color="#1D4524"/>
<stop offset="1" stop-color="#7B9265"/>
</linearGradient>
<linearGradient id="paint5_linear_327_25966" x1="442.792" y1="181.726" x2="339.761" y2="181.726" gradientUnits="userSpaceOnUse">
<stop stop-color="#1D4524"/>
<stop offset="1" stop-color="#7B9265"/>
</linearGradient>
<linearGradient id="paint6_linear_327_25966" x1="369.412" y1="144.242" x2="349.207" y2="131.498" gradientUnits="userSpaceOnUse">
<stop stop-color="#1D4524"/>
<stop offset="1" stop-color="#FEFEBE"/>
</linearGradient>
<linearGradient id="paint7_linear_327_25966" x1="368.572" y1="250.344" x2="329.815" y2="225.898" gradientUnits="userSpaceOnUse">
<stop stop-color="#1D4524"/>
<stop offset="1" stop-color="#FEFEBE"/>
</linearGradient>
<linearGradient id="paint8_linear_327_25966" x1="402.603" y1="165.724" x2="371.794" y2="165.724" gradientUnits="userSpaceOnUse">
<stop stop-color="#1D4524"/>
<stop offset="1" stop-color="#7B9265"/>
</linearGradient>
<linearGradient id="paint9_linear_327_25966" x1="338.237" y1="254.867" x2="446.841" y2="254.867" gradientUnits="userSpaceOnUse">
<stop stop-color="#E9EAED"/>
<stop offset="1" stop-color="#DCDEE2"/>
</linearGradient>
<linearGradient id="paint10_linear_327_25966" x1="405.464" y1="284.538" x2="479.046" y2="284.538" gradientUnits="userSpaceOnUse">
<stop stop-color="#E9EAED"/>
<stop offset="1" stop-color="#DCDEE2"/>
</linearGradient>
<linearGradient id="paint11_linear_327_25966" x1="302.467" y1="266.107" x2="302.433" y2="266.107" gradientUnits="userSpaceOnUse">
<stop stop-color="#B8F1CA"/>
<stop offset="0.02" stop-color="#ADDFC3"/>
<stop offset="0.04" stop-color="#A7D4C0"/>
<stop offset="0.06" stop-color="#A5D1BF"/>
<stop offset="0.16" stop-color="#A9D3C2"/>
<stop offset="0.26" stop-color="#B5D9CA"/>
<stop offset="0.37" stop-color="#CAE4D9"/>
<stop offset="0.48" stop-color="#E8F4EF"/>
<stop offset="0.59" stop-color="#D9ECE4"/>
<stop offset="0.78" stop-color="#D7EBE2"/>
<stop offset="0.85" stop-color="#D0E7DD"/>
<stop offset="0.9" stop-color="#C4E1D5"/>
<stop offset="0.94" stop-color="#B4D9CA"/>
<stop offset="1" stop-color="#C0FFCF"/>
</linearGradient>
<linearGradient id="paint12_linear_327_25966" x1="62.789" y1="114.158" x2="68.8435" y2="130.805" gradientUnits="userSpaceOnUse">
<stop stop-color="#C0FFCF"/>
<stop offset="0.33" stop-color="#BDF6CD"/>
<stop offset="0.85" stop-color="#B6E0CB"/>
<stop offset="1" stop-color="#B4D9CA"/>
</linearGradient>
<linearGradient id="paint13_linear_327_25966" x1="65.5358" y1="113.831" x2="91.9031" y2="186.35" gradientUnits="userSpaceOnUse">
<stop stop-color="#C0FFCF"/>
<stop offset="0.33" stop-color="#BDF6CD"/>
<stop offset="0.85" stop-color="#B6E0CB"/>
<stop offset="1" stop-color="#B4D9CA"/>
</linearGradient>
<linearGradient id="paint14_linear_327_25966" x1="74.6845" y1="313.509" x2="47.581" y2="303.72" gradientUnits="userSpaceOnUse">
<stop stop-color="#1D4524"/>
<stop offset="1" stop-color="#FEFEBE"/>
</linearGradient>
<linearGradient id="paint15_linear_327_25966" x1="48.2715" y1="521.539" x2="-130.948" y2="285.979" gradientUnits="userSpaceOnUse">
<stop stop-color="#1D4524"/>
<stop offset="1" stop-color="#FEFEBE"/>
</linearGradient>
<linearGradient id="paint16_linear_327_25966" x1="139.235" y1="319.138" x2="315.026" y2="196.048" gradientUnits="userSpaceOnUse">
<stop stop-color="#7FBEA5"/>
<stop offset="0.31" stop-color="#5DB47A"/>
<stop offset="0.63" stop-color="#369971"/>
<stop offset="1" stop-color="#7FBEA5"/>
</linearGradient>
<linearGradient id="paint17_linear_327_25966" x1="55.2773" y1="496.6" x2="-104.913" y2="275.534" gradientUnits="userSpaceOnUse">
<stop stop-color="#1D4524"/>
<stop offset="1" stop-color="#FEFEBE"/>
</linearGradient>
<linearGradient id="paint18_linear_327_25966" x1="56.9239" y1="399.241" x2="-7.39701" y2="388.718" gradientUnits="userSpaceOnUse">
<stop stop-color="#1D4524"/>
<stop offset="1" stop-color="#FEFEBE"/>
</linearGradient>
<linearGradient id="paint19_linear_327_25966" x1="79.5598" y1="95.5199" x2="92.3954" y2="205.454" gradientUnits="userSpaceOnUse">
<stop stop-color="#C0FFCF"/>
<stop offset="0.04" stop-color="#C7FCD5"/>
<stop offset="0.18" stop-color="#D9F7E3"/>
<stop offset="0.32" stop-color="#E4F4EC"/>
<stop offset="0.48" stop-color="#E8F4EF"/>
<stop offset="0.59" stop-color="#D9ECE4"/>
<stop offset="0.78" stop-color="#D7EBE2"/>
<stop offset="0.85" stop-color="#D0E7DD"/>
<stop offset="0.9" stop-color="#C4E1D5"/>
<stop offset="0.94" stop-color="#B4D9CA"/>
<stop offset="1" stop-color="#C0FFCF"/>
</linearGradient>
<linearGradient id="paint20_linear_327_25966" x1="51.7819" y1="196.975" x2="51.7819" y2="222.805" gradientUnits="userSpaceOnUse">
<stop stop-color="#F0CAB0"/>
<stop offset="1" stop-color="#FFCCAA"/>
</linearGradient>
<linearGradient id="paint21_linear_327_25966" x1="44.0448" y1="303.863" x2="20.2078" y2="300.561" gradientUnits="userSpaceOnUse">
<stop stop-color="#1D4524"/>
<stop offset="1" stop-color="#FEFEBE"/>
</linearGradient>
<linearGradient id="paint22_linear_327_25966" x1="46.8275" y1="220.324" x2="46.8275" y2="227.053" gradientUnits="userSpaceOnUse">
<stop stop-color="#F0CAB0"/>
<stop offset="1" stop-color="#FFCCAA"/>
</linearGradient>
<linearGradient id="paint23_linear_327_25966" x1="47.2813" y1="165.508" x2="47.2813" y2="174.985" gradientUnits="userSpaceOnUse">
<stop stop-color="#F0CAB0"/>
<stop offset="1" stop-color="#FFCCAA"/>
</linearGradient>
<linearGradient id="paint24_linear_327_25966" x1="40.5531" y1="203.778" x2="24.6668" y2="200.025" gradientUnits="userSpaceOnUse">
<stop stop-color="#1D4524"/>
<stop offset="1" stop-color="#FEFEBE"/>
</linearGradient>
<linearGradient id="paint25_linear_327_25966" x1="72.7195" y1="156.961" x2="72.7195" y2="167.22" gradientUnits="userSpaceOnUse">
<stop stop-color="#F0CAB0"/>
<stop offset="1" stop-color="#FFCCAA"/>
</linearGradient>
<linearGradient id="paint26_linear_327_25966" x1="45.3524" y1="211.983" x2="29.2074" y2="205.726" gradientUnits="userSpaceOnUse">
<stop stop-color="#1D4524"/>
<stop offset="1" stop-color="#FEFEBE"/>
</linearGradient>
<linearGradient id="paint27_linear_327_25966" x1="53.8283" y1="234.668" x2="60.5405" y2="229.973" gradientUnits="userSpaceOnUse">
<stop stop-color="#369971"/>
<stop offset="1" stop-color="#7FBEA5"/>
</linearGradient>
<linearGradient id="paint28_linear_327_25966" x1="51.9542" y1="329.963" x2="36.3541" y2="328.809" gradientUnits="userSpaceOnUse">
<stop stop-color="#1D4524"/>
<stop offset="1" stop-color="#FEFEBE"/>
</linearGradient>
<linearGradient id="paint29_linear_327_25966" x1="49.5713" y1="214.118" x2="33.5761" y2="207.918" gradientUnits="userSpaceOnUse">
<stop stop-color="#1D4524"/>
<stop offset="1" stop-color="#FEFEBE"/>
</linearGradient>
<linearGradient id="paint30_linear_327_25966" x1="43.7631" y1="257.459" x2="15.5106" y2="251.781" gradientUnits="userSpaceOnUse">
<stop stop-color="#1D4524"/>
<stop offset="1" stop-color="#FEFEBE"/>
</linearGradient>
<linearGradient id="paint31_linear_327_25966" x1="55.7531" y1="142.229" x2="55.7531" y2="153.358" gradientUnits="userSpaceOnUse">
<stop stop-color="#F0CAB0"/>
<stop offset="1" stop-color="#FFCCAA"/>
</linearGradient>
<linearGradient id="paint32_linear_327_25966" x1="69.4321" y1="163.457" x2="69.4321" y2="174.989" gradientUnits="userSpaceOnUse">
<stop stop-color="#F0CAB0"/>
<stop offset="1" stop-color="#FFCCAA"/>
</linearGradient>
<linearGradient id="paint33_linear_327_25966" x1="56.1004" y1="206.709" x2="37.6254" y2="201.068" gradientUnits="userSpaceOnUse">
<stop stop-color="#1D4524"/>
<stop offset="1" stop-color="#FEFEBE"/>
</linearGradient>
<linearGradient id="paint34_linear_327_25966" x1="232.565" y1="259.883" x2="297.597" y2="259.883" gradientUnits="userSpaceOnUse">
<stop stop-color="#E9EAED"/>
<stop offset="1" stop-color="#DCDEE2"/>
</linearGradient>
<linearGradient id="paint35_linear_327_25966" x1="236.004" y1="327.624" x2="173.159" y2="292.85" gradientUnits="userSpaceOnUse">
<stop stop-color="#1D4524"/>
<stop offset="1" stop-color="#FEFEBE"/>
</linearGradient>
<linearGradient id="paint36_linear_327_25966" x1="211.041" y1="205.963" x2="214.175" y2="256.203" gradientUnits="userSpaceOnUse">
<stop stop-color="#81FF78"/>
<stop offset="0.51" stop-color="#7B9265"/>
<stop offset="1" stop-color="#FEFEBE"/>
</linearGradient>
<linearGradient id="paint37_linear_327_25966" x1="235.993" y1="293.839" x2="179.403" y2="255.849" gradientUnits="userSpaceOnUse">
<stop stop-color="#1D4524"/>
<stop offset="1" stop-color="#FEFEBE"/>
</linearGradient>
<linearGradient id="paint38_linear_327_25966" x1="174.112" y1="226.252" x2="239.144" y2="226.252" gradientUnits="userSpaceOnUse">
<stop stop-color="#E9EAED"/>
<stop offset="1" stop-color="#DCDEE2"/>
</linearGradient>
<linearGradient id="paint39_linear_327_25966" x1="177.551" y1="372.857" x2="100.751" y2="352.707" gradientUnits="userSpaceOnUse">
<stop stop-color="#1D4524"/>
<stop offset="1" stop-color="#FEFEBE"/>
</linearGradient>
<linearGradient id="paint40_linear_327_25966" x1="196.608" y1="131.26" x2="201.859" y2="189.469" gradientUnits="userSpaceOnUse">
<stop stop-color="#81FF78"/>
<stop offset="0.51" stop-color="#7B9265"/>
<stop offset="1" stop-color="#FEFEBE"/>
</linearGradient>
<linearGradient id="paint41_linear_327_25966" x1="138.192" y1="114.693" x2="148.725" y2="225.085" gradientUnits="userSpaceOnUse">
<stop stop-color="#81FF78"/>
<stop offset="0.51" stop-color="#7B9265"/>
<stop offset="1" stop-color="#FEFEBE"/>
</linearGradient>
<linearGradient id="paint42_linear_327_25966" x1="177.54" y1="222.62" x2="120.95" y2="184.629" gradientUnits="userSpaceOnUse">
<stop stop-color="#1D4524"/>
<stop offset="1" stop-color="#FEFEBE"/>
</linearGradient>
<linearGradient id="paint43_linear_327_25966" x1="115.815" y1="192.604" x2="180.848" y2="192.604" gradientUnits="userSpaceOnUse">
<stop stop-color="#E9EAED"/>
<stop offset="1" stop-color="#DCDEE2"/>
</linearGradient>
<linearGradient id="paint44_linear_327_25966" x1="119.252" y1="143.224" x2="62.6619" y2="105.234" gradientUnits="userSpaceOnUse">
<stop stop-color="#1D4524"/>
<stop offset="1" stop-color="#FEFEBE"/>
</linearGradient>
<linearGradient id="paint45_linear_327_25966" x1="119.256" y1="432.746" x2="39.2838" y2="419.827" gradientUnits="userSpaceOnUse">
<stop stop-color="#1D4524"/>
<stop offset="1" stop-color="#FEFEBE"/>
</linearGradient>
<linearGradient id="paint46_linear_327_25966" x1="96.8446" y1="29.2556" x2="108.854" y2="159.125" gradientUnits="userSpaceOnUse">
<stop stop-color="#81FF78"/>
<stop offset="0.51" stop-color="#7B9265"/>
<stop offset="1" stop-color="#FEFEBE"/>
</linearGradient>
<linearGradient id="paint47_linear_327_25966" x1="68.1085" y1="22.3242" x2="88.4218" y2="193.423" gradientUnits="userSpaceOnUse">
<stop stop-color="#81FF78"/>
<stop offset="0.51" stop-color="#7B9265"/>
<stop offset="1" stop-color="#FEFEBE"/>
</linearGradient>
<linearGradient id="paint48_linear_327_25966" x1="54.2702" y1="222.304" x2="54.2702" y2="242.973" gradientUnits="userSpaceOnUse">
<stop stop-color="#F0CAB0"/>
<stop offset="1" stop-color="#FFCCAA"/>
</linearGradient>
<linearGradient id="paint49_linear_327_25966" x1="50.0363" y1="261.727" x2="34.8369" y2="257.243" gradientUnits="userSpaceOnUse">
<stop stop-color="#1D4524"/>
<stop offset="1" stop-color="#FEFEBE"/>
</linearGradient>
<linearGradient id="paint50_linear_327_25966" x1="25.4038" y1="298.13" x2="11.8586" y2="289.488" gradientUnits="userSpaceOnUse">
<stop stop-color="#1D4524"/>
<stop offset="1" stop-color="#FEFEBE"/>
</linearGradient>
<linearGradient id="paint51_linear_327_25966" x1="30.1973" y1="344.691" x2="-11.9406" y2="330.054" gradientUnits="userSpaceOnUse">
<stop stop-color="#1D4524"/>
<stop offset="1" stop-color="#FEFEBE"/>
</linearGradient>
<linearGradient id="paint52_linear_327_25966" x1="36.704" y1="309.598" x2="23.5681" y2="304.341" gradientUnits="userSpaceOnUse">
<stop stop-color="#1D4524"/>
<stop offset="1" stop-color="#FEFEBE"/>
</linearGradient>
<linearGradient id="paint53_linear_327_25966" x1="39.9287" y1="362.42" x2="-1.48588" y2="350.789" gradientUnits="userSpaceOnUse">
<stop stop-color="#1D4524"/>
<stop offset="1" stop-color="#FEFEBE"/>
</linearGradient>
<linearGradient id="paint54_linear_327_25966" x1="52.1782" y1="325.911" x2="21.0898" y2="318.955" gradientUnits="userSpaceOnUse">
<stop stop-color="#1D4524"/>
<stop offset="1" stop-color="#FEFEBE"/>
</linearGradient>
<linearGradient id="paint55_linear_327_25966" x1="63.7276" y1="223.08" x2="63.7276" y2="228.958" gradientUnits="userSpaceOnUse">
<stop stop-color="#F0CAB0"/>
<stop offset="1" stop-color="#FFCCAA"/>
</linearGradient>
<linearGradient id="paint56_linear_327_25966" x1="63.7185" y1="223.326" x2="63.7185" y2="228.703" gradientUnits="userSpaceOnUse">
<stop stop-color="#F0CAB0"/>
<stop offset="1" stop-color="#FFCCAA"/>
</linearGradient>
<linearGradient id="paint57_linear_327_25966" x1="66.2058" y1="245.858" x2="66.2058" y2="255.644" gradientUnits="userSpaceOnUse">
<stop stop-color="#F0CAB0"/>
<stop offset="1" stop-color="#FFCCAA"/>
</linearGradient>
<linearGradient id="paint58_linear_327_25966" x1="48.0635" y1="238.409" x2="48.0635" y2="250.274" gradientUnits="userSpaceOnUse">
<stop stop-color="#F0CAB0"/>
<stop offset="1" stop-color="#FFCCAA"/>
</linearGradient>
<linearGradient id="paint59_linear_327_25966" x1="64.0565" y1="215.594" x2="64.0565" y2="228.302" gradientUnits="userSpaceOnUse">
<stop stop-color="#F0CAB0"/>
<stop offset="1" stop-color="#FFCCAA"/>
</linearGradient>
<linearGradient id="paint60_linear_327_25966" x1="63.2318" y1="211.758" x2="63.2318" y2="224.388" gradientUnits="userSpaceOnUse">
<stop stop-color="#F0CAB0"/>
<stop offset="1" stop-color="#FFCCAA"/>
</linearGradient>
<linearGradient id="paint61_linear_327_25966" x1="62.107" y1="211.75" x2="62.107" y2="224.326" gradientUnits="userSpaceOnUse">
<stop stop-color="#F0CAB0"/>
<stop offset="1" stop-color="#FFCCAA"/>
</linearGradient>
<linearGradient id="paint62_linear_327_25966" x1="66.2828" y1="217.57" x2="66.2828" y2="220.628" gradientUnits="userSpaceOnUse">
<stop stop-color="#F0CAB0"/>
<stop offset="1" stop-color="#FFCCAA"/>
</linearGradient>
<linearGradient id="paint63_linear_327_25966" x1="25.249" y1="314.965" x2="-20.619" y2="288.92" gradientUnits="userSpaceOnUse">
<stop stop-color="#1D4524"/>
<stop offset="1" stop-color="#FEFEBE"/>
</linearGradient>
<linearGradient id="paint64_linear_327_25966" x1="25.9101" y1="316.286" x2="-9.31233" y2="303.512" gradientUnits="userSpaceOnUse">
<stop stop-color="#1D4524"/>
<stop offset="1" stop-color="#FEFEBE"/>
</linearGradient>
<linearGradient id="paint65_linear_327_25966" x1="70.5395" y1="227.873" x2="70.5395" y2="250.283" gradientUnits="userSpaceOnUse">
<stop stop-color="#F0CAB0"/>
<stop offset="1" stop-color="#FFCCAA"/>
</linearGradient>
<linearGradient id="paint66_linear_327_25966" x1="66.5378" y1="265.552" x2="55.8123" y2="263.329" gradientUnits="userSpaceOnUse">
<stop stop-color="#1D4524"/>
<stop offset="1" stop-color="#FEFEBE"/>
</linearGradient>
<linearGradient id="paint67_linear_327_25966" x1="58.9066" y1="251.071" x2="58.9066" y2="257.013" gradientUnits="userSpaceOnUse">
<stop stop-color="#F0CAB0"/>
<stop offset="1" stop-color="#FFCCAA"/>
</linearGradient>
<clipPath id="clip0_327_25966">
<rect width="480" height="342.948" fill="white"/>
</clipPath>
<clipPath id="clip1_327_25966">
<rect width="480" height="287.259" fill="white" transform="translate(0 56)"/>
</clipPath>
</defs>
</svg>
