<svg width="65" height="65" viewBox="0 0 65 65" fill="none" xmlns="http://www.w3.org/2000/svg">
<g clip-path="url(#clip0_1018_30259)">
<circle cx="32.0222" cy="32.0222" r="32.0222" fill="url(#paint0_linear_1018_30259)"/>
<g clip-path="url(#clip1_1018_30259)">
<path d="M48.2907 18.8633H45.0938V33.8678H48.2907V18.8633Z" fill="white"/>
<path d="M43.1071 26.3652H39.9102V33.8675H43.1071V26.3652Z" fill="white"/>
<path d="M37.9274 29.3652H34.7305V33.8666H37.9274V29.3652Z" fill="white"/>
<path d="M32.742 30.1191H29.5391V33.8703H32.742V30.1191Z" fill="white"/>
<path d="M50.544 36.6081H26.1307C25.8606 36.6081 25.6426 36.39 25.6426 36.1199C25.6426 35.8498 25.8606 35.6318 26.1307 35.6318H50.0559V14.1013H21.0232V16.614C21.0232 16.8841 20.8051 17.1022 20.535 17.1022C20.2649 17.1022 20.0469 16.8841 20.0469 16.614V13.6131C20.0469 13.3431 20.2649 13.125 20.535 13.125H50.544C50.8141 13.125 51.0322 13.3431 51.0322 13.6131V36.1199C51.0322 36.39 50.8141 36.6081 50.544 36.6081Z" fill="white"/>
<path d="M20.5215 24.7247C18.659 24.7247 17.1445 23.1903 17.1445 21.3037C17.1445 19.4171 18.659 17.8887 20.5215 17.8887H20.5656C22.4021 17.9167 23.8886 19.4471 23.8886 21.3037C23.8886 23.1603 22.3781 24.7247 20.5195 24.7247H20.5215ZM20.5215 18.3768V18.865C19.1971 18.865 18.1208 19.9593 18.1208 21.3037C18.1208 22.6481 19.1971 23.7484 20.5215 23.7484C21.8459 23.7484 22.9143 22.6521 22.9143 21.3037C22.9143 19.9553 21.8579 18.883 20.5596 18.865L20.5215 18.3768Z" fill="white"/>
<path d="M18.7599 50.1011H18.7419C17.4635 50.1011 16.4492 49.0888 16.4492 47.8424V28.2245C16.4492 27.9544 16.6673 27.7363 16.9374 27.7363C17.2074 27.7363 17.4255 27.9544 17.4255 28.2245V47.8424C17.4255 48.5506 17.9997 49.1248 18.7079 49.1248H18.7199C19.098 49.1248 19.4161 48.9927 19.6582 48.7547C19.9023 48.5106 20.0363 48.1865 20.0363 47.8404C20.0363 47.5703 20.2544 47.3522 20.5244 47.3522C20.7945 47.3522 21.0126 47.5703 21.0126 47.8404C21.0126 48.4486 20.7745 49.0187 20.3444 49.4449C19.9203 49.867 19.3581 50.0991 18.7599 50.0991V50.1011Z" fill="white"/>
<path d="M22.3074 50.1125C21.6972 50.1125 21.127 49.8764 20.7009 49.4523C20.2807 49.0221 20.0407 48.438 20.0407 47.8478V39.2132C20.0407 38.9431 20.2587 38.725 20.5288 38.725C20.7989 38.725 21.017 38.9431 21.017 39.2132V47.8478C21.017 48.1859 21.155 48.522 21.3951 48.7681C21.6332 49.0061 21.9593 49.1382 22.3074 49.1382C23.0196 49.1382 23.5977 48.56 23.5977 47.8478V28.2299C23.5977 27.9598 23.8158 27.7417 24.0859 27.7417H29.5315C31.174 27.7337 32.5324 27.7337 32.5324 27.7337C32.8665 27.7717 33.1826 27.5657 33.3487 27.2796C33.4127 27.1696 33.4507 27.0255 33.4567 26.8775C33.4647 26.6534 33.3887 26.4453 33.2386 26.2853C33.0826 26.1212 32.8685 26.0272 32.6345 26.0232L23.7858 26.0312L18.2721 26.0232C16.4816 26.0232 15.0232 27.4797 15.0232 29.2722V37.2706C15.0232 37.8108 15.3353 38.3209 15.8174 38.571C16.0555 38.695 16.1495 38.9891 16.0255 39.2272C15.9014 39.4673 15.6093 39.5613 15.3693 39.4352C14.567 39.0191 14.0469 38.1709 14.0469 37.2686V29.2702C14.0469 26.9415 15.9414 25.0449 18.2721 25.0449H32.6445C33.1546 25.0549 33.6128 25.259 33.9489 25.6151C34.279 25.9672 34.451 26.4273 34.431 26.9115C34.421 27.2156 34.335 27.5217 34.1909 27.7677C33.8448 28.3659 33.2026 28.736 32.5184 28.706C32.5184 28.706 31.168 28.706 29.5335 28.714H24.572V47.8438C24.572 49.0922 23.5557 50.1105 22.3054 50.1105L22.3074 50.1125Z" fill="white"/>
<path d="M34.7556 23.7511C34.3975 23.7511 34.0394 23.7251 33.6793 23.6731C33.4132 23.6351 33.2271 23.387 33.2671 23.1209C33.3071 22.8549 33.5492 22.6768 33.8193 22.7088C35.5078 22.9549 37.1943 22.5268 38.5627 21.5065C39.9311 20.4822 40.8194 18.9877 41.0615 17.2952C41.0995 17.0271 41.3496 16.8471 41.6136 16.8811C41.8797 16.9191 42.0658 17.1672 42.0278 17.4332C41.7477 19.3858 40.7254 21.1083 39.1469 22.2887C37.8625 23.249 36.3341 23.7551 34.7556 23.7551V23.7511Z" fill="white"/>
<path d="M43.0407 18.6043C42.9167 18.6043 42.7906 18.5563 42.6966 18.4623L41.4502 17.2159L40.2038 18.4623C40.0138 18.6523 39.7037 18.6523 39.5136 18.4623C39.3236 18.2722 39.3236 17.9621 39.5136 17.7721L41.1041 16.1816C41.2942 15.9915 41.6043 15.9915 41.7943 16.1816L43.3848 17.7721C43.5749 17.9621 43.5749 18.2722 43.3848 18.4623C43.2888 18.5583 43.1647 18.6043 43.0407 18.6043Z" fill="white"/>
</g>
</g>
<defs>
<linearGradient id="paint0_linear_1018_30259" x1="64.0444" y1="32.0222" x2="14.2803" y2="-13.721" gradientUnits="userSpaceOnUse">
<stop stop-color="#1D4524"/>
<stop offset="1" stop-color="#7B9265"/>
</linearGradient>
<clipPath id="clip0_1018_30259">
<rect width="64.0444" height="64.0444" fill="white"/>
</clipPath>
<clipPath id="clip1_1018_30259">
<rect width="36.9871" height="36.9871" fill="white" transform="translate(14.0469 13.125)"/>
</clipPath>
</defs>
</svg>
