<svg width="65" height="65" viewBox="0 0 65 65" fill="none" xmlns="http://www.w3.org/2000/svg">
<g clip-path="url(#clip0_1018_30218)">
<circle cx="32.0222" cy="32.0222" r="32.0222" fill="url(#paint0_linear_1018_30218)"/>
<g clip-path="url(#clip1_1018_30218)">
<path d="M32.3563 50.1113C32.0252 50.1113 31.7578 49.8441 31.7578 49.5132V33.5552C31.7578 33.2242 32.0252 32.957 32.3563 32.957C32.6874 32.957 32.9548 33.2242 32.9548 33.5552V49.5132C32.9548 49.8441 32.6874 50.1113 32.3563 50.1113Z" fill="white"/>
<path d="M38.8074 33.8349H25.9305C25.5994 33.8349 25.332 33.5677 25.332 33.2368C25.332 32.9059 25.5994 32.6387 25.9305 32.6387H38.8074C39.1386 32.6387 39.4059 32.9059 39.4059 33.2368C39.4059 33.5677 39.1386 33.8349 38.8074 33.8349Z" fill="white"/>
<path d="M19 50.1044H13.4813C13.1502 50.1044 12.8828 49.8372 12.8828 49.5063C12.8828 49.1754 13.1502 48.9082 13.4813 48.9082H19C19.3311 48.9082 19.5984 49.1754 19.5984 49.5063C19.5984 49.8372 19.3311 50.1044 19 50.1044Z" fill="white"/>
<path d="M17.1801 21.4669C15.2081 21.4669 13.6016 19.8637 13.6016 17.8904C13.6016 15.9171 15.2081 14.3164 17.1801 14.3164C19.1521 14.3164 20.766 15.9196 20.766 17.8929C20.766 19.8662 19.157 21.4693 17.1801 21.4693V21.4669ZM17.1801 15.5102C15.8654 15.5102 14.7985 16.579 14.7985 17.8904C14.7985 19.2019 15.8679 20.2706 17.1801 20.2706C18.4923 20.2706 19.5716 19.2019 19.5716 17.8904C19.5716 16.579 18.4997 15.5102 17.1801 15.5102Z" fill="white"/>
<path d="M19.8144 42.7307H16.3731C13.3514 42.7307 10.8545 40.6642 10.5626 37.9212C10.1579 34.0751 9.69922 29.1259 9.69922 29.1259L10.8888 29.0156C10.8888 29.0156 11.3499 33.9575 11.7522 37.7962C11.9778 39.9288 13.9645 41.5345 16.3731 41.5345H19.8144C20.1455 41.5345 20.4128 41.8016 20.4128 42.1326C20.4128 42.4635 20.1455 42.7307 19.8144 42.7307Z" fill="white"/>
<path d="M16.1375 49.6284C15.8064 49.6284 15.5391 49.3612 15.5391 49.0303V42.1372C15.5391 41.8063 15.8064 41.5391 16.1375 41.5391C16.4687 41.5391 16.736 41.8063 16.736 42.1372V49.0303C16.736 49.3612 16.4687 49.6284 16.1375 49.6284Z" fill="white"/>
<path d="M25.6979 50.0594C24.2753 50.0594 23.1593 48.6474 23.1593 46.8433V40.9699C23.1593 40.8866 23.0538 40.7959 22.9116 40.7959H16.1788C15.8354 40.7959 15.5067 40.7518 15.1952 40.6635C13.8192 40.2689 12.8945 39.1094 12.8945 37.7832V27.0269C12.8945 25.4115 13.3728 24.0559 14.2411 23.2102C14.9696 22.4993 15.9212 22.1561 17.0961 22.1831H18.1483C18.9062 22.2052 19.6519 22.5238 20.2086 23.0558C21.2192 24.0559 22.8478 25.8699 22.9165 25.9483L23.9245 27.1715C23.9515 27.2034 23.9957 27.2304 24.0619 27.2304H28.597C29.3132 27.2304 29.9755 27.5343 30.4145 28.0663C30.8045 28.5394 30.9615 29.1473 30.8486 29.7331C30.6647 30.7406 29.6738 31.476 28.4965 31.476H22.9974C22.4235 31.476 21.8716 31.2456 21.4816 30.8436C21.4791 30.8411 20.7114 30.0347 19.9977 29.2821V36.3124C19.9977 36.5649 20.2577 36.7708 20.5765 36.7708C21.7024 36.7806 22.8233 36.7806 23.9515 36.7806H24.2483C25.6758 36.7806 27.454 36.7831 28.0697 38.6731C28.2757 39.2859 28.2757 43.4384 28.2365 46.8138C28.2365 47.6816 27.9912 48.4685 27.5472 49.0617C27.0714 49.699 26.3994 50.0643 25.6979 50.0643V50.0594ZM15.5239 39.5114C15.7275 39.5702 15.9458 39.5997 16.1763 39.5997H22.9091C23.7062 39.5997 24.3538 40.2149 24.3538 40.9699V46.8433C24.3538 47.939 24.9694 48.8656 25.6954 48.8656C26.0192 48.8656 26.3356 48.6793 26.5858 48.3435C26.8727 47.9611 27.0371 47.4144 27.0371 46.8433C27.0837 42.654 27.0371 39.4624 26.9267 39.0359C26.598 38.0259 25.7371 37.9744 24.2434 37.9744H23.9442C22.8012 37.9818 21.6901 37.9744 20.5667 37.9646C19.593 37.9646 18.7958 37.2219 18.7958 36.31V27.7794C18.7958 27.5343 18.9455 27.3137 19.1736 27.2255C19.3992 27.1323 19.6617 27.1936 19.8285 27.3701C20.4269 28.005 22.3376 30.015 22.3376 30.015C22.4995 30.1817 22.7374 30.2798 22.99 30.2798H28.4891C29.0704 30.2798 29.5879 29.9415 29.6664 29.5101C29.7277 29.1963 29.6002 28.9659 29.4849 28.8237C29.2764 28.5712 28.9429 28.4217 28.5897 28.4217H24.0545C23.6302 28.4217 23.2402 28.2378 22.9876 27.9192L22.0016 26.7254C22.0016 26.7254 20.3435 24.8796 19.3649 23.9113C19.0264 23.5877 18.5702 23.3892 18.1213 23.3769H17.0716C16.2278 23.3622 15.5582 23.5877 15.0677 24.0633C14.4324 24.6834 14.0817 25.7351 14.0817 27.0244V37.7808C14.0817 38.5701 14.6581 39.2663 15.5165 39.5139L15.5239 39.5114Z" fill="white"/>
<path d="M51.2461 50.1044H45.7274C45.3963 50.1044 45.1289 49.8372 45.1289 49.5063C45.1289 49.1754 45.3963 48.9082 45.7274 48.9082H51.2461C51.5772 48.9082 51.8445 49.1754 51.8445 49.5063C51.8445 49.8372 51.5772 50.1044 51.2461 50.1044Z" fill="white"/>
<path d="M47.5508 21.4674C45.5738 21.4674 43.9648 19.8642 43.9648 17.8909C43.9648 15.9176 45.5738 14.3145 47.5508 14.3145C49.5277 14.3145 51.1293 15.9176 51.1293 17.8909C51.1293 19.8642 49.5252 21.4674 47.5508 21.4674ZM47.5508 15.5107C46.2312 15.5107 45.1593 16.5795 45.1593 17.8909C45.1593 19.2024 46.2312 20.2711 47.5508 20.2711C48.8703 20.2711 49.9324 19.2024 49.9324 17.8909C49.9324 16.5795 48.863 15.5107 47.5508 15.5107Z" fill="white"/>
<path d="M48.36 42.7292H44.9188C44.5877 42.7292 44.3203 42.462 44.3203 42.1311C44.3203 41.8002 44.5877 41.533 44.9188 41.533H48.36C50.7686 41.533 52.7553 39.9249 52.981 37.7923C53.3857 33.9536 53.8443 29.0117 53.8443 29.0117L55.0339 29.122C55.0339 29.122 54.5728 34.0712 54.1681 37.9173C53.8787 40.6603 51.3793 42.7268 48.3575 42.7268L48.36 42.7292Z" fill="white"/>
<path d="M48.5985 49.6284C48.2674 49.6284 48 49.3612 48 49.0303V42.1372C48 41.8063 48.2674 41.5391 48.5985 41.5391C48.9296 41.5391 49.1969 41.8063 49.1969 42.1372V49.0303C49.1969 49.3612 48.9296 49.6284 48.5985 49.6284Z" fill="white"/>
<path d="M39.0317 50.0602C38.3327 50.0602 37.6582 49.695 37.1823 49.0576C36.7384 48.4669 36.4931 47.68 36.4931 46.8441C36.4539 43.4368 36.4539 39.2843 36.6623 38.6641C37.2755 36.7815 39.0538 36.779 40.4813 36.779H40.7756C41.9088 36.779 43.0297 36.779 44.1506 36.7692C44.4744 36.7692 44.7343 36.5633 44.7343 36.3108V29.2805C44.0206 30.033 43.2553 30.8395 43.2553 30.8395C42.8629 31.2464 42.311 31.4744 41.7371 31.4744H36.238C35.0607 31.4744 34.0698 30.739 33.8834 29.7242C33.7706 29.1432 33.9275 28.5353 34.3175 28.0646C34.7566 27.5327 35.4188 27.2287 36.135 27.2287H40.6701C40.7364 27.2287 40.7805 27.2018 40.7977 27.1797L41.7984 25.9663C41.8843 25.8707 43.5129 24.0567 44.5161 23.064C45.0802 22.5247 45.8258 22.206 46.5665 22.1839H47.6507C48.8133 22.1496 49.76 22.5002 50.4885 23.211C51.3568 24.0567 51.8351 25.4123 51.8351 27.0277V37.7841C51.8351 39.1102 50.9104 40.2697 49.5368 40.6643C49.2253 40.7526 48.8967 40.7967 48.5533 40.7967H41.8205C41.6782 40.7967 41.5728 40.8899 41.5728 40.9708V46.8441C41.5728 48.6483 40.4568 50.0602 39.0342 50.0602H39.0317ZM45.3328 27.1797C45.4064 27.1797 45.4824 27.192 45.5536 27.2214C45.7817 27.3121 45.9313 27.5327 45.9313 27.7754V36.3059C45.9313 37.2178 45.1341 37.9606 44.1555 37.9606C43.037 37.9704 41.9137 37.9704 40.7805 37.9704H40.4837C38.99 37.9704 38.1291 38.0218 37.798 39.0367C37.6876 39.4583 37.641 42.6524 37.6901 46.7951C37.6901 47.4103 37.8544 47.957 38.1414 48.3394C38.394 48.6777 38.7104 48.864 39.0342 48.864C39.7626 48.864 40.3758 47.9374 40.3758 46.8416V40.9683C40.3758 40.2133 41.0233 39.598 41.8205 39.598H48.5533C48.7838 39.598 49.0046 39.5686 49.2057 39.5098C50.0642 39.2622 50.6406 38.566 50.6406 37.7767V27.0204C50.6406 25.7285 50.2898 24.6769 49.6546 24.0592C49.164 23.5812 48.492 23.3434 47.6654 23.3728H46.5837C46.152 23.3851 45.6983 23.5836 45.35 23.9146C44.3787 24.8755 42.7206 26.7213 42.7059 26.7409L41.7297 27.9274C41.4845 28.2362 41.0969 28.4201 40.6701 28.4201H36.135C35.7818 28.4201 35.4482 28.5696 35.2398 28.8221C35.1245 28.9618 34.9969 29.1947 35.0558 29.5011C35.1367 29.9399 35.6543 30.2757 36.2356 30.2757H41.7346C41.9873 30.2757 42.2252 30.1777 42.392 30.0085C42.392 30.0085 44.3002 28.0009 44.8962 27.366C45.0115 27.2434 45.1709 27.1773 45.3304 27.1773L45.3328 27.1797Z" fill="white"/>
</g>
</g>
<defs>
<linearGradient id="paint0_linear_1018_30218" x1="64.0444" y1="32.0222" x2="14.2803" y2="-13.721" gradientUnits="userSpaceOnUse">
<stop stop-color="#1D4524"/>
<stop offset="1" stop-color="#7B9265"/>
</linearGradient>
<clipPath id="clip0_1018_30218">
<rect width="64.0444" height="64.0444" fill="white"/>
</clipPath>
<clipPath id="clip1_1018_30218">
<rect width="45.3391" height="35.794" fill="white" transform="translate(9.69922 14.3164)"/>
</clipPath>
</defs>
</svg>
