<svg width="65" height="65" viewBox="0 0 65 65" fill="none" xmlns="http://www.w3.org/2000/svg">
<g clip-path="url(#clip0_1018_30236)">
<circle cx="32.0222" cy="32.0222" r="32.0222" fill="url(#paint0_linear_1018_30236)"/>
<g clip-path="url(#clip1_1018_30236)">
<path d="M14.7583 38.2434C14.6437 38.2434 14.529 38.2105 14.4335 38.1447L10.3432 35.4312C10.0758 35.255 10.0065 34.8979 10.1856 34.6371C10.3647 34.374 10.7276 34.3059 10.9927 34.4821L14.584 36.8643L22.3491 24.6618L10.3384 16.5566C10.0734 16.378 10.0065 16.0209 10.188 15.7601C10.3695 15.4994 10.7324 15.4336 10.9975 15.6121L23.4714 24.0275C23.7293 24.2013 23.8009 24.5443 23.6338 24.8051L15.2525 37.9732C15.169 38.1048 15.0353 38.1988 14.88 38.2293C14.8395 38.2387 14.7989 38.241 14.7583 38.241V38.2434Z" fill="white"/>
<path d="M49.552 38.2444C49.5114 38.2444 49.4708 38.2397 49.4302 38.2327C49.275 38.1998 49.1413 38.1082 49.0577 37.9743L40.686 24.8062C40.5213 24.5454 40.5929 24.2047 40.8508 24.0309L53.3152 15.6132C53.5802 15.4323 53.9432 15.5004 54.1247 15.7612C54.3061 16.0219 54.2393 16.379 53.9742 16.5576L41.9707 24.6605L49.7287 36.863L53.32 34.4808C53.5874 34.3046 53.948 34.3727 54.127 34.6358C54.3061 34.899 54.2369 35.2537 53.9694 35.4299L49.8767 38.1434C49.7788 38.2068 49.6666 38.2421 49.552 38.2421V38.2444Z" fill="white"/>
<path d="M43.5146 40.8048C43.2854 40.8048 43.0681 40.6709 42.9773 40.4501C42.8556 40.1564 42.9965 39.8228 43.2949 39.703C43.9349 39.4446 47.1321 37.2879 48.3165 36.0145C48.5338 35.7796 48.9015 35.7655 49.1379 35.9793C49.3743 36.1907 49.391 36.5549 49.1761 36.7875C47.8891 38.1736 44.5939 40.4172 43.7391 40.7626C43.6674 40.7907 43.591 40.8048 43.517 40.8048H43.5146Z" fill="white"/>
<path d="M18.6656 40.2163C18.5128 40.2163 18.3576 40.1552 18.2429 40.0378C17.1159 38.8701 15.7333 37.0776 15.294 36.314C15.1364 36.0392 15.2343 35.6891 15.5137 35.5341C15.793 35.3766 16.1488 35.4753 16.3064 35.7502C16.6574 36.3587 17.9445 38.0643 19.0882 39.2507C19.3103 39.4786 19.3007 39.8428 19.0667 40.0612C18.9545 40.167 18.8112 40.2187 18.6656 40.2187V40.2163Z" fill="white"/>
<path d="M29.2965 28.9919C29.2583 28.9919 29.2177 28.9872 29.1795 28.9801C28.2196 28.7875 24.6522 27.3967 22.1044 26.2831C21.8107 26.1539 21.677 25.8179 21.8083 25.5266C21.9397 25.2376 22.2835 25.1061 22.5772 25.2353C25.2444 26.4005 28.6327 27.6997 29.4159 27.8571C29.7311 27.9206 29.9341 28.2236 29.8696 28.5338C29.8123 28.8039 29.5711 28.9919 29.2989 28.9919H29.2965Z" fill="white"/>
<path d="M28.4928 34.6088C27.9627 34.6088 27.4422 34.4866 26.998 34.2352C26.1575 33.756 25.6608 32.7951 25.7898 31.8976C25.8352 31.4442 26.0405 30.9743 26.4321 30.4434C26.9335 29.7362 27.6188 29.2217 28.285 28.7237L29.0802 28.1363C29.8634 27.5772 30.5296 27.1566 31.1839 26.8042C32.3467 26.1911 33.7746 25.9091 35.4294 25.9608C36.1362 25.9867 36.8215 26.1159 37.4829 26.2427C38.2446 26.3884 38.9657 26.5223 39.6845 26.5059C40.5369 26.4824 41.2772 26.3062 42.163 25.9115C42.4567 25.7823 42.8006 25.9115 42.9319 26.1981C43.0632 26.4871 42.9319 26.8254 42.6406 26.957C41.6186 27.4104 40.716 27.6242 39.7131 27.65C38.8559 27.6758 38.0464 27.5161 37.2585 27.3657C36.6114 27.2436 36.0025 27.1261 35.3864 27.105C33.9394 27.0627 32.7121 27.2953 31.7354 27.8121C31.1289 28.1363 30.5033 28.5334 29.7703 29.0573L28.9895 29.6352C28.3973 30.0792 27.7836 30.5397 27.3801 31.1082C27.1079 31.4771 26.9718 31.7684 26.9455 32.0339C26.881 32.4991 27.1484 32.9971 27.5806 33.2438C28.2086 33.5986 29.1423 33.521 29.7989 33.0606C30.3696 32.6612 30.9857 32.1913 31.5826 31.7379C31.9838 31.4325 32.3778 31.1341 32.7431 30.8663L32.9341 30.7253C33.1944 30.5421 33.5597 30.6031 33.746 30.8616C33.9322 31.12 33.8701 31.4771 33.6075 31.6603L33.4332 31.7896C33.0774 32.0503 32.6906 32.344 32.2966 32.6447C31.6877 33.1075 31.0573 33.5868 30.4747 33.9956C29.8944 34.402 29.1853 34.6088 28.4952 34.6088H28.4928Z" fill="white"/>
<path d="M41.7785 43.6468C41.3058 43.6468 40.8401 43.4917 40.47 43.1746L40.2742 43.0078L34.6103 38.0788C34.3692 37.8697 34.3477 37.5056 34.5602 37.2707C34.7727 37.0334 35.1404 37.0122 35.3816 37.2213L41.2341 42.31C41.6114 42.6319 42.237 42.5426 42.6286 42.108C43.0154 41.6757 43.0274 41.0578 42.6525 40.7313C42.6429 40.7242 42.5809 40.6631 42.5737 40.6537C42.0197 40.1345 37.4184 35.8446 34.6151 33.2368C34.3811 33.0183 34.3715 32.6565 34.5912 32.4263C34.8133 32.1937 35.181 32.1867 35.415 32.4028C38.2183 35.0106 42.822 39.3028 43.3855 39.8315C44.2786 40.6138 44.312 41.9553 43.5025 42.8621C43.0417 43.3766 42.4018 43.6421 41.7809 43.6421L41.7785 43.6468Z" fill="white"/>
<path d="M39.191 45.757C38.7421 45.757 38.3099 45.6137 37.9661 45.3153L37.4384 44.8408L31.8031 39.886C31.5643 39.6746 31.5428 39.3128 31.7577 39.0778C31.9726 38.8405 32.3404 38.8217 32.5792 39.0332L38.7445 44.4649C39.0692 44.7444 39.6734 44.627 40.0554 44.2017C40.2584 43.9739 40.3754 43.6872 40.3754 43.4171C40.3754 43.2291 40.3228 43.0717 40.2178 42.9495C40.1843 42.9096 40.1605 42.8791 40.1318 42.8509L34.6804 38.1028C34.4393 37.8937 34.4178 37.5319 34.6303 37.2947C34.8428 37.0574 35.2105 37.0362 35.4517 37.2453L40.9317 42.0192C41.0201 42.1038 41.0678 42.1625 41.1156 42.2212C41.3902 42.5384 41.5382 42.9566 41.5382 43.4171C41.5382 43.9668 41.3209 44.5142 40.9293 44.9582C40.4566 45.4845 39.8118 45.7617 39.1934 45.7617L39.191 45.757Z" fill="white"/>
<path d="M32.7763 48.9183C32.3274 48.9183 31.8929 48.7749 31.549 48.4766L28.8603 46.1413C28.6192 45.9322 28.5977 45.5704 28.8102 45.3332C29.0227 45.0959 29.3904 45.0724 29.6316 45.2838L32.3179 47.6191C32.6546 47.9104 33.2658 47.7859 33.6551 47.3512C33.8676 47.1187 33.9846 46.8344 33.9846 46.5501C33.9846 46.4021 33.9488 46.2635 33.8819 46.146C33.8556 46.1014 33.8174 46.0567 33.7792 46.0239C33.5309 45.8242 33.4927 45.4624 33.698 45.218C33.901 44.9737 34.2663 44.9361 34.5171 45.1382C34.6651 45.258 34.7917 45.4036 34.8919 45.5751C35.0615 45.8712 35.1498 46.2071 35.1498 46.5501C35.1498 47.1187 34.9278 47.6754 34.5266 48.1148C34.0514 48.6434 33.4019 48.9206 32.7787 48.9206L32.7763 48.9183Z" fill="white"/>
<path d="M36.1117 47.5706C35.6843 47.5706 35.2879 47.4273 34.9871 47.1618L28.9698 41.8217C28.731 41.6103 28.7119 41.2485 28.9268 41.0135C29.1417 40.7786 29.5094 40.7598 29.7482 40.9712L35.7655 46.309C35.8849 46.4147 36.0449 46.4311 36.1547 46.4217C36.4436 46.4053 36.7564 46.2385 36.9904 45.9777C37.2101 45.731 37.3367 45.4327 37.3367 45.1578C37.3367 45.0215 37.308 44.9135 37.2555 44.8336C37.0764 44.5704 37.148 44.2133 37.4155 44.0395C37.6829 43.8656 38.0435 43.9338 38.2225 44.1969C38.4064 44.4694 38.4995 44.7913 38.4995 45.1578C38.4995 45.7146 38.2727 46.2761 37.862 46.7342C37.4202 47.2276 36.8209 47.5306 36.2192 47.5659C36.181 47.5682 36.1451 47.5682 36.1069 47.5682L36.1117 47.5706Z" fill="white"/>
<path d="M22.312 44.7113C21.9084 44.7113 21.5025 44.5962 21.1491 44.3518C21.1324 44.3401 21.0536 44.2743 21.0393 44.2626C20.1868 43.6846 19.9528 42.4489 20.5713 41.5467C20.6883 41.3752 20.8865 41.2953 21.0823 41.293C21.0082 41.1168 21.0226 40.9101 21.1419 40.7432L22.1544 39.3242C22.4648 38.8873 22.9328 38.5936 23.4677 38.5043C24.0002 38.4127 24.5398 38.5349 24.9816 38.845C25.9606 39.5192 26.1802 40.7667 25.5427 41.6642L23.9834 43.8585C23.5871 44.4153 22.9567 44.7136 22.312 44.7136V44.7113ZM21.5909 41.643C21.6649 41.8146 21.6506 42.0166 21.5359 42.1834C21.2733 42.5687 21.3688 43.0973 21.7508 43.3581C21.7676 43.3698 21.8464 43.4356 21.8631 43.4497C22.2021 43.6776 22.7585 43.5813 23.0283 43.203L24.5876 41.0087C24.8598 40.6234 24.7667 40.0925 24.3798 39.8223C24.1196 39.6461 23.8903 39.5968 23.6659 39.6344C23.439 39.6719 23.2408 39.7965 23.1071 39.9821L22.0947 41.4011C21.9753 41.5679 21.7795 41.6454 21.5909 41.6454V41.643Z" fill="white"/>
<path d="M24.7774 46.3999C24.3643 46.3999 23.9632 46.2778 23.6193 46.0405C22.6379 45.3639 22.4111 44.114 23.0534 43.2072L24.6127 41.0223C25.2645 40.1225 26.5349 39.9016 27.447 40.5289C28.4284 41.2055 28.6552 42.4577 28.0129 43.3622L27.3491 44.2949C27.1652 44.5533 26.8023 44.6191 26.5396 44.4359C26.277 44.255 26.2125 43.8979 26.3964 43.6394L27.0602 42.7067C27.3348 42.3191 27.2393 41.7834 26.8453 41.5109C26.3916 41.1985 25.8472 41.2948 25.5654 41.6824L24.0109 43.8626C23.7411 44.2432 23.839 44.7883 24.2258 45.0561C24.4766 45.2299 24.7082 45.2793 24.9398 45.2393C25.1714 45.1994 25.3696 45.0749 25.5009 44.8893C25.6848 44.6309 26.0501 44.5674 26.3104 44.7483C26.5731 44.9292 26.6375 45.2863 26.4537 45.5448C26.1433 45.9817 25.6776 46.2731 25.1404 46.367C25.0186 46.3882 24.8992 46.3976 24.7774 46.3976V46.3999Z" fill="white"/>
<path d="M19.9564 43.1508C19.6174 43.1508 19.2735 43.0522 18.975 42.8454L18.8055 42.7233C18.0438 42.1994 17.8551 41.1421 18.3924 40.3763L19.104 39.3825C19.3642 39.016 19.7582 38.7717 20.2095 38.6918C20.6608 38.6142 21.1145 38.7129 21.4894 38.9713L21.6374 39.0677C22.4039 39.6057 22.6069 40.6417 22.1055 41.3865C22.0983 41.3982 22.084 41.417 22.0696 41.4358L21.5348 42.1923L21.3652 42.4296C21.0333 42.8971 20.5008 43.1461 19.9588 43.1461L19.9564 43.1508ZM20.508 39.8148C20.477 39.8148 20.4435 39.8171 20.4125 39.8218C20.2668 39.8477 20.1403 39.9252 20.0567 40.0427L19.3499 41.0294C19.178 41.2761 19.2353 41.6191 19.486 41.7906L19.6556 41.9127C19.8943 42.0795 20.2382 42.0185 20.4125 41.7741L21.1193 40.7803C21.1193 40.7803 21.1336 40.7616 21.1408 40.7522C21.2864 40.4726 21.21 40.1742 20.9808 40.0121L20.8375 39.9181C20.7349 39.8477 20.6226 39.8124 20.5104 39.8124L20.508 39.8148Z" fill="white"/>
<path d="M27.1831 47.8789C26.8177 47.8789 26.4644 47.7685 26.1635 47.5547L25.9104 47.3902C25.0914 46.8146 24.9027 45.7151 25.4734 44.9328L26.3473 43.697C26.3688 43.6688 26.3927 43.6407 26.4166 43.6148C27.004 42.8889 28.0666 42.7409 28.8331 43.2765L29.0862 43.448C29.4778 43.7135 29.7404 44.1176 29.8216 44.5827C29.9028 45.0432 29.7977 45.5084 29.5303 45.8913C29.5208 45.9054 29.5088 45.9195 29.4969 45.9336L28.6397 47.1294C28.3722 47.5124 27.9615 47.7708 27.4887 47.853C27.386 47.8695 27.281 47.8789 27.1783 47.8789H27.1831ZM27.2881 44.3713L26.45 45.5507C26.2232 45.8702 26.2924 46.2508 26.5718 46.4481L26.8249 46.6126C26.973 46.716 27.1306 46.7512 27.2929 46.723C27.4553 46.6948 27.5962 46.6079 27.6893 46.474L28.5704 45.2429C28.5704 45.2429 28.5847 45.2241 28.5919 45.2147C28.6755 45.0832 28.7065 44.9281 28.6802 44.7754C28.6516 44.6156 28.5632 44.4794 28.4295 44.3877L28.1693 44.2115C27.897 44.0236 27.5293 44.0753 27.324 44.3267C27.3168 44.3337 27.3049 44.3502 27.2905 44.3666L27.2881 44.3713Z" fill="white"/>
<path d="M31.9967 21.479C31.6743 21.479 31.4141 21.2229 31.4141 20.9058V17.417C31.4141 17.0998 31.6743 16.8438 31.9967 16.8438C32.319 16.8438 32.5793 17.0998 32.5793 17.417V20.9058C32.5793 21.2229 32.319 21.479 31.9967 21.479Z" fill="white"/>
<path d="M27.6202 22.8255C27.4101 22.8255 27.2071 22.7127 27.1021 22.5177L25.3661 19.224C25.2181 18.942 25.3303 18.5967 25.6145 18.451C25.8986 18.3054 26.252 18.4158 26.4001 18.6954L28.136 21.9891C28.284 22.2711 28.1718 22.6164 27.8877 22.7621C27.8017 22.8067 27.711 22.8255 27.6202 22.8255Z" fill="white"/>
<path d="M36.3784 22.8255C36.2877 22.8255 36.197 22.8044 36.111 22.7621C35.8245 22.6164 35.7146 22.2711 35.8627 21.9891L37.5986 18.6954C37.7467 18.4158 38.0977 18.3054 38.3842 18.451C38.6707 18.5967 38.7806 18.942 38.6325 19.224L36.8966 22.5177C36.7939 22.7127 36.5886 22.8255 36.3784 22.8255Z" fill="white"/>
</g>
</g>
<defs>
<linearGradient id="paint0_linear_1018_30236" x1="64.0444" y1="32.0222" x2="14.2803" y2="-13.721" gradientUnits="userSpaceOnUse">
<stop stop-color="#1D4524"/>
<stop offset="1" stop-color="#7B9265"/>
</linearGradient>
<clipPath id="clip0_1018_30236">
<rect width="64.0444" height="64.0444" fill="white"/>
</clipPath>
<clipPath id="clip1_1018_30236">
<rect width="44.1459" height="33.4077" fill="white" transform="translate(10.0859 15.5117)"/>
</clipPath>
</defs>
</svg>
