<svg width="65" height="65" viewBox="0 0 65 65" fill="none" xmlns="http://www.w3.org/2000/svg">
<g clip-path="url(#clip0_1018_30170)">
<circle cx="32.0222" cy="32.0222" r="32.0222" fill="url(#paint0_linear_1018_30170)"/>
<g clip-path="url(#clip1_1018_30170)">
<path d="M48.5007 46.9203V50.4896H35.7227V46.9203C35.7227 46.6243 35.7546 46.3368 35.81 46.0578C36.2104 44.2135 37.8396 42.8398 39.7882 42.8398H44.4351C46.3838 42.8398 48.013 44.2135 48.4134 46.0578C48.4687 46.3368 48.5007 46.6243 48.5007 46.9203Z" fill="#1D4524"/>
<path d="M42.0962 34.9961C43.8361 34.9961 45.2417 36.4336 45.2417 38.1991C45.2417 39.9646 43.8361 41.4107 42.0962 41.4107C40.3562 41.4107 38.957 39.9817 38.957 38.1991C38.957 36.4166 40.3626 34.9961 42.0962 34.9961Z" fill="#1D4524"/>
<path d="M15.9623 46.0578C16.3627 44.2135 17.9919 42.8398 19.9405 42.8398H24.596C26.5361 42.8398 28.1653 44.2135 28.5657 46.0578C28.6211 46.3368 28.653 46.6243 28.653 46.9203V50.4896H15.875V46.9203C15.875 46.6243 15.9069 46.3368 15.9623 46.0578Z" fill="#1D4524"/>
<path d="M22.2549 34.9961C23.9885 34.9961 25.394 36.4336 25.394 38.1991C25.394 39.9646 23.9885 41.4107 22.2549 41.4107C20.5213 41.4107 19.1094 39.9817 19.1094 38.1991C19.1094 36.4166 20.515 34.9961 22.2549 34.9961Z" fill="#1D4524"/>
<path d="M26.1333 28.3431H15.8789V24.3819C15.8789 22.1224 17.6913 20.293 19.9359 20.293H24.5914C26.8361 20.293 28.6569 22.1224 28.6569 24.3819V28.3431H26.1333Z" fill="#1D4524"/>
<path d="M22.2549 12.4512C23.9885 12.4512 25.394 13.8887 25.394 15.6627C25.394 17.4367 23.9885 18.8721 22.2549 18.8721C20.5213 18.8721 19.1094 17.4346 19.1094 15.6627C19.1094 13.8908 20.515 12.4512 22.2549 12.4512Z" fill="#1D4524"/>
<path d="M45.9855 28.3431H35.7227V24.3819C35.7227 22.1224 37.5435 20.293 39.7882 20.293H44.4437C46.6883 20.293 48.5007 22.1224 48.5007 24.3819V28.3431H45.9855Z" fill="#1D4524"/>
<path d="M42.0962 12.4512C43.8361 12.4512 45.2417 13.8887 45.2417 15.6627C45.2417 17.4367 43.8361 18.8721 42.0962 18.8721C40.3562 18.8721 38.957 17.4346 38.957 15.6627C38.957 13.8908 40.3626 12.4512 42.0962 12.4512Z" fill="#1D4524"/>
<path d="M22.2571 19.3919C20.2361 19.3919 18.5898 17.718 18.5898 15.6607C18.5898 13.6034 20.2361 11.9316 22.2571 11.9316C24.2782 11.9316 25.9159 13.6056 25.9159 15.6607C25.9159 17.7158 24.2739 19.3919 22.2571 19.3919ZM22.2571 12.9709C20.809 12.9709 19.6291 14.1784 19.6291 15.6607C19.6291 17.143 20.8068 18.3526 22.2571 18.3526C23.7074 18.3526 24.8766 17.1451 24.8766 15.6607C24.8766 14.1763 23.7011 12.9709 22.2571 12.9709Z" fill="white"/>
<path d="M26.1368 28.8621C25.8493 28.8621 25.6172 28.63 25.6172 28.3424V24.6134C25.6172 24.3259 25.8493 24.0938 26.1368 24.0938C26.4243 24.0938 26.6565 24.3259 26.6565 24.6134V28.3424C26.6565 28.63 26.4243 28.8621 26.1368 28.8621Z" fill="white"/>
<path d="M18.3556 28.8621C18.0681 28.8621 17.8359 28.63 17.8359 28.3424V24.6134C17.8359 24.3259 18.0681 24.0938 18.3556 24.0938C18.6431 24.0938 18.8752 24.3259 18.8752 24.6134V28.3424C18.8752 28.63 18.6431 28.8621 18.3556 28.8621Z" fill="white"/>
<path d="M28.6649 28.8609C28.3774 28.8609 28.1452 28.6288 28.1452 28.3413V24.3801C28.1452 22.4123 26.5544 20.8108 24.5993 20.8108H19.9439C17.9931 20.8108 16.4065 22.4123 16.4065 24.3801V28.3413C16.4065 28.6288 16.1743 28.8609 15.8868 28.8609C15.5993 28.8609 15.3672 28.6288 15.3672 28.3413V24.3801C15.3672 21.8394 17.4202 19.7715 19.9439 19.7715H24.5993C27.1272 19.7715 29.1845 21.8394 29.1845 24.3801V28.3413C29.1845 28.6288 28.9524 28.8609 28.6649 28.8609Z" fill="white"/>
<path d="M42.1002 19.3919C40.0834 19.3919 38.4414 17.718 38.4414 15.6607C38.4414 13.6034 40.0834 11.9316 42.1002 11.9316C44.117 11.9316 45.7653 13.6056 45.7653 15.6607C45.7653 17.7158 44.1212 19.3919 42.1002 19.3919ZM42.1002 12.9709C40.6563 12.9709 39.4807 14.1784 39.4807 15.6607C39.4807 17.143 40.6563 18.3526 42.1002 18.3526C43.5441 18.3526 44.7261 17.1451 44.7261 15.6607C44.7261 14.1763 43.5484 12.9709 42.1002 12.9709Z" fill="white"/>
<path d="M45.9884 28.8621C45.7009 28.8621 45.4688 28.63 45.4688 28.3424V24.6134C45.4688 24.3259 45.7009 24.0938 45.9884 24.0938C46.2759 24.0938 46.508 24.3259 46.508 24.6134V28.3424C46.508 28.63 46.2759 28.8621 45.9884 28.8621Z" fill="white"/>
<path d="M38.2032 28.8621C37.9157 28.8621 37.6836 28.63 37.6836 28.3424V24.6134C37.6836 24.3259 37.9157 24.0938 38.2032 24.0938C38.4907 24.0938 38.7229 24.3259 38.7229 24.6134V28.3424C38.7229 28.63 38.4907 28.8621 38.2032 28.8621Z" fill="white"/>
<path d="M48.5047 28.8609C48.2172 28.8609 47.9851 28.6288 47.9851 28.3413V24.3801C47.9851 22.4123 46.3985 20.8108 44.4477 20.8108H39.7922C37.8372 20.8108 36.2463 22.4123 36.2463 24.3801V28.3413C36.2463 28.6288 36.0142 28.8609 35.7267 28.8609C35.4392 28.8609 35.207 28.6288 35.207 28.3413V24.3801C35.207 21.8394 37.2643 19.7715 39.7922 19.7715H44.4477C46.9713 19.7715 49.0243 21.8394 49.0243 24.3801V28.3413C49.0243 28.6288 48.7922 28.8609 48.5047 28.8609Z" fill="white"/>
<path d="M22.2571 41.9283C20.2361 41.9283 18.5898 40.2544 18.5898 38.1992C18.5898 36.1441 20.234 34.4766 22.2571 34.4766C24.2803 34.4766 25.9159 36.1462 25.9159 38.1992C25.9159 40.2522 24.2739 41.9283 22.2571 41.9283ZM22.2571 35.5158C20.809 35.5158 19.6291 36.7191 19.6291 38.1992C19.6291 39.6794 20.8068 40.889 22.2571 40.889C23.7074 40.889 24.8766 39.6815 24.8766 38.1992C24.8766 36.717 23.7011 35.5158 22.2571 35.5158Z" fill="white"/>
<path d="M28.6553 51.3034C28.3678 51.3034 28.1356 51.0713 28.1356 50.7838V46.9185C28.1356 46.6714 28.1101 46.4158 28.0568 46.1582C27.7076 44.5375 26.2509 43.3576 24.5961 43.3576H19.9407C18.2816 43.3576 16.8228 44.5396 16.4714 46.1667C16.4203 46.4158 16.3947 46.6714 16.3947 46.9185V50.7433C16.3947 51.0308 16.1626 51.263 15.8751 51.263C15.5876 51.263 15.3555 51.0308 15.3555 50.7433V46.9185C15.3555 46.6033 15.3895 46.2774 15.4534 45.9537C15.9113 43.8432 17.7961 42.3184 19.9385 42.3184H24.594C26.7322 42.3184 28.6148 43.8453 29.0706 45.9473C29.1366 46.2795 29.1707 46.6033 29.1707 46.9206V50.7859C29.1707 51.0734 28.9385 51.3056 28.651 51.3056L28.6553 51.3034Z" fill="white"/>
<path d="M42.1002 41.9283C40.0834 41.9283 38.4414 40.2544 38.4414 38.1992C38.4414 36.1441 40.0834 34.4766 42.1002 34.4766C44.117 34.4766 45.7653 36.1462 45.7653 38.1992C45.7653 40.2522 44.1212 41.9283 42.1002 41.9283ZM42.1002 35.5158C40.6563 35.5158 39.4807 36.7191 39.4807 38.1992C39.4807 39.6794 40.6563 40.889 42.1002 40.889C43.5441 40.889 44.7261 39.6815 44.7261 38.1992C44.7261 36.717 43.5484 35.5158 42.1002 35.5158Z" fill="white"/>
<path d="M48.5029 51.3036C48.2154 51.3036 47.9833 51.0715 47.9833 50.784V46.9186C47.9833 46.6716 47.9577 46.416 47.9066 46.1562C47.5574 44.5377 46.0964 43.3557 44.4374 43.3557H39.7883C38.1293 43.3557 36.6705 44.5377 36.3191 46.1647C36.268 46.4139 36.2424 46.6695 36.2424 46.9165V50.7414C36.2424 51.0289 36.0103 51.261 35.7228 51.261C35.4353 51.261 35.2031 51.0289 35.2031 50.7414V46.9165C35.2031 46.6013 35.2372 46.2755 35.3011 45.9518C35.759 43.8413 37.6437 42.3164 39.7862 42.3164H44.4353C46.5798 42.3164 48.4646 43.8434 48.9203 45.9454C48.9864 46.2797 49.0204 46.6034 49.0204 46.9186V50.784C49.0204 51.0715 48.7883 51.3036 48.5008 51.3036H48.5029Z" fill="white"/>
<path d="M35.811 46.5764H28.5743C28.2868 46.5764 28.0547 46.3443 28.0547 46.0567C28.0547 45.7692 28.2868 45.5371 28.5743 45.5371H35.811C36.0985 45.5371 36.3306 45.7692 36.3306 46.0567C36.3306 46.3443 36.0985 46.5764 35.811 46.5764Z" fill="white"/>
<path d="M51.3616 46.5762H48.4141C48.1266 46.5762 47.8945 46.344 47.8945 46.0565C47.8945 45.769 48.1266 45.5369 48.4141 45.5369H50.8419V28.8615H13.5471V45.5369H15.9664C16.2539 45.5369 16.4903 45.769 16.4903 46.0565C16.4903 46.344 16.2624 46.5762 15.9749 46.5762H13.0275C12.7399 46.5762 12.5078 46.344 12.5078 46.0565V28.3419C12.5078 28.0544 12.7399 27.8223 13.0275 27.8223H51.3616C51.6491 27.8223 51.8812 28.0544 51.8812 28.3419V46.0565C51.8812 46.344 51.6491 46.5762 51.3616 46.5762Z" fill="white"/>
</g>
</g>
<defs>
<linearGradient id="paint0_linear_1018_30170" x1="64.0444" y1="32.0222" x2="14.2803" y2="-13.721" gradientUnits="userSpaceOnUse">
<stop stop-color="#1D4524"/>
<stop offset="1" stop-color="#7B9265"/>
</linearGradient>
<clipPath id="clip0_1018_30170">
<rect width="64.0444" height="64.0444" fill="white"/>
</clipPath>
<clipPath id="clip1_1018_30170">
<rect width="39.3734" height="39.3734" fill="white" transform="translate(12.5078 11.9316)"/>
</clipPath>
</defs>
</svg>
