<svg width="65" height="65" viewBox="0 0 65 65" fill="none" xmlns="http://www.w3.org/2000/svg">
<g clip-path="url(#clip0_1018_30135)">
<circle cx="32.0222" cy="32.0222" r="32.0222" fill="url(#paint0_linear_1018_30135)"/>
<g clip-path="url(#clip1_1018_30135)">
<path d="M34.006 43.836C34.3575 42.2878 34.9559 39.6597 34.9879 39.5469L39.0366 43.5954C38.9557 43.6124 36.3041 44.2172 34.7387 44.5708L34.0039 43.836H34.006Z" fill="white"/>
<path d="M53.7007 22.8326L51.6797 24.8535L53.7399 26.9136L55.7609 24.8927L53.7007 22.8326Z" fill="white"/>
<path d="M51.6762 24.8557L53.7379 26.9151V26.9236L54.7516 27.9288L52.6112 30.0691L46.126 36.5625L46.0302 36.6498L43.73 38.9499L39.0572 43.6139L39.0423 43.5989L34.9936 39.5504L34.9766 39.5334L44.0175 30.4929L44.0729 30.4376L46.2857 28.2248L46.3986 28.1141L50.6625 23.8398L51.6762 24.8557Z" fill="#1D4524"/>
<path d="M25.5673 19.2704L27.2605 18.2886V16.308H30.1272C29.6799 15.9098 29.4073 15.3262 29.4073 14.6873C29.4073 13.4585 30.4296 12.4512 31.699 12.4512C32.9683 12.4512 33.9991 13.4585 33.9991 14.6873C33.9991 15.3262 33.7201 15.9098 33.2814 16.308H36.1481V18.2886L37.8264 19.2704L38.4419 19.6303C39.1277 20.0285 38.706 20.7803 37.8029 20.7803H25.6078C24.6984 20.7803 24.2745 20.0307 24.9603 19.6303L25.5673 19.2704Z" fill="#1D4524"/>
<path d="M19.6816 19.2718V48.0948H43.9122V40.9391V40.7559V39.1417L43.729 38.95L46.0292 36.6499L46.125 36.5626L46.174 36.6116V38.4325V38.6795V50.7867H17.4219V16.582H27.2615V18.29L25.5683 19.2718H19.6816Z" fill="#1D4524"/>
<path d="M46.1734 16.582V25.9164V26.0612V28.1142L46.2841 28.225L44.0712 30.4377L44.0159 30.4931L43.9115 30.3887V28.4976V28.1781V19.2718H37.8267L36.1484 18.29V16.582H46.1734Z" fill="#1D4524"/>
<path d="M46.1742 51.3045H17.422C17.1345 51.3045 16.9023 51.0724 16.9023 50.7849V16.5802C16.9023 16.2927 17.1345 16.0605 17.422 16.0605H27.2616C27.5492 16.0605 27.7813 16.2927 27.7813 16.5802C27.7813 16.8677 27.5492 17.0998 27.2616 17.0998H17.9396V50.2652H45.6545V38.6777C45.6545 38.3902 45.8866 38.158 46.1742 38.158C46.4617 38.158 46.6938 38.3902 46.6938 38.6777V50.7849C46.6938 51.0724 46.4617 51.3045 46.1742 51.3045Z" fill="white"/>
<path d="M46.1696 26.4342C45.8821 26.4342 45.6499 26.2021 45.6499 25.9145V17.0998H36.1447C35.8571 17.0998 35.625 16.8677 35.625 16.5802C35.625 16.2927 35.8571 16.0605 36.1447 16.0605H46.1674C46.455 16.0605 46.6871 16.2927 46.6871 16.5802V25.9167C46.6871 26.2042 46.455 26.4363 46.1674 26.4363L46.1696 26.4342Z" fill="white"/>
<path d="M43.9104 48.6123H19.6798C19.3923 48.6123 19.1602 48.3801 19.1602 48.0926V19.2696C19.1602 18.9821 19.3923 18.75 19.6798 18.75H25.5666C25.8541 18.75 26.0862 18.9821 26.0862 19.2696C26.0862 19.5571 25.8541 19.7893 25.5666 19.7893H20.1995V47.573H43.3929V40.9369C43.3929 40.6494 43.625 40.4173 43.9126 40.4173C44.2001 40.4173 44.4322 40.6494 44.4322 40.9369V48.0926C44.4322 48.3801 44.2001 48.6123 43.9126 48.6123H43.9104Z" fill="white"/>
<path d="M43.9113 28.6934C43.6238 28.6934 43.3916 28.4613 43.3916 28.1738V19.7893H37.8244C37.5368 19.7893 37.3047 19.5571 37.3047 19.2696C37.3047 18.9821 37.5368 18.75 37.8244 18.75H43.9113C44.1988 18.75 44.431 18.9821 44.431 19.2696V28.1738C44.431 28.4613 44.1988 28.6934 43.9113 28.6934Z" fill="white"/>
<path d="M36.1442 18.8112C35.8567 18.8112 35.6245 18.5834 35.6245 18.2959V16.8264H33.2775C32.99 16.8264 32.7578 16.5943 32.7578 16.3067C32.7578 16.0192 32.99 15.7871 33.2775 15.7871H36.1442C36.4317 15.7871 36.6638 16.0192 36.6638 16.3067V18.2873C36.6638 18.5749 36.4317 18.8112 36.1442 18.8112Z" fill="white"/>
<path d="M27.2579 18.807C26.9704 18.807 26.7383 18.5749 26.7383 18.2873V16.3067C26.7383 16.0192 26.9704 15.7871 27.2579 15.7871H30.1246C30.4122 15.7871 30.6443 16.0192 30.6443 16.3067C30.6443 16.5943 30.4122 16.8264 30.1246 16.8264H27.7776V18.2873C27.7776 18.5749 27.5455 18.807 27.2579 18.807Z" fill="white"/>
<path d="M37.8027 21.2989H25.6075C24.877 21.2989 24.285 20.9262 24.1359 20.3725C24.0123 19.9125 24.2274 19.4567 24.7003 19.182L27.0004 17.8382C27.2475 17.6934 27.5648 17.7785 27.7096 18.0277C27.8545 18.2748 27.7693 18.5921 27.5222 18.7369L25.2263 20.0765C25.1646 20.1127 25.139 20.1404 25.1347 20.1489C25.1603 20.1489 25.3072 20.2596 25.6097 20.2596H37.8048C38.0604 20.2596 38.2074 20.1702 38.2542 20.1191C38.2415 20.1169 38.218 20.0978 38.1839 20.0786L35.8902 18.7348C35.6431 18.59 35.56 18.2726 35.7049 18.0256C35.8497 17.7785 36.167 17.6955 36.4162 17.8403L38.7079 19.182C39.1786 19.4567 39.3958 19.9125 39.2723 20.3725C39.1232 20.9262 38.5332 21.2989 37.807 21.2989H37.8027Z" fill="white"/>
<path d="M30.1241 16.8278C30.0006 16.8278 29.8771 16.783 29.7791 16.6957C29.2126 16.1889 28.8867 15.4562 28.8867 14.6874C28.8867 13.169 30.1476 11.9316 31.698 11.9316C33.2485 11.9316 34.5179 13.1669 34.5179 14.6874C34.5179 15.4477 34.1941 16.1803 33.6298 16.6936C33.4168 16.8853 33.0888 16.8704 32.8971 16.6595C32.7054 16.4465 32.7203 16.1186 32.9312 15.9269C33.2805 15.6096 33.4807 15.1581 33.4807 14.6896C33.4807 13.7419 32.682 12.9731 31.7002 12.9731C30.7183 12.9731 29.9261 13.7419 29.9261 14.6896C29.9261 15.1645 30.1241 15.6138 30.4713 15.9248C30.6843 16.1164 30.7034 16.4444 30.5117 16.6574C30.4095 16.7724 30.2668 16.832 30.1241 16.832V16.8278Z" fill="white"/>
<path d="M40.9916 27.3479H27.4142C27.1267 27.3479 26.8945 27.1157 26.8945 26.8282C26.8945 26.5407 27.1267 26.3086 27.4142 26.3086H40.9916C41.2791 26.3086 41.5113 26.5407 41.5113 26.8282C41.5113 27.1157 41.2791 27.3479 40.9916 27.3479Z" fill="white"/>
<path d="M32.2467 43.3186H27.4142C27.1267 43.3186 26.8945 43.0864 26.8945 42.7989C26.8945 42.5114 27.1267 42.2793 27.4142 42.2793H32.2467C32.5342 42.2793 32.7664 42.5114 32.7664 42.7989C32.7664 43.0864 32.5342 43.3186 32.2467 43.3186Z" fill="white"/>
<path d="M37.2368 35.3342H27.4142C27.1267 35.3342 26.8945 35.1021 26.8945 34.8146C26.8945 34.5271 27.1267 34.2949 27.4142 34.2949H37.2368C37.5243 34.2949 37.7564 34.5271 37.7564 34.8146C37.7564 35.1021 37.5243 35.3342 37.2368 35.3342Z" fill="white"/>
<path d="M23.11 28.2407C22.978 28.2407 22.8459 28.1896 22.7437 28.0895L21.6106 26.9629C21.4062 26.7606 21.4062 26.4326 21.6085 26.2282C21.8108 26.0259 22.1388 26.0237 22.3433 26.226L23.11 26.9863L24.4369 25.6596C24.6392 25.4572 24.9672 25.4572 25.1716 25.6596C25.374 25.8619 25.374 26.192 25.1716 26.3943L23.4785 28.0874C23.3762 28.1896 23.2442 28.2386 23.1121 28.2386L23.11 28.2407Z" fill="white"/>
<path d="M23.11 36.227C22.978 36.227 22.8459 36.1759 22.7437 36.0758L21.6106 34.9492C21.4062 34.7469 21.4062 34.419 21.6085 34.2145C21.8108 34.0101 22.1388 34.0101 22.3433 34.2124L23.11 34.9727L24.4369 33.6459C24.6392 33.4436 24.9672 33.4436 25.1716 33.6459C25.374 33.8482 25.374 34.1783 25.1716 34.3806L23.4785 36.0737C23.3762 36.1759 23.2442 36.2249 23.1121 36.2249L23.11 36.227Z" fill="white"/>
<path d="M23.11 44.1177C22.978 44.1177 22.8459 44.0666 22.7437 43.9665L21.6106 42.8399C21.4062 42.6375 21.4062 42.3096 21.6085 42.1051C21.8108 41.9007 22.1388 41.9007 22.3433 42.103L23.11 42.8633L24.4369 41.5365C24.6392 41.3342 24.9672 41.3342 25.1716 41.5365C25.3761 41.7388 25.374 42.0689 25.1716 42.2712L23.4785 43.9643C23.3762 44.0666 23.2442 44.1155 23.1121 44.1155L23.11 44.1177Z" fill="white"/>
<path d="M39.0536 44.1338C38.9236 44.1338 38.7916 44.0848 38.6915 43.9847L34.6215 39.9149C34.4191 39.7126 34.4021 39.3676 34.6044 39.1653L50.2903 23.4717C50.3883 23.3737 50.5203 23.3184 50.6566 23.3184C50.7951 23.3184 50.9271 23.3737 51.023 23.4696L54.0984 26.5448C54.1176 26.564 54.1346 26.5831 54.1495 26.6044L55.1122 27.5585C55.2101 27.6565 55.2655 27.7885 55.2655 27.927C55.2655 28.0654 55.2123 28.1974 55.1143 28.2954L44.0926 39.3165L39.4199 43.9804C39.3198 44.0827 39.1856 44.1317 39.0536 44.1317V44.1338ZM35.7077 39.5337L39.0536 42.8794L54.0111 27.9291L53.3679 27.2902C53.3487 27.271 53.3295 27.2497 53.3146 27.2284L50.6588 24.5727L35.7077 39.5316V39.5337Z" fill="white"/>
<path d="M34.0043 44.3579C33.966 44.3579 33.9277 44.3537 33.8893 44.3451C33.6103 44.2812 33.4335 44.0044 33.4974 43.7254C33.506 43.6849 34.377 39.8473 34.4793 39.4384C34.5304 39.2062 34.737 39.0273 34.9862 39.0273C35.2737 39.0273 35.5058 39.2552 35.5058 39.5427V39.5512C35.5058 39.6002 35.4994 39.6471 35.4867 39.6939C35.4483 39.843 34.8925 42.2772 34.5112 43.9554C34.4558 44.1961 34.2429 44.36 34.0065 44.36L34.0043 44.3579Z" fill="white"/>
<path d="M34.742 45.0904C34.5034 45.0904 34.2904 44.9264 34.2351 44.6858C34.1733 44.4068 34.3479 44.1278 34.6291 44.066C35.5555 43.8573 36.8632 43.5613 37.7918 43.3483C38.4414 43.2014 38.9078 43.0949 38.9398 43.0885C39.223 43.031 39.4935 43.2184 39.5489 43.4995C39.6043 43.7807 39.4211 44.0532 39.1378 44.1086C39.0889 44.1193 38.6395 44.2215 38.0197 44.3621C37.089 44.575 35.7813 44.871 34.8548 45.0798C34.8165 45.0883 34.7782 45.0925 34.742 45.0925V45.0904Z" fill="white"/>
<path d="M34.7372 45.0927C34.6052 45.0927 34.471 45.0416 34.3709 44.9415L33.6361 44.2068C33.4338 44.0045 33.4338 43.6744 33.6361 43.4721C33.8385 43.2697 34.1664 43.2697 34.3709 43.4721L35.1057 44.2068C35.308 44.4091 35.308 44.7392 35.1057 44.9415C35.0034 45.0438 34.8714 45.0927 34.7394 45.0927H34.7372Z" fill="white"/>
<path d="M33.6157 45.5484C33.4837 45.5484 33.3495 45.4973 33.2494 45.3972C33.0471 45.1949 33.0471 44.8669 33.2494 44.6624L33.8969 44.015C34.0992 43.8127 34.4293 43.8127 34.6316 44.015C34.834 44.2173 34.834 44.5453 34.6316 44.7498L33.9842 45.3972C33.882 45.4994 33.7499 45.5484 33.6179 45.5484H33.6157Z" fill="white"/>
<path d="M53.7303 27.4326C53.5982 27.4326 53.4641 27.3815 53.364 27.2814C53.1616 27.0791 53.1616 26.749 53.364 26.5466L55.0167 24.894L53.6898 23.5672L52.035 25.222C51.8326 25.4243 51.5046 25.4243 51.3002 25.222C51.0979 25.0197 51.0979 24.6896 51.3002 24.4873L53.3214 22.4662C53.5237 22.2639 53.8517 22.2639 54.0561 22.4662L56.1178 24.5277C56.2157 24.6257 56.269 24.7577 56.269 24.894C56.269 25.0303 56.2136 25.1645 56.1178 25.2603L54.0966 27.2793C53.9944 27.3815 53.8623 27.4305 53.7303 27.4305V27.4326Z" fill="white"/>
<path d="M53.9484 31.9287C53.8163 31.9287 53.6821 31.8775 53.582 31.7775L49.0775 27.2732C48.8752 27.0709 48.8752 26.7408 49.0775 26.5385C49.2799 26.3361 49.6078 26.3361 49.8123 26.5385L54.3168 31.0427C54.5191 31.245 54.5191 31.5751 54.3168 31.7775C54.2146 31.8797 54.0825 31.9287 53.9505 31.9287H53.9484Z" fill="white"/>
<path d="M47.765 38.0561C47.6308 38.0561 47.4988 38.0049 47.3965 37.9027C47.1942 37.6983 47.1963 37.3703 47.4008 37.168L54.9892 29.6524C55.1937 29.4501 55.5217 29.4522 55.724 29.6566C55.9263 29.8611 55.9242 30.189 55.7197 30.3914L48.1334 37.907C48.0312 38.0071 47.9013 38.0582 47.7671 38.0582L47.765 38.0561Z" fill="white"/>
</g>
</g>
<defs>
<linearGradient id="paint0_linear_1018_30135" x1="64.0444" y1="32.0222" x2="14.2803" y2="-13.721" gradientUnits="userSpaceOnUse">
<stop stop-color="#1D4524"/>
<stop offset="1" stop-color="#7B9265"/>
</linearGradient>
<clipPath id="clip0_1018_30135">
<rect width="64.0444" height="64.0444" fill="white"/>
</clipPath>
<clipPath id="clip1_1018_30135">
<rect width="39.3734" height="39.3734" fill="white" transform="translate(16.9023 11.9316)"/>
</clipPath>
</defs>
</svg>
