<svg width="65" height="65" viewBox="0 0 65 65" fill="none" xmlns="http://www.w3.org/2000/svg">
<g clip-path="url(#clip0_1018_30114)">
<circle cx="32.0222" cy="32.0222" r="32.0222" fill="url(#paint0_linear_1018_30114)"/>
<g clip-path="url(#clip1_1018_30114)">
<path d="M28.3509 43.1627C28.1391 43.1627 27.9363 43.0362 27.8493 42.8262C27.5885 42.1982 27.2296 41.6042 26.7793 41.0598C26.2465 40.4116 25.6981 39.7814 25.1519 39.158C23.5379 37.3261 22.6484 34.8822 22.6484 32.2778C22.6484 30.0281 23.2726 27.9998 24.4541 26.4141C26.8751 23.1774 31.133 21.8718 35.0499 23.1706C38.9422 24.4603 41.4033 27.9456 41.4746 32.2688C41.517 34.8257 40.632 37.2742 38.9801 39.1557C38.4228 39.7814 37.8744 40.4116 37.3438 41.0576C36.9069 41.5884 36.5524 42.1734 36.2893 42.8013C36.1734 43.0814 35.8546 43.2124 35.576 43.0927C35.2996 42.973 35.1703 42.65 35.2884 42.3699C35.5938 41.6426 36.004 40.9627 36.5078 40.3506C37.0473 39.6933 37.6046 39.0518 38.1686 38.4194C39.6355 36.7479 40.4224 34.5659 40.3845 32.2846C40.3221 28.3883 38.1998 25.3729 34.7088 24.2164C31.2334 23.0644 27.457 24.2141 25.3169 27.0782C24.2803 28.4696 23.7296 30.2676 23.7296 32.2778C23.7296 34.6111 24.521 36.7953 25.9567 38.4239C26.5118 39.0563 27.0691 39.6955 27.6063 40.3528C28.1258 40.9808 28.5404 41.6697 28.8436 42.397C28.9595 42.6771 28.8302 43.0001 28.5538 43.1175C28.4847 43.1469 28.4133 43.1605 28.3442 43.1605L28.3509 43.1627Z" fill="white"/>
<path d="M35.3285 44.6042H28.79C28.4891 44.6042 28.2461 44.358 28.2461 44.0531C28.2461 43.7482 28.4891 43.502 28.79 43.502H35.3285C35.6294 43.502 35.8724 43.7482 35.8724 44.0531C35.8724 44.358 35.6294 44.6042 35.3285 44.6042Z" fill="white"/>
<path d="M34.4112 47.0437H29.7119C29.411 47.0437 29.168 46.7975 29.168 46.4925C29.168 46.1876 29.411 45.9414 29.7119 45.9414H34.4112C34.7122 45.9414 34.9552 46.1876 34.9552 46.4925C34.9552 46.7975 34.7122 47.0437 34.4112 47.0437Z" fill="white"/>
<path d="M34.4112 49.1784H29.7119C29.411 49.1784 29.168 48.9322 29.168 48.6273C29.168 48.3224 29.411 48.0762 29.7119 48.0762H34.4112C34.7122 48.0762 34.9552 48.3224 34.9552 48.6273C34.9552 48.9322 34.7122 49.1784 34.4112 49.1784Z" fill="white"/>
<path d="M32.0622 52.4972C31.0434 52.4972 30.1182 51.7044 29.7081 50.4801C29.688 50.4282 29.6635 50.3581 29.6479 50.2881C29.5877 49.99 29.7772 49.6986 30.0714 49.6376C30.3612 49.5789 30.6533 49.7686 30.7135 50.0668C30.9966 50.898 31.516 51.3972 32.0622 51.3972C32.6083 51.3972 33.179 50.8506 33.422 50.0351C33.509 49.7438 33.8144 49.5834 34.0997 49.667C34.3873 49.7551 34.5478 50.0623 34.4609 50.3536C34.0707 51.6569 33.1278 52.4994 32.0599 52.4994L32.0622 52.4972Z" fill="white"/>
<path d="M32.165 17.7107C31.8641 17.7107 31.6211 17.4645 31.6211 17.1596V11.2914C31.6211 10.9864 31.8641 10.7402 32.165 10.7402C32.466 10.7402 32.709 10.9864 32.709 11.2914V17.1618C32.709 17.4668 32.466 17.713 32.165 17.713V17.7107Z" fill="white"/>
<path d="M25.4732 19.4723C25.286 19.4723 25.1032 19.373 25.0029 19.1968L22.1115 14.1146C21.9621 13.8503 22.0513 13.5138 22.3099 13.3624C22.5685 13.2111 22.9029 13.3015 23.0522 13.5635L25.9436 18.6456C26.093 18.9099 26.0038 19.2465 25.7452 19.3978C25.6605 19.4475 25.5669 19.4723 25.4732 19.4723Z" fill="white"/>
<path d="M20.5474 24.3854C20.456 24.3854 20.3624 24.3606 20.2755 24.3109L15.2596 21.3723C14.9988 21.2209 14.9118 20.8844 15.0612 20.6201C15.2106 20.3581 15.5449 20.2677 15.8035 20.4191L20.8194 23.3577C21.0802 23.509 21.1672 23.8456 21.0178 24.1099C20.9175 24.2861 20.7347 24.3854 20.5474 24.3854Z" fill="white"/>
<path d="M18.7128 31.1355H12.9189C12.618 31.1355 12.375 30.8893 12.375 30.5843C12.375 30.2794 12.618 30.0332 12.9189 30.0332H18.7128C19.0138 30.0332 19.2568 30.2794 19.2568 30.5843C19.2568 30.8893 19.0138 31.1355 18.7128 31.1355Z" fill="white"/>
<path d="M15.4373 40.8452C15.2501 40.8452 15.0673 40.7458 14.967 40.5696C14.8176 40.3053 14.9068 39.9688 15.1654 39.8174L20.1812 36.8878C20.4398 36.7365 20.7742 36.8268 20.9236 37.0889C21.0729 37.3531 20.9838 37.6897 20.7252 37.841L15.7093 40.7706C15.6246 40.8203 15.531 40.8452 15.4373 40.8452Z" fill="white"/>
<path d="M48.5875 41.0209C48.4961 41.0209 48.4025 40.9961 48.3155 40.9464L43.2997 38.0168C43.0388 37.8655 42.9497 37.5289 43.1012 37.2646C43.2506 37.0026 43.585 36.9123 43.8436 37.0636L48.8595 39.9932C49.1203 40.1445 49.2094 40.4811 49.0579 40.7454C48.9575 40.9216 48.7747 41.0209 48.5875 41.0209Z" fill="white"/>
<path d="M51.205 31.3386H45.4111C45.1102 31.3386 44.8672 31.0924 44.8672 30.7875C44.8672 30.4825 45.1102 30.2363 45.4111 30.2363H51.205C51.506 30.2363 51.749 30.4825 51.749 30.7875C51.749 31.0924 51.506 31.3386 51.205 31.3386Z" fill="white"/>
<path d="M43.6756 24.5622C43.4884 24.5622 43.3056 24.4628 43.2052 24.2867C43.0559 24.0224 43.145 23.6858 43.4036 23.5345L48.4284 20.5959C48.6892 20.4423 49.0192 20.5349 49.1708 20.7969C49.3201 21.0612 49.231 21.3977 48.9724 21.5491L43.9476 24.4877C43.8629 24.5374 43.7692 24.5622 43.6756 24.5622Z" fill="white"/>
<path d="M38.8245 19.5715C38.7331 19.5715 38.6395 19.5467 38.5526 19.497C38.2917 19.3456 38.2048 19.0091 38.3542 18.7448L41.2544 13.6626C41.4038 13.3984 41.7382 13.308 41.9968 13.4616C42.2576 13.6129 42.3446 13.9495 42.1952 14.2138L39.2949 19.2959C39.1946 19.4721 39.0118 19.5715 38.8245 19.5715Z" fill="white"/>
<path d="M30.5557 36.0131C30.4152 36.0131 30.277 35.9589 30.1723 35.8527L27.1627 32.8034C26.951 32.5889 26.951 32.2388 27.1627 32.0242C27.3745 31.8096 27.7178 31.8096 27.9318 32.0242L30.5914 34.7189L36.2292 29.9574C36.461 29.7632 36.8021 29.7948 36.9938 30.0274C37.1855 30.2601 37.1543 30.6079 36.9247 30.8022L30.9057 35.8844C30.8054 35.9702 30.6805 36.0131 30.5579 36.0131H30.5557Z" fill="white"/>
</g>
</g>
<defs>
<linearGradient id="paint0_linear_1018_30114" x1="64.0444" y1="32.0222" x2="14.2803" y2="-13.721" gradientUnits="userSpaceOnUse">
<stop stop-color="#1D4524"/>
<stop offset="1" stop-color="#7B9265"/>
</linearGradient>
<clipPath id="clip0_1018_30114">
<rect width="64.0444" height="64.0444" fill="white"/>
</clipPath>
<clipPath id="clip1_1018_30114">
<rect width="39.3734" height="41.7597" fill="white" transform="translate(12.375 10.7402)"/>
</clipPath>
</defs>
</svg>
