<svg width="65" height="65" viewBox="0 0 65 65" fill="none" xmlns="http://www.w3.org/2000/svg">
<g clip-path="url(#clip0_1018_30200)">
<circle cx="32.0222" cy="32.0222" r="32.0222" fill="url(#paint0_linear_1018_30200)"/>
<g clip-path="url(#clip1_1018_30200)">
<path d="M24.3792 38.6992C25.323 38.6992 26.0957 39.4754 26.0957 40.4312C26.0957 41.3871 25.323 42.1633 24.3792 42.1633C23.4354 42.1633 22.6602 41.3871 22.6602 40.4312C22.6602 39.4754 23.4253 38.6992 24.3792 38.6992Z" fill="white"/>
<path d="M55.2345 47.7218H9.93053C9.59075 47.7218 9.31641 47.4498 9.31641 47.1129C9.31641 46.7759 9.59075 46.5039 9.93053 46.5039H55.2345C55.5743 46.5039 55.8486 46.7759 55.8486 47.1129C55.8486 47.4498 55.5743 47.7218 55.2345 47.7218Z" fill="white"/>
<path d="M16.0376 47.7254C15.7633 47.7254 15.5116 47.5407 15.4436 47.2637L12.1314 34.0589C12.0861 33.8767 12.1264 33.6846 12.2447 33.5373C12.3604 33.3901 12.5391 33.3027 12.7279 33.3027H33.1046C33.384 33.3027 33.6281 33.4899 33.6986 33.7594C33.6986 33.7594 33.8698 34.4183 34.1164 35.4041C34.3404 36.2527 34.6248 37.3757 34.9218 38.5487L35.9235 42.4944C36.1123 43.2431 36.2709 43.8621 36.3715 44.2539H44.1865C44.5262 44.2539 44.8006 44.5259 44.8006 44.8629C44.8006 45.1998 44.5262 45.4718 44.1865 45.4718H35.8984C35.6265 45.4718 35.3874 45.2971 35.3119 45.04C35.2742 44.9128 35.0477 44.0218 34.7356 42.7939L33.7338 38.8457C33.4369 37.6777 33.155 36.5596 32.9284 35.7061C32.8076 35.2169 32.7019 34.8076 32.6289 34.5231H13.5107L16.6341 46.9742C16.7172 47.3012 16.5158 47.6306 16.1861 47.7105C16.1358 47.7229 16.0854 47.7279 16.0376 47.7279V47.7254Z" fill="white"/>
<path d="M44.1922 47.7233C43.8525 47.7233 43.5781 47.4512 43.5781 47.1143V44.9156C43.5781 44.5787 43.8525 44.3066 44.1922 44.3066C44.532 44.3066 44.8064 44.5787 44.8064 44.9156V47.1143C44.8064 47.4512 44.532 47.7233 44.1922 47.7233Z" fill="white"/>
<path d="M45.1932 42.1744C45.1403 42.1744 45.0875 42.1669 45.0346 42.1545C44.7074 42.0671 44.5111 41.7352 44.5992 41.4107L45.8727 36.6664C45.9583 36.342 46.2956 36.1448 46.6228 36.2346C46.95 36.322 47.1463 36.6539 47.0582 36.9784L45.7847 41.7227C45.7117 41.9947 45.465 42.1744 45.1932 42.1744Z" fill="white"/>
<path d="M45.0994 42.1749H38.1805C37.8407 42.1749 37.5664 41.9029 37.5664 41.566C37.5664 41.2291 37.8407 40.957 38.1805 40.957H45.0994C45.4392 40.957 45.7136 41.2291 45.7136 41.566C45.7136 41.9029 45.4392 42.1749 45.0994 42.1749Z" fill="white"/>
<path d="M52.6819 47.7247C52.3421 47.7247 52.0678 47.4526 52.0678 47.1157V39.1619C52.0678 33.6514 47.9149 29.1666 42.8081 29.1666C40.329 29.1666 38.0059 30.1973 36.2642 32.0691C35.3103 33.0948 34.5779 34.3327 34.0922 35.7478C33.9814 36.0647 33.6341 36.2344 33.3144 36.1271C32.9948 36.0173 32.8211 35.6729 32.9319 35.3534C33.4755 33.7786 34.2935 32.396 35.3632 31.2455C37.3389 29.1217 39.9817 27.9512 42.8081 27.9512C48.5894 27.9512 53.2935 32.98 53.2935 39.1619V47.1157C53.2935 47.4526 53.0191 47.7247 52.6794 47.7247H52.6819Z" fill="white"/>
<path d="M42.2209 26.6026C39.1931 26.6026 36.7266 24.1119 36.7266 21.0522C36.7266 17.9925 39.1906 15.5117 42.2209 15.5117C45.2513 15.5117 47.7153 17.9974 47.7153 21.0522C47.7153 24.1069 45.2513 26.6026 42.2209 26.6026ZM42.2209 16.7271C39.8676 16.7271 37.9548 18.6663 37.9548 21.0522C37.9548 23.4381 39.8676 25.3847 42.2209 25.3847C44.5742 25.3847 46.487 23.4406 46.487 21.0522C46.487 18.6638 44.5742 16.7271 42.2209 16.7271Z" fill="white"/>
</g>
</g>
<defs>
<linearGradient id="paint0_linear_1018_30200" x1="64.0444" y1="32.0222" x2="14.2803" y2="-13.721" gradientUnits="userSpaceOnUse">
<stop stop-color="#1D4524"/>
<stop offset="1" stop-color="#7B9265"/>
</linearGradient>
<clipPath id="clip0_1018_30200">
<rect width="64.0444" height="64.0444" fill="white"/>
</clipPath>
<clipPath id="clip1_1018_30200">
<rect width="46.5322" height="32.2146" fill="white" transform="translate(9.31641 15.5117)"/>
</clipPath>
</defs>
</svg>
