<svg width="21" height="21" viewBox="0 0 21 21" fill="none" xmlns="http://www.w3.org/2000/svg">
<rect x="0.492188" y="0.835938" width="20" height="20.0017" fill="#222222"/>
<path fill-rule="evenodd" clip-rule="evenodd" d="M15.2766 9.1485C15.2192 8.94095 15.0997 8.77342 14.918 8.64593C14.6904 8.48463 14.3944 8.40398 14.0298 8.40398C13.7735 8.40398 13.5536 8.44265 13.3702 8.51999C13.1868 8.59732 13.0465 8.70228 12.9493 8.83485C12.8521 8.96742 12.8024 9.11878 12.8002 9.28891C12.8002 9.43033 12.8322 9.55296 12.8963 9.65681C12.9626 9.76066 13.0521 9.84904 13.1647 9.92195C13.2774 9.99266 13.4023 10.0523 13.5393 10.1009C13.6763 10.1495 13.8144 10.1904 13.9536 10.2236L14.5899 10.3826C14.8462 10.4423 15.0926 10.523 15.329 10.6246C15.5676 10.7262 15.7809 10.8544 15.9687 11.0091C16.1587 11.1637 16.309 11.3504 16.4194 11.5692C16.5299 11.7879 16.5851 12.0442 16.5851 12.3381C16.5851 12.7358 16.4835 13.086 16.2802 13.3888C16.0769 13.6893 15.7831 13.9246 15.3986 14.0947C15.0164 14.2626 14.5535 14.3466 14.0099 14.3466C13.4818 14.3466 13.0233 14.2648 12.6345 14.1013C12.2478 13.9378 11.9451 13.6992 11.7263 13.3854C11.5098 13.0717 11.3927 12.6894 11.375 12.2387H12.5847C12.6024 12.4751 12.6753 12.6718 12.8035 12.8286C12.9316 12.9855 13.0985 13.1026 13.3039 13.18C13.5116 13.2573 13.7437 13.296 14 13.296C14.2673 13.296 14.5015 13.2562 14.7026 13.1766C14.9059 13.0949 15.065 12.9822 15.1799 12.8386C15.2948 12.6927 15.3533 12.5226 15.3555 12.3282C15.3533 12.1514 15.3014 12.0056 15.1998 11.8907C15.0981 11.7736 14.9556 11.6763 14.7722 11.599C14.591 11.5195 14.3789 11.4488 14.1358 11.3869L13.3636 11.188C12.8046 11.0444 12.3627 10.8268 12.0379 10.5351C11.7153 10.2412 11.554 9.85125 11.554 9.36514C11.554 8.96521 11.6622 8.615 11.8788 8.3145C12.0975 8.014 12.3947 7.78089 12.7703 7.61517C13.146 7.44724 13.5713 7.36328 14.0464 7.36328C14.528 7.36328 14.9501 7.44724 15.3124 7.61517C15.677 7.78089 15.9632 8.01179 16.1709 8.30787C16.3465 8.55646 16.4503 8.83667 16.4821 9.1485H15.2766Z" fill="#F7F7F7"/>
<path fill-rule="evenodd" clip-rule="evenodd" d="M11.3768 8.21554L5.2786 14.3138L4.40234 13.4375L10.5006 7.33928L11.3768 8.21554Z" fill="#F7F7F7"/>
</svg>
